<svg width="16" height="16" viewBox="0 0 16 16" fill="none" xmlns="http://www.w3.org/2000/svg">
<rect width="16" height="16" rx="1.5" fill="#C1BDB3"/>
<path d="M3 3.3875L3.5625 2.8125C3.75417 2.62083 3.89583 2.49167 3.9875 2.425C4.0875 2.35833 4.19167 2.325 4.3 2.325C4.40833 2.325 4.50833 2.35833 4.6 2.425C4.7 2.49167 4.84583 2.62083 5.0375 2.8125L5.6 3.3875L5.0375 3.95C4.84583 4.15 4.7 4.28333 4.6 4.35C4.50833 4.41667 4.40833 4.45 4.3 4.45C4.19167 4.45 4.0875 4.41667 3.9875 4.35C3.89583 4.28333 3.75417 4.15 3.5625 3.95L3 3.3875ZM9.575 5.6875L10.4625 4.7875C10.7625 4.47917 10.9875 4.27083 11.1375 4.1625C11.2875 4.05417 11.45 4 11.625 4C11.8 4 11.9625 4.05417 12.1125 4.1625C12.2625 4.27083 12.4917 4.47917 12.8 4.7875L13.6875 5.6875L12.8 6.5875C12.4917 6.89583 12.2625 7.10417 12.1125 7.2125C11.9625 7.3125 11.8 7.3625 11.625 7.3625C11.45 7.3625 11.2875 7.3125 11.1375 7.2125C10.9875 7.10417 10.7625 6.89583 10.4625 6.5875L9.575 5.6875ZM9.575 10.3125L10.4625 9.4125C10.7625 9.10417 10.9875 8.89583 11.1375 8.7875C11.2875 8.67917 11.45 8.625 11.625 8.625C11.8 8.625 11.9625 8.67917 12.1125 8.7875C12.2625 8.89583 12.4917 9.10417 12.8 9.4125L13.6875 10.3125L12.8 11.2125C12.4917 11.5208 12.2625 11.7292 12.1125 11.8375C11.9625 11.9375 11.8 11.9875 11.625 11.9875C11.45 11.9875 11.2875 11.9375 11.1375 11.8375C10.9875 11.7292 10.7625 11.5208 10.4625 11.2125L9.575 10.3125ZM7.1 8L7.8375 7.2625C8.0875 6.9875 8.275 6.80833 8.4 6.725C8.53333 6.63333 8.67083 6.5875 8.8125 6.5875C8.9625 6.5875 9.1 6.63333 9.225 6.725C9.35833 6.80833 9.55417 6.97917 9.8125 7.2375L10.55 8.0125L9.8 8.775C9.54167 9.025 9.34583 9.19583 9.2125 9.2875C9.0875 9.37083 8.95833 9.4125 8.825 9.4125C8.68333 9.4125 8.54583 9.37083 8.4125 9.2875C8.2875 9.19583 8.1 9.01667 7.85 8.75L7.1 8ZM7.1 12.6125L7.85 11.8625C8.1 11.6042 8.2875 11.4292 8.4125 11.3375C8.54583 11.2458 8.68333 11.2 8.825 11.2C8.96667 11.2 9.1 11.2458 9.225 11.3375C9.35833 11.4292 9.55417 11.6042 9.8125 11.8625L10.55 12.6125L9.8125 13.375C9.55417 13.6333 9.35833 13.8083 9.225 13.9C9.1 13.9917 8.96667 14.0333 8.825 14.025C8.68333 14.0333 8.54583 13.9917 8.4125 13.9C8.2875 13.8083 8.1 13.6333 7.85 13.375L7.1 12.6125ZM4.625 10.3125L5.3625 9.575C5.6125 9.3 5.8 9.12083 5.925 9.0375C6.05833 8.94583 6.19583 8.9 6.3375 8.9C6.4875 8.9 6.625 8.94583 6.75 9.0375C6.88333 9.12083 7.07917 9.29167 7.3375 9.55L8.075 10.325L7.325 11.0875C7.06667 11.3375 6.87083 11.5083 6.7375 11.6C6.6125 11.6833 6.48333 11.725 6.35 11.725C6.20833 11.725 6.07083 11.6833 5.9375 11.6C5.8125 11.5083 5.625 11.3292 5.375 11.0625L4.625 10.3125ZM4.625 5.6875L5.3625 4.9375C5.62083 4.67083 5.8125 4.49583 5.9375 4.4125C6.0625 4.32083 6.2 4.275 6.35 4.275C6.49167 4.275 6.625 4.32083 6.75 4.4125C6.88333 4.49583 7.07917 4.66667 7.3375 4.925L8.075 5.7L7.325 6.45C7.06667 6.70833 6.875 6.88333 6.75 6.975C6.625 7.05833 6.49167 7.1 6.35 7.1C6.20833 7.1 6.075 7.05833 5.95 6.975C5.825 6.88333 5.63333 6.70417 5.375 6.4375L4.625 5.6875ZM3.3125 8L3.8 7.5C3.96667 7.33333 4.09167 7.22083 4.175 7.1625C4.25833 7.09583 4.35 7.0625 4.45 7.0625C4.55 7.0625 4.64167 7.09583 4.725 7.1625C4.80833 7.22083 4.93333 7.33333 5.1 7.5L5.6 8L5.1 8.5C4.93333 8.66667 4.80833 8.77917 4.725 8.8375C4.64167 8.89583 4.55 8.925 4.45 8.925C4.35 8.925 4.25833 8.89583 4.175 8.8375C4.09167 8.77917 3.96667 8.66667 3.8 8.5L3.3125 8ZM3 12.6125L3.5625 12.05C3.75417 11.8583 3.89583 11.7292 3.9875 11.6625C4.0875 11.5875 4.19167 11.55 4.3 11.55C4.40833 11.55 4.50833 11.5875 4.6 11.6625C4.7 11.7292 4.84583 11.8583 5.0375 12.05L5.6 12.6125L5.0375 13.1875C4.84583 13.3792 4.7 13.5083 4.6 13.575C4.50833 13.6417 4.40833 13.675 4.3 13.675C4.19167 13.675 4.0875 13.6417 3.9875 13.575C3.89583 13.5083 3.75417 13.3792 3.5625 13.1875L3 12.6125ZM7.1 3.3875L7.8375 2.65C8.0875 2.375 8.275 2.19583 8.4 2.1125C8.53333 2.02083 8.67083 1.975 8.8125 1.975C8.9625 1.975 9.1 2.02083 9.225 2.1125C9.35833 2.19583 9.55417 2.36667 9.8125 2.625L10.55 3.4L9.8 4.1625C9.54167 4.4125 9.34583 4.58333 9.2125 4.675C9.0875 4.75833 8.95833 4.8 8.825 4.8C8.68333 4.8 8.54583 4.75833 8.4125 4.675C8.2875 4.58333 8.1 4.40417 7.85 4.1375L7.1 3.3875Z" fill="#38342B"/>
</svg>
