<svg class="main-svg" xmlns="http://www.w3.org/2000/svg" xmlns:xlink="http://www.w3.org/1999/xlink" width="800" height="300" style="" viewBox="0 0 800 300"><rect x="0" y="0" width="800" height="300" style="fill: rgb(0, 0, 0); fill-opacity: 0;"/><defs id="defs-9379c7"><g class="clips"><clipPath id="clip9379c7xyplot" class="plotclip"><rect width="337.61" height="254"/></clipPath><clipPath id="clip9379c7x2y2plot" class="plotclip"><rect width="337.61" height="254"/></clipPath><clipPath class="axesclip" id="clip9379c7x"><rect x="44" y="0" width="337.61" height="300"/></clipPath><clipPath class="axesclip" id="clip9379c7y"><rect x="0" y="20" width="800" height="254"/></clipPath><clipPath class="axesclip" id="clip9379c7xy"><rect x="44" y="20" width="337.61" height="254"/></clipPath><clipPath class="axesclip" id="clip9379c7y2"><rect x="0" y="20" width="800" height="254"/></clipPath><clipPath class="axesclip" id="clip9379c7xy2"><rect x="44" y="20" width="337.61" height="254"/></clipPath><clipPath class="axesclip" id="clip9379c7x2"><rect x="395.39" y="0" width="337.61" height="300"/></clipPath><clipPath class="axesclip" id="clip9379c7x2y"><rect x="395.39" y="20" width="337.61" height="254"/></clipPath><clipPath class="axesclip" id="clip9379c7x2y2"><rect x="395.39" y="20" width="337.61" height="254"/></clipPath></g><g class="gradients"/><g class="patterns"/></defs><g class="bglayer"><rect class="bg" x="44" y="20" width="337.61" height="254" style="fill: rgb(237, 236, 232); fill-opacity: 1; stroke-width: 0;"/><rect class="bg" x="395.39" y="20" width="337.61" height="254" style="fill: rgb(237, 236, 232); fill-opacity: 1; stroke-width: 0;"/></g><g class="layer-below"><g class="imagelayer"/><g class="shapelayer"/></g><g class="cartesianlayer"><g class="subplot xy"><g class="layer-subplot"><g class="shapelayer"/><g class="imagelayer"/></g><g class="minor-gridlayer"><g class="x"/><g class="y"/></g><g class="gridlayer"><g class="x"><path class="xgrid crisp" transform="translate(173.85,0)" d="M0,20v254" style="stroke: rgb(255, 255, 255); strokeOpacity: 1; stroke-width: 1px;"/><path class="xgrid crisp" transform="translate(303.7,0)" d="M0,20v254" style="stroke: rgb(255, 255, 255); strokeOpacity: 1; stroke-width: 1px;"/></g><g class="y"><path class="ygrid crisp" transform="translate(0,215.25)" d="M44,0h337.61" style="stroke: rgb(255, 255, 255); strokeOpacity: 1; stroke-width: 1px;"/><path class="ygrid crisp" transform="translate(0,169.2)" d="M44,0h337.61" style="stroke: rgb(255, 255, 255); strokeOpacity: 1; stroke-width: 1px;"/><path class="ygrid crisp" transform="translate(0,123.14)" d="M44,0h337.61" style="stroke: rgb(255, 255, 255); strokeOpacity: 1; stroke-width: 1px;"/><path class="ygrid crisp" transform="translate(0,77.09)" d="M44,0h337.61" style="stroke: rgb(255, 255, 255); strokeOpacity: 1; stroke-width: 1px;"/><path class="ygrid crisp" transform="translate(0,31.04)" d="M44,0h337.61" style="stroke: rgb(255, 255, 255); strokeOpacity: 1; stroke-width: 1px;"/></g></g><g class="zerolinelayer"><path class="xzl zl crisp" transform="translate(44,0)" d="M0,20v254" style="stroke: rgb(255, 255, 255); strokeOpacity: 1; stroke-width: 3px;"/><path class="yzl zl crisp" transform="translate(0,261.3)" d="M44,0h337.61" style="stroke: rgb(255, 255, 255); strokeOpacity: 1; stroke-width: 3px;"/></g><g class="layer-between"><g class="shapelayer"/><g class="imagelayer"/></g><path class="xlines-below"/><path class="ylines-below"/><g class="overlines-below"/><g class="xaxislayer-below"/><g class="yaxislayer-below"/><g class="overaxes-below"/><g class="plot" transform="translate(44,20)" clip-path="url(#clip9379c7xyplot)"><g class="scatterlayer mlayer"><g class="trace scatter tracebe9b7c" style="stroke-miterlimit: 2; opacity: 1;"><g class="fills"/><g class="errorbars"/><g class="lines"><path class="js-line" d="M0,241.3L25.97,183.73L51.94,183.73L77.91,183.73L103.88,212.52L129.85,226.91L155.82,234.1L181.79,237.7L207.76,239.5L259.7,240.85L285.67,241.08L337.61,241.3" style="vector-effect: none; fill: none; stroke: rgb(151, 65, 27); strokeOpacity: 1; stroke-width: 2px; opacity: 1;"/></g><g class="points"/><g class="text"/></g><g class="trace scatter trace37988f" style="stroke-miterlimit: 2; opacity: 1;"><g class="fills"/><g class="errorbars"/><g class="lines"><path class="js-line" d="M0,241.3L51.94,240.58L77.91,237.17L103.88,228.23L129.85,214.26L181.79,180.17L207.76,170.44L233.73,173.73L259.7,191.12L285.67,215.28L311.64,234.1L337.61,241.3" style="vector-effect: none; fill: none; stroke: rgb(235, 154, 211); strokeOpacity: 1; stroke-width: 2px; opacity: 1;"/></g><g class="points"/><g class="text"/></g><g class="trace scatter trace32ebdf" style="stroke-miterlimit: 2; opacity: 1;"><g class="fills"/><g class="errorbars"/><g class="lines"><path class="js-line" d="M0,241.3L25.97,183.73L51.94,121.19L77.91,55.86L103.88,21.79L129.85,12.7L155.82,27.28L181.79,63.63L207.76,115.1L233.73,169.27L259.7,211.87L285.67,234.75L311.64,241.19L337.61,241.3" style="vector-effect: none; fill: none; stroke: rgb(239, 214, 142); strokeOpacity: 1; stroke-width: 2px; opacity: 1;"/></g><g class="points"/><g class="text"/></g></g></g><g class="overplot"/><path class="xlines-above crisp" d="M0,0" style="fill: none;"/><path class="ylines-above crisp" d="M0,0" style="fill: none;"/><g class="overlines-above"/><g class="xaxislayer-above"><g class="xtick"><text text-anchor="middle" x="0" y="285" transform="translate(44,0)" style="font-family: verdana; font-size: 10px; fill: rgb(0, 0, 0); fill-opacity: 1; white-space: pre; opacity: 1;">0</text></g><g class="xtick"><text text-anchor="middle" x="0" y="285" style="font-family: verdana; font-size: 10px; fill: rgb(0, 0, 0); fill-opacity: 1; white-space: pre; opacity: 1;" transform="translate(173.85,0)">5</text></g><g class="xtick"><text text-anchor="middle" x="0" y="285" style="font-family: verdana; font-size: 10px; fill: rgb(0, 0, 0); fill-opacity: 1; white-space: pre; opacity: 1;" transform="translate(303.7,0)">10</text></g></g><g class="yaxislayer-above"><g class="ytick"><text text-anchor="end" x="43" y="3.5" transform="translate(0,261.3)" style="font-family: verdana; font-size: 10px; fill: rgb(0, 0, 0); fill-opacity: 1; white-space: pre; opacity: 1;">0%</text></g><g class="ytick"><text text-anchor="end" x="43" y="3.5" style="font-family: verdana; font-size: 10px; fill: rgb(0, 0, 0); fill-opacity: 1; white-space: pre; opacity: 1;" transform="translate(0,215.25)">20%</text></g><g class="ytick"><text text-anchor="end" x="43" y="3.5" style="font-family: verdana; font-size: 10px; fill: rgb(0, 0, 0); fill-opacity: 1; white-space: pre; opacity: 1;" transform="translate(0,169.2)">40%</text></g><g class="ytick"><text text-anchor="end" x="43" y="3.5" style="font-family: verdana; font-size: 10px; fill: rgb(0, 0, 0); fill-opacity: 1; white-space: pre; opacity: 1;" transform="translate(0,123.14)">60%</text></g><g class="ytick"><text text-anchor="end" x="43" y="3.5" style="font-family: verdana; font-size: 10px; fill: rgb(0, 0, 0); fill-opacity: 1; white-space: pre; opacity: 1;" transform="translate(0,77.09)">80%</text></g><g class="ytick"><text text-anchor="end" x="43" y="3.5" style="font-family: verdana; font-size: 10px; fill: rgb(0, 0, 0); fill-opacity: 1; white-space: pre; opacity: 1;" transform="translate(0,31.04)">100%</text></g></g><g class="overaxes-above"/></g><g class="subplot x2y2"><g class="layer-subplot"><g class="shapelayer"/><g class="imagelayer"/></g><g class="minor-gridlayer"><g class="x2"/><g class="y2"/></g><g class="gridlayer"><g class="x2"><path class="x2grid crisp" transform="translate(525.24,0)" d="M0,20v254" style="stroke: rgb(255, 255, 255); strokeOpacity: 1; stroke-width: 1px;"/><path class="x2grid crisp" transform="translate(655.0899999999999,0)" d="M0,20v254" style="stroke: rgb(255, 255, 255); strokeOpacity: 1; stroke-width: 1px;"/></g><g class="y2"><path class="y2grid crisp" transform="translate(0,215.25)" d="M395.39,0h337.61" style="stroke: rgb(255, 255, 255); strokeOpacity: 1; stroke-width: 1px;"/><path class="y2grid crisp" transform="translate(0,169.2)" d="M395.39,0h337.61" style="stroke: rgb(255, 255, 255); strokeOpacity: 1; stroke-width: 1px;"/><path class="y2grid crisp" transform="translate(0,123.14)" d="M395.39,0h337.61" style="stroke: rgb(255, 255, 255); strokeOpacity: 1; stroke-width: 1px;"/><path class="y2grid crisp" transform="translate(0,77.09)" d="M395.39,0h337.61" style="stroke: rgb(255, 255, 255); strokeOpacity: 1; stroke-width: 1px;"/><path class="y2grid crisp" transform="translate(0,31.04)" d="M395.39,0h337.61" style="stroke: rgb(255, 255, 255); strokeOpacity: 1; stroke-width: 1px;"/></g></g><g class="zerolinelayer"><path class="x2zl zl crisp" transform="translate(395.39,0)" d="M0,20v254" style="stroke: rgb(255, 255, 255); strokeOpacity: 1; stroke-width: 3px;"/><path class="y2zl zl crisp" transform="translate(0,261.3)" d="M395.39,0h337.61" style="stroke: rgb(255, 255, 255); strokeOpacity: 1; stroke-width: 3px;"/></g><g class="layer-between"><g class="shapelayer"/><g class="imagelayer"/></g><path class="xlines-below"/><path class="ylines-below"/><g class="overlines-below"/><g class="xaxislayer-below"/><g class="yaxislayer-below"/><g class="overaxes-below"/><g class="plot" transform="translate(395.39,20)" clip-path="url(#clip9379c7x2y2plot)"><g class="scatterlayer mlayer"><g class="trace scatter trace238c9b" style="stroke-miterlimit: 2; opacity: 1;"><g class="fills"/><g class="errorbars"/><g class="lines"><path class="js-line" d="M0,241.3L25.97,149.2L51.94,186.04L77.91,208.14L103.88,221.41L129.85,229.36L155.82,234.14L181.79,237L207.76,238.72L259.7,240.37L285.67,240.74L337.61,241.3" style="vector-effect: none; fill: none; stroke: rgb(151, 65, 27); strokeOpacity: 1; stroke-width: 2px; opacity: 1;"/></g><g class="points"/><g class="text"/></g><g class="trace scatter traced0774a" style="stroke-miterlimit: 2; opacity: 1;"><g class="fills"/><g class="errorbars"/><g class="lines"><path class="js-line" d="M0,241.3L25.97,241.3L51.94,236.43L77.91,233.49L103.88,231.71L155.82,229.94L181.79,225.38L207.76,210.11L233.73,189.07L259.7,169.33L285.67,167.39L311.64,198.13L337.61,241.3" style="vector-effect: none; fill: none; stroke: rgb(235, 154, 211); strokeOpacity: 1; stroke-width: 2px; opacity: 1;"/></g><g class="points"/><g class="text"/></g><g class="trace scatter trace9eed22" style="stroke-miterlimit: 2; opacity: 1;"><g class="fills"/><g class="errorbars"/><g class="lines"><path class="js-line" d="M0,241.3L25.97,149.2L51.94,93.55L77.91,59.78L103.88,39.13L129.85,26.36L155.82,18.3L181.79,17.21L207.76,33.05L233.73,71.87L259.7,133.26L285.67,200.46L311.64,240.97L337.61,241.3" style="vector-effect: none; fill: none; stroke: rgb(239, 214, 142); strokeOpacity: 1; stroke-width: 2px; opacity: 1;"/></g><g class="points"/><g class="text"/></g></g></g><g class="overplot"/><path class="xlines-above crisp" d="M0,0" style="fill: none;"/><path class="ylines-above crisp" d="M0,0" style="fill: none;"/><g class="overlines-above"/><g class="xaxislayer-above"><g class="x2tick"><text text-anchor="middle" x="0" y="285" transform="translate(395.39,0)" style="font-family: verdana; font-size: 10px; fill: rgb(0, 0, 0); fill-opacity: 1; white-space: pre; opacity: 1;">0</text></g><g class="x2tick"><text text-anchor="middle" x="0" y="285" style="font-family: verdana; font-size: 10px; fill: rgb(0, 0, 0); fill-opacity: 1; white-space: pre; opacity: 1;" transform="translate(525.24,0)">5</text></g><g class="x2tick"><text text-anchor="middle" x="0" y="285" style="font-family: verdana; font-size: 10px; fill: rgb(0, 0, 0); fill-opacity: 1; white-space: pre; opacity: 1;" transform="translate(655.0899999999999,0)">10</text></g></g><g class="yaxislayer-above"/><g class="overaxes-above"/></g></g><g class="polarlayer"/><g class="smithlayer"/><g class="ternarylayer"/><g class="geolayer"/><g class="funnelarealayer"/><g class="pielayer"/><g class="iciclelayer"/><g class="treemaplayer"/><g class="sunburstlayer"/><g class="glimages"/><defs id="topdefs-9379c7"><g class="clips"/><clipPath id="legend9379c7"><rect width="53" height="83" x="0" y="0"/></clipPath></defs><g class="layer-above"><g class="imagelayer"/><g class="shapelayer"/></g><g class="infolayer"><g class="legend" pointer-events="all" transform="translate(746.78,20)"><rect class="bg" shape-rendering="crispEdges" width="53" height="83" x="0" y="0" style="stroke: rgb(68, 68, 68); strokeOpacity: 1; fill: rgb(0, 0, 0); fill-opacity: 0; stroke-width: 0px;"/><g class="scrollbox" transform="" clip-path="url(#legend9379c7)"><text class="legendtitletext" text-anchor="start" x="2" y="15.600000000000001" style="font-family: verdana; font-size: 12px; fill: rgb(0, 0, 0); fill-opacity: 1; white-space: pre;">series</text><g class="groups" transform=""><g class="traces" transform="translate(0,30.1)" style="opacity: 1;"><text class="legendtext" text-anchor="start" x="40" y="3.9" style="font-family: verdana; font-size: 10px; fill: rgb(0, 0, 0); fill-opacity: 1; white-space: pre;">C</text><g class="layers" style="opacity: 1;"><g class="legendfill"/><g class="legendlines"><path class="js-line" d="M5,0h30" style="fill: none; stroke: rgb(151, 65, 27); strokeOpacity: 1; stroke-width: 2px;"/></g><g class="legendsymbols"><g class="legendpoints"/></g></g><rect class="legendtoggle" x="0" y="-9.5" width="47.71875" height="19" style="fill: rgb(0, 0, 0); fill-opacity: 0;"/></g></g><g class="groups" transform=""><g class="traces" transform="translate(0,49.1)" style="opacity: 1;"><text class="legendtext" text-anchor="start" x="40" y="3.9" style="font-family: verdana; font-size: 10px; fill: rgb(0, 0, 0); fill-opacity: 1; white-space: pre;">D</text><g class="layers" style="opacity: 1;"><g class="legendfill"/><g class="legendlines"><path class="js-line" d="M5,0h30" style="fill: none; stroke: rgb(235, 154, 211); strokeOpacity: 1; stroke-width: 2px;"/></g><g class="legendsymbols"><g class="legendpoints"/></g></g><rect class="legendtoggle" x="0" y="-9.5" width="47.71875" height="19" style="fill: rgb(0, 0, 0); fill-opacity: 0;"/></g></g><g class="groups" transform=""><g class="traces" transform="translate(0,68.1)" style="opacity: 1;"><text class="legendtext" text-anchor="start" x="40" y="3.9" style="font-family: verdana; font-size: 10px; fill: rgb(0, 0, 0); fill-opacity: 1; white-space: pre;">V</text><g class="layers" style="opacity: 1;"><g class="legendfill"/><g class="legendlines"><path class="js-line" d="M5,0h30" style="fill: none; stroke: rgb(239, 214, 142); strokeOpacity: 1; stroke-width: 2px;"/></g><g class="legendsymbols"><g class="legendpoints"/></g></g><rect class="legendtoggle" x="0" y="-9.5" width="47.71875" height="19" style="fill: rgb(0, 0, 0); fill-opacity: 0;"/></g></g></g><rect class="scrollbar" rx="20" ry="3" width="0" height="0" x="0" y="0" style="fill: rgb(128, 139, 164); fill-opacity: 1;"/></g><g class="g-gtitle"/><g class="g-xtitle"/><g class="g-x2title"/><g class="g-ytitle" transform="translate(7.5439453125,0)"><text class="ytitle" transform="rotate(-90,4.456249999999997,147)" x="4.456249999999997" y="147" text-anchor="middle" style="font-family: verdana; font-size: 12px; fill: rgb(0, 0, 0); opacity: 1; white-space: pre;">value</text></g><g class="g-y2title"/><g class="annotation" data-index="0" style="opacity: 1;"><g class="annotation-text-g" transform="rotate(0,212.805,11.999999999999996)"><g class="cursor-pointer" transform="translate(159,4)"><rect class="bg" x="0.5" y="0.5" width="107" height="15" style="stroke-width: 1px; stroke: rgb(0, 0, 0); strokeOpacity: 0; fill: rgb(0, 0, 0); fill-opacity: 0;"/><text class="annotation-text" text-anchor="middle" x="54.109375" y="12" style="font-family: verdana; font-size: 10px; fill: rgb(0, 0, 0); fill-opacity: 1; white-space: pre;">asset=private equity</text></g></g></g><g class="annotation" data-index="1" style="opacity: 1;"><g class="annotation-text-g" transform="rotate(0,564.195,11.999999999999996)"><g class="cursor-pointer" transform="translate(518,4)"><rect class="bg" x="0.5" y="0.5" width="91" height="15" style="stroke-width: 1px; stroke: rgb(0, 0, 0); strokeOpacity: 0; fill: rgb(0, 0, 0); fill-opacity: 0;"/><text class="annotation-text" text-anchor="middle" x="46.015625" y="12" style="font-family: verdana; font-size: 10px; fill: rgb(0, 0, 0); fill-opacity: 1; white-space: pre;">asset=real estate</text></g></g></g></g></svg>