<svg class="main-svg" xmlns="http://www.w3.org/2000/svg" xmlns:xlink="http://www.w3.org/1999/xlink" width="800" height="300" style="" viewBox="0 0 800 300"><rect x="0" y="0" width="800" height="300" style="fill: rgb(0, 0, 0); fill-opacity: 0;"/><defs id="defs-7ec881"><g class="clips"><clipPath id="clip7ec881xyplot" class="plotclip"><rect width="358.60999999999996" height="241"/></clipPath><clipPath id="clip7ec881x2y2plot" class="plotclip"><rect width="358.60999999999996" height="241"/></clipPath><clipPath class="axesclip" id="clip7ec881x"><rect x="31" y="0" width="358.60999999999996" height="300"/></clipPath><clipPath class="axesclip" id="clip7ec881y"><rect x="0" y="6" width="800" height="241"/></clipPath><clipPath class="axesclip" id="clip7ec881xy"><rect x="31" y="6" width="358.60999999999996" height="241"/></clipPath><clipPath class="axesclip" id="clip7ec881y2"><rect x="0" y="6" width="800" height="241"/></clipPath><clipPath class="axesclip" id="clip7ec881xy2"><rect x="31" y="6" width="358.60999999999996" height="241"/></clipPath><clipPath class="axesclip" id="clip7ec881x2"><rect x="435.39000000000004" y="0" width="358.60999999999996" height="300"/></clipPath><clipPath class="axesclip" id="clip7ec881x2y"><rect x="435.39000000000004" y="6" width="358.60999999999996" height="241"/></clipPath><clipPath class="axesclip" id="clip7ec881x2y2"><rect x="435.39000000000004" y="6" width="358.60999999999996" height="241"/></clipPath></g><g class="gradients"/><g class="patterns"/></defs><g class="bglayer"><rect class="bg" x="31" y="6" width="358.60999999999996" height="241" style="fill: rgb(237, 236, 232); fill-opacity: 1; stroke-width: 0;"/><rect class="bg" x="435.39000000000004" y="6" width="358.60999999999996" height="241" style="fill: rgb(237, 236, 232); fill-opacity: 1; stroke-width: 0;"/></g><g class="layer-below"><g class="imagelayer"/><g class="shapelayer"/></g><g class="cartesianlayer"><g class="subplot xy"><g class="layer-subplot"><g class="shapelayer"/><g class="imagelayer"/></g><g class="minor-gridlayer"><g class="x"/><g class="y"/></g><g class="gridlayer"><g class="x"><path class="xgrid crisp" transform="translate(120.65,0)" d="M0,6v241" style="stroke: rgb(255, 255, 255); strokeOpacity: 1; stroke-width: 1px;"/><path class="xgrid crisp" transform="translate(210.3,0)" d="M0,6v241" style="stroke: rgb(255, 255, 255); strokeOpacity: 1; stroke-width: 1px;"/><path class="xgrid crisp" transform="translate(299.96,0)" d="M0,6v241" style="stroke: rgb(255, 255, 255); strokeOpacity: 1; stroke-width: 1px;"/></g><g class="y"><path class="ygrid crisp" transform="translate(0,206.96)" d="M31,0h358.60999999999996" style="stroke: rgb(255, 255, 255); strokeOpacity: 1; stroke-width: 1px;"/><path class="ygrid crisp" transform="translate(0,166.93)" d="M31,0h358.60999999999996" style="stroke: rgb(255, 255, 255); strokeOpacity: 1; stroke-width: 1px;"/><path class="ygrid crisp" transform="translate(0,126.89)" d="M31,0h358.60999999999996" style="stroke: rgb(255, 255, 255); strokeOpacity: 1; stroke-width: 1px;"/><path class="ygrid crisp" transform="translate(0,86.86)" d="M31,0h358.60999999999996" style="stroke: rgb(255, 255, 255); strokeOpacity: 1; stroke-width: 1px;"/><path class="ygrid crisp" transform="translate(0,46.82)" d="M31,0h358.60999999999996" style="stroke: rgb(255, 255, 255); strokeOpacity: 1; stroke-width: 1px;"/></g></g><g class="zerolinelayer"><path class="xzl zl crisp" transform="translate(31,0)" d="M0,6v241" style="stroke: rgb(255, 255, 255); strokeOpacity: 1; stroke-width: 3px;"/><path class="yzl zl crisp" transform="translate(0,247)" d="M31,0h358.60999999999996" style="stroke: rgb(255, 255, 255); strokeOpacity: 1; stroke-width: 3px;"/></g><g class="layer-between"><g class="shapelayer"/><g class="imagelayer"/></g><path class="xlines-below"/><path class="ylines-below"/><g class="overlines-below"/><g class="xaxislayer-below"/><g class="yaxislayer-below"/><g class="overaxes-below"/><g class="plot" transform="translate(31,6)" clip-path="url(#clip7ec881xyplot)"><g class="scatterlayer mlayer"><g class="trace scatter tracefb0e77" style="stroke-miterlimit: 2;"><g class="fills"><g><path class="js-fill" d="M358.61,241L0,241L0,207.48L17.93,208.68L35.86,210.96L71.72,214.95L89.65,216.17L125.51,218.35L143.44,217.47L179.3,218.89L197.24,217.6L268.96,209.23L286.89,208.46L304.82,207.65L322.75,205.98L340.68,204.15L358.61,199.69" style="fill: rgb(151, 65, 27); fill-opacity: 0.5; stroke-width: 0;"/></g><g><path class="js-fill" d="M0,188.67L53.79,185L71.72,182.79L125.51,175.36L143.44,173.9L161.37,171.27L179.3,167.3L215.17,157.7L233.1,152.61L268.96,142.85L286.89,137.41L340.68,119.59L358.61,113.19L358.61,199.69L340.68,204.15L322.75,205.98L304.82,207.65L286.89,208.46L268.96,209.23L197.24,217.6L179.3,218.89L143.44,217.47L125.51,218.35L89.65,216.17L71.72,214.95L35.86,210.96L17.93,208.68L0,207.48Z" style="fill: rgb(235, 154, 211); fill-opacity: 0.5; stroke-width: 0;"/></g></g><g class="errorbars"/><g class="lines"><path class="js-line" d="M0,207.48L17.93,208.68L35.86,210.96L71.72,214.95L89.65,216.17L125.51,218.35L143.44,217.47L179.3,218.89L197.24,217.6L268.96,209.23L286.89,208.46L304.82,207.65L322.75,205.98L340.68,204.15L358.61,199.69" style="vector-effect: none; fill: none; stroke: rgb(151, 65, 27); strokeOpacity: 1; stroke-width: 2px; opacity: 1;"/></g><g class="points"/><g class="text"/></g><g class="trace scatter traceee51c6" style="stroke-miterlimit: 2;"><g class="fills"><g><path class="js-fill" d="M0,160.93L17.93,160.69L35.86,162.65L89.65,172.61L107.58,174.51L125.51,175.01L143.44,173.9L161.37,171.27L179.3,167.3L286.89,137.41L304.82,131.45L340.68,118.68L358.61,113.19L358.61,113.19L340.68,119.59L286.89,137.41L268.96,142.85L233.1,152.61L215.17,157.7L179.3,167.3L161.37,171.27L143.44,173.9L125.51,175.36L71.72,182.79L53.79,185L0,188.67Z" style="fill: rgb(239, 214, 142); fill-opacity: 0.5; stroke-width: 0;"/></g></g><g class="errorbars"/><g class="lines"><path class="js-line" d="M0,188.67L53.79,185L71.72,182.79L125.51,175.36L143.44,173.9L161.37,171.27L179.3,167.3L215.17,157.7L233.1,152.61L268.96,142.85L286.89,137.41L340.68,119.59L358.61,113.19" style="vector-effect: none; fill: none; stroke: rgb(235, 154, 211); strokeOpacity: 1; stroke-width: 2px; opacity: 1;"/></g><g class="points"/><g class="text"/></g><g class="trace scatter trace73c548" style="stroke-miterlimit: 2;"><g class="fills"><g><path class="js-fill" d="M0,160.93L17.93,160.69L35.86,162.65L89.65,172.61L107.58,174.51L125.51,175.01L143.44,173.9L161.37,171.27L179.3,167.3L286.89,137.41L304.82,131.45L340.68,118.68L358.61,113.19L358.61,113.19L340.68,118.68L304.82,131.45L286.89,137.41L179.3,167.3L161.37,171.27L143.44,173.9L125.51,175.01L107.58,174.51L89.65,172.61L35.86,162.65L17.93,160.69L0,160.93Z" style="fill: rgb(91, 37, 73); fill-opacity: 0.5; stroke-width: 0;"/></g></g><g class="errorbars"/><g class="lines"><path class="js-line" d="M0,160.93L17.93,160.69L35.86,162.65L89.65,172.61L107.58,174.51L125.51,175.01L143.44,173.9L161.37,171.27L179.3,167.3L286.89,137.41L304.82,131.45L340.68,118.68L358.61,113.19" style="vector-effect: none; fill: none; stroke: rgb(239, 214, 142); strokeOpacity: 1; stroke-width: 2px; opacity: 1;"/></g><g class="points"/><g class="text"/></g><g class="trace scatter traced09061" style="stroke-miterlimit: 2;"><g class="fills"><g><path class="js-fill" d="M0,160.93L17.93,160.69L35.86,162.65L89.65,172.61L107.58,174.51L125.51,175.01L143.44,173.9L161.37,171.27L179.3,167.3L286.89,137.41L304.82,131.45L340.68,118.68L358.61,113.19L358.61,113.19L340.68,118.68L304.82,131.45L286.89,137.41L179.3,167.3L161.37,171.27L143.44,173.9L125.51,175.01L107.58,174.51L89.65,172.61L35.86,162.65L17.93,160.69L0,160.93Z" style="fill: rgb(91, 37, 73); fill-opacity: 0.5; stroke-width: 0;"/></g></g><g class="errorbars"/><g class="lines"><path class="js-line" d="M0,160.93L17.93,160.69L35.86,162.65L89.65,172.61L107.58,174.51L125.51,175.01L143.44,173.9L161.37,171.27L179.3,167.3L286.89,137.41L304.82,131.45L340.68,118.68L358.61,113.19" style="vector-effect: none; fill: none; stroke: rgb(91, 37, 73); strokeOpacity: 1; stroke-width: 2px; opacity: 1;"/></g><g class="points"/><g class="text"/></g><g class="trace scatter trace9aa2f4" style="stroke-miterlimit: 2;"><g class="fills"><g><path class="js-fill" d="M0,160.93L17.93,160.69L35.86,162.65L89.65,172.61L107.58,174.51L125.51,175.01L143.44,173.9L161.37,171.27L179.3,167.3L286.89,137.41L304.82,131.45L340.68,118.68L358.61,113.19L358.61,113.19L340.68,118.68L304.82,131.45L286.89,137.41L179.3,167.3L161.37,171.27L143.44,173.9L125.51,175.01L107.58,174.51L89.65,172.61L35.86,162.65L17.93,160.69L0,160.93Z" style="fill: rgb(91, 37, 73); fill-opacity: 0.5; stroke-width: 0;"/></g></g><g class="errorbars"/><g class="lines"><path class="js-line" d="M0,160.93L17.93,160.69L35.86,162.65L89.65,172.61L107.58,174.51L125.51,175.01L143.44,173.9L161.37,171.27L179.3,167.3L286.89,137.41L304.82,131.45L340.68,118.68L358.61,113.19" style="vector-effect: none; fill: none; stroke: rgb(91, 37, 73); strokeOpacity: 1; stroke-width: 2px; opacity: 1;"/></g><g class="points"/><g class="text"/></g><g class="trace scatter traceab3410" style="stroke-miterlimit: 2;"><g class="fills"><g><path class="js-fill" d="M0,160.93L17.93,160.69L35.86,162.65L89.65,172.61L107.58,174.51L125.51,175.01L143.44,173.9L161.37,171.27L179.3,167.3L286.89,137.41L304.82,131.45L340.68,118.68L358.61,113.19L358.61,113.19L340.68,118.68L304.82,131.45L286.89,137.41L179.3,167.3L161.37,171.27L143.44,173.9L125.51,175.01L107.58,174.51L89.65,172.61L35.86,162.65L17.93,160.69L0,160.93Z" style="fill: rgb(91, 37, 73); fill-opacity: 0.5; stroke-width: 0;"/></g></g><g class="errorbars"/><g class="lines"><path class="js-line" d="M0,160.93L17.93,160.69L35.86,162.65L89.65,172.61L107.58,174.51L125.51,175.01L143.44,173.9L161.37,171.27L179.3,167.3L286.89,137.41L304.82,131.45L340.68,118.68L358.61,113.19" style="vector-effect: none; fill: none; stroke: rgb(91, 37, 73); strokeOpacity: 1; stroke-width: 2px; opacity: 1;"/></g><g class="points"/><g class="text"/></g><g class="trace scatter tracea39530" style="stroke-miterlimit: 2;"><g class="fills"><g><path class="js-fill" d="M0,160.93L17.93,160.69L35.86,162.65L89.65,172.61L107.58,174.51L125.51,175.01L143.44,173.9L161.37,171.27L179.3,167.3L286.89,137.41L304.82,131.45L340.68,118.68L358.61,113.19L358.61,113.19L340.68,118.68L304.82,131.45L286.89,137.41L179.3,167.3L161.37,171.27L143.44,173.9L125.51,175.01L107.58,174.51L89.65,172.61L35.86,162.65L17.93,160.69L0,160.93Z" style="fill: rgb(91, 37, 73); fill-opacity: 0.5; stroke-width: 0;"/></g></g><g class="errorbars"/><g class="lines"><path class="js-line" d="M0,160.93L17.93,160.69L35.86,162.65L89.65,172.61L107.58,174.51L125.51,175.01L143.44,173.9L161.37,171.27L179.3,167.3L286.89,137.41L304.82,131.45L340.68,118.68L358.61,113.19" style="vector-effect: none; fill: none; stroke: rgb(91, 37, 73); strokeOpacity: 1; stroke-width: 2px; opacity: 1;"/></g><g class="points"/><g class="text"/></g><g class="trace scatter trace200128" style="stroke-miterlimit: 2;"><g class="fills"><g><path class="js-fill" d="M0,160.93L17.93,160.69L35.86,162.65L89.65,172.61L107.58,174.51L125.51,175.01L143.44,173.9L161.37,171.27L179.3,167.3L286.89,137.41L304.82,131.45L340.68,118.68L358.61,113.19L358.61,113.19L340.68,118.68L304.82,131.45L286.89,137.41L179.3,167.3L161.37,171.27L143.44,173.9L125.51,175.01L107.58,174.51L89.65,172.61L35.86,162.65L17.93,160.69L0,160.93Z" style="fill: rgb(91, 37, 73); fill-opacity: 0.5; stroke-width: 0;"/></g></g><g class="errorbars"/><g class="lines"><path class="js-line" d="M0,160.93L17.93,160.69L35.86,162.65L89.65,172.61L107.58,174.51L125.51,175.01L143.44,173.9L161.37,171.27L179.3,167.3L286.89,137.41L304.82,131.45L340.68,118.68L358.61,113.19" style="vector-effect: none; fill: none; stroke: rgb(91, 37, 73); strokeOpacity: 1; stroke-width: 2px; opacity: 1;"/></g><g class="points"/><g class="text"/></g><g class="trace scatter traceb9b8f6" style="stroke-miterlimit: 2;"><g class="fills"><g><path class="js-fill" d="M0,160.93L17.93,160.69L35.86,162.65L89.65,172.61L107.58,174.51L125.51,175.01L143.44,173.9L161.37,171.27L179.3,167.3L286.89,137.41L304.82,131.45L340.68,118.68L358.61,113.19L358.61,113.19L340.68,118.68L304.82,131.45L286.89,137.41L179.3,167.3L161.37,171.27L143.44,173.9L125.51,175.01L107.58,174.51L89.65,172.61L35.86,162.65L17.93,160.69L0,160.93Z" style="fill: rgb(91, 37, 73); fill-opacity: 0.5; stroke-width: 0;"/></g></g><g class="errorbars"/><g class="lines"><path class="js-line" d="M0,160.93L17.93,160.69L35.86,162.65L89.65,172.61L107.58,174.51L125.51,175.01L143.44,173.9L161.37,171.27L179.3,167.3L286.89,137.41L304.82,131.45L340.68,118.68L358.61,113.19" style="vector-effect: none; fill: none; stroke: rgb(91, 37, 73); strokeOpacity: 1; stroke-width: 2px; opacity: 1;"/></g><g class="points"/><g class="text"/></g><g class="trace scatter trace69013c" style="stroke-miterlimit: 2;"><g class="fills"><g><path class="js-fill" d="M0,160.93L17.93,160.69L35.86,162.65L89.65,172.61L107.58,174.51L125.51,175.01L143.44,173.9L161.37,171.27L179.3,167.3L286.89,137.41L304.82,131.45L340.68,118.68L358.61,113.19L358.61,113.19L340.68,118.68L304.82,131.45L286.89,137.41L179.3,167.3L161.37,171.27L143.44,173.9L125.51,175.01L107.58,174.51L89.65,172.61L35.86,162.65L17.93,160.69L0,160.93Z" style="fill: rgb(91, 37, 73); fill-opacity: 0.5; stroke-width: 0;"/></g></g><g class="errorbars"/><g class="lines"><path class="js-line" d="M0,160.93L17.93,160.69L35.86,162.65L89.65,172.61L107.58,174.51L125.51,175.01L143.44,173.9L161.37,171.27L179.3,167.3L286.89,137.41L304.82,131.45L340.68,118.68L358.61,113.19" style="vector-effect: none; fill: none; stroke: rgb(91, 37, 73); strokeOpacity: 1; stroke-width: 2px; opacity: 1;"/></g><g class="points"/><g class="text"/></g><g class="trace scatter traceca9dc3" style="stroke-miterlimit: 2;"><g class="fills"><g><path class="js-fill" d="M0,160.93L17.93,160.69L35.86,162.65L89.65,172.61L107.58,174.51L125.51,175.01L143.44,173.9L161.37,171.27L179.3,167.3L286.89,137.41L304.82,131.45L340.68,118.68L358.61,113.19L358.61,113.19L340.68,118.68L304.82,131.45L286.89,137.41L179.3,167.3L161.37,171.27L143.44,173.9L125.51,175.01L107.58,174.51L89.65,172.61L35.86,162.65L17.93,160.69L0,160.93Z" style="fill: rgb(91, 37, 73); fill-opacity: 0.5; stroke-width: 0;"/></g></g><g class="errorbars"/><g class="lines"><path class="js-line" d="M0,160.93L17.93,160.69L35.86,162.65L89.65,172.61L107.58,174.51L125.51,175.01L143.44,173.9L161.37,171.27L179.3,167.3L286.89,137.41L304.82,131.45L340.68,118.68L358.61,113.19" style="vector-effect: none; fill: none; stroke: rgb(91, 37, 73); strokeOpacity: 1; stroke-width: 2px; opacity: 1;"/></g><g class="points"/><g class="text"/></g><g class="trace scatter trace25022f" style="stroke-miterlimit: 2;"><g class="fills"><g><path class="js-fill" d="M0,160.93L17.93,160.69L35.86,162.65L89.65,172.61L107.58,174.51L125.51,175.01L143.44,173.9L161.37,171.27L179.3,167.3L286.89,137.41L304.82,131.45L340.68,118.68L358.61,113.19L358.61,113.19L340.68,118.68L304.82,131.45L286.89,137.41L179.3,167.3L161.37,171.27L143.44,173.9L125.51,175.01L107.58,174.51L89.65,172.61L35.86,162.65L17.93,160.69L0,160.93Z" style="fill: rgb(91, 37, 73); fill-opacity: 0.5; stroke-width: 0;"/></g></g><g class="errorbars"/><g class="lines"><path class="js-line" d="M0,160.93L17.93,160.69L35.86,162.65L89.65,172.61L107.58,174.51L125.51,175.01L143.44,173.9L161.37,171.27L179.3,167.3L286.89,137.41L304.82,131.45L340.68,118.68L358.61,113.19" style="vector-effect: none; fill: none; stroke: rgb(91, 37, 73); strokeOpacity: 1; stroke-width: 2px; opacity: 1;"/></g><g class="points"/><g class="text"/></g><g class="trace scatter tracec41969" style="stroke-miterlimit: 2;"><g class="fills"><g><path class="js-fill" d="M0,160.93L17.93,160.69L35.86,162.65L89.65,172.61L107.58,174.51L125.51,175.01L143.44,173.9L161.37,171.27L179.3,167.3L286.89,137.41L304.82,131.45L340.68,118.68L358.61,113.19L358.61,113.19L340.68,118.68L304.82,131.45L286.89,137.41L179.3,167.3L161.37,171.27L143.44,173.9L125.51,175.01L107.58,174.51L89.65,172.61L35.86,162.65L17.93,160.69L0,160.93Z" style="fill: rgb(91, 37, 73); fill-opacity: 0.5; stroke-width: 0;"/></g></g><g class="errorbars"/><g class="lines"><path class="js-line" d="M0,160.93L17.93,160.69L35.86,162.65L89.65,172.61L107.58,174.51L125.51,175.01L143.44,173.9L161.37,171.27L179.3,167.3L286.89,137.41L304.82,131.45L340.68,118.68L358.61,113.19" style="vector-effect: none; fill: none; stroke: rgb(91, 37, 73); strokeOpacity: 1; stroke-width: 2px; opacity: 1;"/></g><g class="points"/><g class="text"/></g><g class="trace scatter trace596a79" style="stroke-miterlimit: 2;"><g class="fills"><g><path class="js-fill" d="M0,160.93L17.93,160.69L35.86,162.65L89.65,172.61L107.58,174.51L125.51,175.01L143.44,173.9L161.37,171.27L179.3,167.3L286.89,137.41L304.82,131.45L340.68,118.68L358.61,113.19L358.61,113.19L340.68,118.68L304.82,131.45L286.89,137.41L179.3,167.3L161.37,171.27L143.44,173.9L125.51,175.01L107.58,174.51L89.65,172.61L35.86,162.65L17.93,160.69L0,160.93Z" style="fill: rgb(91, 37, 73); fill-opacity: 0.5; stroke-width: 0;"/></g></g><g class="errorbars"/><g class="lines"><path class="js-line" d="M0,160.93L17.93,160.69L35.86,162.65L89.65,172.61L107.58,174.51L125.51,175.01L143.44,173.9L161.37,171.27L179.3,167.3L286.89,137.41L304.82,131.45L340.68,118.68L358.61,113.19" style="vector-effect: none; fill: none; stroke: rgb(91, 37, 73); strokeOpacity: 1; stroke-width: 2px; opacity: 1;"/></g><g class="points"/><g class="text"/></g><g class="trace scatter traceaa33f7" style="stroke-miterlimit: 2;"><g class="fills"><g><path class="js-fill" d="M0,160.93L17.93,159.04L35.86,159.2L53.79,160.75L71.72,163.34L107.58,168.36L125.51,169.91L143.44,170.28L161.37,169.2L179.3,166.46L197.24,162.21L286.89,137.41L304.82,131.45L340.68,118.68L358.61,113.19L358.61,113.19L340.68,118.68L304.82,131.45L286.89,137.41L179.3,167.3L161.37,171.27L143.44,173.9L125.51,175.01L107.58,174.51L89.65,172.61L35.86,162.65L17.93,160.69L0,160.93Z" style="fill: rgb(91, 37, 73); fill-opacity: 0.5; stroke-width: 0;"/></g></g><g class="errorbars"/><g class="lines"><path class="js-line" d="M0,160.93L17.93,160.69L35.86,162.65L89.65,172.61L107.58,174.51L125.51,175.01L143.44,173.9L161.37,171.27L179.3,167.3L286.89,137.41L304.82,131.45L340.68,118.68L358.61,113.19" style="vector-effect: none; fill: none; stroke: rgb(91, 37, 73); strokeOpacity: 1; stroke-width: 2px; opacity: 1;"/></g><g class="points"/><g class="text"/></g><g class="trace scatter trace7ab3dc" style="stroke-miterlimit: 2;"><g class="fills"><g><path class="js-fill" d="M0,160.93L35.86,157.77L53.79,157.77L71.72,158.75L89.65,160.62L125.51,164.61L143.44,165.88L161.37,166.08L179.3,164.68L197.24,161.48L215.17,157.14L268.96,142.85L286.89,137.41L322.75,125.01L340.68,118.68L358.61,113.19L358.61,113.19L340.68,118.68L304.82,131.45L286.89,137.41L197.24,162.21L179.3,166.46L161.37,169.2L143.44,170.28L125.51,169.91L107.58,168.36L71.72,163.34L53.79,160.75L35.86,159.2L17.93,159.04L0,160.93Z" style="fill: rgb(91, 37, 73); fill-opacity: 0.5; stroke-width: 0;"/></g></g><g class="errorbars"/><g class="lines"><path class="js-line" d="M0,160.93L17.93,159.04L35.86,159.2L53.79,160.75L71.72,163.34L107.58,168.36L125.51,169.91L143.44,170.28L161.37,169.2L179.3,166.46L197.24,162.21L286.89,137.41L304.82,131.45L340.68,118.68L358.61,113.19" style="vector-effect: none; fill: none; stroke: rgb(91, 37, 73); strokeOpacity: 1; stroke-width: 2px; opacity: 1;"/></g><g class="points"/><g class="text"/></g><g class="trace scatter trace90bf8b" style="stroke-miterlimit: 2;"><g class="fills"><g><path class="js-fill" d="M0,160.93L35.86,157.77L53.79,156.53L71.72,156.16L89.65,156.62L161.37,162.25L179.3,161.95L197.24,159.93L215.17,156.5L251.03,147.87L268.96,142.85L304.82,131.45L322.75,125.01L340.68,118.68L358.61,113.19L358.61,113.19L340.68,118.68L322.75,125.01L286.89,137.41L268.96,142.85L215.17,157.14L197.24,161.48L179.3,164.68L161.37,166.08L143.44,165.88L125.51,164.61L89.65,160.62L71.72,158.75L53.79,157.77L35.86,157.77L0,160.93Z" style="fill: rgb(91, 37, 73); fill-opacity: 0.5; stroke-width: 0;"/></g></g><g class="errorbars"/><g class="lines"><path class="js-line" d="M0,160.93L35.86,157.77L53.79,157.77L71.72,158.75L89.65,160.62L125.51,164.61L143.44,165.88L161.37,166.08L179.3,164.68L197.24,161.48L215.17,157.14L268.96,142.85L286.89,137.41L322.75,125.01L340.68,118.68L358.61,113.19" style="vector-effect: none; fill: none; stroke: rgb(91, 37, 73); strokeOpacity: 1; stroke-width: 2px; opacity: 1;"/></g><g class="points"/><g class="text"/></g><g class="trace scatter tracea7fd05" style="stroke-miterlimit: 2;"><g class="fills"><g><path class="js-fill" d="M0,160.93L35.86,157.77L53.79,156.53L89.65,154.26L107.58,154.32L179.3,158.46L197.24,157.45L215.17,155.09L233.1,151.89L268.96,142.85L286.89,137.41L322.75,125.01L340.68,118.68L358.61,113.19L358.61,113.19L340.68,118.68L322.75,125.01L304.82,131.45L268.96,142.85L251.03,147.87L215.17,156.5L197.24,159.93L179.3,161.95L161.37,162.25L89.65,156.62L71.72,156.16L53.79,156.53L35.86,157.77L0,160.93Z" style="fill: rgb(91, 37, 73); fill-opacity: 0.5; stroke-width: 0;"/></g></g><g class="errorbars"/><g class="lines"><path class="js-line" d="M0,160.93L35.86,157.77L53.79,156.53L71.72,156.16L89.65,156.62L161.37,162.25L179.3,161.95L197.24,159.93L215.17,156.5L251.03,147.87L268.96,142.85L304.82,131.45L322.75,125.01L340.68,118.68L358.61,113.19" style="vector-effect: none; fill: none; stroke: rgb(91, 37, 73); strokeOpacity: 1; stroke-width: 2px; opacity: 1;"/></g><g class="points"/><g class="text"/></g><g class="trace scatter trace0f436e" style="stroke-miterlimit: 2;"><g class="fills"><g><path class="js-fill" d="M0,160.93L35.86,157.77L53.79,156.53L107.58,152.04L125.51,151.84L179.3,154.39L197.24,154.07L215.17,152.69L233.1,150.52L251.03,147.18L268.96,142.72L304.82,131.45L322.75,125.01L340.68,118.68L358.61,113.19L358.61,113.19L340.68,118.68L322.75,125.01L286.89,137.41L268.96,142.85L233.1,151.89L215.17,155.09L197.24,157.45L179.3,158.46L107.58,154.32L89.65,154.26L53.79,156.53L35.86,157.77L0,160.93Z" style="fill: rgb(91, 37, 73); fill-opacity: 0.5; stroke-width: 0;"/></g></g><g class="errorbars"/><g class="lines"><path class="js-line" d="M0,160.93L35.86,157.77L53.79,156.53L89.65,154.26L107.58,154.32L179.3,158.46L197.24,157.45L215.17,155.09L233.1,151.89L268.96,142.85L286.89,137.41L322.75,125.01L340.68,118.68L358.61,113.19" style="vector-effect: none; fill: none; stroke: rgb(91, 37, 73); strokeOpacity: 1; stroke-width: 2px; opacity: 1;"/></g><g class="points"/><g class="text"/></g><g class="trace scatter trace1b967d" style="stroke-miterlimit: 2;"><g class="fills"><g><path class="js-fill" d="M0,160.93L35.86,157.77L53.79,156.53L89.65,153.16L107.58,150.9L125.51,149.46L143.44,148.93L197.24,149.84L215.17,149.18L233.1,148.02L251.03,145.76L268.96,142.14L286.89,137.27L322.75,125.01L340.68,118.68L358.61,113.19L358.61,113.19L340.68,118.68L322.75,125.01L304.82,131.45L268.96,142.72L251.03,147.18L233.1,150.52L215.17,152.69L197.24,154.07L179.3,154.39L125.51,151.84L107.58,152.04L53.79,156.53L35.86,157.77L0,160.93Z" style="fill: rgb(91, 37, 73); fill-opacity: 0.5; stroke-width: 0;"/></g></g><g class="errorbars"/><g class="lines"><path class="js-line" d="M0,160.93L35.86,157.77L53.79,156.53L107.58,152.04L125.51,151.84L179.3,154.39L197.24,154.07L215.17,152.69L233.1,150.52L251.03,147.18L268.96,142.72L304.82,131.45L322.75,125.01L340.68,118.68L358.61,113.19" style="vector-effect: none; fill: none; stroke: rgb(91, 37, 73); strokeOpacity: 1; stroke-width: 2px; opacity: 1;"/></g><g class="points"/><g class="text"/></g><g class="trace scatter trace923685" style="stroke-miterlimit: 2;"><g class="fills"><g><path class="js-fill" d="M0,160.93L35.86,157.77L53.79,156.53L89.65,153.16L107.58,150.9L125.51,148.2L143.44,146.3L161.37,145.29L179.3,145.06L233.1,144.13L251.03,142.99L268.96,140.56L286.89,136.63L304.82,131.3L322.75,125.01L340.68,118.68L358.61,113.19L358.61,113.19L340.68,118.68L322.75,125.01L286.89,137.27L268.96,142.14L251.03,145.76L233.1,148.02L215.17,149.18L197.24,149.84L143.44,148.93L125.51,149.46L107.58,150.9L89.65,153.16L53.79,156.53L35.86,157.77L0,160.93Z" style="fill: rgb(91, 37, 73); fill-opacity: 0.5; stroke-width: 0;"/></g></g><g class="errorbars"/><g class="lines"><path class="js-line" d="M0,160.93L35.86,157.77L53.79,156.53L89.65,153.16L107.58,150.9L125.51,149.46L143.44,148.93L197.24,149.84L215.17,149.18L233.1,148.02L251.03,145.76L268.96,142.14L286.89,137.27L322.75,125.01L340.68,118.68L358.61,113.19" style="vector-effect: none; fill: none; stroke: rgb(91, 37, 73); strokeOpacity: 1; stroke-width: 2px; opacity: 1;"/></g><g class="points"/><g class="text"/></g><g class="trace scatter trace4aefdf" style="stroke-miterlimit: 2;"><g class="fills"><g><path class="js-fill" d="M0,160.93L35.86,157.77L53.79,156.53L89.65,153.16L107.58,150.9L161.37,142.3L179.3,140.44L215.17,138.79L233.1,138.8L251.03,138.56L268.96,137.42L286.89,134.83L304.82,130.57L358.61,113.19L358.61,113.19L340.68,118.68L322.75,125.01L304.82,131.3L286.89,136.63L268.96,140.56L251.03,142.99L233.1,144.13L179.3,145.06L161.37,145.29L143.44,146.3L125.51,148.2L107.58,150.9L89.65,153.16L53.79,156.53L35.86,157.77L0,160.93Z" style="fill: rgb(91, 37, 73); fill-opacity: 0.5; stroke-width: 0;"/></g></g><g class="errorbars"/><g class="lines"><path class="js-line" d="M0,160.93L35.86,157.77L53.79,156.53L89.65,153.16L107.58,150.9L125.51,148.2L143.44,146.3L161.37,145.29L179.3,145.06L233.1,144.13L251.03,142.99L268.96,140.56L286.89,136.63L304.82,131.3L322.75,125.01L340.68,118.68L358.61,113.19" style="vector-effect: none; fill: none; stroke: rgb(91, 37, 73); strokeOpacity: 1; stroke-width: 2px; opacity: 1;"/></g><g class="points"/><g class="text"/></g><g class="trace scatter trace7f9d63" style="stroke-miterlimit: 2;"><g class="fills"><g><path class="js-fill" d="M0,160.93L35.86,157.77L53.79,156.53L89.65,153.16L107.58,150.9L143.44,144.86L161.37,140.68L197.24,134.15L215.17,132.63L268.96,132.43L286.89,131.29L304.82,128.55L322.75,124.02L358.61,113.19L358.61,113.19L304.82,130.57L286.89,134.83L268.96,137.42L251.03,138.56L233.1,138.8L215.17,138.79L179.3,140.44L161.37,142.3L107.58,150.9L89.65,153.16L53.79,156.53L35.86,157.77L0,160.93Z" style="fill: rgb(91, 37, 73); fill-opacity: 0.5; stroke-width: 0;"/></g></g><g class="errorbars"/><g class="lines"><path class="js-line" d="M0,160.93L35.86,157.77L53.79,156.53L89.65,153.16L107.58,150.9L161.37,142.3L179.3,140.44L215.17,138.79L233.1,138.8L251.03,138.56L268.96,137.42L286.89,134.83L304.82,130.57L358.61,113.19" style="vector-effect: none; fill: none; stroke: rgb(91, 37, 73); strokeOpacity: 1; stroke-width: 2px; opacity: 1;"/></g><g class="points"/><g class="text"/></g><g class="trace scatter trace6889db" style="stroke-miterlimit: 2;"><g class="fills"><g><path class="js-fill" d="M0,160.93L35.86,157.77L53.79,156.53L89.65,153.16L107.58,150.9L143.44,144.86L161.37,140.68L197.24,130.57L215.17,127.09L233.1,125.83L251.03,125.74L286.89,125.99L304.82,124.78L322.75,121.87L340.68,117.62L358.61,112.99L358.61,113.19L322.75,124.02L304.82,128.55L286.89,131.29L268.96,132.43L215.17,132.63L197.24,134.15L161.37,140.68L143.44,144.86L107.58,150.9L89.65,153.16L53.79,156.53L35.86,157.77L0,160.93Z" style="fill: rgb(91, 37, 73); fill-opacity: 0.5; stroke-width: 0;"/></g></g><g class="errorbars"/><g class="lines"><path class="js-line" d="M0,160.93L35.86,157.77L53.79,156.53L89.65,153.16L107.58,150.9L143.44,144.86L161.37,140.68L197.24,134.15L215.17,132.63L268.96,132.43L286.89,131.29L304.82,128.55L322.75,124.02L358.61,113.19" style="vector-effect: none; fill: none; stroke: rgb(91, 37, 73); strokeOpacity: 1; stroke-width: 2px; opacity: 1;"/></g><g class="points"/><g class="text"/></g><g class="trace scatter tracefbc15f" style="stroke-miterlimit: 2;"><g class="fills"><g><path class="js-fill" d="M0,160.93L35.86,157.77L53.79,156.53L89.65,153.16L107.58,150.9L143.44,144.86L161.37,140.68L179.3,135.35L197.24,128.8L215.17,123.4L233.1,120.13L251.03,118.99L268.96,119.02L304.82,119.32L322.75,118L358.61,112.09L358.61,112.99L340.68,117.62L322.75,121.87L304.82,124.78L286.89,125.99L251.03,125.74L233.1,125.83L215.17,127.09L197.24,130.57L161.37,140.68L143.44,144.86L107.58,150.9L89.65,153.16L53.79,156.53L35.86,157.77L0,160.93Z" style="fill: rgb(91, 37, 73); fill-opacity: 0.5; stroke-width: 0;"/></g></g><g class="errorbars"/><g class="lines"><path class="js-line" d="M0,160.93L35.86,157.77L53.79,156.53L89.65,153.16L107.58,150.9L143.44,144.86L161.37,140.68L197.24,130.57L215.17,127.09L233.1,125.83L251.03,125.74L286.89,125.99L304.82,124.78L322.75,121.87L340.68,117.62L358.61,112.99" style="vector-effect: none; fill: none; stroke: rgb(91, 37, 73); strokeOpacity: 1; stroke-width: 2px; opacity: 1;"/></g><g class="points"/><g class="text"/></g><g class="trace scatter tracefe1916" style="stroke-miterlimit: 2;"><g class="fills"><g><path class="js-fill" d="M0,160.93L35.86,157.77L53.79,156.53L89.65,153.16L107.58,150.9L143.44,144.86L161.37,140.68L179.3,135.35L197.24,128.8L215.17,121.58L233.1,116.34L251.03,113.13L268.96,112.09L322.75,112.38L340.68,111.41L358.61,109.81L358.61,112.09L322.75,118L304.82,119.32L268.96,119.02L251.03,118.99L233.1,120.13L215.17,123.4L197.24,128.8L179.3,135.35L161.37,140.68L143.44,144.86L107.58,150.9L89.65,153.16L53.79,156.53L35.86,157.77L0,160.93Z" style="fill: rgb(91, 37, 73); fill-opacity: 0.5; stroke-width: 0;"/></g></g><g class="errorbars"/><g class="lines"><path class="js-line" d="M0,160.93L35.86,157.77L53.79,156.53L89.65,153.16L107.58,150.9L143.44,144.86L161.37,140.68L179.3,135.35L197.24,128.8L215.17,123.4L233.1,120.13L251.03,118.99L268.96,119.02L304.82,119.32L322.75,118L358.61,112.09" style="vector-effect: none; fill: none; stroke: rgb(91, 37, 73); strokeOpacity: 1; stroke-width: 2px; opacity: 1;"/></g><g class="points"/><g class="text"/></g><g class="trace scatter traceb68167" style="stroke-miterlimit: 2;"><g class="fills"><g><path class="js-fill" d="M0,160.93L35.86,157.77L53.79,156.53L89.65,153.16L107.58,150.9L143.44,144.86L161.37,140.68L179.3,135.35L197.24,128.8L233.1,114.46L251.03,109.21L268.96,106.03L286.89,105.03L358.61,105.7L358.61,109.81L340.68,111.41L322.75,112.38L268.96,112.09L251.03,113.13L233.1,116.34L215.17,121.58L197.24,128.8L179.3,135.35L161.37,140.68L143.44,144.86L107.58,150.9L89.65,153.16L53.79,156.53L35.86,157.77L0,160.93Z" style="fill: rgb(91, 37, 73); fill-opacity: 0.5; stroke-width: 0;"/></g></g><g class="errorbars"/><g class="lines"><path class="js-line" d="M0,160.93L35.86,157.77L53.79,156.53L89.65,153.16L107.58,150.9L143.44,144.86L161.37,140.68L179.3,135.35L197.24,128.8L215.17,121.58L233.1,116.34L251.03,113.13L268.96,112.09L322.75,112.38L340.68,111.41L358.61,109.81" style="vector-effect: none; fill: none; stroke: rgb(91, 37, 73); strokeOpacity: 1; stroke-width: 2px; opacity: 1;"/></g><g class="points"/><g class="text"/></g><g class="trace scatter tracecc86b2" style="stroke-miterlimit: 2;"><g class="fills"><g><path class="js-fill" d="M0,160.93L35.86,157.77L53.79,156.53L89.65,153.16L107.58,150.9L143.44,144.86L161.37,140.68L179.3,135.35L197.24,128.8L251.03,107.27L268.96,101.97L286.89,98.75L304.82,97.67L340.68,98.38L358.61,99.69L358.61,105.7L286.89,105.03L268.96,106.03L251.03,109.21L233.1,114.46L197.24,128.8L179.3,135.35L161.37,140.68L143.44,144.86L107.58,150.9L89.65,153.16L53.79,156.53L35.86,157.77L0,160.93Z" style="fill: rgb(91, 37, 73); fill-opacity: 0.5; stroke-width: 0;"/></g></g><g class="errorbars"/><g class="lines"><path class="js-line" d="M0,160.93L35.86,157.77L53.79,156.53L89.65,153.16L107.58,150.9L143.44,144.86L161.37,140.68L179.3,135.35L197.24,128.8L233.1,114.46L251.03,109.21L268.96,106.03L286.89,105.03L358.61,105.7" style="vector-effect: none; fill: none; stroke: rgb(91, 37, 73); strokeOpacity: 1; stroke-width: 2px; opacity: 1;"/></g><g class="points"/><g class="text"/></g><g class="trace scatter trace704c72" style="stroke-miterlimit: 2;"><g class="fills"><g><path class="js-fill" d="M0,160.93L35.86,157.77L53.79,156.53L89.65,153.16L107.58,150.9L143.44,144.86L161.37,140.68L179.3,135.35L197.24,128.8L268.96,99.93L286.89,94.51L304.82,91.12L322.75,89.9L340.68,90.3L358.61,92.12L358.61,99.69L340.68,98.38L304.82,97.67L286.89,98.75L268.96,101.97L251.03,107.27L197.24,128.8L179.3,135.35L161.37,140.68L143.44,144.86L107.58,150.9L89.65,153.16L53.79,156.53L35.86,157.77L0,160.93Z" style="fill: rgb(91, 37, 73); fill-opacity: 0.5; stroke-width: 0;"/></g></g><g class="errorbars"/><g class="lines"><path class="js-line" d="M0,160.93L35.86,157.77L53.79,156.53L89.65,153.16L107.58,150.9L143.44,144.86L161.37,140.68L179.3,135.35L197.24,128.8L251.03,107.27L268.96,101.97L286.89,98.75L304.82,97.67L340.68,98.38L358.61,99.69" style="vector-effect: none; fill: none; stroke: rgb(91, 37, 73); strokeOpacity: 1; stroke-width: 2px; opacity: 1;"/></g><g class="points"/><g class="text"/></g><g class="trace scatter tracef6f3dc" style="stroke-miterlimit: 2;"><g class="fills"><g><path class="js-fill" d="M0,160.93L35.86,157.77L53.79,156.53L89.65,153.16L107.58,150.9L143.44,144.86L161.37,140.68L179.3,135.35L197.24,128.8L286.89,92.37L304.82,86.66L322.75,83.03L340.68,82.16L358.61,83.65L358.61,92.12L340.68,90.3L322.75,89.9L304.82,91.12L286.89,94.51L268.96,99.93L197.24,128.8L179.3,135.35L161.37,140.68L143.44,144.86L107.58,150.9L89.65,153.16L53.79,156.53L35.86,157.77L0,160.93Z" style="fill: rgb(91, 37, 73); fill-opacity: 0.5; stroke-width: 0;"/></g></g><g class="errorbars"/><g class="lines"><path class="js-line" d="M0,160.93L35.86,157.77L53.79,156.53L89.65,153.16L107.58,150.9L143.44,144.86L161.37,140.68L179.3,135.35L197.24,128.8L268.96,99.93L286.89,94.51L304.82,91.12L322.75,89.9L340.68,90.3L358.61,92.12" style="vector-effect: none; fill: none; stroke: rgb(91, 37, 73); strokeOpacity: 1; stroke-width: 2px; opacity: 1;"/></g><g class="points"/><g class="text"/></g><g class="trace scatter trace78b4f1" style="stroke-miterlimit: 2;"><g class="fills"><g><path class="js-fill" d="M0,160.93L35.86,157.77L53.79,156.53L89.65,153.16L107.58,150.9L143.44,144.86L161.37,140.68L179.3,135.35L197.24,128.8L286.89,92.37L304.82,84.41L322.75,78.32L340.68,74.89L358.61,75.04L358.61,83.65L340.68,82.16L322.75,83.03L304.82,86.66L286.89,92.37L197.24,128.8L179.3,135.35L161.37,140.68L143.44,144.86L107.58,150.9L89.65,153.16L53.79,156.53L35.86,157.77L0,160.93Z" style="fill: rgb(91, 37, 73); fill-opacity: 0.5; stroke-width: 0;"/></g></g><g class="errorbars"/><g class="lines"><path class="js-line" d="M0,160.93L35.86,157.77L53.79,156.53L89.65,153.16L107.58,150.9L143.44,144.86L161.37,140.68L179.3,135.35L197.24,128.8L286.89,92.37L304.82,86.66L322.75,83.03L340.68,82.16L358.61,83.65" style="vector-effect: none; fill: none; stroke: rgb(91, 37, 73); strokeOpacity: 1; stroke-width: 2px; opacity: 1;"/></g><g class="points"/><g class="text"/></g><g class="trace scatter tracebd5303" style="stroke-miterlimit: 2;"><g class="fills"><g><path class="js-fill" d="M0,160.93L35.86,157.77L53.79,156.53L89.65,153.16L107.58,150.9L143.44,144.86L161.37,140.68L179.3,135.35L197.24,128.8L286.89,92.37L304.82,84.41L322.75,75.85L340.68,69.74L358.61,67.09L358.61,75.04L340.68,74.89L322.75,78.32L304.82,84.41L286.89,92.37L197.24,128.8L179.3,135.35L161.37,140.68L143.44,144.86L107.58,150.9L89.65,153.16L53.79,156.53L35.86,157.77L0,160.93Z" style="fill: rgb(91, 37, 73); fill-opacity: 0.5; stroke-width: 0;"/></g></g><g class="errorbars"/><g class="lines"><path class="js-line" d="M0,160.93L35.86,157.77L53.79,156.53L89.65,153.16L107.58,150.9L143.44,144.86L161.37,140.68L179.3,135.35L197.24,128.8L286.89,92.37L304.82,84.41L322.75,78.32L340.68,74.89L358.61,75.04" style="vector-effect: none; fill: none; stroke: rgb(91, 37, 73); strokeOpacity: 1; stroke-width: 2px; opacity: 1;"/></g><g class="points"/><g class="text"/></g><g class="trace scatter trace5fa26f" style="stroke-miterlimit: 2;"><g class="fills"><g><path class="js-fill" d="M0,160.93L35.86,157.77L53.79,156.53L89.65,153.16L107.58,150.9L143.44,144.86L161.37,140.68L179.3,135.35L197.24,128.8L286.89,92.37L304.82,84.41L340.68,66.64L358.61,60.63L358.61,67.09L340.68,69.74L322.75,75.85L304.82,84.41L286.89,92.37L197.24,128.8L179.3,135.35L161.37,140.68L143.44,144.86L107.58,150.9L89.65,153.16L53.79,156.53L35.86,157.77L0,160.93Z" style="fill: rgb(91, 37, 73); fill-opacity: 0.5; stroke-width: 0;"/></g></g><g class="errorbars"/><g class="lines"><path class="js-line" d="M0,160.93L35.86,157.77L53.79,156.53L89.65,153.16L107.58,150.9L143.44,144.86L161.37,140.68L179.3,135.35L197.24,128.8L286.89,92.37L304.82,84.41L322.75,75.85L340.68,69.74L358.61,67.09" style="vector-effect: none; fill: none; stroke: rgb(91, 37, 73); strokeOpacity: 1; stroke-width: 2px; opacity: 1;"/></g><g class="points"/><g class="text"/></g><g class="trace scatter trace6359b3" style="stroke-miterlimit: 2;"><g class="fills"><g><path class="js-fill" d="M0,160.93L35.86,157.77L53.79,156.53L89.65,153.16L107.58,150.9L143.44,144.86L161.37,140.68L179.3,135.35L197.24,128.8L286.89,92.37L304.82,84.41L340.68,66.64L358.61,56.7L358.61,60.63L340.68,66.64L304.82,84.41L286.89,92.37L197.24,128.8L179.3,135.35L161.37,140.68L143.44,144.86L107.58,150.9L89.65,153.16L53.79,156.53L35.86,157.77L0,160.93Z" style="fill: rgb(91, 37, 73); fill-opacity: 0.5; stroke-width: 0;"/></g></g><g class="errorbars"/><g class="lines"><path class="js-line" d="M0,160.93L35.86,157.77L53.79,156.53L89.65,153.16L107.58,150.9L143.44,144.86L161.37,140.68L179.3,135.35L197.24,128.8L286.89,92.37L304.82,84.41L340.68,66.64L358.61,60.63" style="vector-effect: none; fill: none; stroke: rgb(91, 37, 73); strokeOpacity: 1; stroke-width: 2px; opacity: 1;"/></g><g class="points"/><g class="text"/></g><g class="trace scatter traced64024" style="stroke-miterlimit: 2;"><g class="fills"><g><path class="js-fill" d="M0,160.93L35.86,157.77L53.79,156.53L89.65,153.16L107.58,150.9L143.44,144.86L161.37,140.68L179.3,135.35L197.24,128.8L286.89,92.37L304.82,84.41L340.68,66.64L358.61,56.7L358.61,56.7L340.68,66.64L304.82,84.41L286.89,92.37L197.24,128.8L179.3,135.35L161.37,140.68L143.44,144.86L107.58,150.9L89.65,153.16L53.79,156.53L35.86,157.77L0,160.93Z" style="fill: rgb(91, 37, 73); fill-opacity: 0.5; stroke-width: 0;"/></g></g><g class="errorbars"/><g class="lines"><path class="js-line" d="M0,160.93L35.86,157.77L53.79,156.53L89.65,153.16L107.58,150.9L143.44,144.86L161.37,140.68L179.3,135.35L197.24,128.8L286.89,92.37L304.82,84.41L340.68,66.64L358.61,56.7" style="vector-effect: none; fill: none; stroke: rgb(91, 37, 73); strokeOpacity: 1; stroke-width: 2px; opacity: 1;"/></g><g class="points"/><g class="text"/></g><g class="trace scatter trace49b976" style="stroke-miterlimit: 2;"><g class="fills"><g><path class="js-fill" d="M0,160.93L35.86,157.77L53.79,156.53L89.65,153.16L107.58,150.9L143.44,144.86L161.37,140.68L179.3,135.35L197.24,128.8L286.89,92.37L304.82,84.41L340.68,66.64L358.61,56.7L358.61,56.7L340.68,66.64L304.82,84.41L286.89,92.37L197.24,128.8L179.3,135.35L161.37,140.68L143.44,144.86L107.58,150.9L89.65,153.16L53.79,156.53L35.86,157.77L0,160.93Z" style="fill: rgb(55, 52, 44); fill-opacity: 0.5; stroke-width: 0;"/></g></g><g class="errorbars"/><g class="lines"><path class="js-line" d="M0,160.93L35.86,157.77L53.79,156.53L89.65,153.16L107.58,150.9L143.44,144.86L161.37,140.68L179.3,135.35L197.24,128.8L286.89,92.37L304.82,84.41L340.68,66.64L358.61,56.7" style="vector-effect: none; fill: none; stroke: rgb(91, 37, 73); strokeOpacity: 1; stroke-width: 2px; opacity: 1;"/></g><g class="points"/><g class="text"/></g><g class="trace scatter trace8ac296" style="stroke-miterlimit: 2;"><g class="fills"><g><path class="js-fill" d="M0,160.93L35.86,157.77L53.79,156.53L89.65,153.16L107.58,150.9L143.44,144.86L161.37,140.68L179.3,135.35L197.24,128.8L286.89,92.37L304.82,84.41L340.68,66.64L358.61,56.7L358.61,56.7L340.68,66.64L304.82,84.41L286.89,92.37L197.24,128.8L179.3,135.35L161.37,140.68L143.44,144.86L107.58,150.9L89.65,153.16L53.79,156.53L35.86,157.77L0,160.93Z" style="fill: rgb(55, 52, 44); fill-opacity: 0.5; stroke-width: 0;"/></g></g><g class="errorbars"/><g class="lines"><path class="js-line" d="M0,160.93L35.86,157.77L53.79,156.53L89.65,153.16L107.58,150.9L143.44,144.86L161.37,140.68L179.3,135.35L197.24,128.8L286.89,92.37L304.82,84.41L340.68,66.64L358.61,56.7" style="vector-effect: none; fill: none; stroke: rgb(55, 52, 44); strokeOpacity: 1; stroke-width: 2px; opacity: 1;"/></g><g class="points"/><g class="text"/></g><g class="trace scatter trace96aad1" style="stroke-miterlimit: 2;"><g class="fills"><g><path class="js-fill" d="M0,160.93L35.86,157.77L53.79,156.53L89.65,153.16L107.58,150.9L143.44,144.86L161.37,140.68L179.3,135.35L197.24,128.8L286.89,92.37L304.82,84.41L340.68,66.64L358.61,56.7L358.61,56.7L340.68,66.64L304.82,84.41L286.89,92.37L197.24,128.8L179.3,135.35L161.37,140.68L143.44,144.86L107.58,150.9L89.65,153.16L53.79,156.53L35.86,157.77L0,160.93Z" style="fill: rgb(55, 52, 44); fill-opacity: 0.5; stroke-width: 0;"/></g></g><g class="errorbars"/><g class="lines"><path class="js-line" d="M0,160.93L35.86,157.77L53.79,156.53L89.65,153.16L107.58,150.9L143.44,144.86L161.37,140.68L179.3,135.35L197.24,128.8L286.89,92.37L304.82,84.41L340.68,66.64L358.61,56.7" style="vector-effect: none; fill: none; stroke: rgb(55, 52, 44); strokeOpacity: 1; stroke-width: 2px; opacity: 1;"/></g><g class="points"/><g class="text"/></g><g class="trace scatter trace4aca4a" style="stroke-miterlimit: 2;"><g class="fills"><g><path class="js-fill" d="M0,160.93L35.86,157.77L53.79,156.53L89.65,153.16L107.58,150.9L143.44,144.86L161.37,140.68L179.3,135.35L197.24,128.8L286.89,92.37L304.82,84.41L340.68,66.64L358.61,56.7L358.61,56.7L340.68,66.64L304.82,84.41L286.89,92.37L197.24,128.8L179.3,135.35L161.37,140.68L143.44,144.86L107.58,150.9L89.65,153.16L53.79,156.53L35.86,157.77L0,160.93Z" style="fill: rgb(55, 52, 44); fill-opacity: 0.5; stroke-width: 0;"/></g></g><g class="errorbars"/><g class="lines"><path class="js-line" d="M0,160.93L35.86,157.77L53.79,156.53L89.65,153.16L107.58,150.9L143.44,144.86L161.37,140.68L179.3,135.35L197.24,128.8L286.89,92.37L304.82,84.41L340.68,66.64L358.61,56.7" style="vector-effect: none; fill: none; stroke: rgb(55, 52, 44); strokeOpacity: 1; stroke-width: 2px; opacity: 1;"/></g><g class="points"/><g class="text"/></g><g class="trace scatter trace11572e" style="stroke-miterlimit: 2;"><g class="fills"><g><path class="js-fill" d="M0,160.93L35.86,157.77L53.79,156.53L89.65,153.16L107.58,150.9L143.44,144.86L161.37,140.68L179.3,135.35L197.24,128.8L286.89,92.37L304.82,84.41L340.68,66.64L358.61,56.7L358.61,56.7L340.68,66.64L304.82,84.41L286.89,92.37L197.24,128.8L179.3,135.35L161.37,140.68L143.44,144.86L107.58,150.9L89.65,153.16L53.79,156.53L35.86,157.77L0,160.93Z" style="fill: rgb(55, 52, 44); fill-opacity: 0.5; stroke-width: 0;"/></g></g><g class="errorbars"/><g class="lines"><path class="js-line" d="M0,160.93L35.86,157.77L53.79,156.53L89.65,153.16L107.58,150.9L143.44,144.86L161.37,140.68L179.3,135.35L197.24,128.8L286.89,92.37L304.82,84.41L340.68,66.64L358.61,56.7" style="vector-effect: none; fill: none; stroke: rgb(55, 52, 44); strokeOpacity: 1; stroke-width: 2px; opacity: 1;"/></g><g class="points"/><g class="text"/></g><g class="trace scatter trace269869" style="stroke-miterlimit: 2;"><g class="fills"><g><path class="js-fill" d="M0,160.93L35.86,157.77L53.79,156.53L89.65,153.16L107.58,150.9L143.44,144.86L161.37,140.68L179.3,135.35L197.24,128.8L286.89,92.37L304.82,84.41L340.68,66.64L358.61,56.7L358.61,56.7L340.68,66.64L304.82,84.41L286.89,92.37L197.24,128.8L179.3,135.35L161.37,140.68L143.44,144.86L107.58,150.9L89.65,153.16L53.79,156.53L35.86,157.77L0,160.93Z" style="fill: rgb(55, 52, 44); fill-opacity: 0.5; stroke-width: 0;"/></g></g><g class="errorbars"/><g class="lines"><path class="js-line" d="M0,160.93L35.86,157.77L53.79,156.53L89.65,153.16L107.58,150.9L143.44,144.86L161.37,140.68L179.3,135.35L197.24,128.8L286.89,92.37L304.82,84.41L340.68,66.64L358.61,56.7" style="vector-effect: none; fill: none; stroke: rgb(55, 52, 44); strokeOpacity: 1; stroke-width: 2px; opacity: 1;"/></g><g class="points"/><g class="text"/></g><g class="trace scatter traced3842a" style="stroke-miterlimit: 2;"><g class="fills"><g><path class="js-fill" d="M0,160.93L35.86,157.77L53.79,156.53L89.65,153.16L107.58,150.9L143.44,144.86L161.37,140.68L179.3,135.35L197.24,128.8L286.89,92.37L304.82,84.41L340.68,66.64L358.61,56.7L358.61,56.7L340.68,66.64L304.82,84.41L286.89,92.37L197.24,128.8L179.3,135.35L161.37,140.68L143.44,144.86L107.58,150.9L89.65,153.16L53.79,156.53L35.86,157.77L0,160.93Z" style="fill: rgb(55, 52, 44); fill-opacity: 0.5; stroke-width: 0;"/></g></g><g class="errorbars"/><g class="lines"><path class="js-line" d="M0,160.93L35.86,157.77L53.79,156.53L89.65,153.16L107.58,150.9L143.44,144.86L161.37,140.68L179.3,135.35L197.24,128.8L286.89,92.37L304.82,84.41L340.68,66.64L358.61,56.7" style="vector-effect: none; fill: none; stroke: rgb(55, 52, 44); strokeOpacity: 1; stroke-width: 2px; opacity: 1;"/></g><g class="points"/><g class="text"/></g><g class="trace scatter trace3c0030" style="stroke-miterlimit: 2;"><g class="fills"><g><path class="js-fill" d="M0,160.93L35.86,157.77L53.79,156.53L89.65,153.16L107.58,150.9L143.44,144.86L161.37,140.68L179.3,135.35L197.24,128.8L286.89,92.37L304.82,84.41L340.68,66.64L358.61,56.7L358.61,56.7L340.68,66.64L304.82,84.41L286.89,92.37L197.24,128.8L179.3,135.35L161.37,140.68L143.44,144.86L107.58,150.9L89.65,153.16L53.79,156.53L35.86,157.77L0,160.93Z" style="fill: rgb(55, 52, 44); fill-opacity: 0.5; stroke-width: 0;"/></g></g><g class="errorbars"/><g class="lines"><path class="js-line" d="M0,160.93L35.86,157.77L53.79,156.53L89.65,153.16L107.58,150.9L143.44,144.86L161.37,140.68L179.3,135.35L197.24,128.8L286.89,92.37L304.82,84.41L340.68,66.64L358.61,56.7" style="vector-effect: none; fill: none; stroke: rgb(55, 52, 44); strokeOpacity: 1; stroke-width: 2px; opacity: 1;"/></g><g class="points"/><g class="text"/></g><g class="trace scatter traced95e20" style="stroke-miterlimit: 2;"><g class="fills"><g><path class="js-fill" d="M0,160.93L35.86,157.77L53.79,156.53L89.65,153.16L107.58,150.9L143.44,144.86L161.37,140.68L179.3,135.35L197.24,128.8L286.89,92.37L304.82,84.41L340.68,66.64L358.61,56.7L358.61,56.7L340.68,66.64L304.82,84.41L286.89,92.37L197.24,128.8L179.3,135.35L161.37,140.68L143.44,144.86L107.58,150.9L89.65,153.16L53.79,156.53L35.86,157.77L0,160.93Z" style="fill: rgb(55, 52, 44); fill-opacity: 0.5; stroke-width: 0;"/></g></g><g class="errorbars"/><g class="lines"><path class="js-line" d="M0,160.93L35.86,157.77L53.79,156.53L89.65,153.16L107.58,150.9L143.44,144.86L161.37,140.68L179.3,135.35L197.24,128.8L286.89,92.37L304.82,84.41L340.68,66.64L358.61,56.7" style="vector-effect: none; fill: none; stroke: rgb(55, 52, 44); strokeOpacity: 1; stroke-width: 2px; opacity: 1;"/></g><g class="points"/><g class="text"/></g><g class="trace scatter trace0f4216" style="stroke-miterlimit: 2;"><g class="fills"><g><path class="js-fill" d="M0,160.93L35.86,157.77L53.79,156.53L89.65,153.16L107.58,150.9L143.44,144.86L161.37,140.68L179.3,135.35L197.24,128.8L286.89,92.37L304.82,84.41L340.68,66.64L358.61,56.7L358.61,56.7L340.68,66.64L304.82,84.41L286.89,92.37L197.24,128.8L179.3,135.35L161.37,140.68L143.44,144.86L107.58,150.9L89.65,153.16L53.79,156.53L35.86,157.77L0,160.93Z" style="fill: rgb(55, 52, 44); fill-opacity: 0.5; stroke-width: 0;"/></g></g><g class="errorbars"/><g class="lines"><path class="js-line" d="M0,160.93L35.86,157.77L53.79,156.53L89.65,153.16L107.58,150.9L143.44,144.86L161.37,140.68L179.3,135.35L197.24,128.8L286.89,92.37L304.82,84.41L340.68,66.64L358.61,56.7" style="vector-effect: none; fill: none; stroke: rgb(55, 52, 44); strokeOpacity: 1; stroke-width: 2px; opacity: 1;"/></g><g class="points"/><g class="text"/></g><g class="trace scatter traceefad9c" style="stroke-miterlimit: 2;"><g class="fills"><g><path class="js-fill" d="M0,160.93L35.86,157.77L53.79,156.53L89.65,153.16L107.58,150.9L143.44,144.86L161.37,140.68L179.3,135.35L197.24,128.8L286.89,92.37L304.82,84.41L340.68,66.64L358.61,56.7L358.61,56.7L340.68,66.64L304.82,84.41L286.89,92.37L197.24,128.8L179.3,135.35L161.37,140.68L143.44,144.86L107.58,150.9L89.65,153.16L53.79,156.53L35.86,157.77L0,160.93Z" style="fill: rgb(55, 52, 44); fill-opacity: 0.5; stroke-width: 0;"/></g></g><g class="errorbars"/><g class="lines"><path class="js-line" d="M0,160.93L35.86,157.77L53.79,156.53L89.65,153.16L107.58,150.9L143.44,144.86L161.37,140.68L179.3,135.35L197.24,128.8L286.89,92.37L304.82,84.41L340.68,66.64L358.61,56.7" style="vector-effect: none; fill: none; stroke: rgb(55, 52, 44); strokeOpacity: 1; stroke-width: 2px; opacity: 1;"/></g><g class="points"/><g class="text"/></g><g class="trace scatter trace035146" style="stroke-miterlimit: 2;"><g class="fills"><g><path class="js-fill" d="M0,160.93L35.86,157.77L53.79,156.53L89.65,153.16L107.58,150.9L143.44,144.86L161.37,140.68L179.3,135.35L197.24,128.8L286.89,92.37L304.82,84.41L340.68,66.64L358.61,56.7L358.61,56.7L340.68,66.64L304.82,84.41L286.89,92.37L197.24,128.8L179.3,135.35L161.37,140.68L143.44,144.86L107.58,150.9L89.65,153.16L53.79,156.53L35.86,157.77L0,160.93Z" style="fill: rgb(55, 52, 44); fill-opacity: 0.5; stroke-width: 0;"/></g></g><g class="errorbars"/><g class="lines"><path class="js-line" d="M0,160.93L35.86,157.77L53.79,156.53L89.65,153.16L107.58,150.9L143.44,144.86L161.37,140.68L179.3,135.35L197.24,128.8L286.89,92.37L304.82,84.41L340.68,66.64L358.61,56.7" style="vector-effect: none; fill: none; stroke: rgb(55, 52, 44); strokeOpacity: 1; stroke-width: 2px; opacity: 1;"/></g><g class="points"/><g class="text"/></g><g class="trace scatter tracea05750" style="stroke-miterlimit: 2;"><g class="fills"><g><path class="js-fill" d="M0,160.93L17.93,157.14L35.86,154.73L107.58,146.3L125.51,143.58L161.37,137.19L179.3,133.12L197.24,127.96L215.17,121.58L286.89,92.37L304.82,84.41L340.68,66.64L358.61,56.7L358.61,56.7L340.68,66.64L304.82,84.41L286.89,92.37L197.24,128.8L179.3,135.35L161.37,140.68L143.44,144.86L107.58,150.9L89.65,153.16L53.79,156.53L35.86,157.77L0,160.93Z" style="fill: rgb(55, 52, 44); fill-opacity: 0.5; stroke-width: 0;"/></g></g><g class="errorbars"/><g class="lines"><path class="js-line" d="M0,160.93L35.86,157.77L53.79,156.53L89.65,153.16L107.58,150.9L143.44,144.86L161.37,140.68L179.3,135.35L197.24,128.8L286.89,92.37L304.82,84.41L340.68,66.64L358.61,56.7" style="vector-effect: none; fill: none; stroke: rgb(55, 52, 44); strokeOpacity: 1; stroke-width: 2px; opacity: 1;"/></g><g class="points"/><g class="text"/></g><g class="trace scatter traceb0b958" style="stroke-miterlimit: 2;"><g class="fills"><g><path class="js-fill" d="M0,160.93L35.86,153.08L53.79,150.16L125.51,139.61L143.44,136.57L179.3,130.1L197.24,126.03L215.17,120.85L233.1,114.45L286.89,92.37L304.82,84.41L340.68,66.64L358.61,56.7L358.61,56.7L340.68,66.64L304.82,84.41L286.89,92.37L215.17,121.58L197.24,127.96L179.3,133.12L161.37,137.19L125.51,143.58L107.58,146.3L35.86,154.73L17.93,157.14L0,160.93Z" style="fill: rgb(55, 52, 44); fill-opacity: 0.5; stroke-width: 0;"/></g></g><g class="errorbars"/><g class="lines"><path class="js-line" d="M0,160.93L17.93,157.14L35.86,154.73L107.58,146.3L125.51,143.58L161.37,137.19L179.3,133.12L197.24,127.96L215.17,121.58L286.89,92.37L304.82,84.41L340.68,66.64L358.61,56.7" style="vector-effect: none; fill: none; stroke: rgb(55, 52, 44); strokeOpacity: 1; stroke-width: 2px; opacity: 1;"/></g><g class="points"/><g class="text"/></g><g class="trace scatter trace155d82" style="stroke-miterlimit: 2;"><g class="fills"><g><path class="js-fill" d="M0,160.93L35.86,153.08L53.79,148.7L89.65,142.26L107.58,139.28L197.24,123.35L215.17,119.14L233.1,113.81L251.03,107.26L286.89,92.37L304.82,84.41L340.68,66.64L358.61,56.7L358.61,56.7L340.68,66.64L304.82,84.41L286.89,92.37L233.1,114.45L215.17,120.85L197.24,126.03L179.3,130.1L143.44,136.57L125.51,139.61L53.79,150.16L35.86,153.08L0,160.93Z" style="fill: rgb(55, 52, 44); fill-opacity: 0.5; stroke-width: 0;"/></g></g><g class="errorbars"/><g class="lines"><path class="js-line" d="M0,160.93L35.86,153.08L53.79,150.16L125.51,139.61L143.44,136.57L179.3,130.1L197.24,126.03L215.17,120.85L233.1,114.45L286.89,92.37L304.82,84.41L340.68,66.64L358.61,56.7" style="vector-effect: none; fill: none; stroke: rgb(55, 52, 44); strokeOpacity: 1; stroke-width: 2px; opacity: 1;"/></g><g class="points"/><g class="text"/></g><g class="trace scatter trace8bd61e" style="stroke-miterlimit: 2;"><g class="fills"><g><path class="js-fill" d="M0,160.93L35.86,153.08L53.79,148.7L71.72,143.96L89.65,140.12L161.37,126.71L179.3,123.57L215.17,116.69L233.1,112.24L251.03,106.67L268.96,99.93L304.82,84.41L322.75,75.85L358.61,56.7L358.61,56.7L340.68,66.64L304.82,84.41L286.89,92.37L251.03,107.26L233.1,113.81L215.17,119.14L197.24,123.35L107.58,139.28L89.65,142.26L53.79,148.7L35.86,153.08L0,160.93Z" style="fill: rgb(55, 52, 44); fill-opacity: 0.5; stroke-width: 0;"/></g></g><g class="errorbars"/><g class="lines"><path class="js-line" d="M0,160.93L35.86,153.08L53.79,148.7L89.65,142.26L107.58,139.28L197.24,123.35L215.17,119.14L233.1,113.81L251.03,107.26L286.89,92.37L304.82,84.41L340.68,66.64L358.61,56.7" style="vector-effect: none; fill: none; stroke: rgb(55, 52, 44); strokeOpacity: 1; stroke-width: 2px; opacity: 1;"/></g><g class="points"/><g class="text"/></g><g class="trace scatter tracea73773" style="stroke-miterlimit: 2;"><g class="fills"><g><path class="js-fill" d="M0,160.93L35.86,153.08L53.79,148.7L107.58,134.64L125.51,130.82L179.3,120.54L197.24,117.29L233.1,109.94L251.03,105.2L268.96,99.37L286.89,92.37L322.75,75.85L340.68,66.64L358.61,56.7L358.61,56.7L322.75,75.85L304.82,84.41L268.96,99.93L251.03,106.67L233.1,112.24L215.17,116.69L179.3,123.57L161.37,126.71L89.65,140.12L71.72,143.96L53.79,148.7L35.86,153.08L0,160.93Z" style="fill: rgb(55, 52, 44); fill-opacity: 0.5; stroke-width: 0;"/></g></g><g class="errorbars"/><g class="lines"><path class="js-line" d="M0,160.93L35.86,153.08L53.79,148.7L71.72,143.96L89.65,140.12L161.37,126.71L179.3,123.57L215.17,116.69L233.1,112.24L251.03,106.67L268.96,99.93L304.82,84.41L322.75,75.85L358.61,56.7" style="vector-effect: none; fill: none; stroke: rgb(55, 52, 44); strokeOpacity: 1; stroke-width: 2px; opacity: 1;"/></g><g class="points"/><g class="text"/></g><g class="trace scatter trace1d6c18" style="stroke-miterlimit: 2;"><g class="fills"><g><path class="js-fill" d="M0,160.93L35.86,153.08L53.79,148.7L89.65,138.87L107.58,133.42L143.44,124.78L161.37,121.1L233.1,107.18L251.03,102.95L268.96,97.94L286.89,91.83L304.82,84.4L322.75,75.85L358.61,56.7L358.61,56.7L340.68,66.64L322.75,75.85L286.89,92.37L268.96,99.37L251.03,105.2L233.1,109.94L197.24,117.29L179.3,120.54L125.51,130.82L107.58,134.64L53.79,148.7L35.86,153.08L0,160.93Z" style="fill: rgb(55, 52, 44); fill-opacity: 0.5; stroke-width: 0;"/></g></g><g class="errorbars"/><g class="lines"><path class="js-line" d="M0,160.93L35.86,153.08L53.79,148.7L107.58,134.64L125.51,130.82L179.3,120.54L197.24,117.29L233.1,109.94L251.03,105.2L268.96,99.37L286.89,92.37L322.75,75.85L340.68,66.64L358.61,56.7" style="vector-effect: none; fill: none; stroke: rgb(55, 52, 44); strokeOpacity: 1; stroke-width: 2px; opacity: 1;"/></g><g class="points"/><g class="text"/></g><g class="trace scatter trace8dff17" style="stroke-miterlimit: 2;"><g class="fills"><g><path class="js-fill" d="M0,160.93L35.86,153.08L53.79,148.7L89.65,138.87L107.58,133.42L125.51,127.61L143.44,122.77L179.3,114.94L197.24,111.41L251.03,100.12L268.96,95.64L286.89,90.36L304.82,83.85L322.75,75.85L340.68,66.64L358.61,56.7L358.61,56.7L322.75,75.85L304.82,84.4L286.89,91.83L268.96,97.94L251.03,102.95L233.1,107.18L161.37,121.1L143.44,124.78L107.58,133.42L89.65,138.87L53.79,148.7L35.86,153.08L0,160.93Z" style="fill: rgb(55, 52, 44); fill-opacity: 0.5; stroke-width: 0;"/></g></g><g class="errorbars"/><g class="lines"><path class="js-line" d="M0,160.93L35.86,153.08L53.79,148.7L89.65,138.87L107.58,133.42L143.44,124.78L161.37,121.1L233.1,107.18L251.03,102.95L268.96,97.94L286.89,91.83L304.82,84.4L322.75,75.85L358.61,56.7" style="vector-effect: none; fill: none; stroke: rgb(55, 52, 44); strokeOpacity: 1; stroke-width: 2px; opacity: 1;"/></g><g class="points"/><g class="text"/></g><g class="trace scatter trace3a539b" style="stroke-miterlimit: 2;"><g class="fills"><g><path class="js-fill" d="M0,160.93L35.86,153.08L53.79,148.7L89.65,138.87L107.58,133.42L143.44,121.4L161.37,116.43L197.24,108.4L215.17,104.65L268.96,92.53L286.89,87.83L304.82,82.24L322.75,75.24L340.68,66.64L358.61,56.7L358.61,56.7L340.68,66.64L322.75,75.85L304.82,83.85L286.89,90.36L268.96,95.64L251.03,100.12L197.24,111.41L179.3,114.94L143.44,122.77L125.51,127.61L107.58,133.42L89.65,138.87L53.79,148.7L35.86,153.08L0,160.93Z" style="fill: rgb(55, 52, 44); fill-opacity: 0.5; stroke-width: 0;"/></g></g><g class="errorbars"/><g class="lines"><path class="js-line" d="M0,160.93L35.86,153.08L53.79,148.7L89.65,138.87L107.58,133.42L125.51,127.61L143.44,122.77L179.3,114.94L197.24,111.41L251.03,100.12L268.96,95.64L286.89,90.36L304.82,83.85L322.75,75.85L340.68,66.64L358.61,56.7" style="vector-effect: none; fill: none; stroke: rgb(55, 52, 44); strokeOpacity: 1; stroke-width: 2px; opacity: 1;"/></g><g class="points"/><g class="text"/></g><g class="trace scatter trace05c754" style="stroke-miterlimit: 2;"><g class="fills"><g><path class="js-fill" d="M0,160.93L35.86,153.08L53.79,148.7L89.65,138.87L107.58,133.42L143.44,121.4L161.37,114.79L197.24,105.17L215.17,101.05L286.89,84.13L304.82,79.22L322.75,73.32L340.68,65.91L358.61,56.7L358.61,56.7L340.68,66.64L322.75,75.24L304.82,82.24L286.89,87.83L268.96,92.53L215.17,104.65L197.24,108.4L161.37,116.43L143.44,121.4L107.58,133.42L89.65,138.87L53.79,148.7L35.86,153.08L0,160.93Z" style="fill: rgb(55, 52, 44); fill-opacity: 0.5; stroke-width: 0;"/></g></g><g class="errorbars"/><g class="lines"><path class="js-line" d="M0,160.93L35.86,153.08L53.79,148.7L89.65,138.87L107.58,133.42L143.44,121.4L161.37,116.43L197.24,108.4L215.17,104.65L268.96,92.53L286.89,87.83L304.82,82.24L322.75,75.24L340.68,66.64L358.61,56.7" style="vector-effect: none; fill: none; stroke: rgb(55, 52, 44); strokeOpacity: 1; stroke-width: 2px; opacity: 1;"/></g><g class="points"/><g class="text"/></g><g class="trace scatter trace6f4b35" style="stroke-miterlimit: 2;"><g class="fills"><g><path class="js-fill" d="M0,160.93L35.86,153.08L53.79,148.7L89.65,138.87L107.58,133.42L143.44,121.4L161.37,114.79L179.3,107.77L197.24,102.24L251.03,88.54L268.96,84.12L304.82,75.09L322.75,69.95L340.68,63.76L358.61,55.88L358.61,56.7L340.68,65.91L322.75,73.32L304.82,79.22L286.89,84.13L215.17,101.05L197.24,105.17L161.37,114.79L143.44,121.4L107.58,133.42L89.65,138.87L53.79,148.7L35.86,153.08L0,160.93Z" style="fill: rgb(55, 52, 44); fill-opacity: 0.5; stroke-width: 0;"/></g></g><g class="errorbars"/><g class="lines"><path class="js-line" d="M0,160.93L35.86,153.08L53.79,148.7L89.65,138.87L107.58,133.42L143.44,121.4L161.37,114.79L197.24,105.17L215.17,101.05L286.89,84.13L304.82,79.22L322.75,73.32L340.68,65.91L358.61,56.7" style="vector-effect: none; fill: none; stroke: rgb(55, 52, 44); strokeOpacity: 1; stroke-width: 2px; opacity: 1;"/></g><g class="points"/><g class="text"/></g><g class="trace scatter trace8fa61c" style="stroke-miterlimit: 2;"><g class="fills"><g><path class="js-fill" d="M0,160.93L35.86,153.08L53.79,148.7L89.65,138.87L107.58,133.42L143.44,121.4L161.37,114.79L197.24,100.34L215.17,94.41L251.03,84.38L268.96,79.69L322.75,65.67L340.68,60.28L358.61,53.66L358.61,55.88L340.68,63.76L322.75,69.95L304.82,75.09L268.96,84.12L251.03,88.54L197.24,102.24L179.3,107.77L161.37,114.79L143.44,121.4L107.58,133.42L89.65,138.87L53.79,148.7L35.86,153.08L0,160.93Z" style="fill: rgb(55, 52, 44); fill-opacity: 0.5; stroke-width: 0;"/></g></g><g class="errorbars"/><g class="lines"><path class="js-line" d="M0,160.93L35.86,153.08L53.79,148.7L89.65,138.87L107.58,133.42L143.44,121.4L161.37,114.79L179.3,107.77L197.24,102.24L251.03,88.54L268.96,84.12L304.82,75.09L322.75,69.95L340.68,63.76L358.61,55.88" style="vector-effect: none; fill: none; stroke: rgb(55, 52, 44); strokeOpacity: 1; stroke-width: 2px; opacity: 1;"/></g><g class="points"/><g class="text"/></g><g class="trace scatter trace075404" style="stroke-miterlimit: 2;"><g class="fills"><g><path class="js-fill" d="M0,160.93L35.86,153.08L53.79,148.7L89.65,138.87L107.58,133.42L143.44,121.4L161.37,114.79L197.24,100.34L215.17,92.5L251.03,80.62L268.96,75.5L340.68,55.96L358.61,50.15L358.61,53.66L340.68,60.28L322.75,65.67L268.96,79.69L251.03,84.38L215.17,94.41L197.24,100.34L161.37,114.79L143.44,121.4L107.58,133.42L89.65,138.87L53.79,148.7L35.86,153.08L0,160.93Z" style="fill: rgb(55, 52, 44); fill-opacity: 0.5; stroke-width: 0;"/></g></g><g class="errorbars"/><g class="lines"><path class="js-line" d="M0,160.93L35.86,153.08L53.79,148.7L89.65,138.87L107.58,133.42L143.44,121.4L161.37,114.79L197.24,100.34L215.17,94.41L251.03,84.38L268.96,79.69L322.75,65.67L340.68,60.28L358.61,53.66" style="vector-effect: none; fill: none; stroke: rgb(55, 52, 44); strokeOpacity: 1; stroke-width: 2px; opacity: 1;"/></g><g class="points"/><g class="text"/></g><g class="trace scatter trace2c1e75" style="stroke-miterlimit: 2;"><g class="fills"><g><path class="js-fill" d="M0,160.93L35.86,153.08L53.79,148.7L89.65,138.87L107.58,133.42L143.44,121.4L161.37,114.79L197.24,100.34L215.17,92.5L233.1,84.24L251.03,77.53L286.89,66.41L304.82,61.36L358.61,45.8L358.61,50.15L340.68,55.96L268.96,75.5L251.03,80.62L215.17,92.5L197.24,100.34L161.37,114.79L143.44,121.4L107.58,133.42L89.65,138.87L53.79,148.7L35.86,153.08L0,160.93Z" style="fill: rgb(55, 52, 44); fill-opacity: 0.5; stroke-width: 0;"/></g></g><g class="errorbars"/><g class="lines"><path class="js-line" d="M0,160.93L35.86,153.08L53.79,148.7L89.65,138.87L107.58,133.42L143.44,121.4L161.37,114.79L197.24,100.34L215.17,92.5L251.03,80.62L268.96,75.5L340.68,55.96L358.61,50.15" style="vector-effect: none; fill: none; stroke: rgb(55, 52, 44); strokeOpacity: 1; stroke-width: 2px; opacity: 1;"/></g><g class="points"/><g class="text"/></g><g class="trace scatter trace0934a5" style="stroke-miterlimit: 2;"><g class="fills"><g><path class="js-fill" d="M0,160.93L35.86,153.08L53.79,148.7L89.65,138.87L107.58,133.42L143.44,121.4L161.37,114.79L197.24,100.34L215.17,92.5L251.03,75.54L268.96,68.51L304.82,56.98L322.75,51.7L358.61,40.94L358.61,45.8L304.82,61.36L286.89,66.41L251.03,77.53L233.1,84.24L215.17,92.5L197.24,100.34L161.37,114.79L143.44,121.4L107.58,133.42L89.65,138.87L53.79,148.7L35.86,153.08L0,160.93Z" style="fill: rgb(55, 52, 44); fill-opacity: 0.5; stroke-width: 0;"/></g></g><g class="errorbars"/><g class="lines"><path class="js-line" d="M0,160.93L35.86,153.08L53.79,148.7L89.65,138.87L107.58,133.42L143.44,121.4L161.37,114.79L197.24,100.34L215.17,92.5L233.1,84.24L251.03,77.53L286.89,66.41L304.82,61.36L358.61,45.8" style="vector-effect: none; fill: none; stroke: rgb(55, 52, 44); strokeOpacity: 1; stroke-width: 2px; opacity: 1;"/></g><g class="points"/><g class="text"/></g><g class="trace scatter trace689e29" style="stroke-miterlimit: 2;"><g class="fills"><g><path class="js-fill" d="M0,160.93L35.86,153.08L53.79,148.7L89.65,138.87L107.58,133.42L143.44,121.4L161.37,114.79L197.24,100.34L215.17,92.5L251.03,75.54L268.96,66.35L286.89,59L304.82,52.72L358.61,35.71L358.61,40.94L322.75,51.7L304.82,56.98L268.96,68.51L251.03,75.54L215.17,92.5L197.24,100.34L161.37,114.79L143.44,121.4L107.58,133.42L89.65,138.87L53.79,148.7L35.86,153.08L0,160.93Z" style="fill: rgb(55, 52, 44); fill-opacity: 0.5; stroke-width: 0;"/></g></g><g class="errorbars"/><g class="lines"><path class="js-line" d="M0,160.93L35.86,153.08L53.79,148.7L89.65,138.87L107.58,133.42L143.44,121.4L161.37,114.79L197.24,100.34L215.17,92.5L251.03,75.54L268.96,68.51L304.82,56.98L322.75,51.7L358.61,40.94" style="vector-effect: none; fill: none; stroke: rgb(55, 52, 44); strokeOpacity: 1; stroke-width: 2px; opacity: 1;"/></g><g class="points"/><g class="text"/></g><g class="trace scatter traceb2df51" style="stroke-miterlimit: 2;"><g class="fills"><g><path class="js-fill" d="M0,160.93L35.86,153.08L53.79,148.7L89.65,138.87L107.58,133.42L143.44,121.4L161.37,114.79L197.24,100.34L215.17,92.5L251.03,75.54L268.96,66.35L286.89,56.64L304.82,48.92L340.68,36.21L358.61,30.18L358.61,35.71L304.82,52.72L286.89,59L268.96,66.35L251.03,75.54L215.17,92.5L197.24,100.34L161.37,114.79L143.44,121.4L107.58,133.42L89.65,138.87L53.79,148.7L35.86,153.08L0,160.93Z" style="fill: rgb(55, 52, 44); fill-opacity: 0.5; stroke-width: 0;"/></g></g><g class="errorbars"/><g class="lines"><path class="js-line" d="M0,160.93L35.86,153.08L53.79,148.7L89.65,138.87L107.58,133.42L143.44,121.4L161.37,114.79L197.24,100.34L215.17,92.5L251.03,75.54L268.96,66.35L286.89,59L304.82,52.72L358.61,35.71" style="vector-effect: none; fill: none; stroke: rgb(55, 52, 44); strokeOpacity: 1; stroke-width: 2px; opacity: 1;"/></g><g class="points"/><g class="text"/></g><g class="trace scatter trace4375bd" style="stroke-miterlimit: 2;"><g class="fills"><g><path class="js-fill" d="M0,160.93L35.86,153.08L53.79,148.7L89.65,138.87L107.58,133.42L143.44,121.4L161.37,114.79L197.24,100.34L215.17,92.5L251.03,75.54L268.96,66.35L304.82,46.39L322.75,38.23L358.61,24.62L358.61,30.18L340.68,36.21L304.82,48.92L286.89,56.64L268.96,66.35L251.03,75.54L215.17,92.5L197.24,100.34L161.37,114.79L143.44,121.4L107.58,133.42L89.65,138.87L53.79,148.7L35.86,153.08L0,160.93Z" style="fill: rgb(55, 52, 44); fill-opacity: 0.5; stroke-width: 0;"/></g></g><g class="errorbars"/><g class="lines"><path class="js-line" d="M0,160.93L35.86,153.08L53.79,148.7L89.65,138.87L107.58,133.42L143.44,121.4L161.37,114.79L197.24,100.34L215.17,92.5L251.03,75.54L268.96,66.35L286.89,56.64L304.82,48.92L340.68,36.21L358.61,30.18" style="vector-effect: none; fill: none; stroke: rgb(55, 52, 44); strokeOpacity: 1; stroke-width: 2px; opacity: 1;"/></g><g class="points"/><g class="text"/></g><g class="trace scatter trace45550a" style="stroke-miterlimit: 2;"><g class="fills"><g><path class="js-fill" d="M0,160.93L35.86,153.08L53.79,148.7L89.65,138.87L107.58,133.42L143.44,121.4L161.37,114.79L197.24,100.34L215.17,92.5L251.03,75.54L268.96,66.35L304.82,46.39L322.75,35.56L340.68,26.93L358.61,19.36L358.61,24.62L322.75,38.23L304.82,46.39L268.96,66.35L251.03,75.54L215.17,92.5L197.24,100.34L161.37,114.79L143.44,121.4L107.58,133.42L89.65,138.87L53.79,148.7L35.86,153.08L0,160.93Z" style="fill: rgb(55, 52, 44); fill-opacity: 0.5; stroke-width: 0;"/></g></g><g class="errorbars"/><g class="lines"><path class="js-line" d="M0,160.93L35.86,153.08L53.79,148.7L89.65,138.87L107.58,133.42L143.44,121.4L161.37,114.79L197.24,100.34L215.17,92.5L251.03,75.54L268.96,66.35L304.82,46.39L322.75,38.23L358.61,24.62" style="vector-effect: none; fill: none; stroke: rgb(55, 52, 44); strokeOpacity: 1; stroke-width: 2px; opacity: 1;"/></g><g class="points"/><g class="text"/></g><g class="trace scatter trace4990f8" style="stroke-miterlimit: 2;"><g class="fills"><g><path class="js-fill" d="M0,160.93L35.86,153.08L53.79,148.7L89.65,138.87L107.58,133.42L143.44,121.4L161.37,114.79L197.24,100.34L215.17,92.5L251.03,75.54L268.96,66.35L304.82,46.39L322.75,35.56L340.68,24.12L358.61,14.86L358.61,19.36L340.68,26.93L322.75,35.56L304.82,46.39L268.96,66.35L251.03,75.54L215.17,92.5L197.24,100.34L161.37,114.79L143.44,121.4L107.58,133.42L89.65,138.87L53.79,148.7L35.86,153.08L0,160.93Z" style="fill: rgb(55, 52, 44); fill-opacity: 0.5; stroke-width: 0;"/></g></g><g class="errorbars"/><g class="lines"><path class="js-line" d="M0,160.93L35.86,153.08L53.79,148.7L89.65,138.87L107.58,133.42L143.44,121.4L161.37,114.79L197.24,100.34L215.17,92.5L251.03,75.54L268.96,66.35L304.82,46.39L322.75,35.56L340.68,26.93L358.61,19.36" style="vector-effect: none; fill: none; stroke: rgb(55, 52, 44); strokeOpacity: 1; stroke-width: 2px; opacity: 1;"/></g><g class="points"/><g class="text"/></g><g class="trace scatter trace181688" style="stroke-miterlimit: 2;"><g class="fills"><g><path class="js-fill" d="M0,160.93L35.86,153.08L53.79,148.7L89.65,138.87L107.58,133.42L143.44,121.4L161.37,114.79L197.24,100.34L215.17,92.5L251.03,75.54L268.96,66.35L304.82,46.39L322.75,35.56L358.61,12.05L358.61,14.86L340.68,24.12L322.75,35.56L304.82,46.39L268.96,66.35L251.03,75.54L215.17,92.5L197.24,100.34L161.37,114.79L143.44,121.4L107.58,133.42L89.65,138.87L53.79,148.7L35.86,153.08L0,160.93Z" style="fill: rgb(55, 52, 44); fill-opacity: 0.5; stroke-width: 0;"/></g></g><g class="errorbars"/><g class="lines"><path class="js-line" d="M0,160.93L35.86,153.08L53.79,148.7L89.65,138.87L107.58,133.42L143.44,121.4L161.37,114.79L197.24,100.34L215.17,92.5L251.03,75.54L268.96,66.35L304.82,46.39L322.75,35.56L340.68,24.12L358.61,14.86" style="vector-effect: none; fill: none; stroke: rgb(55, 52, 44); strokeOpacity: 1; stroke-width: 2px; opacity: 1;"/></g><g class="points"/><g class="text"/></g><g class="trace scatter traceb0105c" style="stroke-miterlimit: 2;"><g class="fills"><g><path class="js-fill" d="M0,160.93L35.86,153.08L53.79,148.7L89.65,138.87L107.58,133.42L143.44,121.4L161.37,114.79L197.24,100.34L215.17,92.5L251.03,75.54L268.96,66.35L304.82,46.39L322.75,35.56L358.61,12.05L358.61,12.05L322.75,35.56L304.82,46.39L268.96,66.35L251.03,75.54L215.17,92.5L197.24,100.34L161.37,114.79L143.44,121.4L107.58,133.42L89.65,138.87L53.79,148.7L35.86,153.08L0,160.93Z" style="fill: rgb(55, 52, 44); fill-opacity: 0.5; stroke-width: 0;"/></g></g><g class="errorbars"/><g class="lines"><path class="js-line" d="M0,160.93L35.86,153.08L53.79,148.7L89.65,138.87L107.58,133.42L143.44,121.4L161.37,114.79L197.24,100.34L215.17,92.5L251.03,75.54L268.96,66.35L304.82,46.39L322.75,35.56L358.61,12.05" style="vector-effect: none; fill: none; stroke: rgb(55, 52, 44); strokeOpacity: 1; stroke-width: 2px; opacity: 1;"/></g><g class="points"/><g class="text"/></g><g class="trace scatter trace554f39" style="stroke-miterlimit: 2;"><g class="fills"/><g class="errorbars"/><g class="lines"><path class="js-line" d="M0,160.93L35.86,153.08L53.79,148.7L89.65,138.87L107.58,133.42L143.44,121.4L161.37,114.79L197.24,100.34L215.17,92.5L251.03,75.54L268.96,66.35L304.82,46.39L322.75,35.56L358.61,12.05" style="vector-effect: none; fill: none; stroke: rgb(55, 52, 44); strokeOpacity: 1; stroke-width: 2px; opacity: 1;"/></g><g class="points"/><g class="text"/></g></g></g><g class="overplot"/><path class="xlines-above crisp" d="M0,0" style="fill: none;"/><path class="ylines-above crisp" d="M0,0" style="fill: none;"/><g class="overlines-above"/><g class="xaxislayer-above"><g class="xtick"><text text-anchor="middle" x="0" y="258" transform="translate(31,0)" style="font-family: verdana; font-size: 10px; fill: rgb(0, 0, 0); fill-opacity: 1; white-space: pre; opacity: 1;">0</text></g><g class="xtick"><text text-anchor="middle" x="0" y="258" style="font-family: verdana; font-size: 10px; fill: rgb(0, 0, 0); fill-opacity: 1; white-space: pre; opacity: 1;" transform="translate(120.65,0)">5</text></g><g class="xtick"><text text-anchor="middle" x="0" y="258" style="font-family: verdana; font-size: 10px; fill: rgb(0, 0, 0); fill-opacity: 1; white-space: pre; opacity: 1;" transform="translate(210.3,0)">10</text></g><g class="xtick"><text text-anchor="middle" x="0" y="258" style="font-family: verdana; font-size: 10px; fill: rgb(0, 0, 0); fill-opacity: 1; white-space: pre; opacity: 1;" transform="translate(299.96,0)">15</text></g><g class="xtick"><text text-anchor="middle" x="0" y="258" style="font-family: verdana; font-size: 10px; fill: rgb(0, 0, 0); fill-opacity: 1; white-space: pre; opacity: 1;" transform="translate(389.61,0)">20</text></g></g><g class="yaxislayer-above"><g class="ytick"><text text-anchor="end" x="30" y="3.5" transform="translate(0,247)" style="font-family: verdana; font-size: 10px; fill: rgb(0, 0, 0); fill-opacity: 1; white-space: pre; opacity: 1;">0%</text></g><g class="ytick"><text text-anchor="end" x="30" y="3.5" style="font-family: verdana; font-size: 10px; fill: rgb(0, 0, 0); fill-opacity: 1; white-space: pre; opacity: 1;" transform="translate(0,206.96)">50%</text></g><g class="ytick"><text text-anchor="end" x="30" y="3.5" style="font-family: verdana; font-size: 10px; fill: rgb(0, 0, 0); fill-opacity: 1; white-space: pre; opacity: 1;" transform="translate(0,166.93)">100%</text></g><g class="ytick"><text text-anchor="end" x="30" y="3.5" style="font-family: verdana; font-size: 10px; fill: rgb(0, 0, 0); fill-opacity: 1; white-space: pre; opacity: 1;" transform="translate(0,126.89)">150%</text></g><g class="ytick"><text text-anchor="end" x="30" y="3.5" style="font-family: verdana; font-size: 10px; fill: rgb(0, 0, 0); fill-opacity: 1; white-space: pre; opacity: 1;" transform="translate(0,86.86)">200%</text></g><g class="ytick"><text text-anchor="end" x="30" y="3.5" style="font-family: verdana; font-size: 10px; fill: rgb(0, 0, 0); fill-opacity: 1; white-space: pre; opacity: 1;" transform="translate(0,46.82)">250%</text></g><g class="ytick"><text text-anchor="end" x="30" y="3.5" style="font-family: verdana; font-size: 10px; fill: rgb(0, 0, 0); fill-opacity: 1; white-space: pre; opacity: 1;" transform="translate(0,6.79)">300%</text></g></g><g class="overaxes-above"/></g><g class="subplot x2y2"><g class="layer-subplot"><g class="shapelayer"/><g class="imagelayer"/></g><g class="minor-gridlayer"><g class="x2"/><g class="y2"/></g><g class="gridlayer"><g class="x2"><path class="x2grid crisp" transform="translate(525.0400000000001,0)" d="M0,6v241" style="stroke: rgb(255, 255, 255); strokeOpacity: 1; stroke-width: 1px;"/><path class="x2grid crisp" transform="translate(614.69,0)" d="M0,6v241" style="stroke: rgb(255, 255, 255); strokeOpacity: 1; stroke-width: 1px;"/><path class="x2grid crisp" transform="translate(704.35,0)" d="M0,6v241" style="stroke: rgb(255, 255, 255); strokeOpacity: 1; stroke-width: 1px;"/></g><g class="y2"><path class="y2grid crisp" transform="translate(0,183.13)" d="M435.39000000000004,0h358.60999999999996" style="stroke: rgb(255, 255, 255); strokeOpacity: 1; stroke-width: 1px;"/><path class="y2grid crisp" transform="translate(0,131.31)" d="M435.39000000000004,0h358.60999999999996" style="stroke: rgb(255, 255, 255); strokeOpacity: 1; stroke-width: 1px;"/><path class="y2grid crisp" transform="translate(0,79.49)" d="M435.39000000000004,0h358.60999999999996" style="stroke: rgb(255, 255, 255); strokeOpacity: 1; stroke-width: 1px;"/><path class="y2grid crisp" transform="translate(0,27.67)" d="M435.39000000000004,0h358.60999999999996" style="stroke: rgb(255, 255, 255); strokeOpacity: 1; stroke-width: 1px;"/></g></g><g class="zerolinelayer"><path class="x2zl zl crisp" transform="translate(435.39000000000004,0)" d="M0,6v241" style="stroke: rgb(255, 255, 255); strokeOpacity: 1; stroke-width: 3px;"/><path class="y2zl zl crisp" transform="translate(0,234.95)" d="M435.39000000000004,0h358.60999999999996" style="stroke: rgb(255, 255, 255); strokeOpacity: 1; stroke-width: 3px;"/></g><g class="layer-between"><g class="shapelayer"/><g class="imagelayer"/></g><path class="xlines-below"/><path class="ylines-below"/><g class="overlines-below"/><g class="xaxislayer-below"/><g class="yaxislayer-below"/><g class="overaxes-below"/><g class="plot" transform="translate(435.39000000000004,6)" clip-path="url(#clip7ec881x2y2plot)"><g class="scatterlayer mlayer"><g class="trace scatter tracebaab0f" style="stroke-miterlimit: 2; opacity: 1;"><g class="fills"/><g class="errorbars"/><g class="lines"><path class="js-line" d="M0,12.05L17.93,29.25L35.86,51.89L53.79,73.12L71.72,89.85L89.65,102.96L107.58,114.45L125.51,125.43L143.44,126.98L179.3,142.97L197.24,142.74L251.03,134.88L268.96,134.69L304.82,140.14L322.75,140.62L340.68,140.9L358.61,135.45" style="vector-effect: none; fill: none; stroke: rgb(151, 65, 27); strokeOpacity: 1; stroke-width: 2px; opacity: 1;"/></g><g class="points"/><g class="text"/></g><g class="trace scatter trace2ffd96" style="stroke-miterlimit: 2; opacity: 1;"><g class="fills"/><g class="errorbars"/><g class="lines"><path class="js-line" d="M0,173.97L358.61,173.97" style="vector-effect: none; fill: none; stroke: rgb(151, 65, 27); strokeOpacity: 1; stroke-dasharray: 3px, 3px; stroke-width: 2px; opacity: 1;"/></g><g class="points"/><g class="text"/></g><g class="trace scatter trace415cce" style="stroke-miterlimit: 2; opacity: 1;"><g class="fills"/><g class="errorbars"/><g class="lines"><path class="js-line" d="M0,107.2L17.93,98.54L35.86,85.33L53.79,70.41L71.72,57.21L89.65,46.59L107.58,38.44L125.51,32.5L143.44,40.19L161.37,36.82L179.3,28.28L197.24,26.96L215.17,27.09L233.1,27.52L251.03,31.37L268.96,32L286.89,29.23L304.82,26.81L322.75,27.16L340.68,26.9L358.61,33.18" style="vector-effect: none; fill: none; stroke: rgb(235, 154, 211); strokeOpacity: 1; stroke-width: 2px; opacity: 1;"/></g><g class="points"/><g class="text"/></g><g class="trace scatter tracef241f4" style="stroke-miterlimit: 2; opacity: 1;"><g class="fills"/><g class="errorbars"/><g class="lines"><path class="js-line" d="M0,20.78L358.61,20.78" style="vector-effect: none; fill: none; stroke: rgb(235, 154, 211); strokeOpacity: 1; stroke-dasharray: 3px, 3px; stroke-width: 2px; opacity: 1;"/></g><g class="points"/><g class="text"/></g><g class="trace scatter trace74df3e" style="stroke-miterlimit: 2; opacity: 1;"><g class="fills"/><g class="errorbars"/><g class="lines"><path class="js-line" d="M0,49.41L17.93,62.81L35.86,87.79L71.72,158.76L89.65,190.32L107.58,213.67L125.51,227.36L143.44,228.95L161.37,228.95L179.3,228.95L197.24,227.58L215.17,227.57L233.1,228.95L304.82,228.2L322.75,226.52L340.68,226.78L358.61,228.95" style="vector-effect: none; fill: none; stroke: rgb(239, 214, 142); strokeOpacity: 1; stroke-width: 2px; opacity: 1;"/></g><g class="points"/><g class="text"/></g><g class="trace scatter tracecbe7e3" style="stroke-miterlimit: 2; opacity: 1;"><g class="fills"/><g class="errorbars"/><g class="lines"><path class="js-line" d="M0,228.95L358.61,228.95" style="vector-effect: none; fill: none; stroke: rgb(239, 214, 142); strokeOpacity: 1; stroke-dasharray: 3px, 3px; stroke-width: 2px; opacity: 1;"/></g><g class="points"/><g class="text"/></g><g class="trace scatter trace7ece52" style="stroke-miterlimit: 2; opacity: 1;"><g class="fills"/><g class="errorbars"/><g class="lines"><path class="js-line" d="M0,228.95L17.93,218.74L35.86,200.23L71.72,150.91L89.65,130.25L107.58,115.25L125.51,106.45L143.44,103.13L161.37,103.35L179.3,104.67L197.24,105.18L233.1,102.83L251.03,101.78L268.96,101.62L286.89,102.38L322.75,104.95L340.68,104.61L358.61,101.09" style="vector-effect: none; fill: none; stroke: rgb(91, 37, 73); strokeOpacity: 1; stroke-width: 2px; opacity: 1;"/></g><g class="points"/><g class="text"/></g><g class="trace scatter traceb515e6" style="stroke-miterlimit: 2; opacity: 1;"><g class="fills"/><g class="errorbars"/><g class="lines"><path class="js-line" d="M0,88.4L358.61,88.4" style="vector-effect: none; fill: none; stroke: rgb(91, 37, 73); strokeOpacity: 1; stroke-dasharray: 3px, 3px; stroke-width: 2px; opacity: 1;"/></g><g class="points"/><g class="text"/></g><g class="trace scatter trace8aad48" style="stroke-miterlimit: 2; opacity: 1;"><g class="fills"/><g class="errorbars"/><g class="lines"><path class="js-line" d="M0,228.95L17.93,217.22L35.86,201.32L53.79,184.98L71.72,169.83L89.65,156.43L107.58,144.75L125.51,134.83L143.44,127.3L161.37,122.66L179.3,121.69L197.24,124.11L215.17,127.46L233.1,129.07L251.03,129.58L286.89,128.51L304.82,127.71L340.68,127.36L358.61,127.89" style="vector-effect: none; fill: none; stroke: rgb(55, 52, 44); strokeOpacity: 1; stroke-width: 2px; opacity: 1;"/></g><g class="points"/><g class="text"/></g><g class="trace scatter trace26214e" style="stroke-miterlimit: 2; opacity: 1;"><g class="fills"/><g class="errorbars"/><g class="lines"><path class="js-line" d="M0,114.46L358.61,114.46" style="vector-effect: none; fill: none; stroke: rgb(55, 52, 44); strokeOpacity: 1; stroke-dasharray: 3px, 3px; stroke-width: 2px; opacity: 1;"/></g><g class="points"/><g class="text"/></g></g></g><g class="overplot"/><path class="xlines-above crisp" d="M0,0" style="fill: none;"/><path class="ylines-above crisp" d="M0,0" style="fill: none;"/><g class="overlines-above"/><g class="xaxislayer-above"><g class="x2tick"><text text-anchor="middle" x="0" y="258" transform="translate(435.39000000000004,0)" style="font-family: verdana; font-size: 10px; fill: rgb(0, 0, 0); fill-opacity: 1; white-space: pre; opacity: 1;">0</text></g><g class="x2tick"><text text-anchor="middle" x="0" y="258" style="font-family: verdana; font-size: 10px; fill: rgb(0, 0, 0); fill-opacity: 1; white-space: pre; opacity: 1;" transform="translate(525.0400000000001,0)">5</text></g><g class="x2tick"><text text-anchor="middle" x="0" y="258" style="font-family: verdana; font-size: 10px; fill: rgb(0, 0, 0); fill-opacity: 1; white-space: pre; opacity: 1;" transform="translate(614.69,0)">10</text></g><g class="x2tick"><text text-anchor="middle" x="0" y="258" style="font-family: verdana; font-size: 10px; fill: rgb(0, 0, 0); fill-opacity: 1; white-space: pre; opacity: 1;" transform="translate(704.35,0)">15</text></g><g class="x2tick"><text text-anchor="middle" x="0" y="258" style="font-family: verdana; font-size: 10px; fill: rgb(0, 0, 0); fill-opacity: 1; white-space: pre; opacity: 0;" transform="translate(794,0)">20</text></g></g><g class="yaxislayer-above"><g class="y2tick"><text text-anchor="end" x="434.39000000000004" y="3.5" transform="translate(0,234.95)" style="font-family: verdana; font-size: 10px; fill: rgb(0, 0, 0); fill-opacity: 1; white-space: pre; opacity: 1;">0%</text></g><g class="y2tick"><text text-anchor="end" x="434.39000000000004" y="3.5" style="font-family: verdana; font-size: 10px; fill: rgb(0, 0, 0); fill-opacity: 1; white-space: pre; opacity: 1;" transform="translate(0,183.13)">10%</text></g><g class="y2tick"><text text-anchor="end" x="434.39000000000004" y="3.5" style="font-family: verdana; font-size: 10px; fill: rgb(0, 0, 0); fill-opacity: 1; white-space: pre; opacity: 1;" transform="translate(0,131.31)">20%</text></g><g class="y2tick"><text text-anchor="end" x="434.39000000000004" y="3.5" style="font-family: verdana; font-size: 10px; fill: rgb(0, 0, 0); fill-opacity: 1; white-space: pre; opacity: 1;" transform="translate(0,79.49)">30%</text></g><g class="y2tick"><text text-anchor="end" x="434.39000000000004" y="3.5" style="font-family: verdana; font-size: 10px; fill: rgb(0, 0, 0); fill-opacity: 1; white-space: pre; opacity: 1;" transform="translate(0,27.67)">40%</text></g></g><g class="overaxes-above"/></g></g><g class="polarlayer"/><g class="smithlayer"/><g class="ternarylayer"/><g class="geolayer"/><g class="funnelarealayer"/><g class="pielayer"/><g class="iciclelayer"/><g class="treemaplayer"/><g class="sunburstlayer"/><g class="glimages"/><defs id="topdefs-7ec881"><g class="clips"/><clipPath id="legend7ec881"><rect width="485" height="29" x="0" y="0"/></clipPath></defs><g class="layer-above"><g class="imagelayer"/><g class="shapelayer"/></g><g class="infolayer"><g class="legend" pointer-events="all" transform="translate(170,271)"><rect class="bg" shape-rendering="crispEdges" width="485" height="29" x="0" y="0" style="stroke: rgb(68, 68, 68); strokeOpacity: 1; fill: rgb(0, 0, 0); fill-opacity: 0; stroke-width: 0px;"/><g class="scrollbox" transform="" clip-path="url(#legend7ec881)"><g class="groups" transform=""><g class="traces" transform="translate(0,14.5)" style="opacity: 1;"><text class="legendtext" text-anchor="start" x="40" y="3.9" style="font-family: verdana; font-size: 10px; fill: rgb(0, 0, 0); fill-opacity: 1; white-space: pre;">cash</text><g class="layers"><g class="legendfill"><path class="js-fill" d="M5,-2h30v6h-30z" style="stroke-width: 0; fill: rgb(151, 65, 27); fill-opacity: 0.5;"/></g><g class="legendlines"><path class="js-line" d="M5,-2h30" style="fill: none; stroke: rgb(151, 65, 27); strokeOpacity: 1; stroke-width: 2px;"/></g><g class="legendsymbols"><g class="legendpoints"/></g></g><rect class="legendtoggle" x="0" y="-9.5" width="65.265625" height="19" style="fill: rgb(0, 0, 0); fill-opacity: 0;"/></g></g><g class="groups" transform="translate(67.765625,0)"><g class="traces" transform="translate(0,14.5)" style="opacity: 1;"><text class="legendtext" text-anchor="start" x="40" y="3.9" style="font-family: verdana; font-size: 10px; fill: rgb(0, 0, 0); fill-opacity: 1; white-space: pre;">treasuries</text><g class="layers"><g class="legendfill"><path class="js-fill" d="M5,-2h30v6h-30z" style="stroke-width: 0; fill: rgb(235, 154, 211); fill-opacity: 0.5;"/></g><g class="legendlines"><path class="js-line" d="M5,-2h30" style="fill: none; stroke: rgb(235, 154, 211); strokeOpacity: 1; stroke-width: 2px;"/></g><g class="legendsymbols"><g class="legendpoints"/></g></g><rect class="legendtoggle" x="0" y="-9.5" width="92.390625" height="19" style="fill: rgb(0, 0, 0); fill-opacity: 0;"/></g></g><g class="groups" transform="translate(162.65625,0)"><g class="traces" transform="translate(0,14.5)" style="opacity: 1;"><text class="legendtext" text-anchor="start" x="40" y="3.9" style="font-family: verdana; font-size: 10px; fill: rgb(0, 0, 0); fill-opacity: 1; white-space: pre;">public equity</text><g class="layers"><g class="legendfill"><path class="js-fill" d="M5,-2h30v6h-30z" style="stroke-width: 0; fill: rgb(239, 214, 142); fill-opacity: 0.5;"/></g><g class="legendlines"><path class="js-line" d="M5,-2h30" style="fill: none; stroke: rgb(239, 214, 142); strokeOpacity: 1; stroke-width: 2px;"/></g><g class="legendsymbols"><g class="legendpoints"/></g></g><rect class="legendtoggle" x="0" y="-9.5" width="106.625" height="19" style="fill: rgb(0, 0, 0); fill-opacity: 0;"/></g></g><g class="groups" transform="translate(271.78125,0)"><g class="traces" transform="translate(0,14.5)" style="opacity: 1;"><text class="legendtext" text-anchor="start" x="40" y="3.9" style="font-family: verdana; font-size: 10px; fill: rgb(0, 0, 0); fill-opacity: 1; white-space: pre;">private equity</text><g class="layers"><g class="legendfill"><path class="js-fill" d="M5,-2h30v6h-30z" style="stroke-width: 0; fill: rgb(91, 37, 73); fill-opacity: 0.5;"/></g><g class="legendlines"><path class="js-line" d="M5,-2h30" style="fill: none; stroke: rgb(91, 37, 73); strokeOpacity: 1; stroke-width: 2px;"/></g><g class="legendsymbols"><g class="legendpoints"/></g></g><rect class="legendtoggle" x="0" y="-9.5" width="112.203125" height="19" style="fill: rgb(0, 0, 0); fill-opacity: 0;"/></g></g><g class="groups" transform="translate(386.484375,0)"><g class="traces" transform="translate(0,14.5)" style="opacity: 1;"><text class="legendtext" text-anchor="start" x="40" y="3.9" style="font-family: verdana; font-size: 10px; fill: rgb(0, 0, 0); fill-opacity: 1; white-space: pre;">real estate</text><g class="layers"><g class="legendfill"><path class="js-fill" d="M5,-2h30v6h-30z" style="stroke-width: 0; fill: rgb(55, 52, 44); fill-opacity: 0.5;"/></g><g class="legendlines"><path class="js-line" d="M5,-2h30" style="fill: none; stroke: rgb(55, 52, 44); strokeOpacity: 1; stroke-width: 2px;"/></g><g class="legendsymbols"><g class="legendpoints"/></g></g><rect class="legendtoggle" x="0" y="-9.5" width="96.015625" height="19" style="fill: rgb(0, 0, 0); fill-opacity: 0;"/></g></g></g><rect class="scrollbar" rx="20" ry="3" width="0" height="0" x="0" y="0" style="fill: rgb(128, 139, 164); fill-opacity: 1;"/></g><g class="g-gtitle"/><g class="g-xtitle"/><g class="g-x2title"/><g class="g-ytitle"/><g class="g-y2title"/></g></svg>