<svg class="main-svg" xmlns="http://www.w3.org/2000/svg" xmlns:xlink="http://www.w3.org/1999/xlink" width="800" height="300" style="" viewBox="0 0 800 300"><rect x="0" y="0" width="800" height="300" style="fill: rgb(0, 0, 0); fill-opacity: 0;"/><defs id="defs-be2a48"><g class="clips"><clipPath id="clipbe2a48xyplot" class="plotclip"><rect width="361.9" height="246"/></clipPath><clipPath id="clipbe2a48x2y2plot" class="plotclip"><rect width="361.9" height="246"/></clipPath><clipPath class="axesclip" id="clipbe2a48x"><rect x="24" y="0" width="361.9" height="300"/></clipPath><clipPath class="axesclip" id="clipbe2a48y"><rect x="0" y="0" width="800" height="246"/></clipPath><clipPath class="axesclip" id="clipbe2a48xy"><rect x="24" y="0" width="361.9" height="246"/></clipPath><clipPath class="axesclip" id="clipbe2a48y2"><rect x="0" y="0" width="800" height="246"/></clipPath><clipPath class="axesclip" id="clipbe2a48xy2"><rect x="24" y="0" width="361.9" height="246"/></clipPath><clipPath class="axesclip" id="clipbe2a48x2"><rect x="432.1" y="0" width="361.9" height="300"/></clipPath><clipPath class="axesclip" id="clipbe2a48x2y"><rect x="432.1" y="0" width="361.9" height="246"/></clipPath><clipPath class="axesclip" id="clipbe2a48x2y2"><rect x="432.1" y="0" width="361.9" height="246"/></clipPath></g><g class="gradients"/><g class="patterns"/></defs><g class="bglayer"><rect class="bg" x="24" y="0" width="361.9" height="246" style="fill: rgb(237, 236, 232); fill-opacity: 1; stroke-width: 0;"/><rect class="bg" x="432.1" y="0" width="361.9" height="246" style="fill: rgb(237, 236, 232); fill-opacity: 1; stroke-width: 0;"/></g><g class="layer-below"><g class="imagelayer"/><g class="shapelayer"/></g><g class="cartesianlayer"><g class="subplot xy"><g class="layer-subplot"><g class="shapelayer"/><g class="imagelayer"/></g><g class="minor-gridlayer"><g class="x"/><g class="y"/></g><g class="gridlayer"><g class="x"><path class="xgrid crisp" transform="translate(114.48,0)" d="M0,0v246" style="stroke: rgb(255, 255, 255); strokeOpacity: 1; stroke-width: 1px;"/><path class="xgrid crisp" transform="translate(204.95,0)" d="M0,0v246" style="stroke: rgb(255, 255, 255); strokeOpacity: 1; stroke-width: 1px;"/><path class="xgrid crisp" transform="translate(295.42,0)" d="M0,0v246" style="stroke: rgb(255, 255, 255); strokeOpacity: 1; stroke-width: 1px;"/></g><g class="y"><path class="ygrid crisp" transform="translate(0,193.78)" d="M24,0h361.9" style="stroke: rgb(255, 255, 255); strokeOpacity: 1; stroke-width: 1px;"/><path class="ygrid crisp" transform="translate(0,141.55)" d="M24,0h361.9" style="stroke: rgb(255, 255, 255); strokeOpacity: 1; stroke-width: 1px;"/><path class="ygrid crisp" transform="translate(0,89.33)" d="M24,0h361.9" style="stroke: rgb(255, 255, 255); strokeOpacity: 1; stroke-width: 1px;"/><path class="ygrid crisp" transform="translate(0,37.11)" d="M24,0h361.9" style="stroke: rgb(255, 255, 255); strokeOpacity: 1; stroke-width: 1px;"/></g></g><g class="zerolinelayer"><path class="xzl zl crisp" transform="translate(24,0)" d="M0,0v246" style="stroke: rgb(255, 255, 255); strokeOpacity: 1; stroke-width: 3px;"/><path class="yzl zl crisp" transform="translate(0,246)" d="M24,0h361.9" style="stroke: rgb(255, 255, 255); strokeOpacity: 1; stroke-width: 3px;"/></g><g class="layer-between"><g class="shapelayer"/><g class="imagelayer"/></g><path class="xlines-below"/><path class="ylines-below"/><g class="overlines-below"/><g class="xaxislayer-below"/><g class="yaxislayer-below"/><g class="overaxes-below"/><g class="plot" transform="translate(24,0)" clip-path="url(#clipbe2a48xyplot)"><g class="scatterlayer mlayer"><g class="trace scatter traceb897d8" style="stroke-miterlimit: 2;"><g class="fills"><g><path class="js-fill" d="M361.9,246L0,246L0,246L361.9,246" style="fill: rgb(91, 37, 73); fill-opacity: 0.5; stroke-width: 0;"/></g><g><path class="js-fill" d="M0,246L361.9,246L361.9,246L0,246Z" style="fill: rgb(91, 37, 73); fill-opacity: 0.5; stroke-width: 0;"/></g></g><g class="errorbars"/><g class="lines"><path class="js-line" d="M0,246L361.9,246" style="vector-effect: none; fill: none; stroke: rgb(91, 37, 73); strokeOpacity: 1; stroke-width: 2px; opacity: 1;"/></g><g class="points"/><g class="text"/></g><g class="trace scatter trace8db4e7" style="stroke-miterlimit: 2;"><g class="fills"><g><path class="js-fill" d="M0,246L361.9,246L361.9,246L0,246Z" style="fill: rgb(91, 37, 73); fill-opacity: 0.5; stroke-width: 0;"/></g></g><g class="errorbars"/><g class="lines"><path class="js-line" d="M0,246L361.9,246" style="vector-effect: none; fill: none; stroke: rgb(91, 37, 73); strokeOpacity: 1; stroke-width: 2px; opacity: 1;"/></g><g class="points"/><g class="text"/></g><g class="trace scatter tracef50b21" style="stroke-miterlimit: 2;"><g class="fills"><g><path class="js-fill" d="M0,246L361.9,246L361.9,246L0,246Z" style="fill: rgb(91, 37, 73); fill-opacity: 0.5; stroke-width: 0;"/></g></g><g class="errorbars"/><g class="lines"><path class="js-line" d="M0,246L361.9,246" style="vector-effect: none; fill: none; stroke: rgb(91, 37, 73); strokeOpacity: 1; stroke-width: 2px; opacity: 1;"/></g><g class="points"/><g class="text"/></g><g class="trace scatter trace78b337" style="stroke-miterlimit: 2;"><g class="fills"><g><path class="js-fill" d="M0,246L361.9,246L361.9,246L0,246Z" style="fill: rgb(91, 37, 73); fill-opacity: 0.5; stroke-width: 0;"/></g></g><g class="errorbars"/><g class="lines"><path class="js-line" d="M0,246L361.9,246" style="vector-effect: none; fill: none; stroke: rgb(91, 37, 73); strokeOpacity: 1; stroke-width: 2px; opacity: 1;"/></g><g class="points"/><g class="text"/></g><g class="trace scatter trace9b6035" style="stroke-miterlimit: 2;"><g class="fills"><g><path class="js-fill" d="M0,246L361.9,246L361.9,246L0,246Z" style="fill: rgb(91, 37, 73); fill-opacity: 0.5; stroke-width: 0;"/></g></g><g class="errorbars"/><g class="lines"><path class="js-line" d="M0,246L361.9,246" style="vector-effect: none; fill: none; stroke: rgb(91, 37, 73); strokeOpacity: 1; stroke-width: 2px; opacity: 1;"/></g><g class="points"/><g class="text"/></g><g class="trace scatter trace0e4290" style="stroke-miterlimit: 2;"><g class="fills"><g><path class="js-fill" d="M0,246L361.9,246L361.9,246L0,246Z" style="fill: rgb(91, 37, 73); fill-opacity: 0.5; stroke-width: 0;"/></g></g><g class="errorbars"/><g class="lines"><path class="js-line" d="M0,246L361.9,246" style="vector-effect: none; fill: none; stroke: rgb(91, 37, 73); strokeOpacity: 1; stroke-width: 2px; opacity: 1;"/></g><g class="points"/><g class="text"/></g><g class="trace scatter trace350881" style="stroke-miterlimit: 2;"><g class="fills"><g><path class="js-fill" d="M0,246L361.9,246L361.9,246L0,246Z" style="fill: rgb(91, 37, 73); fill-opacity: 0.5; stroke-width: 0;"/></g></g><g class="errorbars"/><g class="lines"><path class="js-line" d="M0,246L361.9,246" style="vector-effect: none; fill: none; stroke: rgb(91, 37, 73); strokeOpacity: 1; stroke-width: 2px; opacity: 1;"/></g><g class="points"/><g class="text"/></g><g class="trace scatter traced6948d" style="stroke-miterlimit: 2;"><g class="fills"><g><path class="js-fill" d="M0,246L361.9,246L361.9,246L0,246Z" style="fill: rgb(91, 37, 73); fill-opacity: 0.5; stroke-width: 0;"/></g></g><g class="errorbars"/><g class="lines"><path class="js-line" d="M0,246L361.9,246" style="vector-effect: none; fill: none; stroke: rgb(91, 37, 73); strokeOpacity: 1; stroke-width: 2px; opacity: 1;"/></g><g class="points"/><g class="text"/></g><g class="trace scatter trace02487a" style="stroke-miterlimit: 2;"><g class="fills"><g><path class="js-fill" d="M0,246L361.9,246L361.9,246L0,246Z" style="fill: rgb(91, 37, 73); fill-opacity: 0.5; stroke-width: 0;"/></g></g><g class="errorbars"/><g class="lines"><path class="js-line" d="M0,246L361.9,246" style="vector-effect: none; fill: none; stroke: rgb(91, 37, 73); strokeOpacity: 1; stroke-width: 2px; opacity: 1;"/></g><g class="points"/><g class="text"/></g><g class="trace scatter trace1c2d9c" style="stroke-miterlimit: 2;"><g class="fills"><g><path class="js-fill" d="M0,246L361.9,246L361.9,246L0,246Z" style="fill: rgb(91, 37, 73); fill-opacity: 0.5; stroke-width: 0;"/></g></g><g class="errorbars"/><g class="lines"><path class="js-line" d="M0,246L361.9,246" style="vector-effect: none; fill: none; stroke: rgb(91, 37, 73); strokeOpacity: 1; stroke-width: 2px; opacity: 1;"/></g><g class="points"/><g class="text"/></g><g class="trace scatter trace9abf7c" style="stroke-miterlimit: 2;"><g class="fills"><g><path class="js-fill" d="M0,246L361.9,246L361.9,246L0,246Z" style="fill: rgb(91, 37, 73); fill-opacity: 0.5; stroke-width: 0;"/></g></g><g class="errorbars"/><g class="lines"><path class="js-line" d="M0,246L361.9,246" style="vector-effect: none; fill: none; stroke: rgb(91, 37, 73); strokeOpacity: 1; stroke-width: 2px; opacity: 1;"/></g><g class="points"/><g class="text"/></g><g class="trace scatter trace9a28b0" style="stroke-miterlimit: 2;"><g class="fills"><g><path class="js-fill" d="M0,246L54.29,215.87L72.38,212.08L90.48,212.44L108.57,216.17L126.67,222.51L144.76,230.18L162.85,237.44L180.95,242.69L199.05,245.3L217.14,245.99L361.9,246L361.9,246L0,246Z" style="fill: rgb(91, 37, 73); fill-opacity: 0.5; stroke-width: 0;"/></g></g><g class="errorbars"/><g class="lines"><path class="js-line" d="M0,246L361.9,246" style="vector-effect: none; fill: none; stroke: rgb(91, 37, 73); strokeOpacity: 1; stroke-width: 2px; opacity: 1;"/></g><g class="points"/><g class="text"/></g><g class="trace scatter trace34b6c9" style="stroke-miterlimit: 2;"><g class="fills"><g><path class="js-fill" d="M0,246L18.1,235.71L36.19,217.05L54.29,199.06L72.38,187.39L90.48,184.66L108.57,188.71L126.67,198.12L144.76,210.98L162.85,224.52L180.95,235.7L199.05,242.6L217.14,245.42L253.33,246L271.42,246L361.9,246L361.9,246L217.14,245.99L199.05,245.3L180.95,242.69L162.85,237.44L144.76,230.18L126.67,222.51L108.57,216.17L90.48,212.44L72.38,212.08L54.29,215.87L0,246Z" style="fill: rgb(91, 37, 73); fill-opacity: 0.5; stroke-width: 0;"/></g></g><g class="errorbars"/><g class="lines"><path class="js-line" d="M0,246L54.29,215.87L72.38,212.08L90.48,212.44L108.57,216.17L126.67,222.51L144.76,230.18L162.85,237.44L180.95,242.69L199.05,245.3L217.14,245.99L361.9,246" style="vector-effect: none; fill: none; stroke: rgb(91, 37, 73); strokeOpacity: 1; stroke-width: 2px; opacity: 1;"/></g><g class="points"/><g class="text"/></g><g class="trace scatter traceb50cb5" style="stroke-miterlimit: 2;"><g class="fills"><g><path class="js-fill" d="M0,246L18.1,235.71L36.19,217.05L54.29,192.03L72.38,173.44L90.48,164.2L108.57,165.71L126.67,175.4L144.76,190.81L162.85,208.65L180.95,225.02L199.05,236.83L217.14,243.19L235.24,245.52L253.33,245.99L361.9,246L361.9,246L271.42,246L253.33,246L217.14,245.42L199.05,242.6L180.95,235.7L162.85,224.52L144.76,210.98L126.67,198.12L108.57,188.71L90.48,184.66L72.38,187.39L54.29,199.06L36.19,217.05L18.1,235.71L0,246Z" style="fill: rgb(91, 37, 73); fill-opacity: 0.5; stroke-width: 0;"/></g></g><g class="errorbars"/><g class="lines"><path class="js-line" d="M0,246L18.1,235.71L36.19,217.05L54.29,199.06L72.38,187.39L90.48,184.66L108.57,188.71L126.67,198.12L144.76,210.98L162.85,224.52L180.95,235.7L199.05,242.6L217.14,245.42L253.33,246L271.42,246L361.9,246" style="vector-effect: none; fill: none; stroke: rgb(91, 37, 73); strokeOpacity: 1; stroke-width: 2px; opacity: 1;"/></g><g class="points"/><g class="text"/></g><g class="trace scatter trace0b8d38" style="stroke-miterlimit: 2;"><g class="fills"><g><path class="js-fill" d="M0,246L18.1,235.71L36.19,217.05L72.38,167.35L90.48,152.14L108.57,148.03L126.67,155.54L144.76,171.21L162.85,191.26L180.95,211.35L199.05,227.62L217.14,238.21L235.24,243.59L253.33,245.59L271.42,245.99L361.9,246L361.9,246L253.33,245.99L235.24,245.52L217.14,243.19L199.05,236.83L180.95,225.02L162.85,208.65L144.76,190.81L126.67,175.4L108.57,165.71L90.48,164.2L72.38,173.44L54.29,192.03L36.19,217.05L18.1,235.71L0,246Z" style="fill: rgb(91, 37, 73); fill-opacity: 0.5; stroke-width: 0;"/></g></g><g class="errorbars"/><g class="lines"><path class="js-line" d="M0,246L18.1,235.71L36.19,217.05L54.29,192.03L72.38,173.44L90.48,164.2L108.57,165.71L126.67,175.4L144.76,190.81L162.85,208.65L180.95,225.02L199.05,236.83L217.14,243.19L235.24,245.52L253.33,245.99L361.9,246" style="vector-effect: none; fill: none; stroke: rgb(91, 37, 73); strokeOpacity: 1; stroke-width: 2px; opacity: 1;"/></g><g class="points"/><g class="text"/></g><g class="trace scatter tracea15b1b" style="stroke-miterlimit: 2;"><g class="fills"><g><path class="js-fill" d="M0,246L18.1,235.71L36.19,217.05L72.38,167.35L90.48,146.53L108.57,136.93L126.67,139.28L144.76,152.96L162.85,173.25L180.95,195.38L199.05,215.07L217.14,229.76L235.24,239.03L253.33,243.82L271.42,245.62L325.71,246L343.8,246L361.9,246L361.9,246L271.42,245.99L253.33,245.59L235.24,243.59L217.14,238.21L199.05,227.62L180.95,211.35L162.85,191.26L144.76,171.21L126.67,155.54L108.57,148.03L90.48,152.14L72.38,167.35L36.19,217.05L18.1,235.71L0,246Z" style="fill: rgb(91, 37, 73); fill-opacity: 0.5; stroke-width: 0;"/></g></g><g class="errorbars"/><g class="lines"><path class="js-line" d="M0,246L18.1,235.71L36.19,217.05L72.38,167.35L90.48,152.14L108.57,148.03L126.67,155.54L144.76,171.21L162.85,191.26L180.95,211.35L199.05,227.62L217.14,238.21L235.24,243.59L253.33,245.59L271.42,245.99L361.9,246" style="vector-effect: none; fill: none; stroke: rgb(91, 37, 73); strokeOpacity: 1; stroke-width: 2px; opacity: 1;"/></g><g class="points"/><g class="text"/></g><g class="trace scatter trace05e6f2" style="stroke-miterlimit: 2;"><g class="fills"><g><path class="js-fill" d="M0,246L18.1,235.71L36.19,217.05L72.38,167.35L90.48,146.53L108.57,131.41L126.67,128.36L144.76,136.97L162.85,155.31L199.05,199.37L217.14,217.42L235.24,230.72L253.33,239.33L271.42,243.88L289.52,245.63L343.8,246L361.9,246L361.9,246L343.8,246L325.71,246L271.42,245.62L253.33,243.82L235.24,239.03L217.14,229.76L199.05,215.07L180.95,195.38L162.85,173.25L144.76,152.96L126.67,139.28L108.57,136.93L90.48,146.53L72.38,167.35L36.19,217.05L18.1,235.71L0,246Z" style="fill: rgb(91, 37, 73); fill-opacity: 0.5; stroke-width: 0;"/></g></g><g class="errorbars"/><g class="lines"><path class="js-line" d="M0,246L18.1,235.71L36.19,217.05L72.38,167.35L90.48,146.53L108.57,136.93L126.67,139.28L144.76,152.96L162.85,173.25L180.95,195.38L199.05,215.07L217.14,229.76L235.24,239.03L253.33,243.82L271.42,245.62L325.71,246L343.8,246L361.9,246" style="vector-effect: none; fill: none; stroke: rgb(91, 37, 73); strokeOpacity: 1; stroke-width: 2px; opacity: 1;"/></g><g class="points"/><g class="text"/></g><g class="trace scatter tracea79e86" style="stroke-miterlimit: 2;"><g class="fills"><g><path class="js-fill" d="M0,246L18.1,235.71L36.19,217.05L72.38,167.35L90.48,146.53L108.57,131.41L126.67,122.54L144.76,125.47L162.85,138.48L180.95,158.81L199.05,180.76L217.14,200.91L235.24,217.74L253.33,230.59L271.42,239.16L289.52,243.8L307.62,245.61L343.8,246L361.9,246L361.9,246L343.8,246L289.52,245.63L271.42,243.88L253.33,239.33L235.24,230.72L217.14,217.42L199.05,199.37L162.85,155.31L144.76,136.97L126.67,128.36L108.57,131.41L90.48,146.53L72.38,167.35L36.19,217.05L18.1,235.71L0,246Z" style="fill: rgb(91, 37, 73); fill-opacity: 0.5; stroke-width: 0;"/></g></g><g class="errorbars"/><g class="lines"><path class="js-line" d="M0,246L18.1,235.71L36.19,217.05L72.38,167.35L90.48,146.53L108.57,131.41L126.67,128.36L144.76,136.97L162.85,155.31L199.05,199.37L217.14,217.42L235.24,230.72L253.33,239.33L271.42,243.88L289.52,245.63L343.8,246L361.9,246" style="vector-effect: none; fill: none; stroke: rgb(91, 37, 73); strokeOpacity: 1; stroke-width: 2px; opacity: 1;"/></g><g class="points"/><g class="text"/></g><g class="trace scatter trace5b35dc" style="stroke-miterlimit: 2;"><g class="fills"><g><path class="js-fill" d="M0,246L18.1,235.71L36.19,217.05L72.38,167.35L90.48,146.53L108.57,131.41L126.67,122.54L144.76,119.2L162.85,126.1L180.95,140.69L199.05,160.45L217.14,180.88L235.24,199.98L253.33,216.62L271.42,229.76L289.52,238.72L307.62,243.64L325.71,245.58L343.8,245.99L361.9,246L361.9,246L343.8,246L307.62,245.61L289.52,243.8L271.42,239.16L253.33,230.59L235.24,217.74L217.14,200.91L199.05,180.76L180.95,158.81L162.85,138.48L144.76,125.47L126.67,122.54L108.57,131.41L90.48,146.53L72.38,167.35L36.19,217.05L18.1,235.71L0,246Z" style="fill: rgb(91, 37, 73); fill-opacity: 0.5; stroke-width: 0;"/></g></g><g class="errorbars"/><g class="lines"><path class="js-line" d="M0,246L18.1,235.71L36.19,217.05L72.38,167.35L90.48,146.53L108.57,131.41L126.67,122.54L144.76,125.47L162.85,138.48L180.95,158.81L199.05,180.76L217.14,200.91L235.24,217.74L253.33,230.59L271.42,239.16L289.52,243.8L307.62,245.61L343.8,246L361.9,246" style="vector-effect: none; fill: none; stroke: rgb(91, 37, 73); strokeOpacity: 1; stroke-width: 2px; opacity: 1;"/></g><g class="points"/><g class="text"/></g><g class="trace scatter trace40a622" style="stroke-miterlimit: 2;"><g class="fills"><g><path class="js-fill" d="M0,246L18.1,235.71L36.19,217.05L72.38,167.35L90.48,146.53L108.57,131.41L126.67,122.54L144.76,119.2L162.85,119.42L180.95,127.48L199.05,141.14L217.14,159.23L235.24,178.61L253.33,197.67L271.42,214.85L289.52,228.69L307.62,238.22L325.71,243.48L343.8,245.55L361.9,245.99L361.9,246L343.8,245.99L325.71,245.58L307.62,243.64L289.52,238.72L271.42,229.76L253.33,216.62L235.24,199.98L217.14,180.88L199.05,160.45L180.95,140.69L162.85,126.1L144.76,119.2L126.67,122.54L108.57,131.41L90.48,146.53L72.38,167.35L36.19,217.05L18.1,235.71L0,246Z" style="fill: rgb(91, 37, 73); fill-opacity: 0.5; stroke-width: 0;"/></g></g><g class="errorbars"/><g class="lines"><path class="js-line" d="M0,246L18.1,235.71L36.19,217.05L72.38,167.35L90.48,146.53L108.57,131.41L126.67,122.54L144.76,119.2L162.85,126.1L180.95,140.69L199.05,160.45L217.14,180.88L235.24,199.98L253.33,216.62L271.42,229.76L289.52,238.72L307.62,243.64L325.71,245.58L343.8,245.99L361.9,246" style="vector-effect: none; fill: none; stroke: rgb(91, 37, 73); strokeOpacity: 1; stroke-width: 2px; opacity: 1;"/></g><g class="points"/><g class="text"/></g><g class="trace scatter trace9bf21f" style="stroke-miterlimit: 2;"><g class="fills"><g><path class="js-fill" d="M0,246L18.1,235.71L36.19,217.05L72.38,167.35L90.48,146.53L108.57,131.41L126.67,122.54L144.76,119.2L162.85,119.42L180.95,120.75L199.05,127.83L217.14,139.76L235.24,156.78L271.42,195.75L289.52,213.67L307.62,228.11L325.71,238.02L343.8,243.44L361.9,245.55L361.9,245.99L343.8,245.55L325.71,243.48L307.62,238.22L289.52,228.69L271.42,214.85L253.33,197.67L235.24,178.61L217.14,159.23L199.05,141.14L180.95,127.48L162.85,119.42L144.76,119.2L126.67,122.54L108.57,131.41L90.48,146.53L72.38,167.35L36.19,217.05L18.1,235.71L0,246Z" style="fill: rgb(91, 37, 73); fill-opacity: 0.5; stroke-width: 0;"/></g></g><g class="errorbars"/><g class="lines"><path class="js-line" d="M0,246L18.1,235.71L36.19,217.05L72.38,167.35L90.48,146.53L108.57,131.41L126.67,122.54L144.76,119.2L162.85,119.42L180.95,127.48L199.05,141.14L217.14,159.23L235.24,178.61L253.33,197.67L271.42,214.85L289.52,228.69L307.62,238.22L325.71,243.48L343.8,245.55L361.9,245.99" style="vector-effect: none; fill: none; stroke: rgb(91, 37, 73); strokeOpacity: 1; stroke-width: 2px; opacity: 1;"/></g><g class="points"/><g class="text"/></g><g class="trace scatter traceaf07a9" style="stroke-miterlimit: 2;"><g class="fills"><g><path class="js-fill" d="M0,246L18.1,235.71L36.19,217.05L72.38,167.35L90.48,146.53L108.57,131.41L126.67,122.54L144.76,119.2L162.85,119.42L180.95,120.75L199.05,121.26L217.14,126.79L235.24,137.8L253.33,154.85L271.42,174.76L289.52,195.04L307.62,213.46L325.71,228.16L343.8,238.11L361.9,243.48L361.9,245.55L343.8,243.44L325.71,238.02L307.62,228.11L289.52,213.67L271.42,195.75L235.24,156.78L217.14,139.76L199.05,127.83L180.95,120.75L162.85,119.42L144.76,119.2L126.67,122.54L108.57,131.41L90.48,146.53L72.38,167.35L36.19,217.05L18.1,235.71L0,246Z" style="fill: rgb(91, 37, 73); fill-opacity: 0.5; stroke-width: 0;"/></g></g><g class="errorbars"/><g class="lines"><path class="js-line" d="M0,246L18.1,235.71L36.19,217.05L72.38,167.35L90.48,146.53L108.57,131.41L126.67,122.54L144.76,119.2L162.85,119.42L180.95,120.75L199.05,127.83L217.14,139.76L235.24,156.78L271.42,195.75L289.52,213.67L307.62,228.11L325.71,238.02L343.8,243.44L361.9,245.55" style="vector-effect: none; fill: none; stroke: rgb(91, 37, 73); strokeOpacity: 1; stroke-width: 2px; opacity: 1;"/></g><g class="points"/><g class="text"/></g><g class="trace scatter trace9bc2ce" style="stroke-miterlimit: 2;"><g class="fills"><g><path class="js-fill" d="M0,246L18.1,235.71L36.19,217.05L72.38,167.35L90.48,146.53L108.57,131.41L126.67,122.54L144.76,119.2L162.85,119.42L180.95,120.75L199.05,121.26L217.14,120.39L235.24,125.16L253.33,136.36L271.42,154.01L307.62,195.31L325.71,213.89L343.8,228.5L361.9,238.29L361.9,243.48L343.8,238.11L325.71,228.16L307.62,213.46L289.52,195.04L271.42,174.76L253.33,154.85L235.24,137.8L217.14,126.79L199.05,121.26L180.95,120.75L162.85,119.42L144.76,119.2L126.67,122.54L108.57,131.41L90.48,146.53L72.38,167.35L36.19,217.05L18.1,235.71L0,246Z" style="fill: rgb(91, 37, 73); fill-opacity: 0.5; stroke-width: 0;"/></g></g><g class="errorbars"/><g class="lines"><path class="js-line" d="M0,246L18.1,235.71L36.19,217.05L72.38,167.35L90.48,146.53L108.57,131.41L126.67,122.54L144.76,119.2L162.85,119.42L180.95,120.75L199.05,121.26L217.14,126.79L235.24,137.8L253.33,154.85L271.42,174.76L289.52,195.04L307.62,213.46L325.71,228.16L343.8,238.11L361.9,243.48" style="vector-effect: none; fill: none; stroke: rgb(91, 37, 73); strokeOpacity: 1; stroke-width: 2px; opacity: 1;"/></g><g class="points"/><g class="text"/></g><g class="trace scatter trace7b9765" style="stroke-miterlimit: 2;"><g class="fills"><g><path class="js-fill" d="M0,246L18.1,235.71L36.19,217.05L72.38,167.35L90.48,146.53L108.57,131.41L126.67,122.54L144.76,119.2L162.85,119.42L180.95,120.75L199.05,121.26L235.24,118.9L253.33,123.98L271.42,135.91L289.52,154.28L325.71,196.13L343.8,214.54L361.9,228.9L361.9,238.29L343.8,228.5L325.71,213.89L307.62,195.31L271.42,154.01L253.33,136.36L235.24,125.16L217.14,120.39L199.05,121.26L180.95,120.75L162.85,119.42L144.76,119.2L126.67,122.54L108.57,131.41L90.48,146.53L72.38,167.35L36.19,217.05L18.1,235.71L0,246Z" style="fill: rgb(91, 37, 73); fill-opacity: 0.5; stroke-width: 0;"/></g></g><g class="errorbars"/><g class="lines"><path class="js-line" d="M0,246L18.1,235.71L36.19,217.05L72.38,167.35L90.48,146.53L108.57,131.41L126.67,122.54L144.76,119.2L162.85,119.42L180.95,120.75L199.05,121.26L217.14,120.39L235.24,125.16L253.33,136.36L271.42,154.01L307.62,195.31L325.71,213.89L343.8,228.5L361.9,238.29" style="vector-effect: none; fill: none; stroke: rgb(91, 37, 73); strokeOpacity: 1; stroke-width: 2px; opacity: 1;"/></g><g class="points"/><g class="text"/></g><g class="trace scatter tracec84c13" style="stroke-miterlimit: 2;"><g class="fills"><g><path class="js-fill" d="M0,246L18.1,235.71L36.19,217.05L72.38,167.35L90.48,146.53L108.57,131.41L126.67,122.54L144.76,119.2L162.85,119.42L180.95,120.75L199.05,121.26L235.24,118.9L253.33,117.84L271.42,123.77L289.52,136.51L307.62,155.37L325.71,176.47L343.8,197.11L361.9,215.19L361.9,228.9L343.8,214.54L325.71,196.13L289.52,154.28L271.42,135.91L253.33,123.98L235.24,118.9L199.05,121.26L180.95,120.75L162.85,119.42L144.76,119.2L126.67,122.54L108.57,131.41L90.48,146.53L72.38,167.35L36.19,217.05L18.1,235.71L0,246Z" style="fill: rgb(91, 37, 73); fill-opacity: 0.5; stroke-width: 0;"/></g></g><g class="errorbars"/><g class="lines"><path class="js-line" d="M0,246L18.1,235.71L36.19,217.05L72.38,167.35L90.48,146.53L108.57,131.41L126.67,122.54L144.76,119.2L162.85,119.42L180.95,120.75L199.05,121.26L235.24,118.9L253.33,123.98L271.42,135.91L289.52,154.28L325.71,196.13L343.8,214.54L361.9,228.9" style="vector-effect: none; fill: none; stroke: rgb(91, 37, 73); strokeOpacity: 1; stroke-width: 2px; opacity: 1;"/></g><g class="points"/><g class="text"/></g><g class="trace scatter trace3ffbf3" style="stroke-miterlimit: 2;"><g class="fills"><g><path class="js-fill" d="M0,246L18.1,235.71L36.19,217.05L72.38,167.35L90.48,146.53L108.57,131.41L126.67,122.54L144.76,119.2L162.85,119.42L180.95,120.75L199.05,121.26L235.24,118.9L253.33,117.84L271.42,117.68L289.52,124.49L307.62,137.78L325.71,156.75L361.9,197.93L361.9,215.19L343.8,197.11L325.71,176.47L307.62,155.37L289.52,136.51L271.42,123.77L253.33,117.84L235.24,118.9L199.05,121.26L180.95,120.75L162.85,119.42L144.76,119.2L126.67,122.54L108.57,131.41L90.48,146.53L72.38,167.35L36.19,217.05L18.1,235.71L0,246Z" style="fill: rgb(91, 37, 73); fill-opacity: 0.5; stroke-width: 0;"/></g></g><g class="errorbars"/><g class="lines"><path class="js-line" d="M0,246L18.1,235.71L36.19,217.05L72.38,167.35L90.48,146.53L108.57,131.41L126.67,122.54L144.76,119.2L162.85,119.42L180.95,120.75L199.05,121.26L235.24,118.9L253.33,117.84L271.42,123.77L289.52,136.51L307.62,155.37L325.71,176.47L343.8,197.11L361.9,215.19" style="vector-effect: none; fill: none; stroke: rgb(91, 37, 73); strokeOpacity: 1; stroke-width: 2px; opacity: 1;"/></g><g class="points"/><g class="text"/></g><g class="trace scatter trace7820b6" style="stroke-miterlimit: 2;"><g class="fills"><g><path class="js-fill" d="M0,246L18.1,235.71L36.19,217.05L72.38,167.35L90.48,146.53L108.57,131.41L126.67,122.54L144.76,119.2L162.85,119.42L180.95,120.75L199.05,121.26L235.24,118.9L253.33,117.84L271.42,117.68L289.52,118.44L307.62,125.83L325.71,139.27L343.8,158.05L361.9,178.6L361.9,197.93L325.71,156.75L307.62,137.78L289.52,124.49L271.42,117.68L253.33,117.84L235.24,118.9L199.05,121.26L180.95,120.75L162.85,119.42L144.76,119.2L126.67,122.54L108.57,131.41L90.48,146.53L72.38,167.35L36.19,217.05L18.1,235.71L0,246Z" style="fill: rgb(91, 37, 73); fill-opacity: 0.5; stroke-width: 0;"/></g></g><g class="errorbars"/><g class="lines"><path class="js-line" d="M0,246L18.1,235.71L36.19,217.05L72.38,167.35L90.48,146.53L108.57,131.41L126.67,122.54L144.76,119.2L162.85,119.42L180.95,120.75L199.05,121.26L235.24,118.9L253.33,117.84L271.42,117.68L289.52,124.49L307.62,137.78L325.71,156.75L361.9,197.93" style="vector-effect: none; fill: none; stroke: rgb(91, 37, 73); strokeOpacity: 1; stroke-width: 2px; opacity: 1;"/></g><g class="points"/><g class="text"/></g><g class="trace scatter trace111539" style="stroke-miterlimit: 2;"><g class="fills"><g><path class="js-fill" d="M0,246L18.1,235.71L36.19,217.05L72.38,167.35L90.48,146.53L108.57,131.41L126.67,122.54L144.76,119.2L162.85,119.42L180.95,120.75L199.05,121.26L235.24,118.9L253.33,117.84L271.42,117.68L289.52,118.44L307.62,119.77L325.71,127.3L343.8,140.55L361.9,158.97L361.9,178.6L343.8,158.05L325.71,139.27L307.62,125.83L289.52,118.44L271.42,117.68L253.33,117.84L235.24,118.9L199.05,121.26L180.95,120.75L162.85,119.42L144.76,119.2L126.67,122.54L108.57,131.41L90.48,146.53L72.38,167.35L36.19,217.05L18.1,235.71L0,246Z" style="fill: rgb(91, 37, 73); fill-opacity: 0.5; stroke-width: 0;"/></g></g><g class="errorbars"/><g class="lines"><path class="js-line" d="M0,246L18.1,235.71L36.19,217.05L72.38,167.35L90.48,146.53L108.57,131.41L126.67,122.54L144.76,119.2L162.85,119.42L180.95,120.75L199.05,121.26L235.24,118.9L253.33,117.84L271.42,117.68L289.52,118.44L307.62,125.83L325.71,139.27L343.8,158.05L361.9,178.6" style="vector-effect: none; fill: none; stroke: rgb(91, 37, 73); strokeOpacity: 1; stroke-width: 2px; opacity: 1;"/></g><g class="points"/><g class="text"/></g><g class="trace scatter tracecae7b8" style="stroke-miterlimit: 2;"><g class="fills"><g><path class="js-fill" d="M0,246L18.1,235.71L36.19,217.05L72.38,167.35L90.48,146.53L108.57,131.41L126.67,122.54L144.76,119.2L162.85,119.42L180.95,120.75L199.05,121.26L235.24,118.9L253.33,117.84L271.42,117.68L289.52,118.44L325.71,121.03L343.8,128.15L361.9,140.84L361.9,158.97L343.8,140.55L325.71,127.3L307.62,119.77L289.52,118.44L271.42,117.68L253.33,117.84L235.24,118.9L199.05,121.26L180.95,120.75L162.85,119.42L144.76,119.2L126.67,122.54L108.57,131.41L90.48,146.53L72.38,167.35L36.19,217.05L18.1,235.71L0,246Z" style="fill: rgb(91, 37, 73); fill-opacity: 0.5; stroke-width: 0;"/></g></g><g class="errorbars"/><g class="lines"><path class="js-line" d="M0,246L18.1,235.71L36.19,217.05L72.38,167.35L90.48,146.53L108.57,131.41L126.67,122.54L144.76,119.2L162.85,119.42L180.95,120.75L199.05,121.26L235.24,118.9L253.33,117.84L271.42,117.68L289.52,118.44L307.62,119.77L325.71,127.3L343.8,140.55L361.9,158.97" style="vector-effect: none; fill: none; stroke: rgb(91, 37, 73); strokeOpacity: 1; stroke-width: 2px; opacity: 1;"/></g><g class="points"/><g class="text"/></g><g class="trace scatter tracea0f448" style="stroke-miterlimit: 2;"><g class="fills"><g><path class="js-fill" d="M0,246L18.1,235.71L36.19,217.05L72.38,167.35L90.48,146.53L108.57,131.41L126.67,122.54L144.76,119.2L162.85,119.42L180.95,120.75L199.05,121.26L235.24,118.9L253.33,117.84L271.42,117.68L289.52,118.44L325.71,121.03L343.8,120.69L361.9,126.09L361.9,140.84L343.8,128.15L325.71,121.03L289.52,118.44L271.42,117.68L253.33,117.84L235.24,118.9L199.05,121.26L180.95,120.75L162.85,119.42L144.76,119.2L126.67,122.54L108.57,131.41L90.48,146.53L72.38,167.35L36.19,217.05L18.1,235.71L0,246Z" style="fill: rgb(91, 37, 73); fill-opacity: 0.5; stroke-width: 0;"/></g></g><g class="errorbars"/><g class="lines"><path class="js-line" d="M0,246L18.1,235.71L36.19,217.05L72.38,167.35L90.48,146.53L108.57,131.41L126.67,122.54L144.76,119.2L162.85,119.42L180.95,120.75L199.05,121.26L235.24,118.9L253.33,117.84L271.42,117.68L289.52,118.44L325.71,121.03L343.8,128.15L361.9,140.84" style="vector-effect: none; fill: none; stroke: rgb(91, 37, 73); strokeOpacity: 1; stroke-width: 2px; opacity: 1;"/></g><g class="points"/><g class="text"/></g><g class="trace scatter trace4d275e" style="stroke-miterlimit: 2;"><g class="fills"><g><path class="js-fill" d="M0,246L18.1,235.71L36.19,217.05L72.38,167.35L90.48,146.53L108.57,131.41L126.67,122.54L144.76,119.2L162.85,119.42L180.95,120.75L199.05,121.26L235.24,118.9L253.33,117.84L271.42,117.68L289.52,118.44L325.71,121.03L343.8,120.69L361.9,117.14L361.9,126.09L343.8,120.69L325.71,121.03L289.52,118.44L271.42,117.68L253.33,117.84L235.24,118.9L199.05,121.26L180.95,120.75L162.85,119.42L144.76,119.2L126.67,122.54L108.57,131.41L90.48,146.53L72.38,167.35L36.19,217.05L18.1,235.71L0,246Z" style="fill: rgb(91, 37, 73); fill-opacity: 0.5; stroke-width: 0;"/></g></g><g class="errorbars"/><g class="lines"><path class="js-line" d="M0,246L18.1,235.71L36.19,217.05L72.38,167.35L90.48,146.53L108.57,131.41L126.67,122.54L144.76,119.2L162.85,119.42L180.95,120.75L199.05,121.26L235.24,118.9L253.33,117.84L271.42,117.68L289.52,118.44L325.71,121.03L343.8,120.69L361.9,126.09" style="vector-effect: none; fill: none; stroke: rgb(91, 37, 73); strokeOpacity: 1; stroke-width: 2px; opacity: 1;"/></g><g class="points"/><g class="text"/></g><g class="trace scatter tracef70f10" style="stroke-miterlimit: 2;"><g class="fills"><g><path class="js-fill" d="M0,246L18.1,235.71L36.19,217.05L72.38,167.35L90.48,146.53L108.57,131.41L126.67,122.54L144.76,119.2L162.85,119.42L180.95,120.75L199.05,121.26L235.24,118.9L253.33,117.84L271.42,117.68L289.52,118.44L325.71,121.03L343.8,120.69L361.9,117.14L361.9,117.14L343.8,120.69L325.71,121.03L289.52,118.44L271.42,117.68L253.33,117.84L235.24,118.9L199.05,121.26L180.95,120.75L162.85,119.42L144.76,119.2L126.67,122.54L108.57,131.41L90.48,146.53L72.38,167.35L36.19,217.05L18.1,235.71L0,246Z" style="fill: rgb(91, 37, 73); fill-opacity: 0.5; stroke-width: 0;"/></g></g><g class="errorbars"/><g class="lines"><path class="js-line" d="M0,246L18.1,235.71L36.19,217.05L72.38,167.35L90.48,146.53L108.57,131.41L126.67,122.54L144.76,119.2L162.85,119.42L180.95,120.75L199.05,121.26L235.24,118.9L253.33,117.84L271.42,117.68L289.52,118.44L325.71,121.03L343.8,120.69L361.9,117.14" style="vector-effect: none; fill: none; stroke: rgb(91, 37, 73); strokeOpacity: 1; stroke-width: 2px; opacity: 1;"/></g><g class="points"/><g class="text"/></g><g class="trace scatter trace24540c" style="stroke-miterlimit: 2;"><g class="fills"><g><path class="js-fill" d="M0,246L18.1,235.71L36.19,217.05L72.38,167.35L90.48,146.53L108.57,131.41L126.67,122.54L144.76,119.2L162.85,119.42L180.95,120.75L199.05,121.26L235.24,118.9L253.33,117.84L271.42,117.68L289.52,118.44L325.71,121.03L343.8,120.69L361.9,117.14L361.9,117.14L343.8,120.69L325.71,121.03L289.52,118.44L271.42,117.68L253.33,117.84L235.24,118.9L199.05,121.26L180.95,120.75L162.85,119.42L144.76,119.2L126.67,122.54L108.57,131.41L90.48,146.53L72.38,167.35L36.19,217.05L18.1,235.71L0,246Z" style="fill: rgb(55, 52, 44); fill-opacity: 0.5; stroke-width: 0;"/></g></g><g class="errorbars"/><g class="lines"><path class="js-line" d="M0,246L18.1,235.71L36.19,217.05L72.38,167.35L90.48,146.53L108.57,131.41L126.67,122.54L144.76,119.2L162.85,119.42L180.95,120.75L199.05,121.26L235.24,118.9L253.33,117.84L271.42,117.68L289.52,118.44L325.71,121.03L343.8,120.69L361.9,117.14" style="vector-effect: none; fill: none; stroke: rgb(91, 37, 73); strokeOpacity: 1; stroke-width: 2px; opacity: 1;"/></g><g class="points"/><g class="text"/></g><g class="trace scatter trace321329" style="stroke-miterlimit: 2;"><g class="fills"><g><path class="js-fill" d="M0,246L18.1,235.71L36.19,217.05L72.38,167.35L90.48,146.53L108.57,131.41L126.67,122.54L144.76,119.2L162.85,119.42L180.95,120.75L199.05,121.26L235.24,118.9L253.33,117.84L271.42,117.68L289.52,118.44L325.71,121.03L343.8,120.69L361.9,117.14L361.9,117.14L343.8,120.69L325.71,121.03L289.52,118.44L271.42,117.68L253.33,117.84L235.24,118.9L199.05,121.26L180.95,120.75L162.85,119.42L144.76,119.2L126.67,122.54L108.57,131.41L90.48,146.53L72.38,167.35L36.19,217.05L18.1,235.71L0,246Z" style="fill: rgb(55, 52, 44); fill-opacity: 0.5; stroke-width: 0;"/></g></g><g class="errorbars"/><g class="lines"><path class="js-line" d="M0,246L18.1,235.71L36.19,217.05L72.38,167.35L90.48,146.53L108.57,131.41L126.67,122.54L144.76,119.2L162.85,119.42L180.95,120.75L199.05,121.26L235.24,118.9L253.33,117.84L271.42,117.68L289.52,118.44L325.71,121.03L343.8,120.69L361.9,117.14" style="vector-effect: none; fill: none; stroke: rgb(55, 52, 44); strokeOpacity: 1; stroke-width: 2px; opacity: 1;"/></g><g class="points"/><g class="text"/></g><g class="trace scatter tracecd85e6" style="stroke-miterlimit: 2;"><g class="fills"><g><path class="js-fill" d="M0,246L18.1,235.71L36.19,217.05L72.38,167.35L90.48,146.53L108.57,131.41L126.67,122.54L144.76,119.2L162.85,119.42L180.95,120.75L199.05,121.26L235.24,118.9L253.33,117.84L271.42,117.68L289.52,118.44L325.71,121.03L343.8,120.69L361.9,117.14L361.9,117.14L343.8,120.69L325.71,121.03L289.52,118.44L271.42,117.68L253.33,117.84L235.24,118.9L199.05,121.26L180.95,120.75L162.85,119.42L144.76,119.2L126.67,122.54L108.57,131.41L90.48,146.53L72.38,167.35L36.19,217.05L18.1,235.71L0,246Z" style="fill: rgb(55, 52, 44); fill-opacity: 0.5; stroke-width: 0;"/></g></g><g class="errorbars"/><g class="lines"><path class="js-line" d="M0,246L18.1,235.71L36.19,217.05L72.38,167.35L90.48,146.53L108.57,131.41L126.67,122.54L144.76,119.2L162.85,119.42L180.95,120.75L199.05,121.26L235.24,118.9L253.33,117.84L271.42,117.68L289.52,118.44L325.71,121.03L343.8,120.69L361.9,117.14" style="vector-effect: none; fill: none; stroke: rgb(55, 52, 44); strokeOpacity: 1; stroke-width: 2px; opacity: 1;"/></g><g class="points"/><g class="text"/></g><g class="trace scatter trace371ef7" style="stroke-miterlimit: 2;"><g class="fills"><g><path class="js-fill" d="M0,246L18.1,235.71L36.19,217.05L72.38,167.35L90.48,146.53L108.57,131.41L126.67,122.54L144.76,119.2L162.85,119.42L180.95,120.75L199.05,121.26L235.24,118.9L253.33,117.84L271.42,117.68L289.52,118.44L325.71,121.03L343.8,120.69L361.9,117.14L361.9,117.14L343.8,120.69L325.71,121.03L289.52,118.44L271.42,117.68L253.33,117.84L235.24,118.9L199.05,121.26L180.95,120.75L162.85,119.42L144.76,119.2L126.67,122.54L108.57,131.41L90.48,146.53L72.38,167.35L36.19,217.05L18.1,235.71L0,246Z" style="fill: rgb(55, 52, 44); fill-opacity: 0.5; stroke-width: 0;"/></g></g><g class="errorbars"/><g class="lines"><path class="js-line" d="M0,246L18.1,235.71L36.19,217.05L72.38,167.35L90.48,146.53L108.57,131.41L126.67,122.54L144.76,119.2L162.85,119.42L180.95,120.75L199.05,121.26L235.24,118.9L253.33,117.84L271.42,117.68L289.52,118.44L325.71,121.03L343.8,120.69L361.9,117.14" style="vector-effect: none; fill: none; stroke: rgb(55, 52, 44); strokeOpacity: 1; stroke-width: 2px; opacity: 1;"/></g><g class="points"/><g class="text"/></g><g class="trace scatter trace3da22a" style="stroke-miterlimit: 2;"><g class="fills"><g><path class="js-fill" d="M0,246L18.1,235.71L36.19,217.05L72.38,167.35L90.48,146.53L108.57,131.41L126.67,122.54L144.76,119.2L162.85,119.42L180.95,120.75L199.05,121.26L235.24,118.9L253.33,117.84L271.42,117.68L289.52,118.44L325.71,121.03L343.8,120.69L361.9,117.14L361.9,117.14L343.8,120.69L325.71,121.03L289.52,118.44L271.42,117.68L253.33,117.84L235.24,118.9L199.05,121.26L180.95,120.75L162.85,119.42L144.76,119.2L126.67,122.54L108.57,131.41L90.48,146.53L72.38,167.35L36.19,217.05L18.1,235.71L0,246Z" style="fill: rgb(55, 52, 44); fill-opacity: 0.5; stroke-width: 0;"/></g></g><g class="errorbars"/><g class="lines"><path class="js-line" d="M0,246L18.1,235.71L36.19,217.05L72.38,167.35L90.48,146.53L108.57,131.41L126.67,122.54L144.76,119.2L162.85,119.42L180.95,120.75L199.05,121.26L235.24,118.9L253.33,117.84L271.42,117.68L289.52,118.44L325.71,121.03L343.8,120.69L361.9,117.14" style="vector-effect: none; fill: none; stroke: rgb(55, 52, 44); strokeOpacity: 1; stroke-width: 2px; opacity: 1;"/></g><g class="points"/><g class="text"/></g><g class="trace scatter trace0c0a42" style="stroke-miterlimit: 2;"><g class="fills"><g><path class="js-fill" d="M0,246L18.1,235.71L36.19,217.05L72.38,167.35L90.48,146.53L108.57,131.41L126.67,122.54L144.76,119.2L162.85,119.42L180.95,120.75L199.05,121.26L235.24,118.9L253.33,117.84L271.42,117.68L289.52,118.44L325.71,121.03L343.8,120.69L361.9,117.14L361.9,117.14L343.8,120.69L325.71,121.03L289.52,118.44L271.42,117.68L253.33,117.84L235.24,118.9L199.05,121.26L180.95,120.75L162.85,119.42L144.76,119.2L126.67,122.54L108.57,131.41L90.48,146.53L72.38,167.35L36.19,217.05L18.1,235.71L0,246Z" style="fill: rgb(55, 52, 44); fill-opacity: 0.5; stroke-width: 0;"/></g></g><g class="errorbars"/><g class="lines"><path class="js-line" d="M0,246L18.1,235.71L36.19,217.05L72.38,167.35L90.48,146.53L108.57,131.41L126.67,122.54L144.76,119.2L162.85,119.42L180.95,120.75L199.05,121.26L235.24,118.9L253.33,117.84L271.42,117.68L289.52,118.44L325.71,121.03L343.8,120.69L361.9,117.14" style="vector-effect: none; fill: none; stroke: rgb(55, 52, 44); strokeOpacity: 1; stroke-width: 2px; opacity: 1;"/></g><g class="points"/><g class="text"/></g><g class="trace scatter trace2ab9b4" style="stroke-miterlimit: 2;"><g class="fills"><g><path class="js-fill" d="M0,246L18.1,235.71L36.19,217.05L72.38,167.35L90.48,146.53L108.57,131.41L126.67,122.54L144.76,119.2L162.85,119.42L180.95,120.75L199.05,121.26L235.24,118.9L253.33,117.84L271.42,117.68L289.52,118.44L325.71,121.03L343.8,120.69L361.9,117.14L361.9,117.14L343.8,120.69L325.71,121.03L289.52,118.44L271.42,117.68L253.33,117.84L235.24,118.9L199.05,121.26L180.95,120.75L162.85,119.42L144.76,119.2L126.67,122.54L108.57,131.41L90.48,146.53L72.38,167.35L36.19,217.05L18.1,235.71L0,246Z" style="fill: rgb(55, 52, 44); fill-opacity: 0.5; stroke-width: 0;"/></g></g><g class="errorbars"/><g class="lines"><path class="js-line" d="M0,246L18.1,235.71L36.19,217.05L72.38,167.35L90.48,146.53L108.57,131.41L126.67,122.54L144.76,119.2L162.85,119.42L180.95,120.75L199.05,121.26L235.24,118.9L253.33,117.84L271.42,117.68L289.52,118.44L325.71,121.03L343.8,120.69L361.9,117.14" style="vector-effect: none; fill: none; stroke: rgb(55, 52, 44); strokeOpacity: 1; stroke-width: 2px; opacity: 1;"/></g><g class="points"/><g class="text"/></g><g class="trace scatter tracee00201" style="stroke-miterlimit: 2;"><g class="fills"><g><path class="js-fill" d="M0,246L18.1,235.71L36.19,217.05L72.38,167.35L90.48,146.53L108.57,131.41L126.67,122.54L144.76,119.2L162.85,119.42L180.95,120.75L199.05,121.26L235.24,118.9L253.33,117.84L271.42,117.68L289.52,118.44L325.71,121.03L343.8,120.69L361.9,117.14L361.9,117.14L343.8,120.69L325.71,121.03L289.52,118.44L271.42,117.68L253.33,117.84L235.24,118.9L199.05,121.26L180.95,120.75L162.85,119.42L144.76,119.2L126.67,122.54L108.57,131.41L90.48,146.53L72.38,167.35L36.19,217.05L18.1,235.71L0,246Z" style="fill: rgb(55, 52, 44); fill-opacity: 0.5; stroke-width: 0;"/></g></g><g class="errorbars"/><g class="lines"><path class="js-line" d="M0,246L18.1,235.71L36.19,217.05L72.38,167.35L90.48,146.53L108.57,131.41L126.67,122.54L144.76,119.2L162.85,119.42L180.95,120.75L199.05,121.26L235.24,118.9L253.33,117.84L271.42,117.68L289.52,118.44L325.71,121.03L343.8,120.69L361.9,117.14" style="vector-effect: none; fill: none; stroke: rgb(55, 52, 44); strokeOpacity: 1; stroke-width: 2px; opacity: 1;"/></g><g class="points"/><g class="text"/></g><g class="trace scatter trace8e794b" style="stroke-miterlimit: 2;"><g class="fills"><g><path class="js-fill" d="M0,246L18.1,235.71L36.19,217.05L72.38,167.35L90.48,146.53L108.57,131.41L126.67,122.54L144.76,119.2L162.85,119.42L180.95,120.75L199.05,121.26L235.24,118.9L253.33,117.84L271.42,117.68L289.52,118.44L325.71,121.03L343.8,120.69L361.9,117.14L361.9,117.14L343.8,120.69L325.71,121.03L289.52,118.44L271.42,117.68L253.33,117.84L235.24,118.9L199.05,121.26L180.95,120.75L162.85,119.42L144.76,119.2L126.67,122.54L108.57,131.41L90.48,146.53L72.38,167.35L36.19,217.05L18.1,235.71L0,246Z" style="fill: rgb(55, 52, 44); fill-opacity: 0.5; stroke-width: 0;"/></g></g><g class="errorbars"/><g class="lines"><path class="js-line" d="M0,246L18.1,235.71L36.19,217.05L72.38,167.35L90.48,146.53L108.57,131.41L126.67,122.54L144.76,119.2L162.85,119.42L180.95,120.75L199.05,121.26L235.24,118.9L253.33,117.84L271.42,117.68L289.52,118.44L325.71,121.03L343.8,120.69L361.9,117.14" style="vector-effect: none; fill: none; stroke: rgb(55, 52, 44); strokeOpacity: 1; stroke-width: 2px; opacity: 1;"/></g><g class="points"/><g class="text"/></g><g class="trace scatter trace4f1f01" style="stroke-miterlimit: 2;"><g class="fills"><g><path class="js-fill" d="M0,246L18.1,235.71L36.19,217.05L72.38,167.35L90.48,146.53L108.57,131.41L126.67,122.54L144.76,119.2L162.85,119.42L180.95,120.75L199.05,121.26L235.24,118.9L253.33,117.84L271.42,117.68L289.52,118.44L325.71,121.03L343.8,120.69L361.9,117.14L361.9,117.14L343.8,120.69L325.71,121.03L289.52,118.44L271.42,117.68L253.33,117.84L235.24,118.9L199.05,121.26L180.95,120.75L162.85,119.42L144.76,119.2L126.67,122.54L108.57,131.41L90.48,146.53L72.38,167.35L36.19,217.05L18.1,235.71L0,246Z" style="fill: rgb(55, 52, 44); fill-opacity: 0.5; stroke-width: 0;"/></g></g><g class="errorbars"/><g class="lines"><path class="js-line" d="M0,246L18.1,235.71L36.19,217.05L72.38,167.35L90.48,146.53L108.57,131.41L126.67,122.54L144.76,119.2L162.85,119.42L180.95,120.75L199.05,121.26L235.24,118.9L253.33,117.84L271.42,117.68L289.52,118.44L325.71,121.03L343.8,120.69L361.9,117.14" style="vector-effect: none; fill: none; stroke: rgb(55, 52, 44); strokeOpacity: 1; stroke-width: 2px; opacity: 1;"/></g><g class="points"/><g class="text"/></g><g class="trace scatter trace35f89b" style="stroke-miterlimit: 2;"><g class="fills"><g><path class="js-fill" d="M0,246L18.1,235.71L36.19,217.05L72.38,167.35L90.48,146.53L108.57,131.41L126.67,122.54L144.76,119.2L162.85,119.42L180.95,120.75L199.05,121.26L235.24,118.9L253.33,117.84L271.42,117.68L289.52,118.44L325.71,121.03L343.8,120.69L361.9,117.14L361.9,117.14L343.8,120.69L325.71,121.03L289.52,118.44L271.42,117.68L253.33,117.84L235.24,118.9L199.05,121.26L180.95,120.75L162.85,119.42L144.76,119.2L126.67,122.54L108.57,131.41L90.48,146.53L72.38,167.35L36.19,217.05L18.1,235.71L0,246Z" style="fill: rgb(55, 52, 44); fill-opacity: 0.5; stroke-width: 0;"/></g></g><g class="errorbars"/><g class="lines"><path class="js-line" d="M0,246L18.1,235.71L36.19,217.05L72.38,167.35L90.48,146.53L108.57,131.41L126.67,122.54L144.76,119.2L162.85,119.42L180.95,120.75L199.05,121.26L235.24,118.9L253.33,117.84L271.42,117.68L289.52,118.44L325.71,121.03L343.8,120.69L361.9,117.14" style="vector-effect: none; fill: none; stroke: rgb(55, 52, 44); strokeOpacity: 1; stroke-width: 2px; opacity: 1;"/></g><g class="points"/><g class="text"/></g><g class="trace scatter tracec1b80b" style="stroke-miterlimit: 2;"><g class="fills"><g><path class="js-fill" d="M0,246L18.1,235.71L36.19,217.05L72.38,167.35L90.48,146.53L108.57,131.41L126.67,122.54L144.76,119.2L162.85,119.42L180.95,120.75L199.05,121.26L235.24,118.9L253.33,117.84L271.42,117.68L289.52,118.44L325.71,121.03L343.8,120.69L361.9,117.14L361.9,117.14L343.8,120.69L325.71,121.03L289.52,118.44L271.42,117.68L253.33,117.84L235.24,118.9L199.05,121.26L180.95,120.75L162.85,119.42L144.76,119.2L126.67,122.54L108.57,131.41L90.48,146.53L72.38,167.35L36.19,217.05L18.1,235.71L0,246Z" style="fill: rgb(55, 52, 44); fill-opacity: 0.5; stroke-width: 0;"/></g></g><g class="errorbars"/><g class="lines"><path class="js-line" d="M0,246L18.1,235.71L36.19,217.05L72.38,167.35L90.48,146.53L108.57,131.41L126.67,122.54L144.76,119.2L162.85,119.42L180.95,120.75L199.05,121.26L235.24,118.9L253.33,117.84L271.42,117.68L289.52,118.44L325.71,121.03L343.8,120.69L361.9,117.14" style="vector-effect: none; fill: none; stroke: rgb(55, 52, 44); strokeOpacity: 1; stroke-width: 2px; opacity: 1;"/></g><g class="points"/><g class="text"/></g><g class="trace scatter trace964768" style="stroke-miterlimit: 2;"><g class="fills"><g><path class="js-fill" d="M0,246L18.1,223.88L36.19,198.96L54.29,170.86L72.38,144.92L90.48,123.87L108.57,109.1L126.67,101.27L144.76,100.46L162.85,104.96L180.95,112.02L199.05,118.13L217.14,120.36L253.33,117.84L271.42,117.68L307.62,119.77L325.71,121.03L343.8,120.69L361.9,117.14L361.9,117.14L343.8,120.69L325.71,121.03L289.52,118.44L271.42,117.68L253.33,117.84L235.24,118.9L199.05,121.26L180.95,120.75L162.85,119.42L144.76,119.2L126.67,122.54L108.57,131.41L90.48,146.53L72.38,167.35L36.19,217.05L18.1,235.71L0,246Z" style="fill: rgb(55, 52, 44); fill-opacity: 0.5; stroke-width: 0;"/></g></g><g class="errorbars"/><g class="lines"><path class="js-line" d="M0,246L18.1,235.71L36.19,217.05L72.38,167.35L90.48,146.53L108.57,131.41L126.67,122.54L144.76,119.2L162.85,119.42L180.95,120.75L199.05,121.26L235.24,118.9L253.33,117.84L271.42,117.68L289.52,118.44L325.71,121.03L343.8,120.69L361.9,117.14" style="vector-effect: none; fill: none; stroke: rgb(55, 52, 44); strokeOpacity: 1; stroke-width: 2px; opacity: 1;"/></g><g class="points"/><g class="text"/></g><g class="trace scatter trace9713d7" style="stroke-miterlimit: 2;"><g class="fills"><g><path class="js-fill" d="M0,246L18.1,223.88L36.19,189.21L54.29,155.95L72.38,127.51L90.48,105.45L108.57,90.5L126.67,82.96L144.76,83.01L162.85,89.6L180.95,100.18L199.05,110.98L217.14,117.8L235.24,118.88L253.33,117.84L271.42,117.68L289.52,118.44L325.71,121.03L343.8,120.69L361.9,117.14L361.9,117.14L343.8,120.69L325.71,121.03L307.62,119.77L271.42,117.68L253.33,117.84L217.14,120.36L199.05,118.13L180.95,112.02L162.85,104.96L144.76,100.46L126.67,101.27L108.57,109.1L90.48,123.87L72.38,144.92L54.29,170.86L36.19,198.96L18.1,223.88L0,246Z" style="fill: rgb(55, 52, 44); fill-opacity: 0.5; stroke-width: 0;"/></g></g><g class="errorbars"/><g class="lines"><path class="js-line" d="M0,246L18.1,223.88L36.19,198.96L54.29,170.86L72.38,144.92L90.48,123.87L108.57,109.1L126.67,101.27L144.76,100.46L162.85,104.96L180.95,112.02L199.05,118.13L217.14,120.36L253.33,117.84L271.42,117.68L307.62,119.77L325.71,121.03L343.8,120.69L361.9,117.14" style="vector-effect: none; fill: none; stroke: rgb(55, 52, 44); strokeOpacity: 1; stroke-width: 2px; opacity: 1;"/></g><g class="points"/><g class="text"/></g><g class="trace scatter trace98fdac" style="stroke-miterlimit: 2;"><g class="fills"><g><path class="js-fill" d="M0,246L18.1,223.88L36.19,189.21L54.29,147.71L72.38,114.93L90.48,90.77L108.57,74.98L126.67,67.31L144.76,67.62L162.85,74.94L180.95,87.27L199.05,101.04L217.14,111.8L235.24,116.73L253.33,117.82L271.42,117.68L289.52,118.44L325.71,121.03L343.8,120.69L361.9,117.14L361.9,117.14L343.8,120.69L325.71,121.03L289.52,118.44L271.42,117.68L253.33,117.84L235.24,118.88L217.14,117.8L199.05,110.98L180.95,100.18L162.85,89.6L144.76,83.01L126.67,82.96L108.57,90.5L90.48,105.45L72.38,127.51L54.29,155.95L36.19,189.21L18.1,223.88L0,246Z" style="fill: rgb(55, 52, 44); fill-opacity: 0.5; stroke-width: 0;"/></g></g><g class="errorbars"/><g class="lines"><path class="js-line" d="M0,246L18.1,223.88L36.19,189.21L54.29,155.95L72.38,127.51L90.48,105.45L108.57,90.5L126.67,82.96L144.76,83.01L162.85,89.6L180.95,100.18L199.05,110.98L217.14,117.8L235.24,118.88L253.33,117.84L271.42,117.68L289.52,118.44L325.71,121.03L343.8,120.69L361.9,117.14" style="vector-effect: none; fill: none; stroke: rgb(55, 52, 44); strokeOpacity: 1; stroke-width: 2px; opacity: 1;"/></g><g class="points"/><g class="text"/></g><g class="trace scatter trace61e247" style="stroke-miterlimit: 2;"><g class="fills"><g><path class="js-fill" d="M0,246L18.1,223.88L36.19,189.21L72.38,107.77L90.48,79.85L108.57,62.24L126.67,53.85L144.76,54.05L162.85,61.6L180.95,74.57L199.05,89.86L217.14,103.18L235.24,111.52L253.33,115.96L271.42,117.67L307.62,119.77L325.71,121.03L343.8,120.69L361.9,117.14L361.9,117.14L343.8,120.69L325.71,121.03L289.52,118.44L271.42,117.68L253.33,117.82L235.24,116.73L217.14,111.8L199.05,101.04L180.95,87.27L162.85,74.94L144.76,67.62L126.67,67.31L108.57,74.98L90.48,90.77L72.38,114.93L54.29,147.71L36.19,189.21L18.1,223.88L0,246Z" style="fill: rgb(55, 52, 44); fill-opacity: 0.5; stroke-width: 0;"/></g></g><g class="errorbars"/><g class="lines"><path class="js-line" d="M0,246L18.1,223.88L36.19,189.21L54.29,147.71L72.38,114.93L90.48,90.77L108.57,74.98L126.67,67.31L144.76,67.62L162.85,74.94L180.95,87.27L199.05,101.04L217.14,111.8L235.24,116.73L253.33,117.82L271.42,117.68L289.52,118.44L325.71,121.03L343.8,120.69L361.9,117.14" style="vector-effect: none; fill: none; stroke: rgb(55, 52, 44); strokeOpacity: 1; stroke-width: 2px; opacity: 1;"/></g><g class="points"/><g class="text"/></g><g class="trace scatter tracec85c5c" style="stroke-miterlimit: 2;"><g class="fills"><g><path class="js-fill" d="M0,246L18.1,223.88L36.19,189.21L72.38,107.77L90.48,73.44L108.57,52.48L126.67,42.48L144.76,42.04L162.85,49.5L180.95,62.69L199.05,78.54L217.14,93.22L235.24,103.85L253.33,111.32L271.42,116.01L289.52,118.43L307.62,119.77L325.71,121.03L343.8,120.69L361.9,117.14L361.9,117.14L343.8,120.69L325.71,121.03L307.62,119.77L271.42,117.67L253.33,115.96L235.24,111.52L217.14,103.18L199.05,89.86L180.95,74.57L162.85,61.6L144.76,54.05L126.67,53.85L108.57,62.24L90.48,79.85L72.38,107.77L36.19,189.21L18.1,223.88L0,246Z" style="fill: rgb(55, 52, 44); fill-opacity: 0.5; stroke-width: 0;"/></g></g><g class="errorbars"/><g class="lines"><path class="js-line" d="M0,246L18.1,223.88L36.19,189.21L72.38,107.77L90.48,79.85L108.57,62.24L126.67,53.85L144.76,54.05L162.85,61.6L180.95,74.57L199.05,89.86L217.14,103.18L235.24,111.52L253.33,115.96L271.42,117.67L307.62,119.77L325.71,121.03L343.8,120.69L361.9,117.14" style="vector-effect: none; fill: none; stroke: rgb(55, 52, 44); strokeOpacity: 1; stroke-width: 2px; opacity: 1;"/></g><g class="points"/><g class="text"/></g><g class="trace scatter traceb358f0" style="stroke-miterlimit: 2;"><g class="fills"><g><path class="js-fill" d="M0,246L18.1,223.88L36.19,189.21L72.38,107.77L90.48,73.44L108.57,46.56L126.67,33.46L144.76,31.54L162.85,38.41L180.95,51.52L199.05,67.57L217.14,82.78L235.24,94.65L253.33,104.23L271.42,111.72L289.52,116.89L307.62,119.76L325.71,121.03L343.8,120.69L361.9,117.14L361.9,117.14L343.8,120.69L325.71,121.03L307.62,119.77L289.52,118.43L271.42,116.01L253.33,111.32L235.24,103.85L217.14,93.22L199.05,78.54L180.95,62.69L162.85,49.5L144.76,42.04L126.67,42.48L108.57,52.48L90.48,73.44L72.38,107.77L36.19,189.21L18.1,223.88L0,246Z" style="fill: rgb(55, 52, 44); fill-opacity: 0.5; stroke-width: 0;"/></g></g><g class="errorbars"/><g class="lines"><path class="js-line" d="M0,246L18.1,223.88L36.19,189.21L72.38,107.77L90.48,73.44L108.57,52.48L126.67,42.48L144.76,42.04L162.85,49.5L180.95,62.69L199.05,78.54L217.14,93.22L235.24,103.85L253.33,111.32L271.42,116.01L289.52,118.43L307.62,119.77L325.71,121.03L343.8,120.69L361.9,117.14" style="vector-effect: none; fill: none; stroke: rgb(55, 52, 44); strokeOpacity: 1; stroke-width: 2px; opacity: 1;"/></g><g class="points"/><g class="text"/></g><g class="trace scatter trace89f230" style="stroke-miterlimit: 2;"><g class="fills"><g><path class="js-fill" d="M0,246L18.1,223.88L36.19,189.21L72.38,107.77L90.48,73.44L108.57,46.56L126.67,27.68L144.76,22.76L162.85,28.19L180.95,40.73L199.05,56.71L217.14,72.11L235.24,84.49L253.33,95.29L271.42,104.83L289.52,112.73L307.62,118.27L325.71,121.02L343.8,120.69L361.9,117.14L361.9,117.14L343.8,120.69L325.71,121.03L307.62,119.76L289.52,116.89L271.42,111.72L253.33,104.23L235.24,94.65L217.14,82.78L199.05,67.57L180.95,51.52L162.85,38.41L144.76,31.54L126.67,33.46L108.57,46.56L90.48,73.44L72.38,107.77L36.19,189.21L18.1,223.88L0,246Z" style="fill: rgb(55, 52, 44); fill-opacity: 0.5; stroke-width: 0;"/></g></g><g class="errorbars"/><g class="lines"><path class="js-line" d="M0,246L18.1,223.88L36.19,189.21L72.38,107.77L90.48,73.44L108.57,46.56L126.67,33.46L144.76,31.54L162.85,38.41L180.95,51.52L199.05,67.57L217.14,82.78L235.24,94.65L253.33,104.23L271.42,111.72L289.52,116.89L307.62,119.76L325.71,121.03L343.8,120.69L361.9,117.14" style="vector-effect: none; fill: none; stroke: rgb(55, 52, 44); strokeOpacity: 1; stroke-width: 2px; opacity: 1;"/></g><g class="points"/><g class="text"/></g><g class="trace scatter tracec67b1d" style="stroke-miterlimit: 2;"><g class="fills"><g><path class="js-fill" d="M0,246L18.1,223.88L36.19,189.21L72.38,107.77L90.48,73.44L108.57,46.56L126.67,27.68L144.76,16.76L162.85,19.08L180.95,30.13L199.05,45.52L217.14,60.84L235.24,73.42L271.42,95.55L289.52,105.57L307.62,113.95L325.71,119.47L343.8,120.68L361.9,117.14L361.9,117.14L343.8,120.69L325.71,121.02L307.62,118.27L289.52,112.73L271.42,104.83L253.33,95.29L235.24,84.49L217.14,72.11L199.05,56.71L180.95,40.73L162.85,28.19L144.76,22.76L126.67,27.68L108.57,46.56L90.48,73.44L72.38,107.77L36.19,189.21L18.1,223.88L0,246Z" style="fill: rgb(55, 52, 44); fill-opacity: 0.5; stroke-width: 0;"/></g></g><g class="errorbars"/><g class="lines"><path class="js-line" d="M0,246L18.1,223.88L36.19,189.21L72.38,107.77L90.48,73.44L108.57,46.56L126.67,27.68L144.76,22.76L162.85,28.19L180.95,40.73L199.05,56.71L217.14,72.11L235.24,84.49L253.33,95.29L271.42,104.83L289.52,112.73L307.62,118.27L325.71,121.02L343.8,120.69L361.9,117.14" style="vector-effect: none; fill: none; stroke: rgb(55, 52, 44); strokeOpacity: 1; stroke-width: 2px; opacity: 1;"/></g><g class="points"/><g class="text"/></g><g class="trace scatter trace5bf0b2" style="stroke-miterlimit: 2;"><g class="fills"><g><path class="js-fill" d="M0,246L18.1,223.88L36.19,189.21L72.38,107.77L90.48,73.44L108.57,46.56L126.67,27.68L144.76,16.76L162.85,12.3L180.95,19.82L199.05,33.53L217.14,48.19L235.24,60.68L289.52,95.08L307.62,105.86L325.71,114.59L343.8,118.93L361.9,117.13L361.9,117.14L343.8,120.68L325.71,119.47L307.62,113.95L289.52,105.57L271.42,95.55L235.24,73.42L217.14,60.84L199.05,45.52L180.95,30.13L162.85,19.08L144.76,16.76L126.67,27.68L108.57,46.56L90.48,73.44L72.38,107.77L36.19,189.21L18.1,223.88L0,246Z" style="fill: rgb(55, 52, 44); fill-opacity: 0.5; stroke-width: 0;"/></g></g><g class="errorbars"/><g class="lines"><path class="js-line" d="M0,246L18.1,223.88L36.19,189.21L72.38,107.77L90.48,73.44L108.57,46.56L126.67,27.68L144.76,16.76L162.85,19.08L180.95,30.13L199.05,45.52L217.14,60.84L235.24,73.42L271.42,95.55L289.52,105.57L307.62,113.95L325.71,119.47L343.8,120.68L361.9,117.14" style="vector-effect: none; fill: none; stroke: rgb(55, 52, 44); strokeOpacity: 1; stroke-width: 2px; opacity: 1;"/></g><g class="points"/><g class="text"/></g><g class="trace scatter tracefdc76b" style="stroke-miterlimit: 2;"><g class="fills"><g><path class="js-fill" d="M0,246L18.1,223.88L36.19,189.21L72.38,107.77L90.48,73.44L108.57,46.56L126.67,27.68L144.76,16.76L162.85,12.3L180.95,12.65L199.05,22.64L217.14,35.51L235.24,47.3L289.52,82.48L307.62,94.76L325.71,106.04L343.8,113.76L361.9,115.28L361.9,117.13L343.8,118.93L325.71,114.59L307.62,105.86L289.52,95.08L235.24,60.68L217.14,48.19L199.05,33.53L180.95,19.82L162.85,12.3L144.76,16.76L126.67,27.68L108.57,46.56L90.48,73.44L72.38,107.77L36.19,189.21L18.1,223.88L0,246Z" style="fill: rgb(55, 52, 44); fill-opacity: 0.5; stroke-width: 0;"/></g></g><g class="errorbars"/><g class="lines"><path class="js-line" d="M0,246L18.1,223.88L36.19,189.21L72.38,107.77L90.48,73.44L108.57,46.56L126.67,27.68L144.76,16.76L162.85,12.3L180.95,19.82L199.05,33.53L217.14,48.19L235.24,60.68L289.52,95.08L307.62,105.86L325.71,114.59L343.8,118.93L361.9,117.13" style="vector-effect: none; fill: none; stroke: rgb(55, 52, 44); strokeOpacity: 1; stroke-width: 2px; opacity: 1;"/></g><g class="points"/><g class="text"/></g><g class="trace scatter trace1dc441" style="stroke-miterlimit: 2;"><g class="fills"><g><path class="js-fill" d="M0,246L18.1,223.88L36.19,189.21L72.38,107.77L90.48,73.44L108.57,46.56L126.67,27.68L144.76,16.76L162.85,12.3L180.95,12.65L199.05,15.6L235.24,34.86L253.33,45.62L289.52,69.47L307.62,82.39L325.71,95.14L343.8,105.36L361.9,110.21L361.9,115.28L343.8,113.76L325.71,106.04L307.62,94.76L289.52,82.48L235.24,47.3L217.14,35.51L199.05,22.64L180.95,12.65L162.85,12.3L144.76,16.76L126.67,27.68L108.57,46.56L90.48,73.44L72.38,107.77L36.19,189.21L18.1,223.88L0,246Z" style="fill: rgb(55, 52, 44); fill-opacity: 0.5; stroke-width: 0;"/></g></g><g class="errorbars"/><g class="lines"><path class="js-line" d="M0,246L18.1,223.88L36.19,189.21L72.38,107.77L90.48,73.44L108.57,46.56L126.67,27.68L144.76,16.76L162.85,12.3L180.95,12.65L199.05,22.64L217.14,35.51L235.24,47.3L289.52,82.48L307.62,94.76L325.71,106.04L343.8,113.76L361.9,115.28" style="vector-effect: none; fill: none; stroke: rgb(55, 52, 44); strokeOpacity: 1; stroke-width: 2px; opacity: 1;"/></g><g class="points"/><g class="text"/></g><g class="trace scatter trace253591" style="stroke-miterlimit: 2;"><g class="fills"><g><path class="js-fill" d="M0,246L18.1,223.88L36.19,189.21L72.38,107.77L90.48,73.44L108.57,46.56L126.67,27.68L144.76,16.76L162.85,12.3L180.95,12.65L199.05,15.6L217.14,18.11L235.24,24.66L253.33,33.75L271.42,44.63L307.62,69.98L325.71,83.34L343.8,94.97L361.9,102.2L361.9,110.21L343.8,105.36L325.71,95.14L307.62,82.39L289.52,69.47L253.33,45.62L235.24,34.86L199.05,15.6L180.95,12.65L162.85,12.3L144.76,16.76L126.67,27.68L108.57,46.56L90.48,73.44L72.38,107.77L36.19,189.21L18.1,223.88L0,246Z" style="fill: rgb(55, 52, 44); fill-opacity: 0.5; stroke-width: 0;"/></g></g><g class="errorbars"/><g class="lines"><path class="js-line" d="M0,246L18.1,223.88L36.19,189.21L72.38,107.77L90.48,73.44L108.57,46.56L126.67,27.68L144.76,16.76L162.85,12.3L180.95,12.65L199.05,15.6L235.24,34.86L253.33,45.62L289.52,69.47L307.62,82.39L325.71,95.14L343.8,105.36L361.9,110.21" style="vector-effect: none; fill: none; stroke: rgb(55, 52, 44); strokeOpacity: 1; stroke-width: 2px; opacity: 1;"/></g><g class="points"/><g class="text"/></g><g class="trace scatter trace36efc0" style="stroke-miterlimit: 2;"><g class="fills"><g><path class="js-fill" d="M0,246L18.1,223.88L36.19,189.21L72.38,107.77L90.48,73.44L108.57,46.56L126.67,27.68L144.76,16.76L162.85,12.3L180.95,12.65L199.05,15.6L217.14,18.11L235.24,18.24L253.33,24L271.42,33.28L289.52,44.88L307.62,57.93L325.71,71.48L343.8,83.69L361.9,92.27L361.9,102.2L343.8,94.97L325.71,83.34L307.62,69.98L271.42,44.63L253.33,33.75L235.24,24.66L217.14,18.11L199.05,15.6L180.95,12.65L162.85,12.3L144.76,16.76L126.67,27.68L108.57,46.56L90.48,73.44L72.38,107.77L36.19,189.21L18.1,223.88L0,246Z" style="fill: rgb(55, 52, 44); fill-opacity: 0.5; stroke-width: 0;"/></g></g><g class="errorbars"/><g class="lines"><path class="js-line" d="M0,246L18.1,223.88L36.19,189.21L72.38,107.77L90.48,73.44L108.57,46.56L126.67,27.68L144.76,16.76L162.85,12.3L180.95,12.65L199.05,15.6L217.14,18.11L235.24,24.66L253.33,33.75L271.42,44.63L307.62,69.98L325.71,83.34L343.8,94.97L361.9,102.2" style="vector-effect: none; fill: none; stroke: rgb(55, 52, 44); strokeOpacity: 1; stroke-width: 2px; opacity: 1;"/></g><g class="points"/><g class="text"/></g><g class="trace scatter trace4a8e87" style="stroke-miterlimit: 2;"><g class="fills"><g><path class="js-fill" d="M0,246L18.1,223.88L36.19,189.21L72.38,107.77L90.48,73.44L108.57,46.56L126.67,27.68L144.76,16.76L162.85,12.3L180.95,12.65L199.05,15.6L217.14,18.11L235.24,18.24L253.33,17.7L271.42,23.71L289.52,33.74L307.62,46.17L325.71,59.64L343.8,72.05L361.9,81.19L361.9,92.27L343.8,83.69L325.71,71.48L307.62,57.93L289.52,44.88L271.42,33.28L253.33,24L235.24,18.24L217.14,18.11L199.05,15.6L180.95,12.65L162.85,12.3L144.76,16.76L126.67,27.68L108.57,46.56L90.48,73.44L72.38,107.77L36.19,189.21L18.1,223.88L0,246Z" style="fill: rgb(55, 52, 44); fill-opacity: 0.5; stroke-width: 0;"/></g></g><g class="errorbars"/><g class="lines"><path class="js-line" d="M0,246L18.1,223.88L36.19,189.21L72.38,107.77L90.48,73.44L108.57,46.56L126.67,27.68L144.76,16.76L162.85,12.3L180.95,12.65L199.05,15.6L217.14,18.11L235.24,18.24L253.33,24L271.42,33.28L289.52,44.88L307.62,57.93L325.71,71.48L343.8,83.69L361.9,92.27" style="vector-effect: none; fill: none; stroke: rgb(55, 52, 44); strokeOpacity: 1; stroke-width: 2px; opacity: 1;"/></g><g class="points"/><g class="text"/></g><g class="trace scatter trace5ba6ea" style="stroke-miterlimit: 2;"><g class="fills"><g><path class="js-fill" d="M0,246L18.1,223.88L36.19,189.21L72.38,107.77L90.48,73.44L108.57,46.56L126.67,27.68L144.76,16.76L162.85,12.3L180.95,12.65L199.05,15.6L217.14,18.11L235.24,18.24L271.42,17.25L289.52,23.92L307.62,34.74L325.71,47.58L343.8,59.91L361.9,69.25L361.9,81.19L343.8,72.05L325.71,59.64L307.62,46.17L289.52,33.74L271.42,23.71L253.33,17.7L235.24,18.24L217.14,18.11L199.05,15.6L180.95,12.65L162.85,12.3L144.76,16.76L126.67,27.68L108.57,46.56L90.48,73.44L72.38,107.77L36.19,189.21L18.1,223.88L0,246Z" style="fill: rgb(55, 52, 44); fill-opacity: 0.5; stroke-width: 0;"/></g></g><g class="errorbars"/><g class="lines"><path class="js-line" d="M0,246L18.1,223.88L36.19,189.21L72.38,107.77L90.48,73.44L108.57,46.56L126.67,27.68L144.76,16.76L162.85,12.3L180.95,12.65L199.05,15.6L217.14,18.11L235.24,18.24L253.33,17.7L271.42,23.71L289.52,33.74L307.62,46.17L325.71,59.64L343.8,72.05L361.9,81.19" style="vector-effect: none; fill: none; stroke: rgb(55, 52, 44); strokeOpacity: 1; stroke-width: 2px; opacity: 1;"/></g><g class="points"/><g class="text"/></g><g class="trace scatter tracede45c1" style="stroke-miterlimit: 2;"><g class="fills"><g><path class="js-fill" d="M0,246L18.1,223.88L36.19,189.21L72.38,107.77L90.48,73.44L108.57,46.56L126.67,27.68L144.76,16.76L162.85,12.3L180.95,12.65L199.05,15.6L217.14,18.11L235.24,18.24L289.52,17.22L307.62,24.55L343.8,47.4L361.9,56.66L361.9,69.25L343.8,59.91L325.71,47.58L307.62,34.74L289.52,23.92L271.42,17.25L235.24,18.24L217.14,18.11L199.05,15.6L180.95,12.65L162.85,12.3L144.76,16.76L126.67,27.68L108.57,46.56L90.48,73.44L72.38,107.77L36.19,189.21L18.1,223.88L0,246Z" style="fill: rgb(55, 52, 44); fill-opacity: 0.5; stroke-width: 0;"/></g></g><g class="errorbars"/><g class="lines"><path class="js-line" d="M0,246L18.1,223.88L36.19,189.21L72.38,107.77L90.48,73.44L108.57,46.56L126.67,27.68L144.76,16.76L162.85,12.3L180.95,12.65L199.05,15.6L217.14,18.11L235.24,18.24L271.42,17.25L289.52,23.92L307.62,34.74L325.71,47.58L343.8,59.91L361.9,69.25" style="vector-effect: none; fill: none; stroke: rgb(55, 52, 44); strokeOpacity: 1; stroke-width: 2px; opacity: 1;"/></g><g class="points"/><g class="text"/></g><g class="trace scatter traced5320c" style="stroke-miterlimit: 2;"><g class="fills"><g><path class="js-fill" d="M0,246L18.1,223.88L36.19,189.21L72.38,107.77L90.48,73.44L108.57,46.56L126.67,27.68L144.76,16.76L162.85,12.3L180.95,12.65L199.05,15.6L217.14,18.11L235.24,18.24L289.52,17.22L307.62,17.75L325.71,25.39L343.8,35.36L361.9,43.96L361.9,56.66L343.8,47.4L307.62,24.55L289.52,17.22L235.24,18.24L217.14,18.11L199.05,15.6L180.95,12.65L162.85,12.3L144.76,16.76L126.67,27.68L108.57,46.56L90.48,73.44L72.38,107.77L36.19,189.21L18.1,223.88L0,246Z" style="fill: rgb(55, 52, 44); fill-opacity: 0.5; stroke-width: 0;"/></g></g><g class="errorbars"/><g class="lines"><path class="js-line" d="M0,246L18.1,223.88L36.19,189.21L72.38,107.77L90.48,73.44L108.57,46.56L126.67,27.68L144.76,16.76L162.85,12.3L180.95,12.65L199.05,15.6L217.14,18.11L235.24,18.24L289.52,17.22L307.62,24.55L343.8,47.4L361.9,56.66" style="vector-effect: none; fill: none; stroke: rgb(55, 52, 44); strokeOpacity: 1; stroke-width: 2px; opacity: 1;"/></g><g class="points"/><g class="text"/></g><g class="trace scatter trace279f1f" style="stroke-miterlimit: 2;"><g class="fills"><g><path class="js-fill" d="M0,246L18.1,223.88L36.19,189.21L72.38,107.77L90.48,73.44L108.57,46.56L126.67,27.68L144.76,16.76L162.85,12.3L180.95,12.65L199.05,15.6L217.14,18.11L235.24,18.24L289.52,17.22L307.62,17.75L325.71,18.61L343.8,25.06L361.9,31.97L361.9,43.96L343.8,35.36L325.71,25.39L307.62,17.75L289.52,17.22L235.24,18.24L217.14,18.11L199.05,15.6L180.95,12.65L162.85,12.3L144.76,16.76L126.67,27.68L108.57,46.56L90.48,73.44L72.38,107.77L36.19,189.21L18.1,223.88L0,246Z" style="fill: rgb(55, 52, 44); fill-opacity: 0.5; stroke-width: 0;"/></g></g><g class="errorbars"/><g class="lines"><path class="js-line" d="M0,246L18.1,223.88L36.19,189.21L72.38,107.77L90.48,73.44L108.57,46.56L126.67,27.68L144.76,16.76L162.85,12.3L180.95,12.65L199.05,15.6L217.14,18.11L235.24,18.24L289.52,17.22L307.62,17.75L325.71,25.39L343.8,35.36L361.9,43.96" style="vector-effect: none; fill: none; stroke: rgb(55, 52, 44); strokeOpacity: 1; stroke-width: 2px; opacity: 1;"/></g><g class="points"/><g class="text"/></g><g class="trace scatter trace780a46" style="stroke-miterlimit: 2;"><g class="fills"><g><path class="js-fill" d="M0,246L18.1,223.88L36.19,189.21L72.38,107.77L90.48,73.44L108.57,46.56L126.67,27.68L144.76,16.76L162.85,12.3L180.95,12.65L199.05,15.6L217.14,18.11L235.24,18.24L289.52,17.22L307.62,17.75L325.71,18.61L343.8,18.31L361.9,21.71L361.9,31.97L343.8,25.06L325.71,18.61L307.62,17.75L289.52,17.22L235.24,18.24L217.14,18.11L199.05,15.6L180.95,12.65L162.85,12.3L144.76,16.76L126.67,27.68L108.57,46.56L90.48,73.44L72.38,107.77L36.19,189.21L18.1,223.88L0,246Z" style="fill: rgb(55, 52, 44); fill-opacity: 0.5; stroke-width: 0;"/></g></g><g class="errorbars"/><g class="lines"><path class="js-line" d="M0,246L18.1,223.88L36.19,189.21L72.38,107.77L90.48,73.44L108.57,46.56L126.67,27.68L144.76,16.76L162.85,12.3L180.95,12.65L199.05,15.6L217.14,18.11L235.24,18.24L289.52,17.22L307.62,17.75L325.71,18.61L343.8,25.06L361.9,31.97" style="vector-effect: none; fill: none; stroke: rgb(55, 52, 44); strokeOpacity: 1; stroke-width: 2px; opacity: 1;"/></g><g class="points"/><g class="text"/></g><g class="trace scatter trace33848d" style="stroke-miterlimit: 2;"><g class="fills"><g><path class="js-fill" d="M0,246L18.1,223.88L36.19,189.21L72.38,107.77L90.48,73.44L108.57,46.56L126.67,27.68L144.76,16.76L162.85,12.3L180.95,12.65L199.05,15.6L217.14,18.11L235.24,18.24L289.52,17.22L307.62,17.75L325.71,18.61L343.8,18.31L361.9,15.29L361.9,21.71L343.8,18.31L325.71,18.61L307.62,17.75L289.52,17.22L235.24,18.24L217.14,18.11L199.05,15.6L180.95,12.65L162.85,12.3L144.76,16.76L126.67,27.68L108.57,46.56L90.48,73.44L72.38,107.77L36.19,189.21L18.1,223.88L0,246Z" style="fill: rgb(55, 52, 44); fill-opacity: 0.5; stroke-width: 0;"/></g></g><g class="errorbars"/><g class="lines"><path class="js-line" d="M0,246L18.1,223.88L36.19,189.21L72.38,107.77L90.48,73.44L108.57,46.56L126.67,27.68L144.76,16.76L162.85,12.3L180.95,12.65L199.05,15.6L217.14,18.11L235.24,18.24L289.52,17.22L307.62,17.75L325.71,18.61L343.8,18.31L361.9,21.71" style="vector-effect: none; fill: none; stroke: rgb(55, 52, 44); strokeOpacity: 1; stroke-width: 2px; opacity: 1;"/></g><g class="points"/><g class="text"/></g><g class="trace scatter trace3cb9ec" style="stroke-miterlimit: 2;"><g class="fills"><g><path class="js-fill" d="M0,246L18.1,223.88L36.19,189.21L72.38,107.77L90.48,73.44L108.57,46.56L126.67,27.68L144.76,16.76L162.85,12.3L180.95,12.65L199.05,15.6L217.14,18.11L235.24,18.24L289.52,17.22L307.62,17.75L325.71,18.61L343.8,18.31L361.9,15.29L361.9,15.29L343.8,18.31L325.71,18.61L307.62,17.75L289.52,17.22L235.24,18.24L217.14,18.11L199.05,15.6L180.95,12.65L162.85,12.3L144.76,16.76L126.67,27.68L108.57,46.56L90.48,73.44L72.38,107.77L36.19,189.21L18.1,223.88L0,246Z" style="fill: rgb(55, 52, 44); fill-opacity: 0.5; stroke-width: 0;"/></g></g><g class="errorbars"/><g class="lines"><path class="js-line" d="M0,246L18.1,223.88L36.19,189.21L72.38,107.77L90.48,73.44L108.57,46.56L126.67,27.68L144.76,16.76L162.85,12.3L180.95,12.65L199.05,15.6L217.14,18.11L235.24,18.24L289.52,17.22L307.62,17.75L325.71,18.61L343.8,18.31L361.9,15.29" style="vector-effect: none; fill: none; stroke: rgb(55, 52, 44); strokeOpacity: 1; stroke-width: 2px; opacity: 1;"/></g><g class="points"/><g class="text"/></g><g class="trace scatter trace647caf" style="stroke-miterlimit: 2;"><g class="fills"/><g class="errorbars"/><g class="lines"><path class="js-line" d="M0,246L18.1,223.88L36.19,189.21L72.38,107.77L90.48,73.44L108.57,46.56L126.67,27.68L144.76,16.76L162.85,12.3L180.95,12.65L199.05,15.6L217.14,18.11L235.24,18.24L289.52,17.22L307.62,17.75L325.71,18.61L343.8,18.31L361.9,15.29" style="vector-effect: none; fill: none; stroke: rgb(55, 52, 44); strokeOpacity: 1; stroke-width: 2px; opacity: 1;"/></g><g class="points"/><g class="text"/></g></g></g><g class="overplot"/><path class="xlines-above crisp" d="M0,0" style="fill: none;"/><path class="ylines-above crisp" d="M0,0" style="fill: none;"/><g class="overlines-above"/><g class="xaxislayer-above"><g class="xtick"><text text-anchor="middle" x="0" y="257" transform="translate(24,0)" style="font-family: verdana; font-size: 10px; fill: rgb(0, 0, 0); fill-opacity: 1; white-space: pre; opacity: 1;">0</text></g><g class="xtick"><text text-anchor="middle" x="0" y="257" style="font-family: verdana; font-size: 10px; fill: rgb(0, 0, 0); fill-opacity: 1; white-space: pre; opacity: 1;" transform="translate(114.48,0)">5</text></g><g class="xtick"><text text-anchor="middle" x="0" y="257" style="font-family: verdana; font-size: 10px; fill: rgb(0, 0, 0); fill-opacity: 1; white-space: pre; opacity: 1;" transform="translate(204.95,0)">10</text></g><g class="xtick"><text text-anchor="middle" x="0" y="257" style="font-family: verdana; font-size: 10px; fill: rgb(0, 0, 0); fill-opacity: 1; white-space: pre; opacity: 1;" transform="translate(295.42,0)">15</text></g><g class="xtick"><text text-anchor="middle" x="0" y="257" style="font-family: verdana; font-size: 10px; fill: rgb(0, 0, 0); fill-opacity: 1; white-space: pre; opacity: 1;" transform="translate(385.9,0)">20</text></g></g><g class="yaxislayer-above"><g class="ytick"><text text-anchor="end" x="23" y="3.5" transform="translate(0,246)" style="font-family: verdana; font-size: 10px; fill: rgb(0, 0, 0); fill-opacity: 1; white-space: pre; opacity: 1;">0%</text></g><g class="ytick"><text text-anchor="end" x="23" y="3.5" style="font-family: verdana; font-size: 10px; fill: rgb(0, 0, 0); fill-opacity: 1; white-space: pre; opacity: 1;" transform="translate(0,193.78)">10%</text></g><g class="ytick"><text text-anchor="end" x="23" y="3.5" style="font-family: verdana; font-size: 10px; fill: rgb(0, 0, 0); fill-opacity: 1; white-space: pre; opacity: 1;" transform="translate(0,141.55)">20%</text></g><g class="ytick"><text text-anchor="end" x="23" y="3.5" style="font-family: verdana; font-size: 10px; fill: rgb(0, 0, 0); fill-opacity: 1; white-space: pre; opacity: 1;" transform="translate(0,89.33)">30%</text></g><g class="ytick"><text text-anchor="end" x="23" y="3.5" style="font-family: verdana; font-size: 10px; fill: rgb(0, 0, 0); fill-opacity: 1; white-space: pre; opacity: 1;" transform="translate(0,37.11)">40%</text></g></g><g class="overaxes-above"/></g><g class="subplot x2y2"><g class="layer-subplot"><g class="shapelayer"/><g class="imagelayer"/></g><g class="minor-gridlayer"><g class="x2"/><g class="y2"/></g><g class="gridlayer"><g class="x2"><path class="x2grid crisp" transform="translate(527.34,0)" d="M0,0v246" style="stroke: rgb(255, 255, 255); strokeOpacity: 1; stroke-width: 1px;"/><path class="x2grid crisp" transform="translate(622.57,0)" d="M0,0v246" style="stroke: rgb(255, 255, 255); strokeOpacity: 1; stroke-width: 1px;"/><path class="x2grid crisp" transform="translate(717.81,0)" d="M0,0v246" style="stroke: rgb(255, 255, 255); strokeOpacity: 1; stroke-width: 1px;"/></g><g class="y2"><path class="y2grid crisp" transform="translate(0,180.07)" d="M432.1,0h361.9" style="stroke: rgb(255, 255, 255); strokeOpacity: 1; stroke-width: 1px;"/><path class="y2grid crisp" transform="translate(0,126.44)" d="M432.1,0h361.9" style="stroke: rgb(255, 255, 255); strokeOpacity: 1; stroke-width: 1px;"/><path class="y2grid crisp" transform="translate(0,72.81)" d="M432.1,0h361.9" style="stroke: rgb(255, 255, 255); strokeOpacity: 1; stroke-width: 1px;"/><path class="y2grid crisp" transform="translate(0,19.18)" d="M432.1,0h361.9" style="stroke: rgb(255, 255, 255); strokeOpacity: 1; stroke-width: 1px;"/></g></g><g class="zerolinelayer"><path class="x2zl zl crisp" transform="translate(432.1,0)" d="M0,0v246" style="stroke: rgb(255, 255, 255); strokeOpacity: 1; stroke-width: 3px;"/><path class="y2zl zl crisp" transform="translate(0,233.7)" d="M432.1,0h361.9" style="stroke: rgb(255, 255, 255); strokeOpacity: 1; stroke-width: 3px;"/></g><g class="layer-between"><g class="shapelayer"/><g class="imagelayer"/></g><path class="xlines-below"/><path class="ylines-below"/><g class="overlines-below"/><g class="xaxislayer-below"/><g class="yaxislayer-below"/><g class="overaxes-below"/><g class="plot" transform="translate(432.1,0)" clip-path="url(#clipbe2a48x2y2plot)"><g class="scatterlayer mlayer"><g class="trace scatter tracea89bf1" style="stroke-miterlimit: 2; opacity: 1;"><g class="fills"/><g class="errorbars"/><g class="lines"><path class="js-line" d="M0,12.3L19.05,51.5L38.09,82.13L57.14,102.31L76.19,112.58L95.24,114.29L114.28,107.83L152.38,88.86L171.43,87.69L228.57,98L247.62,100.46L285.71,102.65L304.76,102.42L323.81,97.72L342.85,71.9L361.9,39.58" style="vector-effect: none; fill: none; stroke: rgb(91, 37, 73); strokeOpacity: 1; stroke-width: 2px; opacity: 1;"/></g><g class="points"/><g class="text"/></g><g class="trace scatter trace0395cb" style="stroke-miterlimit: 2; opacity: 1;"><g class="fills"/><g class="errorbars"/><g class="lines"><path class="js-line" d="M0,74.72L19.05,102.45L38.09,122.64L57.14,136.99L76.19,147.17L95.24,153.56L114.28,155.61L133.33,152.52L152.38,141.86L171.43,136.57L190.47,138.3L228.57,146.78L247.62,148.33L266.66,146.13L285.71,142.9L304.76,141.46L323.81,141.81L342.85,142.25L361.9,146.76" style="vector-effect: none; fill: none; stroke: rgb(55, 52, 44); strokeOpacity: 1; stroke-width: 2px; opacity: 1;"/></g><g class="points"/><g class="text"/></g><g class="trace scatter trace352303" style="stroke-miterlimit: 2; opacity: 1;"><g class="fills"/><g class="errorbars"/><g class="lines"><path class="js-line" d="M0,233.7" style="vector-effect: none; fill: none; stroke: rgb(91, 37, 73); strokeOpacity: 1; stroke-width: 2px; opacity: 1;"/></g><g class="points"/><g class="text"/></g></g></g><g class="overplot"/><path class="xlines-above crisp" d="M0,0" style="fill: none;"/><path class="ylines-above crisp" d="M0,0" style="fill: none;"/><g class="overlines-above"/><g class="xaxislayer-above"><g class="x2tick"><text text-anchor="middle" x="0" y="257" transform="translate(432.1,0)" style="font-family: verdana; font-size: 10px; fill: rgb(0, 0, 0); fill-opacity: 1; white-space: pre; opacity: 1;">0</text></g><g class="x2tick"><text text-anchor="middle" x="0" y="257" style="font-family: verdana; font-size: 10px; fill: rgb(0, 0, 0); fill-opacity: 1; white-space: pre; opacity: 1;" transform="translate(527.34,0)">5</text></g><g class="x2tick"><text text-anchor="middle" x="0" y="257" style="font-family: verdana; font-size: 10px; fill: rgb(0, 0, 0); fill-opacity: 1; white-space: pre; opacity: 1;" transform="translate(622.57,0)">10</text></g><g class="x2tick"><text text-anchor="middle" x="0" y="257" style="font-family: verdana; font-size: 10px; fill: rgb(0, 0, 0); fill-opacity: 1; white-space: pre; opacity: 1;" transform="translate(717.81,0)">15</text></g></g><g class="yaxislayer-above"><g class="y2tick"><text text-anchor="end" x="431.1" y="3.5" transform="translate(0,233.7)" style="font-family: verdana; font-size: 10px; fill: rgb(0, 0, 0); fill-opacity: 1; white-space: pre; opacity: 1;">0%</text></g><g class="y2tick"><text text-anchor="end" x="431.1" y="3.5" style="font-family: verdana; font-size: 10px; fill: rgb(0, 0, 0); fill-opacity: 1; white-space: pre; opacity: 1;" transform="translate(0,180.07)">2%</text></g><g class="y2tick"><text text-anchor="end" x="431.1" y="3.5" style="font-family: verdana; font-size: 10px; fill: rgb(0, 0, 0); fill-opacity: 1; white-space: pre; opacity: 1;" transform="translate(0,126.44)">4%</text></g><g class="y2tick"><text text-anchor="end" x="431.1" y="3.5" style="font-family: verdana; font-size: 10px; fill: rgb(0, 0, 0); fill-opacity: 1; white-space: pre; opacity: 1;" transform="translate(0,72.81)">6%</text></g><g class="y2tick"><text text-anchor="end" x="431.1" y="3.5" style="font-family: verdana; font-size: 10px; fill: rgb(0, 0, 0); fill-opacity: 1; white-space: pre; opacity: 1;" transform="translate(0,19.18)">8%</text></g></g><g class="overaxes-above"/></g></g><g class="polarlayer"/><g class="smithlayer"/><g class="ternarylayer"/><g class="geolayer"/><g class="funnelarealayer"/><g class="pielayer"/><g class="iciclelayer"/><g class="treemaplayer"/><g class="sunburstlayer"/><g class="glimages"/><defs id="topdefs-be2a48"><g class="clips"/><clipPath id="legendbe2a48"><rect width="214" height="29" x="0" y="0"/></clipPath></defs><g class="layer-above"><g class="imagelayer"/><g class="shapelayer"/></g><g class="infolayer"><g class="legend" pointer-events="all" transform="translate(302,270.6)"><rect class="bg" shape-rendering="crispEdges" width="214" height="29" x="0" y="0" style="stroke: rgb(68, 68, 68); strokeOpacity: 1; fill: rgb(0, 0, 0); fill-opacity: 0; stroke-width: 0px;"/><g class="scrollbox" transform="" clip-path="url(#legendbe2a48)"><g class="groups" transform=""><g class="traces" transform="translate(0,14.5)" style="opacity: 1;"><text class="legendtext" text-anchor="start" x="40" y="3.9" style="font-family: verdana; font-size: 10px; fill: rgb(0, 0, 0); fill-opacity: 1; white-space: pre;">private equity</text><g class="layers"><g class="legendfill"><path class="js-fill" d="M5,-2h30v6h-30z" style="stroke-width: 0; fill: rgb(91, 37, 73); fill-opacity: 0.5;"/></g><g class="legendlines"><path class="js-line" d="M5,-2h30" style="fill: none; stroke: rgb(91, 37, 73); strokeOpacity: 1; stroke-width: 2px;"/></g><g class="legendsymbols"><g class="legendpoints"/></g></g><rect class="legendtoggle" x="0" y="-9.5" width="112.203125" height="19" style="fill: rgb(0, 0, 0); fill-opacity: 0;"/></g></g><g class="groups" transform="translate(114.703125,0)"><g class="traces" transform="translate(0,14.5)" style="opacity: 1;"><text class="legendtext" text-anchor="start" x="40" y="3.9" style="font-family: verdana; font-size: 10px; fill: rgb(0, 0, 0); fill-opacity: 1; white-space: pre;">real estate</text><g class="layers"><g class="legendfill"><path class="js-fill" d="M5,-2h30v6h-30z" style="stroke-width: 0; fill: rgb(55, 52, 44); fill-opacity: 0.5;"/></g><g class="legendlines"><path class="js-line" d="M5,-2h30" style="fill: none; stroke: rgb(55, 52, 44); strokeOpacity: 1; stroke-width: 2px;"/></g><g class="legendsymbols"><g class="legendpoints"/></g></g><rect class="legendtoggle" x="0" y="-9.5" width="96.015625" height="19" style="fill: rgb(0, 0, 0); fill-opacity: 0;"/></g></g></g><rect class="scrollbar" rx="20" ry="3" width="0" height="0" x="0" y="0" style="fill: rgb(128, 139, 164); fill-opacity: 1;"/></g><g class="g-gtitle"/><g class="g-xtitle"/><g class="g-x2title"/><g class="g-ytitle"/><g class="g-y2title"/></g></svg>