<svg class="main-svg" xmlns="http://www.w3.org/2000/svg" xmlns:xlink="http://www.w3.org/1999/xlink" width="800" height="300" style="" viewBox="0 0 800 300"><rect x="0" y="0" width="800" height="300" style="fill: rgb(0, 0, 0); fill-opacity: 0;"/><defs id="defs-32dcaf"><g class="clips"><clipPath id="clip32dcafxyplot" class="plotclip"><rect width="358.60999999999996" height="246"/></clipPath><clipPath id="clip32dcafx2y2plot" class="plotclip"><rect width="358.60999999999996" height="246"/></clipPath><clipPath class="axesclip" id="clip32dcafx"><rect x="31" y="0" width="358.60999999999996" height="300"/></clipPath><clipPath class="axesclip" id="clip32dcafy"><rect x="0" y="0" width="800" height="246"/></clipPath><clipPath class="axesclip" id="clip32dcafxy"><rect x="31" y="0" width="358.60999999999996" height="246"/></clipPath><clipPath class="axesclip" id="clip32dcafy2"><rect x="0" y="0" width="800" height="246"/></clipPath><clipPath class="axesclip" id="clip32dcafxy2"><rect x="31" y="0" width="358.60999999999996" height="246"/></clipPath><clipPath class="axesclip" id="clip32dcafx2"><rect x="435.39000000000004" y="0" width="358.60999999999996" height="300"/></clipPath><clipPath class="axesclip" id="clip32dcafx2y"><rect x="435.39000000000004" y="0" width="358.60999999999996" height="246"/></clipPath><clipPath class="axesclip" id="clip32dcafx2y2"><rect x="435.39000000000004" y="0" width="358.60999999999996" height="246"/></clipPath></g><g class="gradients"/><g class="patterns"/></defs><g class="bglayer"><rect class="bg" x="31" y="0" width="358.60999999999996" height="246" style="fill: rgb(237, 236, 232); fill-opacity: 1; stroke-width: 0;"/><rect class="bg" x="435.39000000000004" y="0" width="358.60999999999996" height="246" style="fill: rgb(237, 236, 232); fill-opacity: 1; stroke-width: 0;"/></g><g class="layer-below"><g class="imagelayer"/><g class="shapelayer"/></g><g class="cartesianlayer"><g class="subplot xy"><g class="layer-subplot"><g class="shapelayer"/><g class="imagelayer"/></g><g class="minor-gridlayer"><g class="x"/><g class="y"/></g><g class="gridlayer"><g class="x"><path class="xgrid crisp" transform="translate(120.65,0)" d="M0,0v246" style="stroke: rgb(255, 255, 255); strokeOpacity: 1; stroke-width: 1px;"/><path class="xgrid crisp" transform="translate(210.3,0)" d="M0,0v246" style="stroke: rgb(255, 255, 255); strokeOpacity: 1; stroke-width: 1px;"/><path class="xgrid crisp" transform="translate(299.96,0)" d="M0,0v246" style="stroke: rgb(255, 255, 255); strokeOpacity: 1; stroke-width: 1px;"/></g><g class="y"><path class="ygrid crisp" transform="translate(0,208.78)" d="M31,0h358.60999999999996" style="stroke: rgb(255, 255, 255); strokeOpacity: 1; stroke-width: 1px;"/><path class="ygrid crisp" transform="translate(0,171.55)" d="M31,0h358.60999999999996" style="stroke: rgb(255, 255, 255); strokeOpacity: 1; stroke-width: 1px;"/><path class="ygrid crisp" transform="translate(0,134.33)" d="M31,0h358.60999999999996" style="stroke: rgb(255, 255, 255); strokeOpacity: 1; stroke-width: 1px;"/><path class="ygrid crisp" transform="translate(0,97.1)" d="M31,0h358.60999999999996" style="stroke: rgb(255, 255, 255); strokeOpacity: 1; stroke-width: 1px;"/><path class="ygrid crisp" transform="translate(0,59.88)" d="M31,0h358.60999999999996" style="stroke: rgb(255, 255, 255); strokeOpacity: 1; stroke-width: 1px;"/><path class="ygrid crisp" transform="translate(0,22.66)" d="M31,0h358.60999999999996" style="stroke: rgb(255, 255, 255); strokeOpacity: 1; stroke-width: 1px;"/></g></g><g class="zerolinelayer"><path class="xzl zl crisp" transform="translate(31,0)" d="M0,0v246" style="stroke: rgb(255, 255, 255); strokeOpacity: 1; stroke-width: 3px;"/><path class="yzl zl crisp" transform="translate(0,246)" d="M31,0h358.60999999999996" style="stroke: rgb(255, 255, 255); strokeOpacity: 1; stroke-width: 3px;"/></g><g class="layer-between"><g class="shapelayer"/><g class="imagelayer"/></g><path class="xlines-below"/><path class="ylines-below"/><g class="overlines-below"/><g class="xaxislayer-below"/><g class="yaxislayer-below"/><g class="overaxes-below"/><g class="plot" transform="translate(31,0)" clip-path="url(#clip32dcafxyplot)"><g class="scatterlayer mlayer"><g class="trace scatter trace8d7d53" style="stroke-miterlimit: 2;"><g class="fills"><g><path class="js-fill" d="M358.61,246L0,246L0,238.1L125.51,234.21L143.44,233.52L251.03,228.41L268.96,227.37L358.61,221.2" style="fill: rgb(151, 65, 27); fill-opacity: 0.5; stroke-width: 0;"/></g><g><path class="js-fill" d="M0,208.19L53.79,201.12L71.72,198.47L125.51,189.58L143.44,186.26L197.24,175.07L215.17,170.9L251.03,161.8L268.96,156.84L304.82,146.03L322.75,140.15L358.61,127.32L358.61,221.2L268.96,227.37L251.03,228.41L143.44,233.52L125.51,234.21L0,238.1Z" style="fill: rgb(235, 154, 211); fill-opacity: 0.5; stroke-width: 0;"/></g></g><g class="errorbars"/><g class="lines"><path class="js-line" d="M0,238.1L125.51,234.21L143.44,233.52L251.03,228.41L268.96,227.37L358.61,221.2" style="vector-effect: none; fill: none; stroke: rgb(151, 65, 27); strokeOpacity: 1; stroke-width: 2px; opacity: 1;"/></g><g class="points"/><g class="text"/></g><g class="trace scatter traced2bf1f" style="stroke-miterlimit: 2;"><g class="fills"><g><path class="js-fill" d="M0,208.19L53.79,201.12L71.72,198.47L125.51,189.58L143.44,186.26L197.24,175.07L215.17,170.9L251.03,161.8L268.96,156.84L304.82,146.03L322.75,140.15L358.61,127.32L358.61,127.32L322.75,140.15L304.82,146.03L268.96,156.84L251.03,161.8L215.17,170.9L197.24,175.07L143.44,186.26L125.51,189.58L71.72,198.47L53.79,201.12L0,208.19Z" style="fill: rgb(239, 214, 142); fill-opacity: 0.5; stroke-width: 0;"/></g></g><g class="errorbars"/><g class="lines"><path class="js-line" d="M0,208.19L53.79,201.12L71.72,198.47L125.51,189.58L143.44,186.26L197.24,175.07L215.17,170.9L251.03,161.8L268.96,156.84L304.82,146.03L322.75,140.15L358.61,127.32" style="vector-effect: none; fill: none; stroke: rgb(235, 154, 211); strokeOpacity: 1; stroke-width: 2px; opacity: 1;"/></g><g class="points"/><g class="text"/></g><g class="trace scatter trace47c6fc" style="stroke-miterlimit: 2;"><g class="fills"><g><path class="js-fill" d="M0,208.19L53.79,201.12L71.72,198.47L125.51,189.58L143.44,186.26L197.24,175.07L215.17,170.9L251.03,161.8L268.96,156.84L304.82,146.03L322.75,140.15L358.61,127.32L358.61,127.32L322.75,140.15L304.82,146.03L268.96,156.84L251.03,161.8L215.17,170.9L197.24,175.07L143.44,186.26L125.51,189.58L71.72,198.47L53.79,201.12L0,208.19Z" style="fill: rgb(91, 37, 73); fill-opacity: 0.5; stroke-width: 0;"/></g></g><g class="errorbars"/><g class="lines"><path class="js-line" d="M0,208.19L53.79,201.12L71.72,198.47L125.51,189.58L143.44,186.26L197.24,175.07L215.17,170.9L251.03,161.8L268.96,156.84L304.82,146.03L322.75,140.15L358.61,127.32" style="vector-effect: none; fill: none; stroke: rgb(239, 214, 142); strokeOpacity: 1; stroke-width: 2px; opacity: 1;"/></g><g class="points"/><g class="text"/></g><g class="trace scatter tracea30529" style="stroke-miterlimit: 2;"><g class="fills"><g><path class="js-fill" d="M0,188L17.93,205.97L35.86,203.61L89.65,195.68L107.58,192.71L161.37,182.74L179.3,179.02L233.1,166.48L251.03,161.8L286.89,151.59L304.82,146.03L340.68,133.92L358.61,127.32L358.61,127.32L322.75,140.15L304.82,146.03L268.96,156.84L251.03,161.8L215.17,170.9L197.24,175.07L143.44,186.26L125.51,189.58L71.72,198.47L53.79,201.12L0,208.19Z" style="fill: rgb(91, 37, 73); fill-opacity: 0.5; stroke-width: 0;"/></g></g><g class="errorbars"/><g class="lines"><path class="js-line" d="M0,208.19L53.79,201.12L71.72,198.47L125.51,189.58L143.44,186.26L197.24,175.07L215.17,170.9L251.03,161.8L268.96,156.84L304.82,146.03L322.75,140.15L358.61,127.32" style="vector-effect: none; fill: none; stroke: rgb(91, 37, 73); strokeOpacity: 1; stroke-width: 2px; opacity: 1;"/></g><g class="points"/><g class="text"/></g><g class="trace scatter trace3f6b30" style="stroke-miterlimit: 2;"><g class="fills"><g><path class="js-fill" d="M0,188L17.93,184.59L35.86,203.61L89.65,195.68L107.58,192.71L161.37,182.74L179.3,179.02L233.1,166.48L251.03,161.8L286.89,151.59L304.82,146.03L340.68,133.92L358.61,127.32L358.61,127.32L340.68,133.92L304.82,146.03L286.89,151.59L251.03,161.8L233.1,166.48L179.3,179.02L161.37,182.74L107.58,192.71L89.65,195.68L35.86,203.61L17.93,205.97L0,188Z" style="fill: rgb(91, 37, 73); fill-opacity: 0.5; stroke-width: 0;"/></g></g><g class="errorbars"/><g class="lines"><path class="js-line" d="M0,188L17.93,205.97L35.86,203.61L89.65,195.68L107.58,192.71L161.37,182.74L179.3,179.02L233.1,166.48L251.03,161.8L286.89,151.59L304.82,146.03L340.68,133.92L358.61,127.32" style="vector-effect: none; fill: none; stroke: rgb(91, 37, 73); strokeOpacity: 1; stroke-width: 2px; opacity: 1;"/></g><g class="points"/><g class="text"/></g><g class="trace scatter trace6a24ae" style="stroke-miterlimit: 2;"><g class="fills"><g><path class="js-fill" d="M0,188L35.86,180.97L53.79,201.12L107.58,192.71L125.51,189.58L179.3,179.02L197.24,175.07L251.03,161.8L268.96,156.84L304.82,146.03L322.75,140.15L358.61,127.32L358.61,127.32L340.68,133.92L304.82,146.03L286.89,151.59L251.03,161.8L233.1,166.48L179.3,179.02L161.37,182.74L107.58,192.71L89.65,195.68L35.86,203.61L17.93,184.59L0,188Z" style="fill: rgb(91, 37, 73); fill-opacity: 0.5; stroke-width: 0;"/></g></g><g class="errorbars"/><g class="lines"><path class="js-line" d="M0,188L17.93,184.59L35.86,203.61L89.65,195.68L107.58,192.71L161.37,182.74L179.3,179.02L233.1,166.48L251.03,161.8L286.89,151.59L304.82,146.03L340.68,133.92L358.61,127.32" style="vector-effect: none; fill: none; stroke: rgb(91, 37, 73); strokeOpacity: 1; stroke-width: 2px; opacity: 1;"/></g><g class="points"/><g class="text"/></g><g class="trace scatter traceac5f2b" style="stroke-miterlimit: 2;"><g class="fills"><g><path class="js-fill" d="M0,188L53.79,177.14L71.72,198.47L125.51,189.58L143.44,186.26L197.24,175.07L215.17,170.9L251.03,161.8L268.96,156.84L304.82,146.03L322.75,140.15L358.61,127.32L358.61,127.32L322.75,140.15L304.82,146.03L268.96,156.84L251.03,161.8L197.24,175.07L179.3,179.02L125.51,189.58L107.58,192.71L53.79,201.12L35.86,180.97L0,188Z" style="fill: rgb(91, 37, 73); fill-opacity: 0.5; stroke-width: 0;"/></g></g><g class="errorbars"/><g class="lines"><path class="js-line" d="M0,188L35.86,180.97L53.79,201.12L107.58,192.71L125.51,189.58L179.3,179.02L197.24,175.07L251.03,161.8L268.96,156.84L304.82,146.03L322.75,140.15L358.61,127.32" style="vector-effect: none; fill: none; stroke: rgb(91, 37, 73); strokeOpacity: 1; stroke-width: 2px; opacity: 1;"/></g><g class="points"/><g class="text"/></g><g class="trace scatter trace016184" style="stroke-miterlimit: 2;"><g class="fills"><g><path class="js-fill" d="M0,188L53.79,177.14L71.72,173.09L89.65,195.68L107.58,192.71L161.37,182.74L179.3,179.02L233.1,166.48L251.03,161.8L286.89,151.59L304.82,146.03L340.68,133.92L358.61,127.32L358.61,127.32L322.75,140.15L304.82,146.03L268.96,156.84L251.03,161.8L215.17,170.9L197.24,175.07L143.44,186.26L125.51,189.58L71.72,198.47L53.79,177.14L0,188Z" style="fill: rgb(91, 37, 73); fill-opacity: 0.5; stroke-width: 0;"/></g></g><g class="errorbars"/><g class="lines"><path class="js-line" d="M0,188L53.79,177.14L71.72,198.47L125.51,189.58L143.44,186.26L197.24,175.07L215.17,170.9L251.03,161.8L268.96,156.84L304.82,146.03L322.75,140.15L358.61,127.32" style="vector-effect: none; fill: none; stroke: rgb(91, 37, 73); strokeOpacity: 1; stroke-width: 2px; opacity: 1;"/></g><g class="points"/><g class="text"/></g><g class="trace scatter tracedd6e2e" style="stroke-miterlimit: 2;"><g class="fills"><g><path class="js-fill" d="M0,188L53.79,177.14L71.72,173.09L89.65,168.8L107.58,192.71L161.37,182.74L179.3,179.02L233.1,166.48L251.03,161.8L286.89,151.59L304.82,146.03L340.68,133.92L358.61,127.32L358.61,127.32L340.68,133.92L304.82,146.03L286.89,151.59L251.03,161.8L233.1,166.48L179.3,179.02L161.37,182.74L107.58,192.71L89.65,195.68L71.72,173.09L53.79,177.14L0,188Z" style="fill: rgb(91, 37, 73); fill-opacity: 0.5; stroke-width: 0;"/></g></g><g class="errorbars"/><g class="lines"><path class="js-line" d="M0,188L53.79,177.14L71.72,173.09L89.65,195.68L107.58,192.71L161.37,182.74L179.3,179.02L233.1,166.48L251.03,161.8L286.89,151.59L304.82,146.03L340.68,133.92L358.61,127.32" style="vector-effect: none; fill: none; stroke: rgb(91, 37, 73); strokeOpacity: 1; stroke-width: 2px; opacity: 1;"/></g><g class="points"/><g class="text"/></g><g class="trace scatter trace671ee9" style="stroke-miterlimit: 2;"><g class="fills"><g><path class="js-fill" d="M0,188L53.79,177.14L71.72,173.09L107.58,164.25L125.51,189.58L179.3,179.02L197.24,175.07L251.03,161.8L268.96,156.84L304.82,146.03L322.75,140.15L358.61,127.32L358.61,127.32L340.68,133.92L304.82,146.03L286.89,151.59L251.03,161.8L233.1,166.48L179.3,179.02L161.37,182.74L107.58,192.71L89.65,168.8L71.72,173.09L53.79,177.14L0,188Z" style="fill: rgb(91, 37, 73); fill-opacity: 0.5; stroke-width: 0;"/></g></g><g class="errorbars"/><g class="lines"><path class="js-line" d="M0,188L53.79,177.14L71.72,173.09L89.65,168.8L107.58,192.71L161.37,182.74L179.3,179.02L233.1,166.48L251.03,161.8L286.89,151.59L304.82,146.03L340.68,133.92L358.61,127.32" style="vector-effect: none; fill: none; stroke: rgb(91, 37, 73); strokeOpacity: 1; stroke-width: 2px; opacity: 1;"/></g><g class="points"/><g class="text"/></g><g class="trace scatter trace224c0e" style="stroke-miterlimit: 2;"><g class="fills"><g><path class="js-fill" d="M0,188L53.79,177.14L71.72,173.09L107.58,164.25L125.51,159.44L143.44,186.26L161.37,182.74L215.17,170.9L233.1,166.48L268.96,156.84L286.89,151.59L322.75,140.15L340.68,133.92L358.61,127.32L358.61,127.32L322.75,140.15L304.82,146.03L268.96,156.84L251.03,161.8L197.24,175.07L179.3,179.02L125.51,189.58L107.58,164.25L71.72,173.09L53.79,177.14L0,188Z" style="fill: rgb(91, 37, 73); fill-opacity: 0.5; stroke-width: 0;"/></g></g><g class="errorbars"/><g class="lines"><path class="js-line" d="M0,188L53.79,177.14L71.72,173.09L107.58,164.25L125.51,189.58L179.3,179.02L197.24,175.07L251.03,161.8L268.96,156.84L304.82,146.03L322.75,140.15L358.61,127.32" style="vector-effect: none; fill: none; stroke: rgb(91, 37, 73); strokeOpacity: 1; stroke-width: 2px; opacity: 1;"/></g><g class="points"/><g class="text"/></g><g class="trace scatter trace20ee0e" style="stroke-miterlimit: 2;"><g class="fills"><g><path class="js-fill" d="M0,188L53.79,177.14L71.72,173.09L107.58,164.25L125.51,159.44L143.44,154.35L161.37,182.74L215.17,170.9L233.1,166.48L268.96,156.84L286.89,151.59L322.75,140.15L340.68,133.92L358.61,127.32L358.61,127.32L340.68,133.92L322.75,140.15L286.89,151.59L268.96,156.84L233.1,166.48L215.17,170.9L161.37,182.74L143.44,186.26L125.51,159.44L107.58,164.25L71.72,173.09L53.79,177.14L0,188Z" style="fill: rgb(91, 37, 73); fill-opacity: 0.5; stroke-width: 0;"/></g></g><g class="errorbars"/><g class="lines"><path class="js-line" d="M0,188L53.79,177.14L71.72,173.09L107.58,164.25L125.51,159.44L143.44,186.26L161.37,182.74L215.17,170.9L233.1,166.48L268.96,156.84L286.89,151.59L322.75,140.15L340.68,133.92L358.61,127.32" style="vector-effect: none; fill: none; stroke: rgb(91, 37, 73); strokeOpacity: 1; stroke-width: 2px; opacity: 1;"/></g><g class="points"/><g class="text"/></g><g class="trace scatter trace6e4e1e" style="stroke-miterlimit: 2;"><g class="fills"><g><path class="js-fill" d="M0,188L53.79,177.14L71.72,173.09L107.58,164.25L125.51,159.44L161.37,148.95L179.3,179.02L233.1,166.48L251.03,161.8L286.89,151.59L304.82,146.03L340.68,133.92L358.61,127.32L358.61,127.32L340.68,133.92L322.75,140.15L286.89,151.59L268.96,156.84L233.1,166.48L215.17,170.9L161.37,182.74L143.44,154.35L125.51,159.44L107.58,164.25L71.72,173.09L53.79,177.14L0,188Z" style="fill: rgb(91, 37, 73); fill-opacity: 0.5; stroke-width: 0;"/></g></g><g class="errorbars"/><g class="lines"><path class="js-line" d="M0,188L53.79,177.14L71.72,173.09L107.58,164.25L125.51,159.44L143.44,154.35L161.37,182.74L215.17,170.9L233.1,166.48L268.96,156.84L286.89,151.59L322.75,140.15L340.68,133.92L358.61,127.32" style="vector-effect: none; fill: none; stroke: rgb(91, 37, 73); strokeOpacity: 1; stroke-width: 2px; opacity: 1;"/></g><g class="points"/><g class="text"/></g><g class="trace scatter trace9f0357" style="stroke-miterlimit: 2;"><g class="fills"><g><path class="js-fill" d="M0,188L53.79,177.14L71.72,173.09L107.58,164.25L125.51,159.44L161.37,148.95L179.3,143.24L197.24,175.07L215.17,170.9L251.03,161.8L268.96,156.84L304.82,146.03L322.75,140.15L358.61,127.32L358.61,127.32L340.68,133.92L304.82,146.03L286.89,151.59L251.03,161.8L233.1,166.48L179.3,179.02L161.37,148.95L125.51,159.44L107.58,164.25L71.72,173.09L53.79,177.14L0,188Z" style="fill: rgb(91, 37, 73); fill-opacity: 0.5; stroke-width: 0;"/></g></g><g class="errorbars"/><g class="lines"><path class="js-line" d="M0,188L53.79,177.14L71.72,173.09L107.58,164.25L125.51,159.44L161.37,148.95L179.3,179.02L233.1,166.48L251.03,161.8L286.89,151.59L304.82,146.03L340.68,133.92L358.61,127.32" style="vector-effect: none; fill: none; stroke: rgb(91, 37, 73); strokeOpacity: 1; stroke-width: 2px; opacity: 1;"/></g><g class="points"/><g class="text"/></g><g class="trace scatter traceb00525" style="stroke-miterlimit: 2;"><g class="fills"><g><path class="js-fill" d="M0,188L53.79,177.14L71.72,173.09L107.58,164.25L125.51,159.44L161.37,148.95L179.3,143.24L197.24,137.19L215.17,170.9L251.03,161.8L268.96,156.84L304.82,146.03L322.75,140.15L358.61,127.32L358.61,127.32L322.75,140.15L304.82,146.03L268.96,156.84L251.03,161.8L215.17,170.9L197.24,175.07L179.3,143.24L161.37,148.95L125.51,159.44L107.58,164.25L71.72,173.09L53.79,177.14L0,188Z" style="fill: rgb(91, 37, 73); fill-opacity: 0.5; stroke-width: 0;"/></g></g><g class="errorbars"/><g class="lines"><path class="js-line" d="M0,188L53.79,177.14L71.72,173.09L107.58,164.25L125.51,159.44L161.37,148.95L179.3,143.24L197.24,175.07L215.17,170.9L251.03,161.8L268.96,156.84L304.82,146.03L322.75,140.15L358.61,127.32" style="vector-effect: none; fill: none; stroke: rgb(91, 37, 73); strokeOpacity: 1; stroke-width: 2px; opacity: 1;"/></g><g class="points"/><g class="text"/></g><g class="trace scatter trace1b9305" style="stroke-miterlimit: 2;"><g class="fills"><g><path class="js-fill" d="M0,188L53.79,177.14L71.72,173.09L107.58,164.25L125.51,159.44L161.37,148.95L179.3,143.24L215.17,130.79L233.1,166.48L268.96,156.84L286.89,151.59L322.75,140.15L340.68,133.92L358.61,127.32L358.61,127.32L322.75,140.15L304.82,146.03L268.96,156.84L251.03,161.8L215.17,170.9L197.24,137.19L179.3,143.24L161.37,148.95L125.51,159.44L107.58,164.25L71.72,173.09L53.79,177.14L0,188Z" style="fill: rgb(91, 37, 73); fill-opacity: 0.5; stroke-width: 0;"/></g></g><g class="errorbars"/><g class="lines"><path class="js-line" d="M0,188L53.79,177.14L71.72,173.09L107.58,164.25L125.51,159.44L161.37,148.95L179.3,143.24L197.24,137.19L215.17,170.9L251.03,161.8L268.96,156.84L304.82,146.03L322.75,140.15L358.61,127.32" style="vector-effect: none; fill: none; stroke: rgb(91, 37, 73); strokeOpacity: 1; stroke-width: 2px; opacity: 1;"/></g><g class="points"/><g class="text"/></g><g class="trace scatter traceab588d" style="stroke-miterlimit: 2;"><g class="fills"><g><path class="js-fill" d="M0,188L53.79,177.14L71.72,173.09L107.58,164.25L125.51,159.44L161.37,148.95L179.3,143.24L215.17,130.79L233.1,124L251.03,161.8L268.96,156.84L304.82,146.03L322.75,140.15L358.61,127.32L358.61,127.32L340.68,133.92L322.75,140.15L286.89,151.59L268.96,156.84L233.1,166.48L215.17,130.79L179.3,143.24L161.37,148.95L125.51,159.44L107.58,164.25L71.72,173.09L53.79,177.14L0,188Z" style="fill: rgb(91, 37, 73); fill-opacity: 0.5; stroke-width: 0;"/></g></g><g class="errorbars"/><g class="lines"><path class="js-line" d="M0,188L53.79,177.14L71.72,173.09L107.58,164.25L125.51,159.44L161.37,148.95L179.3,143.24L215.17,130.79L233.1,166.48L268.96,156.84L286.89,151.59L322.75,140.15L340.68,133.92L358.61,127.32" style="vector-effect: none; fill: none; stroke: rgb(91, 37, 73); strokeOpacity: 1; stroke-width: 2px; opacity: 1;"/></g><g class="points"/><g class="text"/></g><g class="trace scatter tracec0119f" style="stroke-miterlimit: 2;"><g class="fills"><g><path class="js-fill" d="M0,188L53.79,177.14L71.72,173.09L107.58,164.25L125.51,159.44L161.37,148.95L179.3,143.24L215.17,130.79L233.1,124L251.03,116.82L268.96,156.84L304.82,146.03L322.75,140.15L358.61,127.32L358.61,127.32L322.75,140.15L304.82,146.03L268.96,156.84L251.03,161.8L233.1,124L215.17,130.79L179.3,143.24L161.37,148.95L125.51,159.44L107.58,164.25L71.72,173.09L53.79,177.14L0,188Z" style="fill: rgb(91, 37, 73); fill-opacity: 0.5; stroke-width: 0;"/></g></g><g class="errorbars"/><g class="lines"><path class="js-line" d="M0,188L53.79,177.14L71.72,173.09L107.58,164.25L125.51,159.44L161.37,148.95L179.3,143.24L215.17,130.79L233.1,124L251.03,161.8L268.96,156.84L304.82,146.03L322.75,140.15L358.61,127.32" style="vector-effect: none; fill: none; stroke: rgb(91, 37, 73); strokeOpacity: 1; stroke-width: 2px; opacity: 1;"/></g><g class="points"/><g class="text"/></g><g class="trace scatter tracec201a6" style="stroke-miterlimit: 2;"><g class="fills"><g><path class="js-fill" d="M0,188L53.79,177.14L71.72,173.09L107.58,164.25L125.51,159.44L161.37,148.95L179.3,143.24L215.17,130.79L233.1,124L268.96,109.22L286.89,151.59L322.75,140.15L340.68,133.92L358.61,127.32L358.61,127.32L322.75,140.15L304.82,146.03L268.96,156.84L251.03,116.82L233.1,124L215.17,130.79L179.3,143.24L161.37,148.95L125.51,159.44L107.58,164.25L71.72,173.09L53.79,177.14L0,188Z" style="fill: rgb(91, 37, 73); fill-opacity: 0.5; stroke-width: 0;"/></g></g><g class="errorbars"/><g class="lines"><path class="js-line" d="M0,188L53.79,177.14L71.72,173.09L107.58,164.25L125.51,159.44L161.37,148.95L179.3,143.24L215.17,130.79L233.1,124L251.03,116.82L268.96,156.84L304.82,146.03L322.75,140.15L358.61,127.32" style="vector-effect: none; fill: none; stroke: rgb(91, 37, 73); strokeOpacity: 1; stroke-width: 2px; opacity: 1;"/></g><g class="points"/><g class="text"/></g><g class="trace scatter tracec02706" style="stroke-miterlimit: 2;"><g class="fills"><g><path class="js-fill" d="M0,188L53.79,177.14L71.72,173.09L107.58,164.25L125.51,159.44L161.37,148.95L179.3,143.24L215.17,130.79L233.1,124L268.96,109.22L286.89,101.17L304.82,146.03L322.75,140.15L358.61,127.32L358.61,127.32L340.68,133.92L322.75,140.15L286.89,151.59L268.96,109.22L233.1,124L215.17,130.79L179.3,143.24L161.37,148.95L125.51,159.44L107.58,164.25L71.72,173.09L53.79,177.14L0,188Z" style="fill: rgb(91, 37, 73); fill-opacity: 0.5; stroke-width: 0;"/></g></g><g class="errorbars"/><g class="lines"><path class="js-line" d="M0,188L53.79,177.14L71.72,173.09L107.58,164.25L125.51,159.44L161.37,148.95L179.3,143.24L215.17,130.79L233.1,124L268.96,109.22L286.89,151.59L322.75,140.15L340.68,133.92L358.61,127.32" style="vector-effect: none; fill: none; stroke: rgb(91, 37, 73); strokeOpacity: 1; stroke-width: 2px; opacity: 1;"/></g><g class="points"/><g class="text"/></g><g class="trace scatter tracead1a77" style="stroke-miterlimit: 2;"><g class="fills"><g><path class="js-fill" d="M0,188L53.79,177.14L71.72,173.09L107.58,164.25L125.51,159.44L161.37,148.95L179.3,143.24L215.17,130.79L233.1,124L268.96,109.22L286.89,101.17L304.82,92.64L322.75,140.15L358.61,127.32L358.61,127.32L322.75,140.15L304.82,146.03L286.89,101.17L268.96,109.22L233.1,124L215.17,130.79L179.3,143.24L161.37,148.95L125.51,159.44L107.58,164.25L71.72,173.09L53.79,177.14L0,188Z" style="fill: rgb(91, 37, 73); fill-opacity: 0.5; stroke-width: 0;"/></g></g><g class="errorbars"/><g class="lines"><path class="js-line" d="M0,188L53.79,177.14L71.72,173.09L107.58,164.25L125.51,159.44L161.37,148.95L179.3,143.24L215.17,130.79L233.1,124L268.96,109.22L286.89,101.17L304.82,146.03L322.75,140.15L358.61,127.32" style="vector-effect: none; fill: none; stroke: rgb(91, 37, 73); strokeOpacity: 1; stroke-width: 2px; opacity: 1;"/></g><g class="points"/><g class="text"/></g><g class="trace scatter traceb3e07e" style="stroke-miterlimit: 2;"><g class="fills"><g><path class="js-fill" d="M0,188L53.79,177.14L71.72,173.09L107.58,164.25L125.51,159.44L161.37,148.95L179.3,143.24L215.17,130.79L233.1,124L268.96,109.22L286.89,101.17L322.75,83.61L340.68,133.92L358.61,127.32L358.61,127.32L322.75,140.15L304.82,92.64L286.89,101.17L268.96,109.22L233.1,124L215.17,130.79L179.3,143.24L161.37,148.95L125.51,159.44L107.58,164.25L71.72,173.09L53.79,177.14L0,188Z" style="fill: rgb(91, 37, 73); fill-opacity: 0.5; stroke-width: 0;"/></g></g><g class="errorbars"/><g class="lines"><path class="js-line" d="M0,188L53.79,177.14L71.72,173.09L107.58,164.25L125.51,159.44L161.37,148.95L179.3,143.24L215.17,130.79L233.1,124L268.96,109.22L286.89,101.17L304.82,92.64L322.75,140.15L358.61,127.32" style="vector-effect: none; fill: none; stroke: rgb(91, 37, 73); strokeOpacity: 1; stroke-width: 2px; opacity: 1;"/></g><g class="points"/><g class="text"/></g><g class="trace scatter trace552847" style="stroke-miterlimit: 2;"><g class="fills"><g><path class="js-fill" d="M0,188L53.79,177.14L71.72,173.09L107.58,164.25L125.51,159.44L161.37,148.95L179.3,143.24L215.17,130.79L233.1,124L268.96,109.22L286.89,101.17L322.75,83.61L340.68,74.05L358.61,127.32L358.61,127.32L340.68,133.92L322.75,83.61L286.89,101.17L268.96,109.22L233.1,124L215.17,130.79L179.3,143.24L161.37,148.95L125.51,159.44L107.58,164.25L71.72,173.09L53.79,177.14L0,188Z" style="fill: rgb(91, 37, 73); fill-opacity: 0.5; stroke-width: 0;"/></g></g><g class="errorbars"/><g class="lines"><path class="js-line" d="M0,188L53.79,177.14L71.72,173.09L107.58,164.25L125.51,159.44L161.37,148.95L179.3,143.24L215.17,130.79L233.1,124L268.96,109.22L286.89,101.17L322.75,83.61L340.68,133.92L358.61,127.32" style="vector-effect: none; fill: none; stroke: rgb(91, 37, 73); strokeOpacity: 1; stroke-width: 2px; opacity: 1;"/></g><g class="points"/><g class="text"/></g><g class="trace scatter trace674123" style="stroke-miterlimit: 2;"><g class="fills"><g><path class="js-fill" d="M0,188L53.79,177.14L71.72,173.09L107.58,164.25L125.51,159.44L161.37,148.95L179.3,143.24L215.17,130.79L233.1,124L268.96,109.22L286.89,101.17L322.75,83.61L340.68,74.05L358.61,63.93L358.61,127.32L340.68,74.05L322.75,83.61L286.89,101.17L268.96,109.22L233.1,124L215.17,130.79L179.3,143.24L161.37,148.95L125.51,159.44L107.58,164.25L71.72,173.09L53.79,177.14L0,188Z" style="fill: rgb(91, 37, 73); fill-opacity: 0.5; stroke-width: 0;"/></g></g><g class="errorbars"/><g class="lines"><path class="js-line" d="M0,188L53.79,177.14L71.72,173.09L107.58,164.25L125.51,159.44L161.37,148.95L179.3,143.24L215.17,130.79L233.1,124L268.96,109.22L286.89,101.17L322.75,83.61L340.68,74.05L358.61,127.32" style="vector-effect: none; fill: none; stroke: rgb(91, 37, 73); strokeOpacity: 1; stroke-width: 2px; opacity: 1;"/></g><g class="points"/><g class="text"/></g><g class="trace scatter trace7e6023" style="stroke-miterlimit: 2;"><g class="fills"><g><path class="js-fill" d="M0,188L53.79,177.14L71.72,173.09L107.58,164.25L125.51,159.44L161.37,148.95L179.3,143.24L215.17,130.79L233.1,124L268.96,109.22L286.89,101.17L322.75,83.61L340.68,74.05L358.61,63.93L358.61,63.93L340.68,74.05L322.75,83.61L286.89,101.17L268.96,109.22L233.1,124L215.17,130.79L179.3,143.24L161.37,148.95L125.51,159.44L107.58,164.25L71.72,173.09L53.79,177.14L0,188Z" style="fill: rgb(55, 52, 44); fill-opacity: 0.5; stroke-width: 0;"/></g></g><g class="errorbars"/><g class="lines"><path class="js-line" d="M0,188L53.79,177.14L71.72,173.09L107.58,164.25L125.51,159.44L161.37,148.95L179.3,143.24L215.17,130.79L233.1,124L268.96,109.22L286.89,101.17L322.75,83.61L340.68,74.05L358.61,63.93" style="vector-effect: none; fill: none; stroke: rgb(91, 37, 73); strokeOpacity: 1; stroke-width: 2px; opacity: 1;"/></g><g class="points"/><g class="text"/></g><g class="trace scatter tracefa02f1" style="stroke-miterlimit: 2;"><g class="fills"><g><path class="js-fill" d="M0,171.55L17.93,184.59L35.86,180.97L89.65,168.8L107.58,164.25L143.44,154.35L161.37,148.95L197.24,137.19L215.17,130.79L251.03,116.82L268.96,109.22L304.82,92.64L322.75,83.61L358.61,63.93L358.61,63.93L340.68,74.05L322.75,83.61L286.89,101.17L268.96,109.22L233.1,124L215.17,130.79L179.3,143.24L161.37,148.95L125.51,159.44L107.58,164.25L71.72,173.09L53.79,177.14L0,188Z" style="fill: rgb(55, 52, 44); fill-opacity: 0.5; stroke-width: 0;"/></g></g><g class="errorbars"/><g class="lines"><path class="js-line" d="M0,188L53.79,177.14L71.72,173.09L107.58,164.25L125.51,159.44L161.37,148.95L179.3,143.24L215.17,130.79L233.1,124L268.96,109.22L286.89,101.17L322.75,83.61L340.68,74.05L358.61,63.93" style="vector-effect: none; fill: none; stroke: rgb(55, 52, 44); strokeOpacity: 1; stroke-width: 2px; opacity: 1;"/></g><g class="points"/><g class="text"/></g><g class="trace scatter trace843de4" style="stroke-miterlimit: 2;"><g class="fills"><g><path class="js-fill" d="M0,171.55L17.93,167.17L35.86,180.97L89.65,168.8L107.58,164.25L143.44,154.35L161.37,148.95L197.24,137.19L215.17,130.79L251.03,116.82L268.96,109.22L304.82,92.64L322.75,83.61L358.61,63.93L358.61,63.93L322.75,83.61L304.82,92.64L268.96,109.22L251.03,116.82L215.17,130.79L197.24,137.19L161.37,148.95L143.44,154.35L107.58,164.25L89.65,168.8L35.86,180.97L17.93,184.59L0,171.55Z" style="fill: rgb(55, 52, 44); fill-opacity: 0.5; stroke-width: 0;"/></g></g><g class="errorbars"/><g class="lines"><path class="js-line" d="M0,171.55L17.93,184.59L35.86,180.97L89.65,168.8L107.58,164.25L143.44,154.35L161.37,148.95L197.24,137.19L215.17,130.79L251.03,116.82L268.96,109.22L304.82,92.64L322.75,83.61L358.61,63.93" style="vector-effect: none; fill: none; stroke: rgb(55, 52, 44); strokeOpacity: 1; stroke-width: 2px; opacity: 1;"/></g><g class="points"/><g class="text"/></g><g class="trace scatter tracea122cb" style="stroke-miterlimit: 2;"><g class="fills"><g><path class="js-fill" d="M0,171.55L35.86,162.53L53.79,177.14L107.58,164.25L125.51,159.44L161.37,148.95L179.3,143.24L215.17,130.79L233.1,124L268.96,109.22L286.89,101.17L322.75,83.61L340.68,74.05L358.61,63.93L358.61,63.93L322.75,83.61L304.82,92.64L268.96,109.22L251.03,116.82L215.17,130.79L197.24,137.19L161.37,148.95L143.44,154.35L107.58,164.25L89.65,168.8L35.86,180.97L17.93,167.17L0,171.55Z" style="fill: rgb(55, 52, 44); fill-opacity: 0.5; stroke-width: 0;"/></g></g><g class="errorbars"/><g class="lines"><path class="js-line" d="M0,171.55L17.93,167.17L35.86,180.97L89.65,168.8L107.58,164.25L143.44,154.35L161.37,148.95L197.24,137.19L215.17,130.79L251.03,116.82L268.96,109.22L304.82,92.64L322.75,83.61L358.61,63.93" style="vector-effect: none; fill: none; stroke: rgb(55, 52, 44); strokeOpacity: 1; stroke-width: 2px; opacity: 1;"/></g><g class="points"/><g class="text"/></g><g class="trace scatter traceb1260e" style="stroke-miterlimit: 2;"><g class="fills"><g><path class="js-fill" d="M0,171.55L35.86,162.53L53.79,157.62L71.72,173.09L89.65,168.8L125.51,159.44L143.44,154.35L179.3,143.24L197.24,137.19L233.1,124L251.03,116.82L286.89,101.17L304.82,92.64L340.68,74.05L358.61,63.93L358.61,63.93L340.68,74.05L322.75,83.61L286.89,101.17L268.96,109.22L233.1,124L215.17,130.79L179.3,143.24L161.37,148.95L125.51,159.44L107.58,164.25L53.79,177.14L35.86,162.53L0,171.55Z" style="fill: rgb(55, 52, 44); fill-opacity: 0.5; stroke-width: 0;"/></g></g><g class="errorbars"/><g class="lines"><path class="js-line" d="M0,171.55L35.86,162.53L53.79,177.14L107.58,164.25L125.51,159.44L161.37,148.95L179.3,143.24L215.17,130.79L233.1,124L268.96,109.22L286.89,101.17L322.75,83.61L340.68,74.05L358.61,63.93" style="vector-effect: none; fill: none; stroke: rgb(55, 52, 44); strokeOpacity: 1; stroke-width: 2px; opacity: 1;"/></g><g class="points"/><g class="text"/></g><g class="trace scatter traceba6d76" style="stroke-miterlimit: 2;"><g class="fills"><g><path class="js-fill" d="M0,171.55L35.86,162.53L53.79,157.62L71.72,152.41L89.65,168.8L125.51,159.44L143.44,154.35L179.3,143.24L197.24,137.19L233.1,124L251.03,116.82L286.89,101.17L304.82,92.64L340.68,74.05L358.61,63.93L358.61,63.93L340.68,74.05L304.82,92.64L286.89,101.17L251.03,116.82L233.1,124L197.24,137.19L179.3,143.24L143.44,154.35L125.51,159.44L89.65,168.8L71.72,173.09L53.79,157.62L35.86,162.53L0,171.55Z" style="fill: rgb(55, 52, 44); fill-opacity: 0.5; stroke-width: 0;"/></g></g><g class="errorbars"/><g class="lines"><path class="js-line" d="M0,171.55L35.86,162.53L53.79,157.62L71.72,173.09L89.65,168.8L125.51,159.44L143.44,154.35L179.3,143.24L197.24,137.19L233.1,124L251.03,116.82L286.89,101.17L304.82,92.64L340.68,74.05L358.61,63.93" style="vector-effect: none; fill: none; stroke: rgb(55, 52, 44); strokeOpacity: 1; stroke-width: 2px; opacity: 1;"/></g><g class="points"/><g class="text"/></g><g class="trace scatter trace7f1aa5" style="stroke-miterlimit: 2;"><g class="fills"><g><path class="js-fill" d="M0,171.55L35.86,162.53L53.79,157.62L89.65,146.9L107.58,164.25L143.44,154.35L161.37,148.95L197.24,137.19L215.17,130.79L251.03,116.82L268.96,109.22L304.82,92.64L322.75,83.61L358.61,63.93L358.61,63.93L340.68,74.05L304.82,92.64L286.89,101.17L251.03,116.82L233.1,124L197.24,137.19L179.3,143.24L143.44,154.35L125.51,159.44L89.65,168.8L71.72,152.41L53.79,157.62L35.86,162.53L0,171.55Z" style="fill: rgb(55, 52, 44); fill-opacity: 0.5; stroke-width: 0;"/></g></g><g class="errorbars"/><g class="lines"><path class="js-line" d="M0,171.55L35.86,162.53L53.79,157.62L71.72,152.41L89.65,168.8L125.51,159.44L143.44,154.35L179.3,143.24L197.24,137.19L233.1,124L251.03,116.82L286.89,101.17L304.82,92.64L340.68,74.05L358.61,63.93" style="vector-effect: none; fill: none; stroke: rgb(55, 52, 44); strokeOpacity: 1; stroke-width: 2px; opacity: 1;"/></g><g class="points"/><g class="text"/></g><g class="trace scatter traced01b0f" style="stroke-miterlimit: 2;"><g class="fills"><g><path class="js-fill" d="M0,171.55L35.86,162.53L53.79,157.62L89.65,146.9L107.58,141.07L125.51,159.44L143.44,154.35L179.3,143.24L197.24,137.19L233.1,124L251.03,116.82L286.89,101.17L304.82,92.64L340.68,74.05L358.61,63.93L358.61,63.93L322.75,83.61L304.82,92.64L268.96,109.22L251.03,116.82L215.17,130.79L197.24,137.19L161.37,148.95L143.44,154.35L107.58,164.25L89.65,146.9L53.79,157.62L35.86,162.53L0,171.55Z" style="fill: rgb(55, 52, 44); fill-opacity: 0.5; stroke-width: 0;"/></g></g><g class="errorbars"/><g class="lines"><path class="js-line" d="M0,171.55L35.86,162.53L53.79,157.62L89.65,146.9L107.58,164.25L143.44,154.35L161.37,148.95L197.24,137.19L215.17,130.79L251.03,116.82L268.96,109.22L304.82,92.64L322.75,83.61L358.61,63.93" style="vector-effect: none; fill: none; stroke: rgb(55, 52, 44); strokeOpacity: 1; stroke-width: 2px; opacity: 1;"/></g><g class="points"/><g class="text"/></g><g class="trace scatter trace5776c5" style="stroke-miterlimit: 2;"><g class="fills"><g><path class="js-fill" d="M0,171.55L35.86,162.53L53.79,157.62L89.65,146.9L107.58,141.07L125.51,134.89L143.44,154.35L179.3,143.24L197.24,137.19L233.1,124L251.03,116.82L286.89,101.17L304.82,92.64L340.68,74.05L358.61,63.93L358.61,63.93L340.68,74.05L304.82,92.64L286.89,101.17L251.03,116.82L233.1,124L197.24,137.19L179.3,143.24L143.44,154.35L125.51,159.44L107.58,141.07L89.65,146.9L53.79,157.62L35.86,162.53L0,171.55Z" style="fill: rgb(55, 52, 44); fill-opacity: 0.5; stroke-width: 0;"/></g></g><g class="errorbars"/><g class="lines"><path class="js-line" d="M0,171.55L35.86,162.53L53.79,157.62L89.65,146.9L107.58,141.07L125.51,159.44L143.44,154.35L179.3,143.24L197.24,137.19L233.1,124L251.03,116.82L286.89,101.17L304.82,92.64L340.68,74.05L358.61,63.93" style="vector-effect: none; fill: none; stroke: rgb(55, 52, 44); strokeOpacity: 1; stroke-width: 2px; opacity: 1;"/></g><g class="points"/><g class="text"/></g><g class="trace scatter trace0caccf" style="stroke-miterlimit: 2;"><g class="fills"><g><path class="js-fill" d="M0,171.55L35.86,162.53L53.79,157.62L89.65,146.9L107.58,141.07L143.44,128.35L161.37,148.95L197.24,137.19L215.17,130.79L251.03,116.82L268.96,109.22L304.82,92.64L322.75,83.61L358.61,63.93L358.61,63.93L340.68,74.05L304.82,92.64L286.89,101.17L251.03,116.82L233.1,124L197.24,137.19L179.3,143.24L143.44,154.35L125.51,134.89L107.58,141.07L89.65,146.9L53.79,157.62L35.86,162.53L0,171.55Z" style="fill: rgb(55, 52, 44); fill-opacity: 0.5; stroke-width: 0;"/></g></g><g class="errorbars"/><g class="lines"><path class="js-line" d="M0,171.55L35.86,162.53L53.79,157.62L89.65,146.9L107.58,141.07L125.51,134.89L143.44,154.35L179.3,143.24L197.24,137.19L233.1,124L251.03,116.82L286.89,101.17L304.82,92.64L340.68,74.05L358.61,63.93" style="vector-effect: none; fill: none; stroke: rgb(55, 52, 44); strokeOpacity: 1; stroke-width: 2px; opacity: 1;"/></g><g class="points"/><g class="text"/></g><g class="trace scatter trace545a52" style="stroke-miterlimit: 2;"><g class="fills"><g><path class="js-fill" d="M0,171.55L35.86,162.53L53.79,157.62L89.65,146.9L107.58,141.07L143.44,128.35L161.37,121.43L179.3,143.24L197.24,137.19L233.1,124L251.03,116.82L286.89,101.17L304.82,92.64L340.68,74.05L358.61,63.93L358.61,63.93L322.75,83.61L304.82,92.64L268.96,109.22L251.03,116.82L215.17,130.79L197.24,137.19L161.37,148.95L143.44,128.35L107.58,141.07L89.65,146.9L53.79,157.62L35.86,162.53L0,171.55Z" style="fill: rgb(55, 52, 44); fill-opacity: 0.5; stroke-width: 0;"/></g></g><g class="errorbars"/><g class="lines"><path class="js-line" d="M0,171.55L35.86,162.53L53.79,157.62L89.65,146.9L107.58,141.07L143.44,128.35L161.37,148.95L197.24,137.19L215.17,130.79L251.03,116.82L268.96,109.22L304.82,92.64L322.75,83.61L358.61,63.93" style="vector-effect: none; fill: none; stroke: rgb(55, 52, 44); strokeOpacity: 1; stroke-width: 2px; opacity: 1;"/></g><g class="points"/><g class="text"/></g><g class="trace scatter tracebdbf70" style="stroke-miterlimit: 2;"><g class="fills"><g><path class="js-fill" d="M0,171.55L35.86,162.53L53.79,157.62L89.65,146.9L107.58,141.07L143.44,128.35L161.37,121.43L179.3,114.1L197.24,137.19L233.1,124L251.03,116.82L286.89,101.17L304.82,92.64L340.68,74.05L358.61,63.93L358.61,63.93L340.68,74.05L304.82,92.64L286.89,101.17L251.03,116.82L233.1,124L197.24,137.19L179.3,143.24L161.37,121.43L143.44,128.35L107.58,141.07L89.65,146.9L53.79,157.62L35.86,162.53L0,171.55Z" style="fill: rgb(55, 52, 44); fill-opacity: 0.5; stroke-width: 0;"/></g></g><g class="errorbars"/><g class="lines"><path class="js-line" d="M0,171.55L35.86,162.53L53.79,157.62L89.65,146.9L107.58,141.07L143.44,128.35L161.37,121.43L179.3,143.24L197.24,137.19L233.1,124L251.03,116.82L286.89,101.17L304.82,92.64L340.68,74.05L358.61,63.93" style="vector-effect: none; fill: none; stroke: rgb(55, 52, 44); strokeOpacity: 1; stroke-width: 2px; opacity: 1;"/></g><g class="points"/><g class="text"/></g><g class="trace scatter trace6f2ea4" style="stroke-miterlimit: 2;"><g class="fills"><g><path class="js-fill" d="M0,171.55L35.86,162.53L53.79,157.62L89.65,146.9L107.58,141.07L143.44,128.35L161.37,121.43L197.24,106.33L215.17,130.79L251.03,116.82L268.96,109.22L304.82,92.64L322.75,83.61L358.61,63.93L358.61,63.93L340.68,74.05L304.82,92.64L286.89,101.17L251.03,116.82L233.1,124L197.24,137.19L179.3,114.1L161.37,121.43L143.44,128.35L107.58,141.07L89.65,146.9L53.79,157.62L35.86,162.53L0,171.55Z" style="fill: rgb(55, 52, 44); fill-opacity: 0.5; stroke-width: 0;"/></g></g><g class="errorbars"/><g class="lines"><path class="js-line" d="M0,171.55L35.86,162.53L53.79,157.62L89.65,146.9L107.58,141.07L143.44,128.35L161.37,121.43L179.3,114.1L197.24,137.19L233.1,124L251.03,116.82L286.89,101.17L304.82,92.64L340.68,74.05L358.61,63.93" style="vector-effect: none; fill: none; stroke: rgb(55, 52, 44); strokeOpacity: 1; stroke-width: 2px; opacity: 1;"/></g><g class="points"/><g class="text"/></g><g class="trace scatter trace966f28" style="stroke-miterlimit: 2;"><g class="fills"><g><path class="js-fill" d="M0,171.55L35.86,162.53L53.79,157.62L89.65,146.9L107.58,141.07L143.44,128.35L161.37,121.43L197.24,106.33L215.17,98.11L233.1,124L251.03,116.82L286.89,101.17L304.82,92.64L340.68,74.05L358.61,63.93L358.61,63.93L322.75,83.61L304.82,92.64L268.96,109.22L251.03,116.82L215.17,130.79L197.24,106.33L161.37,121.43L143.44,128.35L107.58,141.07L89.65,146.9L53.79,157.62L35.86,162.53L0,171.55Z" style="fill: rgb(55, 52, 44); fill-opacity: 0.5; stroke-width: 0;"/></g></g><g class="errorbars"/><g class="lines"><path class="js-line" d="M0,171.55L35.86,162.53L53.79,157.62L89.65,146.9L107.58,141.07L143.44,128.35L161.37,121.43L197.24,106.33L215.17,130.79L251.03,116.82L268.96,109.22L304.82,92.64L322.75,83.61L358.61,63.93" style="vector-effect: none; fill: none; stroke: rgb(55, 52, 44); strokeOpacity: 1; stroke-width: 2px; opacity: 1;"/></g><g class="points"/><g class="text"/></g><g class="trace scatter tracecfe623" style="stroke-miterlimit: 2;"><g class="fills"><g><path class="js-fill" d="M0,171.55L35.86,162.53L53.79,157.62L89.65,146.9L107.58,141.07L143.44,128.35L161.37,121.43L197.24,106.33L215.17,98.11L233.1,89.41L251.03,116.82L286.89,101.17L304.82,92.64L340.68,74.05L358.61,63.93L358.61,63.93L340.68,74.05L304.82,92.64L286.89,101.17L251.03,116.82L233.1,124L215.17,98.11L197.24,106.33L161.37,121.43L143.44,128.35L107.58,141.07L89.65,146.9L53.79,157.62L35.86,162.53L0,171.55Z" style="fill: rgb(55, 52, 44); fill-opacity: 0.5; stroke-width: 0;"/></g></g><g class="errorbars"/><g class="lines"><path class="js-line" d="M0,171.55L35.86,162.53L53.79,157.62L89.65,146.9L107.58,141.07L143.44,128.35L161.37,121.43L197.24,106.33L215.17,98.11L233.1,124L251.03,116.82L286.89,101.17L304.82,92.64L340.68,74.05L358.61,63.93" style="vector-effect: none; fill: none; stroke: rgb(55, 52, 44); strokeOpacity: 1; stroke-width: 2px; opacity: 1;"/></g><g class="points"/><g class="text"/></g><g class="trace scatter trace41a27f" style="stroke-miterlimit: 2;"><g class="fills"><g><path class="js-fill" d="M0,171.55L35.86,162.53L53.79,157.62L89.65,146.9L107.58,141.07L143.44,128.35L161.37,121.43L197.24,106.33L215.17,98.11L251.03,80.19L268.96,109.22L304.82,92.64L322.75,83.61L358.61,63.93L358.61,63.93L340.68,74.05L304.82,92.64L286.89,101.17L251.03,116.82L233.1,89.41L215.17,98.11L197.24,106.33L161.37,121.43L143.44,128.35L107.58,141.07L89.65,146.9L53.79,157.62L35.86,162.53L0,171.55Z" style="fill: rgb(55, 52, 44); fill-opacity: 0.5; stroke-width: 0;"/></g></g><g class="errorbars"/><g class="lines"><path class="js-line" d="M0,171.55L35.86,162.53L53.79,157.62L89.65,146.9L107.58,141.07L143.44,128.35L161.37,121.43L197.24,106.33L215.17,98.11L233.1,89.41L251.03,116.82L286.89,101.17L304.82,92.64L340.68,74.05L358.61,63.93" style="vector-effect: none; fill: none; stroke: rgb(55, 52, 44); strokeOpacity: 1; stroke-width: 2px; opacity: 1;"/></g><g class="points"/><g class="text"/></g><g class="trace scatter trace8216c3" style="stroke-miterlimit: 2;"><g class="fills"><g><path class="js-fill" d="M0,171.55L35.86,162.53L53.79,157.62L89.65,146.9L107.58,141.07L143.44,128.35L161.37,121.43L197.24,106.33L215.17,98.11L251.03,80.19L268.96,70.43L286.89,101.17L304.82,92.64L340.68,74.05L358.61,63.93L358.61,63.93L322.75,83.61L304.82,92.64L268.96,109.22L251.03,80.19L215.17,98.11L197.24,106.33L161.37,121.43L143.44,128.35L107.58,141.07L89.65,146.9L53.79,157.62L35.86,162.53L0,171.55Z" style="fill: rgb(55, 52, 44); fill-opacity: 0.5; stroke-width: 0;"/></g></g><g class="errorbars"/><g class="lines"><path class="js-line" d="M0,171.55L35.86,162.53L53.79,157.62L89.65,146.9L107.58,141.07L143.44,128.35L161.37,121.43L197.24,106.33L215.17,98.11L251.03,80.19L268.96,109.22L304.82,92.64L322.75,83.61L358.61,63.93" style="vector-effect: none; fill: none; stroke: rgb(55, 52, 44); strokeOpacity: 1; stroke-width: 2px; opacity: 1;"/></g><g class="points"/><g class="text"/></g><g class="trace scatter trace28d1ad" style="stroke-miterlimit: 2;"><g class="fills"><g><path class="js-fill" d="M0,171.55L35.86,162.53L53.79,157.62L89.65,146.9L107.58,141.07L143.44,128.35L161.37,121.43L197.24,106.33L215.17,98.11L251.03,80.19L268.96,70.43L286.89,60.09L304.82,92.64L340.68,74.05L358.61,63.93L358.61,63.93L340.68,74.05L304.82,92.64L286.89,101.17L268.96,70.43L251.03,80.19L215.17,98.11L197.24,106.33L161.37,121.43L143.44,128.35L107.58,141.07L89.65,146.9L53.79,157.62L35.86,162.53L0,171.55Z" style="fill: rgb(55, 52, 44); fill-opacity: 0.5; stroke-width: 0;"/></g></g><g class="errorbars"/><g class="lines"><path class="js-line" d="M0,171.55L35.86,162.53L53.79,157.62L89.65,146.9L107.58,141.07L143.44,128.35L161.37,121.43L197.24,106.33L215.17,98.11L251.03,80.19L268.96,70.43L286.89,101.17L304.82,92.64L340.68,74.05L358.61,63.93" style="vector-effect: none; fill: none; stroke: rgb(55, 52, 44); strokeOpacity: 1; stroke-width: 2px; opacity: 1;"/></g><g class="points"/><g class="text"/></g><g class="trace scatter trace483eed" style="stroke-miterlimit: 2;"><g class="fills"><g><path class="js-fill" d="M0,171.55L35.86,162.53L53.79,157.62L89.65,146.9L107.58,141.07L143.44,128.35L161.37,121.43L197.24,106.33L215.17,98.11L251.03,80.19L268.96,70.43L304.82,49.15L322.75,83.61L358.61,63.93L358.61,63.93L340.68,74.05L304.82,92.64L286.89,60.09L268.96,70.43L251.03,80.19L215.17,98.11L197.24,106.33L161.37,121.43L143.44,128.35L107.58,141.07L89.65,146.9L53.79,157.62L35.86,162.53L0,171.55Z" style="fill: rgb(55, 52, 44); fill-opacity: 0.5; stroke-width: 0;"/></g></g><g class="errorbars"/><g class="lines"><path class="js-line" d="M0,171.55L35.86,162.53L53.79,157.62L89.65,146.9L107.58,141.07L143.44,128.35L161.37,121.43L197.24,106.33L215.17,98.11L251.03,80.19L268.96,70.43L286.89,60.09L304.82,92.64L340.68,74.05L358.61,63.93" style="vector-effect: none; fill: none; stroke: rgb(55, 52, 44); strokeOpacity: 1; stroke-width: 2px; opacity: 1;"/></g><g class="points"/><g class="text"/></g><g class="trace scatter trace51a37a" style="stroke-miterlimit: 2;"><g class="fills"><g><path class="js-fill" d="M0,171.55L35.86,162.53L53.79,157.62L89.65,146.9L107.58,141.07L143.44,128.35L161.37,121.43L197.24,106.33L215.17,98.11L251.03,80.19L268.96,70.43L304.82,49.15L322.75,37.56L340.68,74.05L358.61,63.93L358.61,63.93L322.75,83.61L304.82,49.15L268.96,70.43L251.03,80.19L215.17,98.11L197.24,106.33L161.37,121.43L143.44,128.35L107.58,141.07L89.65,146.9L53.79,157.62L35.86,162.53L0,171.55Z" style="fill: rgb(55, 52, 44); fill-opacity: 0.5; stroke-width: 0;"/></g></g><g class="errorbars"/><g class="lines"><path class="js-line" d="M0,171.55L35.86,162.53L53.79,157.62L89.65,146.9L107.58,141.07L143.44,128.35L161.37,121.43L197.24,106.33L215.17,98.11L251.03,80.19L268.96,70.43L304.82,49.15L322.75,83.61L358.61,63.93" style="vector-effect: none; fill: none; stroke: rgb(55, 52, 44); strokeOpacity: 1; stroke-width: 2px; opacity: 1;"/></g><g class="points"/><g class="text"/></g><g class="trace scatter trace0627a9" style="stroke-miterlimit: 2;"><g class="fills"><g><path class="js-fill" d="M0,171.55L35.86,162.53L53.79,157.62L89.65,146.9L107.58,141.07L143.44,128.35L161.37,121.43L197.24,106.33L215.17,98.11L251.03,80.19L268.96,70.43L304.82,49.15L322.75,37.56L340.68,25.29L358.61,63.93L358.61,63.93L340.68,74.05L322.75,37.56L304.82,49.15L268.96,70.43L251.03,80.19L215.17,98.11L197.24,106.33L161.37,121.43L143.44,128.35L107.58,141.07L89.65,146.9L53.79,157.62L35.86,162.53L0,171.55Z" style="fill: rgb(55, 52, 44); fill-opacity: 0.5; stroke-width: 0;"/></g></g><g class="errorbars"/><g class="lines"><path class="js-line" d="M0,171.55L35.86,162.53L53.79,157.62L89.65,146.9L107.58,141.07L143.44,128.35L161.37,121.43L197.24,106.33L215.17,98.11L251.03,80.19L268.96,70.43L304.82,49.15L322.75,37.56L340.68,74.05L358.61,63.93" style="vector-effect: none; fill: none; stroke: rgb(55, 52, 44); strokeOpacity: 1; stroke-width: 2px; opacity: 1;"/></g><g class="points"/><g class="text"/></g><g class="trace scatter tracedd52ee" style="stroke-miterlimit: 2;"><g class="fills"><g><path class="js-fill" d="M0,171.55L35.86,162.53L53.79,157.62L89.65,146.9L107.58,141.07L143.44,128.35L161.37,121.43L197.24,106.33L215.17,98.11L251.03,80.19L268.96,70.43L304.82,49.15L322.75,37.56L358.61,12.3L358.61,63.93L340.68,25.29L322.75,37.56L304.82,49.15L268.96,70.43L251.03,80.19L215.17,98.11L197.24,106.33L161.37,121.43L143.44,128.35L107.58,141.07L89.65,146.9L53.79,157.62L35.86,162.53L0,171.55Z" style="fill: rgb(55, 52, 44); fill-opacity: 0.5; stroke-width: 0;"/></g></g><g class="errorbars"/><g class="lines"><path class="js-line" d="M0,171.55L35.86,162.53L53.79,157.62L89.65,146.9L107.58,141.07L143.44,128.35L161.37,121.43L197.24,106.33L215.17,98.11L251.03,80.19L268.96,70.43L304.82,49.15L322.75,37.56L340.68,25.29L358.61,63.93" style="vector-effect: none; fill: none; stroke: rgb(55, 52, 44); strokeOpacity: 1; stroke-width: 2px; opacity: 1;"/></g><g class="points"/><g class="text"/></g><g class="trace scatter trace508dcd" style="stroke-miterlimit: 2;"><g class="fills"/><g class="errorbars"/><g class="lines"><path class="js-line" d="M0,171.55L35.86,162.53L53.79,157.62L89.65,146.9L107.58,141.07L143.44,128.35L161.37,121.43L197.24,106.33L215.17,98.11L251.03,80.19L268.96,70.43L304.82,49.15L322.75,37.56L358.61,12.3" style="vector-effect: none; fill: none; stroke: rgb(55, 52, 44); strokeOpacity: 1; stroke-width: 2px; opacity: 1;"/></g><g class="points"/><g class="text"/></g></g></g><g class="overplot"/><path class="xlines-above crisp" d="M0,0" style="fill: none;"/><path class="ylines-above crisp" d="M0,0" style="fill: none;"/><g class="overlines-above"/><g class="xaxislayer-above"><g class="xtick"><text text-anchor="middle" x="0" y="257" transform="translate(31,0)" style="font-family: verdana; font-size: 10px; fill: rgb(0, 0, 0); fill-opacity: 1; white-space: pre; opacity: 1;">0</text></g><g class="xtick"><text text-anchor="middle" x="0" y="257" style="font-family: verdana; font-size: 10px; fill: rgb(0, 0, 0); fill-opacity: 1; white-space: pre; opacity: 1;" transform="translate(120.65,0)">5</text></g><g class="xtick"><text text-anchor="middle" x="0" y="257" style="font-family: verdana; font-size: 10px; fill: rgb(0, 0, 0); fill-opacity: 1; white-space: pre; opacity: 1;" transform="translate(210.3,0)">10</text></g><g class="xtick"><text text-anchor="middle" x="0" y="257" style="font-family: verdana; font-size: 10px; fill: rgb(0, 0, 0); fill-opacity: 1; white-space: pre; opacity: 1;" transform="translate(299.96,0)">15</text></g><g class="xtick"><text text-anchor="middle" x="0" y="257" style="font-family: verdana; font-size: 10px; fill: rgb(0, 0, 0); fill-opacity: 1; white-space: pre; opacity: 1;" transform="translate(389.61,0)">20</text></g></g><g class="yaxislayer-above"><g class="ytick"><text text-anchor="end" x="30" y="3.5" transform="translate(0,246)" style="font-family: verdana; font-size: 10px; fill: rgb(0, 0, 0); fill-opacity: 1; white-space: pre; opacity: 1;">0%</text></g><g class="ytick"><text text-anchor="end" x="30" y="3.5" style="font-family: verdana; font-size: 10px; fill: rgb(0, 0, 0); fill-opacity: 1; white-space: pre; opacity: 1;" transform="translate(0,208.78)">50%</text></g><g class="ytick"><text text-anchor="end" x="30" y="3.5" style="font-family: verdana; font-size: 10px; fill: rgb(0, 0, 0); fill-opacity: 1; white-space: pre; opacity: 1;" transform="translate(0,171.55)">100%</text></g><g class="ytick"><text text-anchor="end" x="30" y="3.5" style="font-family: verdana; font-size: 10px; fill: rgb(0, 0, 0); fill-opacity: 1; white-space: pre; opacity: 1;" transform="translate(0,134.33)">150%</text></g><g class="ytick"><text text-anchor="end" x="30" y="3.5" style="font-family: verdana; font-size: 10px; fill: rgb(0, 0, 0); fill-opacity: 1; white-space: pre; opacity: 1;" transform="translate(0,97.1)">200%</text></g><g class="ytick"><text text-anchor="end" x="30" y="3.5" style="font-family: verdana; font-size: 10px; fill: rgb(0, 0, 0); fill-opacity: 1; white-space: pre; opacity: 1;" transform="translate(0,59.88)">250%</text></g><g class="ytick"><text text-anchor="end" x="30" y="3.5" style="font-family: verdana; font-size: 10px; fill: rgb(0, 0, 0); fill-opacity: 1; white-space: pre; opacity: 1;" transform="translate(0,22.66)">300%</text></g></g><g class="overaxes-above"/></g><g class="subplot x2y2"><g class="layer-subplot"><g class="shapelayer"/><g class="imagelayer"/></g><g class="minor-gridlayer"><g class="x2"/><g class="y2"/></g><g class="gridlayer"><g class="x2"><path class="x2grid crisp" transform="translate(525.0400000000001,0)" d="M0,0v246" style="stroke: rgb(255, 255, 255); strokeOpacity: 1; stroke-width: 1px;"/><path class="x2grid crisp" transform="translate(614.69,0)" d="M0,0v246" style="stroke: rgb(255, 255, 255); strokeOpacity: 1; stroke-width: 1px;"/><path class="x2grid crisp" transform="translate(704.35,0)" d="M0,0v246" style="stroke: rgb(255, 255, 255); strokeOpacity: 1; stroke-width: 1px;"/></g><g class="y2"><path class="y2grid crisp" transform="translate(0,178.59)" d="M435.39000000000004,0h358.60999999999996" style="stroke: rgb(255, 255, 255); strokeOpacity: 1; stroke-width: 1px;"/><path class="y2grid crisp" transform="translate(0,123.48)" d="M435.39000000000004,0h358.60999999999996" style="stroke: rgb(255, 255, 255); strokeOpacity: 1; stroke-width: 1px;"/><path class="y2grid crisp" transform="translate(0,68.37)" d="M435.39000000000004,0h358.60999999999996" style="stroke: rgb(255, 255, 255); strokeOpacity: 1; stroke-width: 1px;"/><path class="y2grid crisp" transform="translate(0,13.26)" d="M435.39000000000004,0h358.60999999999996" style="stroke: rgb(255, 255, 255); strokeOpacity: 1; stroke-width: 1px;"/></g></g><g class="zerolinelayer"><path class="x2zl zl crisp" transform="translate(435.39000000000004,0)" d="M0,0v246" style="stroke: rgb(255, 255, 255); strokeOpacity: 1; stroke-width: 3px;"/><path class="y2zl zl crisp" transform="translate(0,233.7)" d="M435.39000000000004,0h358.60999999999996" style="stroke: rgb(255, 255, 255); strokeOpacity: 1; stroke-width: 3px;"/></g><g class="layer-between"><g class="shapelayer"/><g class="imagelayer"/></g><path class="xlines-below"/><path class="ylines-below"/><g class="overlines-below"/><g class="xaxislayer-below"/><g class="yaxislayer-below"/><g class="overaxes-below"/><g class="plot" transform="translate(435.39000000000004,0)" clip-path="url(#clip32dcafx2y2plot)"><g class="scatterlayer mlayer"><g class="trace scatter trace1bd2fc" style="stroke-miterlimit: 2; opacity: 1;"><g class="fills"/><g class="errorbars"/><g class="lines"><path class="js-line" d="M0,175.22L358.61,175.22" style="vector-effect: none; fill: none; stroke: rgb(151, 65, 27); strokeOpacity: 1; stroke-width: 2px; opacity: 1;"/></g><g class="points"/><g class="text"/></g><g class="trace scatter trace048c40" style="stroke-miterlimit: 2; opacity: 1;"><g class="fills"/><g class="errorbars"/><g class="lines"><path class="js-line" d="M0,175.22L358.61,175.22" style="vector-effect: none; fill: none; stroke: rgb(151, 65, 27); strokeOpacity: 1; stroke-dasharray: 3px, 3px; stroke-width: 2px; opacity: 1;"/></g><g class="points"/><g class="text"/></g><g class="trace scatter trace8e7435" style="stroke-miterlimit: 2; opacity: 1;"><g class="fills"/><g class="errorbars"/><g class="lines"><path class="js-line" d="M0,12.31L358.61,12.31" style="vector-effect: none; fill: none; stroke: rgb(235, 154, 211); strokeOpacity: 1; stroke-width: 2px; opacity: 1;"/></g><g class="points"/><g class="text"/></g><g class="trace scatter trace56b0cf" style="stroke-miterlimit: 2; opacity: 1;"><g class="fills"/><g class="errorbars"/><g class="lines"><path class="js-line" d="M0,12.31L358.61,12.31" style="vector-effect: none; fill: none; stroke: rgb(235, 154, 211); strokeOpacity: 1; stroke-dasharray: 3px, 3px; stroke-width: 2px; opacity: 1;"/></g><g class="points"/><g class="text"/></g><g class="trace scatter trace5d87a0" style="stroke-miterlimit: 2; opacity: 1;"><g class="fills"/><g class="errorbars"/><g class="lines"><path class="js-line" d="M0,233.7L358.61,233.7" style="vector-effect: none; fill: none; stroke: rgb(239, 214, 142); strokeOpacity: 1; stroke-width: 2px; opacity: 1;"/></g><g class="points"/><g class="text"/></g><g class="trace scatter trace33665f" style="stroke-miterlimit: 2; opacity: 1;"><g class="fills"/><g class="errorbars"/><g class="lines"><path class="js-line" d="M0,233.7L358.61,233.7" style="vector-effect: none; fill: none; stroke: rgb(239, 214, 142); strokeOpacity: 1; stroke-dasharray: 3px, 3px; stroke-width: 2px; opacity: 1;"/></g><g class="points"/><g class="text"/></g><g class="trace scatter trace28cd34" style="stroke-miterlimit: 2; opacity: 1;"><g class="fills"/><g class="errorbars"/><g class="lines"><path class="js-line" d="M0,84.22L358.61,84.22" style="vector-effect: none; fill: none; stroke: rgb(91, 37, 73); strokeOpacity: 1; stroke-width: 2px; opacity: 1;"/></g><g class="points"/><g class="text"/></g><g class="trace scatter trace63bd9b" style="stroke-miterlimit: 2; opacity: 1;"><g class="fills"/><g class="errorbars"/><g class="lines"><path class="js-line" d="M0,84.22L358.61,84.22" style="vector-effect: none; fill: none; stroke: rgb(91, 37, 73); strokeOpacity: 1; stroke-dasharray: 3px, 3px; stroke-width: 2px; opacity: 1;"/></g><g class="points"/><g class="text"/></g><g class="trace scatter trace0c4cb2" style="stroke-miterlimit: 2; opacity: 1;"><g class="fills"/><g class="errorbars"/><g class="lines"><path class="js-line" d="M0,111.94L358.61,111.94" style="vector-effect: none; fill: none; stroke: rgb(55, 52, 44); strokeOpacity: 1; stroke-width: 2px; opacity: 1;"/></g><g class="points"/><g class="text"/></g><g class="trace scatter trace215a4d" style="stroke-miterlimit: 2; opacity: 1;"><g class="fills"/><g class="errorbars"/><g class="lines"><path class="js-line" d="M0,111.94L358.61,111.94" style="vector-effect: none; fill: none; stroke: rgb(55, 52, 44); strokeOpacity: 1; stroke-dasharray: 3px, 3px; stroke-width: 2px; opacity: 1;"/></g><g class="points"/><g class="text"/></g></g></g><g class="overplot"/><path class="xlines-above crisp" d="M0,0" style="fill: none;"/><path class="ylines-above crisp" d="M0,0" style="fill: none;"/><g class="overlines-above"/><g class="xaxislayer-above"><g class="x2tick"><text text-anchor="middle" x="0" y="257" transform="translate(435.39000000000004,0)" style="font-family: verdana; font-size: 10px; fill: rgb(0, 0, 0); fill-opacity: 1; white-space: pre; opacity: 1;">0</text></g><g class="x2tick"><text text-anchor="middle" x="0" y="257" style="font-family: verdana; font-size: 10px; fill: rgb(0, 0, 0); fill-opacity: 1; white-space: pre; opacity: 1;" transform="translate(525.0400000000001,0)">5</text></g><g class="x2tick"><text text-anchor="middle" x="0" y="257" style="font-family: verdana; font-size: 10px; fill: rgb(0, 0, 0); fill-opacity: 1; white-space: pre; opacity: 1;" transform="translate(614.69,0)">10</text></g><g class="x2tick"><text text-anchor="middle" x="0" y="257" style="font-family: verdana; font-size: 10px; fill: rgb(0, 0, 0); fill-opacity: 1; white-space: pre; opacity: 1;" transform="translate(704.35,0)">15</text></g><g class="x2tick"><text text-anchor="middle" x="0" y="257" style="font-family: verdana; font-size: 10px; fill: rgb(0, 0, 0); fill-opacity: 1; white-space: pre; opacity: 0;" transform="translate(794,0)">20</text></g></g><g class="yaxislayer-above"><g class="y2tick"><text text-anchor="end" x="434.39000000000004" y="3.5" transform="translate(0,233.7)" style="font-family: verdana; font-size: 10px; fill: rgb(0, 0, 0); fill-opacity: 1; white-space: pre; opacity: 1;">0%</text></g><g class="y2tick"><text text-anchor="end" x="434.39000000000004" y="3.5" style="font-family: verdana; font-size: 10px; fill: rgb(0, 0, 0); fill-opacity: 1; white-space: pre; opacity: 1;" transform="translate(0,178.59)">10%</text></g><g class="y2tick"><text text-anchor="end" x="434.39000000000004" y="3.5" style="font-family: verdana; font-size: 10px; fill: rgb(0, 0, 0); fill-opacity: 1; white-space: pre; opacity: 1;" transform="translate(0,123.48)">20%</text></g><g class="y2tick"><text text-anchor="end" x="434.39000000000004" y="3.5" style="font-family: verdana; font-size: 10px; fill: rgb(0, 0, 0); fill-opacity: 1; white-space: pre; opacity: 1;" transform="translate(0,68.37)">30%</text></g><g class="y2tick"><text text-anchor="end" x="434.39000000000004" y="3.5" style="font-family: verdana; font-size: 10px; fill: rgb(0, 0, 0); fill-opacity: 1; white-space: pre; opacity: 1;" transform="translate(0,13.26)">40%</text></g></g><g class="overaxes-above"/></g></g><g class="polarlayer"/><g class="smithlayer"/><g class="ternarylayer"/><g class="geolayer"/><g class="funnelarealayer"/><g class="pielayer"/><g class="iciclelayer"/><g class="treemaplayer"/><g class="sunburstlayer"/><g class="glimages"/><defs id="topdefs-32dcaf"><g class="clips"/><clipPath id="legend32dcaf"><rect width="485" height="29" x="0" y="0"/></clipPath></defs><g class="layer-above"><g class="imagelayer"/><g class="shapelayer"/></g><g class="infolayer"><g class="legend" pointer-events="all" transform="translate(170,270.6)"><rect class="bg" shape-rendering="crispEdges" width="485" height="29" x="0" y="0" style="stroke: rgb(68, 68, 68); strokeOpacity: 1; fill: rgb(0, 0, 0); fill-opacity: 0; stroke-width: 0px;"/><g class="scrollbox" transform="" clip-path="url(#legend32dcaf)"><g class="groups" transform=""><g class="traces" transform="translate(0,14.5)" style="opacity: 1;"><text class="legendtext" text-anchor="start" x="40" y="3.9" style="font-family: verdana; font-size: 10px; fill: rgb(0, 0, 0); fill-opacity: 1; white-space: pre;">cash</text><g class="layers"><g class="legendfill"><path class="js-fill" d="M5,-2h30v6h-30z" style="stroke-width: 0; fill: rgb(151, 65, 27); fill-opacity: 0.5;"/></g><g class="legendlines"><path class="js-line" d="M5,-2h30" style="fill: none; stroke: rgb(151, 65, 27); strokeOpacity: 1; stroke-width: 2px;"/></g><g class="legendsymbols"><g class="legendpoints"/></g></g><rect class="legendtoggle" x="0" y="-9.5" width="65.265625" height="19" style="fill: rgb(0, 0, 0); fill-opacity: 0;"/></g></g><g class="groups" transform="translate(67.765625,0)"><g class="traces" transform="translate(0,14.5)" style="opacity: 1;"><text class="legendtext" text-anchor="start" x="40" y="3.9" style="font-family: verdana; font-size: 10px; fill: rgb(0, 0, 0); fill-opacity: 1; white-space: pre;">treasuries</text><g class="layers"><g class="legendfill"><path class="js-fill" d="M5,-2h30v6h-30z" style="stroke-width: 0; fill: rgb(235, 154, 211); fill-opacity: 0.5;"/></g><g class="legendlines"><path class="js-line" d="M5,-2h30" style="fill: none; stroke: rgb(235, 154, 211); strokeOpacity: 1; stroke-width: 2px;"/></g><g class="legendsymbols"><g class="legendpoints"/></g></g><rect class="legendtoggle" x="0" y="-9.5" width="92.390625" height="19" style="fill: rgb(0, 0, 0); fill-opacity: 0;"/></g></g><g class="groups" transform="translate(162.65625,0)"><g class="traces" transform="translate(0,14.5)" style="opacity: 1;"><text class="legendtext" text-anchor="start" x="40" y="3.9" style="font-family: verdana; font-size: 10px; fill: rgb(0, 0, 0); fill-opacity: 1; white-space: pre;">public equity</text><g class="layers"><g class="legendfill"><path class="js-fill" d="M5,-2h30v6h-30z" style="stroke-width: 0; fill: rgb(239, 214, 142); fill-opacity: 0.5;"/></g><g class="legendlines"><path class="js-line" d="M5,-2h30" style="fill: none; stroke: rgb(239, 214, 142); strokeOpacity: 1; stroke-width: 2px;"/></g><g class="legendsymbols"><g class="legendpoints"/></g></g><rect class="legendtoggle" x="0" y="-9.5" width="106.625" height="19" style="fill: rgb(0, 0, 0); fill-opacity: 0;"/></g></g><g class="groups" transform="translate(271.78125,0)"><g class="traces" transform="translate(0,14.5)" style="opacity: 1;"><text class="legendtext" text-anchor="start" x="40" y="3.9" style="font-family: verdana; font-size: 10px; fill: rgb(0, 0, 0); fill-opacity: 1; white-space: pre;">private equity</text><g class="layers"><g class="legendfill"><path class="js-fill" d="M5,-2h30v6h-30z" style="stroke-width: 0; fill: rgb(91, 37, 73); fill-opacity: 0.5;"/></g><g class="legendlines"><path class="js-line" d="M5,-2h30" style="fill: none; stroke: rgb(91, 37, 73); strokeOpacity: 1; stroke-width: 2px;"/></g><g class="legendsymbols"><g class="legendpoints"/></g></g><rect class="legendtoggle" x="0" y="-9.5" width="112.203125" height="19" style="fill: rgb(0, 0, 0); fill-opacity: 0;"/></g></g><g class="groups" transform="translate(386.484375,0)"><g class="traces" transform="translate(0,14.5)" style="opacity: 1;"><text class="legendtext" text-anchor="start" x="40" y="3.9" style="font-family: verdana; font-size: 10px; fill: rgb(0, 0, 0); fill-opacity: 1; white-space: pre;">real estate</text><g class="layers"><g class="legendfill"><path class="js-fill" d="M5,-2h30v6h-30z" style="stroke-width: 0; fill: rgb(55, 52, 44); fill-opacity: 0.5;"/></g><g class="legendlines"><path class="js-line" d="M5,-2h30" style="fill: none; stroke: rgb(55, 52, 44); strokeOpacity: 1; stroke-width: 2px;"/></g><g class="legendsymbols"><g class="legendpoints"/></g></g><rect class="legendtoggle" x="0" y="-9.5" width="96.015625" height="19" style="fill: rgb(0, 0, 0); fill-opacity: 0;"/></g></g></g><rect class="scrollbar" rx="20" ry="3" width="0" height="0" x="0" y="0" style="fill: rgb(128, 139, 164); fill-opacity: 1;"/></g><g class="g-gtitle"/><g class="g-xtitle"/><g class="g-x2title"/><g class="g-ytitle"/><g class="g-y2title"/></g></svg>