<svg class="main-svg" xmlns="http://www.w3.org/2000/svg" xmlns:xlink="http://www.w3.org/1999/xlink" width="800" height="300" style="" viewBox="0 0 800 300"><rect x="0" y="0" width="800" height="300" style="fill: rgb(0, 0, 0); fill-opacity: 0;"/><defs id="defs-a42af9"><g class="clips"><clipPath id="clipa42af9xyplot" class="plotclip"><rect width="358.60999999999996" height="246"/></clipPath><clipPath id="clipa42af9x2y2plot" class="plotclip"><rect width="358.60999999999996" height="246"/></clipPath><clipPath class="axesclip" id="clipa42af9x"><rect x="31" y="0" width="358.60999999999996" height="300"/></clipPath><clipPath class="axesclip" id="clipa42af9y"><rect x="0" y="0" width="800" height="246"/></clipPath><clipPath class="axesclip" id="clipa42af9xy"><rect x="31" y="0" width="358.60999999999996" height="246"/></clipPath><clipPath class="axesclip" id="clipa42af9y2"><rect x="0" y="0" width="800" height="246"/></clipPath><clipPath class="axesclip" id="clipa42af9xy2"><rect x="31" y="0" width="358.60999999999996" height="246"/></clipPath><clipPath class="axesclip" id="clipa42af9x2"><rect x="435.39000000000004" y="0" width="358.60999999999996" height="300"/></clipPath><clipPath class="axesclip" id="clipa42af9x2y"><rect x="435.39000000000004" y="0" width="358.60999999999996" height="246"/></clipPath><clipPath class="axesclip" id="clipa42af9x2y2"><rect x="435.39000000000004" y="0" width="358.60999999999996" height="246"/></clipPath></g><g class="gradients"/><g class="patterns"/></defs><g class="bglayer"><rect class="bg" x="31" y="0" width="358.60999999999996" height="246" style="fill: rgb(237, 236, 232); fill-opacity: 1; stroke-width: 0;"/><rect class="bg" x="435.39000000000004" y="0" width="358.60999999999996" height="246" style="fill: rgb(237, 236, 232); fill-opacity: 1; stroke-width: 0;"/></g><g class="layer-below"><g class="imagelayer"/><g class="shapelayer"/></g><g class="cartesianlayer"><g class="subplot xy"><g class="layer-subplot"><g class="shapelayer"/><g class="imagelayer"/></g><g class="minor-gridlayer"><g class="x"/><g class="y"/></g><g class="gridlayer"><g class="x"><path class="xgrid crisp" transform="translate(120.65,0)" d="M0,0v246" style="stroke: rgb(255, 255, 255); strokeOpacity: 1; stroke-width: 1px;"/><path class="xgrid crisp" transform="translate(210.3,0)" d="M0,0v246" style="stroke: rgb(255, 255, 255); strokeOpacity: 1; stroke-width: 1px;"/><path class="xgrid crisp" transform="translate(299.96,0)" d="M0,0v246" style="stroke: rgb(255, 255, 255); strokeOpacity: 1; stroke-width: 1px;"/></g><g class="y"><path class="ygrid crisp" transform="translate(0,208.01)" d="M31,0h358.60999999999996" style="stroke: rgb(255, 255, 255); strokeOpacity: 1; stroke-width: 1px;"/><path class="ygrid crisp" transform="translate(0,170.01)" d="M31,0h358.60999999999996" style="stroke: rgb(255, 255, 255); strokeOpacity: 1; stroke-width: 1px;"/><path class="ygrid crisp" transform="translate(0,132.02)" d="M31,0h358.60999999999996" style="stroke: rgb(255, 255, 255); strokeOpacity: 1; stroke-width: 1px;"/><path class="ygrid crisp" transform="translate(0,94.03)" d="M31,0h358.60999999999996" style="stroke: rgb(255, 255, 255); strokeOpacity: 1; stroke-width: 1px;"/><path class="ygrid crisp" transform="translate(0,56.04)" d="M31,0h358.60999999999996" style="stroke: rgb(255, 255, 255); strokeOpacity: 1; stroke-width: 1px;"/><path class="ygrid crisp" transform="translate(0,18.04)" d="M31,0h358.60999999999996" style="stroke: rgb(255, 255, 255); strokeOpacity: 1; stroke-width: 1px;"/></g></g><g class="zerolinelayer"><path class="xzl zl crisp" transform="translate(31,0)" d="M0,0v246" style="stroke: rgb(255, 255, 255); strokeOpacity: 1; stroke-width: 3px;"/><path class="yzl zl crisp" transform="translate(0,246)" d="M31,0h358.60999999999996" style="stroke: rgb(255, 255, 255); strokeOpacity: 1; stroke-width: 3px;"/></g><g class="layer-between"><g class="shapelayer"/><g class="imagelayer"/></g><path class="xlines-below"/><path class="ylines-below"/><g class="overlines-below"/><g class="xaxislayer-below"/><g class="yaxislayer-below"/><g class="overaxes-below"/><g class="plot" transform="translate(31,0)" clip-path="url(#clipa42af9xyplot)"><g class="scatterlayer mlayer"><g class="trace scatter tracec7fae0" style="stroke-miterlimit: 2;"><g class="fills"><g><path class="js-fill" d="M358.61,246L0,246L0,214.19L17.93,226.37L35.86,233.55L53.79,237.78L71.72,234.45L89.65,235.55L107.58,235.42L143.44,232.77L161.37,232.78L251.03,228.55L268.96,227.37L358.61,221.2" style="fill: rgb(151, 65, 27); fill-opacity: 0.5; stroke-width: 0;"/></g><g><path class="js-fill" d="M0,196.34L17.93,201.49L35.86,202.47L71.72,199.92L89.65,196.88L125.51,190L143.44,185.04L161.37,182.71L179.3,179.08L233.1,166.75L251.03,162L304.82,146.02L322.75,140.14L358.61,127.32L358.61,221.2L268.96,227.37L251.03,228.55L161.37,232.78L143.44,232.77L107.58,235.42L89.65,235.55L71.72,234.45L53.79,237.78L35.86,233.55L17.93,226.37L0,214.19Z" style="fill: rgb(235, 154, 211); fill-opacity: 0.5; stroke-width: 0;"/></g></g><g class="errorbars"/><g class="lines"><path class="js-line" d="M0,214.19L17.93,226.37L35.86,233.55L53.79,237.78L71.72,234.45L89.65,235.55L107.58,235.42L143.44,232.77L161.37,232.78L251.03,228.55L268.96,227.37L358.61,221.2" style="vector-effect: none; fill: none; stroke: rgb(151, 65, 27); strokeOpacity: 1; stroke-width: 2px; opacity: 1;"/></g><g class="points"/><g class="text"/></g><g class="trace scatter trace80b211" style="stroke-miterlimit: 2;"><g class="fills"><g><path class="js-fill" d="M0,170.01L17.93,183.2L35.86,192.34L53.79,198.88L71.72,199.92L107.58,193.49L125.51,190L143.44,185.04L161.37,182.71L197.24,175.03L215.17,170.34L233.1,166.75L251.03,162L304.82,146.02L322.75,140.14L358.61,127.32L358.61,127.32L322.75,140.14L304.82,146.02L251.03,162L233.1,166.75L179.3,179.08L161.37,182.71L143.44,185.04L125.51,190L89.65,196.88L71.72,199.92L35.86,202.47L17.93,201.49L0,196.34Z" style="fill: rgb(239, 214, 142); fill-opacity: 0.5; stroke-width: 0;"/></g></g><g class="errorbars"/><g class="lines"><path class="js-line" d="M0,196.34L17.93,201.49L35.86,202.47L71.72,199.92L89.65,196.88L125.51,190L143.44,185.04L161.37,182.71L179.3,179.08L233.1,166.75L251.03,162L304.82,146.02L322.75,140.14L358.61,127.32" style="vector-effect: none; fill: none; stroke: rgb(235, 154, 211); strokeOpacity: 1; stroke-width: 2px; opacity: 1;"/></g><g class="points"/><g class="text"/></g><g class="trace scatter traceb7a5fb" style="stroke-miterlimit: 2;"><g class="fills"><g><path class="js-fill" d="M0,170.01L17.93,183.2L35.86,192.34L53.79,198.88L71.72,199.92L107.58,193.49L125.51,190L143.44,185.04L161.37,182.71L197.24,175.03L215.17,170.34L233.1,166.75L251.03,162L304.82,146.02L322.75,140.14L358.61,127.32L358.61,127.32L322.75,140.14L304.82,146.02L251.03,162L233.1,166.75L215.17,170.34L197.24,175.03L161.37,182.71L143.44,185.04L125.51,190L107.58,193.49L71.72,199.92L53.79,198.88L35.86,192.34L17.93,183.2L0,170.01Z" style="fill: rgb(91, 37, 73); fill-opacity: 0.5; stroke-width: 0;"/></g></g><g class="errorbars"/><g class="lines"><path class="js-line" d="M0,170.01L17.93,183.2L35.86,192.34L53.79,198.88L71.72,199.92L107.58,193.49L125.51,190L143.44,185.04L161.37,182.71L197.24,175.03L215.17,170.34L233.1,166.75L251.03,162L304.82,146.02L322.75,140.14L358.61,127.32" style="vector-effect: none; fill: none; stroke: rgb(239, 214, 142); strokeOpacity: 1; stroke-width: 2px; opacity: 1;"/></g><g class="points"/><g class="text"/></g><g class="trace scatter trace4fe290" style="stroke-miterlimit: 2;"><g class="fills"><g><path class="js-fill" d="M0,170.01L17.93,183.2L35.86,192.34L53.79,198.88L71.72,199.92L107.58,193.49L125.51,190L143.44,185.04L161.37,182.71L197.24,175.03L215.17,170.34L233.1,166.75L251.03,162L304.82,146.02L322.75,140.14L358.61,127.32L358.61,127.32L322.75,140.14L304.82,146.02L251.03,162L233.1,166.75L215.17,170.34L197.24,175.03L161.37,182.71L143.44,185.04L125.51,190L107.58,193.49L71.72,199.92L53.79,198.88L35.86,192.34L17.93,183.2L0,170.01Z" style="fill: rgb(91, 37, 73); fill-opacity: 0.5; stroke-width: 0;"/></g></g><g class="errorbars"/><g class="lines"><path class="js-line" d="M0,170.01L17.93,183.2L35.86,192.34L53.79,198.88L71.72,199.92L107.58,193.49L125.51,190L143.44,185.04L161.37,182.71L197.24,175.03L215.17,170.34L233.1,166.75L251.03,162L304.82,146.02L322.75,140.14L358.61,127.32" style="vector-effect: none; fill: none; stroke: rgb(91, 37, 73); strokeOpacity: 1; stroke-width: 2px; opacity: 1;"/></g><g class="points"/><g class="text"/></g><g class="trace scatter traced438af" style="stroke-miterlimit: 2;"><g class="fills"><g><path class="js-fill" d="M0,170.01L17.93,183.2L35.86,192.34L53.79,198.88L71.72,199.92L107.58,193.49L125.51,190L143.44,185.04L161.37,182.71L197.24,175.03L215.17,170.34L233.1,166.75L251.03,162L304.82,146.02L322.75,140.14L358.61,127.32L358.61,127.32L322.75,140.14L304.82,146.02L251.03,162L233.1,166.75L215.17,170.34L197.24,175.03L161.37,182.71L143.44,185.04L125.51,190L107.58,193.49L71.72,199.92L53.79,198.88L35.86,192.34L17.93,183.2L0,170.01Z" style="fill: rgb(91, 37, 73); fill-opacity: 0.5; stroke-width: 0;"/></g></g><g class="errorbars"/><g class="lines"><path class="js-line" d="M0,170.01L17.93,183.2L35.86,192.34L53.79,198.88L71.72,199.92L107.58,193.49L125.51,190L143.44,185.04L161.37,182.71L197.24,175.03L215.17,170.34L233.1,166.75L251.03,162L304.82,146.02L322.75,140.14L358.61,127.32" style="vector-effect: none; fill: none; stroke: rgb(91, 37, 73); strokeOpacity: 1; stroke-width: 2px; opacity: 1;"/></g><g class="points"/><g class="text"/></g><g class="trace scatter trace600899" style="stroke-miterlimit: 2;"><g class="fills"><g><path class="js-fill" d="M0,170.01L17.93,183.2L35.86,192.34L53.79,198.88L71.72,199.92L107.58,193.49L125.51,190L143.44,185.04L161.37,182.71L197.24,175.03L215.17,170.34L233.1,166.75L251.03,162L304.82,146.02L322.75,140.14L358.61,127.32L358.61,127.32L322.75,140.14L304.82,146.02L251.03,162L233.1,166.75L215.17,170.34L197.24,175.03L161.37,182.71L143.44,185.04L125.51,190L107.58,193.49L71.72,199.92L53.79,198.88L35.86,192.34L17.93,183.2L0,170.01Z" style="fill: rgb(91, 37, 73); fill-opacity: 0.5; stroke-width: 0;"/></g></g><g class="errorbars"/><g class="lines"><path class="js-line" d="M0,170.01L17.93,183.2L35.86,192.34L53.79,198.88L71.72,199.92L107.58,193.49L125.51,190L143.44,185.04L161.37,182.71L197.24,175.03L215.17,170.34L233.1,166.75L251.03,162L304.82,146.02L322.75,140.14L358.61,127.32" style="vector-effect: none; fill: none; stroke: rgb(91, 37, 73); strokeOpacity: 1; stroke-width: 2px; opacity: 1;"/></g><g class="points"/><g class="text"/></g><g class="trace scatter trace857e5d" style="stroke-miterlimit: 2;"><g class="fills"><g><path class="js-fill" d="M0,170.01L17.93,183.2L35.86,192.34L53.79,198.88L71.72,199.92L107.58,193.49L125.51,190L143.44,185.04L161.37,182.71L197.24,175.03L215.17,170.34L233.1,166.75L251.03,162L304.82,146.02L322.75,140.14L358.61,127.32L358.61,127.32L322.75,140.14L304.82,146.02L251.03,162L233.1,166.75L215.17,170.34L197.24,175.03L161.37,182.71L143.44,185.04L125.51,190L107.58,193.49L71.72,199.92L53.79,198.88L35.86,192.34L17.93,183.2L0,170.01Z" style="fill: rgb(91, 37, 73); fill-opacity: 0.5; stroke-width: 0;"/></g></g><g class="errorbars"/><g class="lines"><path class="js-line" d="M0,170.01L17.93,183.2L35.86,192.34L53.79,198.88L71.72,199.92L107.58,193.49L125.51,190L143.44,185.04L161.37,182.71L197.24,175.03L215.17,170.34L233.1,166.75L251.03,162L304.82,146.02L322.75,140.14L358.61,127.32" style="vector-effect: none; fill: none; stroke: rgb(91, 37, 73); strokeOpacity: 1; stroke-width: 2px; opacity: 1;"/></g><g class="points"/><g class="text"/></g><g class="trace scatter tracece1cbb" style="stroke-miterlimit: 2;"><g class="fills"><g><path class="js-fill" d="M0,170.01L17.93,183.2L35.86,192.34L53.79,198.88L71.72,199.92L107.58,193.49L125.51,190L143.44,185.04L161.37,182.71L197.24,175.03L215.17,170.34L233.1,166.75L251.03,162L304.82,146.02L322.75,140.14L358.61,127.32L358.61,127.32L322.75,140.14L304.82,146.02L251.03,162L233.1,166.75L215.17,170.34L197.24,175.03L161.37,182.71L143.44,185.04L125.51,190L107.58,193.49L71.72,199.92L53.79,198.88L35.86,192.34L17.93,183.2L0,170.01Z" style="fill: rgb(91, 37, 73); fill-opacity: 0.5; stroke-width: 0;"/></g></g><g class="errorbars"/><g class="lines"><path class="js-line" d="M0,170.01L17.93,183.2L35.86,192.34L53.79,198.88L71.72,199.92L107.58,193.49L125.51,190L143.44,185.04L161.37,182.71L197.24,175.03L215.17,170.34L233.1,166.75L251.03,162L304.82,146.02L322.75,140.14L358.61,127.32" style="vector-effect: none; fill: none; stroke: rgb(91, 37, 73); strokeOpacity: 1; stroke-width: 2px; opacity: 1;"/></g><g class="points"/><g class="text"/></g><g class="trace scatter traceba1d2a" style="stroke-miterlimit: 2;"><g class="fills"><g><path class="js-fill" d="M0,170.01L17.93,183.2L35.86,192.34L53.79,198.88L71.72,199.92L107.58,193.49L125.51,190L143.44,185.04L161.37,182.71L197.24,175.03L215.17,170.34L233.1,166.75L251.03,162L304.82,146.02L322.75,140.14L358.61,127.32L358.61,127.32L322.75,140.14L304.82,146.02L251.03,162L233.1,166.75L215.17,170.34L197.24,175.03L161.37,182.71L143.44,185.04L125.51,190L107.58,193.49L71.72,199.92L53.79,198.88L35.86,192.34L17.93,183.2L0,170.01Z" style="fill: rgb(91, 37, 73); fill-opacity: 0.5; stroke-width: 0;"/></g></g><g class="errorbars"/><g class="lines"><path class="js-line" d="M0,170.01L17.93,183.2L35.86,192.34L53.79,198.88L71.72,199.92L107.58,193.49L125.51,190L143.44,185.04L161.37,182.71L197.24,175.03L215.17,170.34L233.1,166.75L251.03,162L304.82,146.02L322.75,140.14L358.61,127.32" style="vector-effect: none; fill: none; stroke: rgb(91, 37, 73); strokeOpacity: 1; stroke-width: 2px; opacity: 1;"/></g><g class="points"/><g class="text"/></g><g class="trace scatter trace7be45f" style="stroke-miterlimit: 2;"><g class="fills"><g><path class="js-fill" d="M0,170.01L17.93,183.2L35.86,192.34L53.79,198.88L71.72,199.92L107.58,193.49L125.51,190L143.44,185.04L161.37,182.71L197.24,175.03L215.17,170.34L233.1,166.75L251.03,162L304.82,146.02L322.75,140.14L358.61,127.32L358.61,127.32L322.75,140.14L304.82,146.02L251.03,162L233.1,166.75L215.17,170.34L197.24,175.03L161.37,182.71L143.44,185.04L125.51,190L107.58,193.49L71.72,199.92L53.79,198.88L35.86,192.34L17.93,183.2L0,170.01Z" style="fill: rgb(91, 37, 73); fill-opacity: 0.5; stroke-width: 0;"/></g></g><g class="errorbars"/><g class="lines"><path class="js-line" d="M0,170.01L17.93,183.2L35.86,192.34L53.79,198.88L71.72,199.92L107.58,193.49L125.51,190L143.44,185.04L161.37,182.71L197.24,175.03L215.17,170.34L233.1,166.75L251.03,162L304.82,146.02L322.75,140.14L358.61,127.32" style="vector-effect: none; fill: none; stroke: rgb(91, 37, 73); strokeOpacity: 1; stroke-width: 2px; opacity: 1;"/></g><g class="points"/><g class="text"/></g><g class="trace scatter trace6a35a3" style="stroke-miterlimit: 2;"><g class="fills"><g><path class="js-fill" d="M0,170.01L17.93,183.2L35.86,192.34L53.79,198.88L71.72,199.92L107.58,193.49L125.51,190L143.44,185.04L161.37,182.71L197.24,175.03L215.17,170.34L233.1,166.75L251.03,162L304.82,146.02L322.75,140.14L358.61,127.32L358.61,127.32L322.75,140.14L304.82,146.02L251.03,162L233.1,166.75L215.17,170.34L197.24,175.03L161.37,182.71L143.44,185.04L125.51,190L107.58,193.49L71.72,199.92L53.79,198.88L35.86,192.34L17.93,183.2L0,170.01Z" style="fill: rgb(91, 37, 73); fill-opacity: 0.5; stroke-width: 0;"/></g></g><g class="errorbars"/><g class="lines"><path class="js-line" d="M0,170.01L17.93,183.2L35.86,192.34L53.79,198.88L71.72,199.92L107.58,193.49L125.51,190L143.44,185.04L161.37,182.71L197.24,175.03L215.17,170.34L233.1,166.75L251.03,162L304.82,146.02L322.75,140.14L358.61,127.32" style="vector-effect: none; fill: none; stroke: rgb(91, 37, 73); strokeOpacity: 1; stroke-width: 2px; opacity: 1;"/></g><g class="points"/><g class="text"/></g><g class="trace scatter traceeaaeee" style="stroke-miterlimit: 2;"><g class="fills"><g><path class="js-fill" d="M0,170.01L17.93,183.2L35.86,192.34L53.79,198.88L71.72,199.92L107.58,193.49L125.51,190L143.44,185.04L161.37,182.71L197.24,175.03L215.17,170.34L233.1,166.75L251.03,162L304.82,146.02L322.75,140.14L358.61,127.32L358.61,127.32L322.75,140.14L304.82,146.02L251.03,162L233.1,166.75L215.17,170.34L197.24,175.03L161.37,182.71L143.44,185.04L125.51,190L107.58,193.49L71.72,199.92L53.79,198.88L35.86,192.34L17.93,183.2L0,170.01Z" style="fill: rgb(91, 37, 73); fill-opacity: 0.5; stroke-width: 0;"/></g></g><g class="errorbars"/><g class="lines"><path class="js-line" d="M0,170.01L17.93,183.2L35.86,192.34L53.79,198.88L71.72,199.92L107.58,193.49L125.51,190L143.44,185.04L161.37,182.71L197.24,175.03L215.17,170.34L233.1,166.75L251.03,162L304.82,146.02L322.75,140.14L358.61,127.32" style="vector-effect: none; fill: none; stroke: rgb(91, 37, 73); strokeOpacity: 1; stroke-width: 2px; opacity: 1;"/></g><g class="points"/><g class="text"/></g><g class="trace scatter trace69808a" style="stroke-miterlimit: 2;"><g class="fills"><g><path class="js-fill" d="M0,170.01L17.93,183.2L35.86,192.34L53.79,198.88L71.72,199.92L107.58,193.49L125.51,190L143.44,185.04L161.37,182.71L197.24,175.03L215.17,170.34L233.1,166.75L251.03,162L304.82,146.02L322.75,140.14L358.61,127.32L358.61,127.32L322.75,140.14L304.82,146.02L251.03,162L233.1,166.75L215.17,170.34L197.24,175.03L161.37,182.71L143.44,185.04L125.51,190L107.58,193.49L71.72,199.92L53.79,198.88L35.86,192.34L17.93,183.2L0,170.01Z" style="fill: rgb(91, 37, 73); fill-opacity: 0.5; stroke-width: 0;"/></g></g><g class="errorbars"/><g class="lines"><path class="js-line" d="M0,170.01L17.93,183.2L35.86,192.34L53.79,198.88L71.72,199.92L107.58,193.49L125.51,190L143.44,185.04L161.37,182.71L197.24,175.03L215.17,170.34L233.1,166.75L251.03,162L304.82,146.02L322.75,140.14L358.61,127.32" style="vector-effect: none; fill: none; stroke: rgb(91, 37, 73); strokeOpacity: 1; stroke-width: 2px; opacity: 1;"/></g><g class="points"/><g class="text"/></g><g class="trace scatter traceec995c" style="stroke-miterlimit: 2;"><g class="fills"><g><path class="js-fill" d="M0,170.01L17.93,183.2L35.86,192.34L53.79,198.88L71.72,199.92L107.58,193.49L125.51,190L143.44,185.04L161.37,182.71L197.24,175.03L215.17,170.34L233.1,166.75L251.03,162L304.82,146.02L322.75,140.14L358.61,127.32L358.61,127.32L322.75,140.14L304.82,146.02L251.03,162L233.1,166.75L215.17,170.34L197.24,175.03L161.37,182.71L143.44,185.04L125.51,190L107.58,193.49L71.72,199.92L53.79,198.88L35.86,192.34L17.93,183.2L0,170.01Z" style="fill: rgb(91, 37, 73); fill-opacity: 0.5; stroke-width: 0;"/></g></g><g class="errorbars"/><g class="lines"><path class="js-line" d="M0,170.01L17.93,183.2L35.86,192.34L53.79,198.88L71.72,199.92L107.58,193.49L125.51,190L143.44,185.04L161.37,182.71L197.24,175.03L215.17,170.34L233.1,166.75L251.03,162L304.82,146.02L322.75,140.14L358.61,127.32" style="vector-effect: none; fill: none; stroke: rgb(91, 37, 73); strokeOpacity: 1; stroke-width: 2px; opacity: 1;"/></g><g class="points"/><g class="text"/></g><g class="trace scatter trace2326ff" style="stroke-miterlimit: 2;"><g class="fills"><g><path class="js-fill" d="M0,170.01L17.93,176.56L35.86,178.48L53.79,177.49L71.72,174.6L89.65,170.51L107.58,168.8L143.44,170.48L161.37,174.4L179.3,175.69L197.24,174.27L233.1,166.75L251.03,162L304.82,146.02L322.75,140.14L358.61,127.32L358.61,127.32L322.75,140.14L304.82,146.02L251.03,162L233.1,166.75L215.17,170.34L197.24,175.03L161.37,182.71L143.44,185.04L125.51,190L107.58,193.49L71.72,199.92L53.79,198.88L35.86,192.34L17.93,183.2L0,170.01Z" style="fill: rgb(91, 37, 73); fill-opacity: 0.5; stroke-width: 0;"/></g></g><g class="errorbars"/><g class="lines"><path class="js-line" d="M0,170.01L17.93,183.2L35.86,192.34L53.79,198.88L71.72,199.92L107.58,193.49L125.51,190L143.44,185.04L161.37,182.71L197.24,175.03L215.17,170.34L233.1,166.75L251.03,162L304.82,146.02L322.75,140.14L358.61,127.32" style="vector-effect: none; fill: none; stroke: rgb(91, 37, 73); strokeOpacity: 1; stroke-width: 2px; opacity: 1;"/></g><g class="points"/><g class="text"/></g><g class="trace scatter trace2fdcb3" style="stroke-miterlimit: 2;"><g class="fills"><g><path class="js-fill" d="M0,170.01L17.93,176.56L35.86,178.48L53.79,177.49L71.72,174.6L89.65,170.51L107.58,168.8L143.44,170.48L161.37,174.4L179.3,175.69L197.24,174.27L233.1,166.75L251.03,162L304.82,146.02L322.75,140.14L358.61,127.32L358.61,127.32L322.75,140.14L304.82,146.02L251.03,162L233.1,166.75L197.24,174.27L179.3,175.69L161.37,174.4L143.44,170.48L107.58,168.8L89.65,170.51L71.72,174.6L53.79,177.49L35.86,178.48L17.93,176.56L0,170.01Z" style="fill: rgb(91, 37, 73); fill-opacity: 0.5; stroke-width: 0;"/></g></g><g class="errorbars"/><g class="lines"><path class="js-line" d="M0,170.01L17.93,176.56L35.86,178.48L53.79,177.49L71.72,174.6L89.65,170.51L107.58,168.8L143.44,170.48L161.37,174.4L179.3,175.69L197.24,174.27L233.1,166.75L251.03,162L304.82,146.02L322.75,140.14L358.61,127.32" style="vector-effect: none; fill: none; stroke: rgb(91, 37, 73); strokeOpacity: 1; stroke-width: 2px; opacity: 1;"/></g><g class="points"/><g class="text"/></g><g class="trace scatter trace473354" style="stroke-miterlimit: 2;"><g class="fills"><g><path class="js-fill" d="M0,170.01L17.93,176.56L35.86,178.48L53.79,177.49L71.72,174.6L89.65,170.51L107.58,168.8L143.44,170.48L161.37,174.4L179.3,175.69L197.24,174.27L233.1,166.75L251.03,162L304.82,146.02L322.75,140.14L358.61,127.32L358.61,127.32L322.75,140.14L304.82,146.02L251.03,162L233.1,166.75L197.24,174.27L179.3,175.69L161.37,174.4L143.44,170.48L107.58,168.8L89.65,170.51L71.72,174.6L53.79,177.49L35.86,178.48L17.93,176.56L0,170.01Z" style="fill: rgb(91, 37, 73); fill-opacity: 0.5; stroke-width: 0;"/></g></g><g class="errorbars"/><g class="lines"><path class="js-line" d="M0,170.01L17.93,176.56L35.86,178.48L53.79,177.49L71.72,174.6L89.65,170.51L107.58,168.8L143.44,170.48L161.37,174.4L179.3,175.69L197.24,174.27L233.1,166.75L251.03,162L304.82,146.02L322.75,140.14L358.61,127.32" style="vector-effect: none; fill: none; stroke: rgb(91, 37, 73); strokeOpacity: 1; stroke-width: 2px; opacity: 1;"/></g><g class="points"/><g class="text"/></g><g class="trace scatter trace38e8f3" style="stroke-miterlimit: 2;"><g class="fills"><g><path class="js-fill" d="M0,170.01L17.93,176.56L35.86,178.48L53.79,177.49L71.72,174.6L89.65,170.51L107.58,168.8L143.44,170.48L161.37,174.4L179.3,175.69L197.24,174.27L233.1,166.75L251.03,162L304.82,146.02L322.75,140.14L358.61,127.32L358.61,127.32L322.75,140.14L304.82,146.02L251.03,162L233.1,166.75L197.24,174.27L179.3,175.69L161.37,174.4L143.44,170.48L107.58,168.8L89.65,170.51L71.72,174.6L53.79,177.49L35.86,178.48L17.93,176.56L0,170.01Z" style="fill: rgb(91, 37, 73); fill-opacity: 0.5; stroke-width: 0;"/></g></g><g class="errorbars"/><g class="lines"><path class="js-line" d="M0,170.01L17.93,176.56L35.86,178.48L53.79,177.49L71.72,174.6L89.65,170.51L107.58,168.8L143.44,170.48L161.37,174.4L179.3,175.69L197.24,174.27L233.1,166.75L251.03,162L304.82,146.02L322.75,140.14L358.61,127.32" style="vector-effect: none; fill: none; stroke: rgb(91, 37, 73); strokeOpacity: 1; stroke-width: 2px; opacity: 1;"/></g><g class="points"/><g class="text"/></g><g class="trace scatter trace198a50" style="stroke-miterlimit: 2;"><g class="fills"><g><path class="js-fill" d="M0,170.01L17.93,176.56L35.86,178.48L53.79,177.49L71.72,174.6L89.65,170.51L107.58,168.8L143.44,170.48L161.37,174.4L179.3,175.69L197.24,174.27L233.1,166.75L251.03,162L304.82,146.02L322.75,140.14L358.61,127.32L358.61,127.32L322.75,140.14L304.82,146.02L251.03,162L233.1,166.75L197.24,174.27L179.3,175.69L161.37,174.4L143.44,170.48L107.58,168.8L89.65,170.51L71.72,174.6L53.79,177.49L35.86,178.48L17.93,176.56L0,170.01Z" style="fill: rgb(91, 37, 73); fill-opacity: 0.5; stroke-width: 0;"/></g></g><g class="errorbars"/><g class="lines"><path class="js-line" d="M0,170.01L17.93,176.56L35.86,178.48L53.79,177.49L71.72,174.6L89.65,170.51L107.58,168.8L143.44,170.48L161.37,174.4L179.3,175.69L197.24,174.27L233.1,166.75L251.03,162L304.82,146.02L322.75,140.14L358.61,127.32" style="vector-effect: none; fill: none; stroke: rgb(91, 37, 73); strokeOpacity: 1; stroke-width: 2px; opacity: 1;"/></g><g class="points"/><g class="text"/></g><g class="trace scatter traced5fc1b" style="stroke-miterlimit: 2;"><g class="fills"><g><path class="js-fill" d="M0,170.01L17.93,176.56L35.86,178.48L53.79,177.49L71.72,174.6L89.65,170.51L107.58,165.56L143.44,160.04L161.37,162.05L179.3,162.82L197.24,162.22L215.17,160.32L233.1,159.64L251.03,157.94L268.96,155.17L286.89,151.21L304.82,146.02L340.68,133.92L358.61,127.32L358.61,127.32L322.75,140.14L304.82,146.02L251.03,162L233.1,166.75L197.24,174.27L179.3,175.69L161.37,174.4L143.44,170.48L107.58,168.8L89.65,170.51L71.72,174.6L53.79,177.49L35.86,178.48L17.93,176.56L0,170.01Z" style="fill: rgb(91, 37, 73); fill-opacity: 0.5; stroke-width: 0;"/></g></g><g class="errorbars"/><g class="lines"><path class="js-line" d="M0,170.01L17.93,176.56L35.86,178.48L53.79,177.49L71.72,174.6L89.65,170.51L107.58,168.8L143.44,170.48L161.37,174.4L179.3,175.69L197.24,174.27L233.1,166.75L251.03,162L304.82,146.02L322.75,140.14L358.61,127.32" style="vector-effect: none; fill: none; stroke: rgb(91, 37, 73); strokeOpacity: 1; stroke-width: 2px; opacity: 1;"/></g><g class="points"/><g class="text"/></g><g class="trace scatter trace4b49f2" style="stroke-miterlimit: 2;"><g class="fills"><g><path class="js-fill" d="M0,170.01L17.93,176.56L35.86,178.48L53.79,177.49L71.72,174.6L89.65,170.51L107.58,165.56L143.44,154.53L161.37,153.53L215.17,150.5L233.1,151.49L251.03,152.15L268.96,151.87L286.89,149.86L304.82,145.72L340.68,133.92L358.61,127.32L358.61,127.32L340.68,133.92L304.82,146.02L286.89,151.21L268.96,155.17L251.03,157.94L233.1,159.64L215.17,160.32L197.24,162.22L179.3,162.82L161.37,162.05L143.44,160.04L107.58,165.56L89.65,170.51L71.72,174.6L53.79,177.49L35.86,178.48L17.93,176.56L0,170.01Z" style="fill: rgb(91, 37, 73); fill-opacity: 0.5; stroke-width: 0;"/></g></g><g class="errorbars"/><g class="lines"><path class="js-line" d="M0,170.01L17.93,176.56L35.86,178.48L53.79,177.49L71.72,174.6L89.65,170.51L107.58,165.56L143.44,160.04L161.37,162.05L179.3,162.82L197.24,162.22L215.17,160.32L233.1,159.64L251.03,157.94L268.96,155.17L286.89,151.21L304.82,146.02L340.68,133.92L358.61,127.32" style="vector-effect: none; fill: none; stroke: rgb(91, 37, 73); strokeOpacity: 1; stroke-width: 2px; opacity: 1;"/></g><g class="points"/><g class="text"/></g><g class="trace scatter tracea26b07" style="stroke-miterlimit: 2;"><g class="fills"><g><path class="js-fill" d="M0,170.01L17.93,176.56L35.86,178.48L53.79,177.49L71.72,174.6L89.65,170.51L107.58,165.56L125.51,160.1L143.44,152.41L179.3,145.91L197.24,143.65L215.17,142.08L233.1,143.61L268.96,147.22L286.89,147.21L304.82,144.63L322.75,139.9L358.61,127.32L358.61,127.32L340.68,133.92L304.82,145.72L286.89,149.86L268.96,151.87L251.03,152.15L233.1,151.49L215.17,150.5L161.37,153.53L143.44,154.53L107.58,165.56L89.65,170.51L71.72,174.6L53.79,177.49L35.86,178.48L17.93,176.56L0,170.01Z" style="fill: rgb(91, 37, 73); fill-opacity: 0.5; stroke-width: 0;"/></g></g><g class="errorbars"/><g class="lines"><path class="js-line" d="M0,170.01L17.93,176.56L35.86,178.48L53.79,177.49L71.72,174.6L89.65,170.51L107.58,165.56L143.44,154.53L161.37,153.53L215.17,150.5L233.1,151.49L251.03,152.15L268.96,151.87L286.89,149.86L304.82,145.72L340.68,133.92L358.61,127.32" style="vector-effect: none; fill: none; stroke: rgb(91, 37, 73); strokeOpacity: 1; stroke-width: 2px; opacity: 1;"/></g><g class="points"/><g class="text"/></g><g class="trace scatter tracee75c29" style="stroke-miterlimit: 2;"><g class="fills"><g><path class="js-fill" d="M0,170.01L17.93,176.56L35.86,178.48L53.79,177.49L71.72,174.6L89.65,170.51L107.58,165.56L125.51,160.1L143.44,152.41L179.3,145.5L197.24,143L215.17,141.31L233.1,142.81L268.96,146.6L286.89,146.77L304.82,144.38L322.75,139.79L358.61,127.32L358.61,127.32L322.75,139.9L304.82,144.63L286.89,147.21L268.96,147.22L233.1,143.61L215.17,142.08L197.24,143.65L179.3,145.91L143.44,152.41L125.51,160.1L107.58,165.56L89.65,170.51L71.72,174.6L53.79,177.49L35.86,178.48L17.93,176.56L0,170.01Z" style="fill: rgb(91, 37, 73); fill-opacity: 0.5; stroke-width: 0;"/></g></g><g class="errorbars"/><g class="lines"><path class="js-line" d="M0,170.01L17.93,176.56L35.86,178.48L53.79,177.49L71.72,174.6L89.65,170.51L107.58,165.56L125.51,160.1L143.44,152.41L179.3,145.91L197.24,143.65L215.17,142.08L233.1,143.61L268.96,147.22L286.89,147.21L304.82,144.63L322.75,139.9L358.61,127.32" style="vector-effect: none; fill: none; stroke: rgb(91, 37, 73); strokeOpacity: 1; stroke-width: 2px; opacity: 1;"/></g><g class="points"/><g class="text"/></g><g class="trace scatter trace342127" style="stroke-miterlimit: 2;"><g class="fills"><g><path class="js-fill" d="M0,170.01L17.93,176.56L35.86,178.48L53.79,177.49L71.72,174.6L89.65,170.51L107.58,165.56L125.51,160.1L143.44,152.41L161.37,148.91L179.3,143.36L215.17,134.42L233.1,134.65L286.89,140.17L304.82,139.69L322.75,137.12L340.68,132.8L358.61,127.08L358.61,127.32L322.75,139.79L304.82,144.38L286.89,146.77L268.96,146.6L233.1,142.81L215.17,141.31L197.24,143L179.3,145.5L143.44,152.41L125.51,160.1L107.58,165.56L89.65,170.51L71.72,174.6L53.79,177.49L35.86,178.48L17.93,176.56L0,170.01Z" style="fill: rgb(91, 37, 73); fill-opacity: 0.5; stroke-width: 0;"/></g></g><g class="errorbars"/><g class="lines"><path class="js-line" d="M0,170.01L17.93,176.56L35.86,178.48L53.79,177.49L71.72,174.6L89.65,170.51L107.58,165.56L125.51,160.1L143.44,152.41L179.3,145.5L197.24,143L215.17,141.31L233.1,142.81L268.96,146.6L286.89,146.77L304.82,144.38L322.75,139.79L358.61,127.32" style="vector-effect: none; fill: none; stroke: rgb(91, 37, 73); strokeOpacity: 1; stroke-width: 2px; opacity: 1;"/></g><g class="points"/><g class="text"/></g><g class="trace scatter trace819875" style="stroke-miterlimit: 2;"><g class="fills"><g><path class="js-fill" d="M0,170.01L17.93,176.56L35.86,178.48L53.79,177.49L71.72,174.6L89.65,170.51L107.58,165.56L125.51,160.1L143.44,152.41L161.37,148.91L179.3,143.36L215.17,131.46L233.1,130.08L251.03,130.96L268.96,133.02L286.89,134.9L304.82,135.32L322.75,134.01L340.68,131.02L358.61,126.35L358.61,127.08L340.68,132.8L322.75,137.12L304.82,139.69L286.89,140.17L233.1,134.65L215.17,134.42L179.3,143.36L161.37,148.91L143.44,152.41L125.51,160.1L107.58,165.56L89.65,170.51L71.72,174.6L53.79,177.49L35.86,178.48L17.93,176.56L0,170.01Z" style="fill: rgb(91, 37, 73); fill-opacity: 0.5; stroke-width: 0;"/></g></g><g class="errorbars"/><g class="lines"><path class="js-line" d="M0,170.01L17.93,176.56L35.86,178.48L53.79,177.49L71.72,174.6L89.65,170.51L107.58,165.56L125.51,160.1L143.44,152.41L161.37,148.91L179.3,143.36L215.17,134.42L233.1,134.65L286.89,140.17L304.82,139.69L322.75,137.12L340.68,132.8L358.61,127.08" style="vector-effect: none; fill: none; stroke: rgb(91, 37, 73); strokeOpacity: 1; stroke-width: 2px; opacity: 1;"/></g><g class="points"/><g class="text"/></g><g class="trace scatter traceed5c45" style="stroke-miterlimit: 2;"><g class="fills"><g><path class="js-fill" d="M0,170.01L17.93,176.56L35.86,178.48L53.79,177.49L71.72,174.6L89.65,170.51L107.58,165.56L125.51,160.1L143.44,152.41L161.37,148.91L179.3,143.36L197.24,137.12L215.17,129.86L233.1,126.74L251.03,125.79L304.82,129.35L322.75,129.06L340.68,127.5L358.61,124.34L358.61,126.35L340.68,131.02L322.75,134.01L304.82,135.32L286.89,134.9L268.96,133.02L251.03,130.96L233.1,130.08L215.17,131.46L179.3,143.36L161.37,148.91L143.44,152.41L125.51,160.1L107.58,165.56L89.65,170.51L71.72,174.6L53.79,177.49L35.86,178.48L17.93,176.56L0,170.01Z" style="fill: rgb(91, 37, 73); fill-opacity: 0.5; stroke-width: 0;"/></g></g><g class="errorbars"/><g class="lines"><path class="js-line" d="M0,170.01L17.93,176.56L35.86,178.48L53.79,177.49L71.72,174.6L89.65,170.51L107.58,165.56L125.51,160.1L143.44,152.41L161.37,148.91L179.3,143.36L215.17,131.46L233.1,130.08L251.03,130.96L268.96,133.02L286.89,134.9L304.82,135.32L322.75,134.01L340.68,131.02L358.61,126.35" style="vector-effect: none; fill: none; stroke: rgb(91, 37, 73); strokeOpacity: 1; stroke-width: 2px; opacity: 1;"/></g><g class="points"/><g class="text"/></g><g class="trace scatter tracee5e6bc" style="stroke-miterlimit: 2;"><g class="fills"><g><path class="js-fill" d="M0,170.01L17.93,176.56L35.86,178.48L53.79,177.49L71.72,174.6L89.65,170.51L107.58,165.56L125.51,160.1L143.44,152.41L161.37,148.91L179.3,143.36L197.24,137.12L215.17,129.86L233.1,124.46L251.03,121.03L268.96,119.56L286.89,119.83L322.75,120.58L340.68,120.47L358.61,119.35L358.61,124.34L340.68,127.5L322.75,129.06L304.82,129.35L251.03,125.79L233.1,126.74L215.17,129.86L197.24,137.12L179.3,143.36L161.37,148.91L143.44,152.41L125.51,160.1L107.58,165.56L89.65,170.51L71.72,174.6L53.79,177.49L35.86,178.48L17.93,176.56L0,170.01Z" style="fill: rgb(91, 37, 73); fill-opacity: 0.5; stroke-width: 0;"/></g></g><g class="errorbars"/><g class="lines"><path class="js-line" d="M0,170.01L17.93,176.56L35.86,178.48L53.79,177.49L71.72,174.6L89.65,170.51L107.58,165.56L125.51,160.1L143.44,152.41L161.37,148.91L179.3,143.36L197.24,137.12L215.17,129.86L233.1,126.74L251.03,125.79L304.82,129.35L322.75,129.06L340.68,127.5L358.61,124.34" style="vector-effect: none; fill: none; stroke: rgb(91, 37, 73); strokeOpacity: 1; stroke-width: 2px; opacity: 1;"/></g><g class="points"/><g class="text"/></g><g class="trace scatter trace6dd785" style="stroke-miterlimit: 2;"><g class="fills"><g><path class="js-fill" d="M0,170.01L17.93,176.56L35.86,178.48L53.79,177.49L71.72,174.6L89.65,170.51L107.58,165.56L125.51,160.1L143.44,152.41L161.37,148.91L179.3,143.36L197.24,137.12L215.17,129.86L233.1,124.46L251.03,117.16L268.96,111.47L286.89,107.35L304.82,105.53L322.75,105.2L358.61,107.39L358.61,119.35L340.68,120.47L322.75,120.58L286.89,119.83L268.96,119.56L251.03,121.03L233.1,124.46L215.17,129.86L197.24,137.12L179.3,143.36L161.37,148.91L143.44,152.41L125.51,160.1L107.58,165.56L89.65,170.51L71.72,174.6L53.79,177.49L35.86,178.48L17.93,176.56L0,170.01Z" style="fill: rgb(91, 37, 73); fill-opacity: 0.5; stroke-width: 0;"/></g></g><g class="errorbars"/><g class="lines"><path class="js-line" d="M0,170.01L17.93,176.56L35.86,178.48L53.79,177.49L71.72,174.6L89.65,170.51L107.58,165.56L125.51,160.1L143.44,152.41L161.37,148.91L179.3,143.36L197.24,137.12L215.17,129.86L233.1,124.46L251.03,121.03L268.96,119.56L286.89,119.83L322.75,120.58L340.68,120.47L358.61,119.35" style="vector-effect: none; fill: none; stroke: rgb(91, 37, 73); strokeOpacity: 1; stroke-width: 2px; opacity: 1;"/></g><g class="points"/><g class="text"/></g><g class="trace scatter tracebca6b0" style="stroke-miterlimit: 2;"><g class="fills"><g><path class="js-fill" d="M0,170.01L17.93,176.56L35.86,178.48L53.79,177.49L71.72,174.6L89.65,170.51L107.58,165.56L125.51,160.1L143.44,152.41L161.37,148.91L179.3,143.36L197.24,137.12L215.17,129.86L233.1,124.46L251.03,117.16L268.96,109.21L286.89,102.62L304.82,98.22L322.75,96.55L340.68,97.06L358.61,98.96L358.61,107.39L322.75,105.2L304.82,105.53L286.89,107.35L268.96,111.47L251.03,117.16L233.1,124.46L215.17,129.86L197.24,137.12L179.3,143.36L161.37,148.91L143.44,152.41L125.51,160.1L107.58,165.56L89.65,170.51L71.72,174.6L53.79,177.49L35.86,178.48L17.93,176.56L0,170.01Z" style="fill: rgb(91, 37, 73); fill-opacity: 0.5; stroke-width: 0;"/></g></g><g class="errorbars"/><g class="lines"><path class="js-line" d="M0,170.01L17.93,176.56L35.86,178.48L53.79,177.49L71.72,174.6L89.65,170.51L107.58,165.56L125.51,160.1L143.44,152.41L161.37,148.91L179.3,143.36L197.24,137.12L215.17,129.86L233.1,124.46L251.03,117.16L268.96,111.47L286.89,107.35L304.82,105.53L322.75,105.2L358.61,107.39" style="vector-effect: none; fill: none; stroke: rgb(91, 37, 73); strokeOpacity: 1; stroke-width: 2px; opacity: 1;"/></g><g class="points"/><g class="text"/></g><g class="trace scatter trace2cb0c0" style="stroke-miterlimit: 2;"><g class="fills"><g><path class="js-fill" d="M0,170.01L17.93,176.56L35.86,178.48L53.79,177.49L71.72,174.6L89.65,170.51L107.58,165.56L125.51,160.1L143.44,152.41L161.37,148.91L179.3,143.36L197.24,137.12L215.17,129.86L233.1,124.46L251.03,117.16L286.89,101.15L304.82,95.16L322.75,91.82L340.68,91.46L358.61,93.13L358.61,98.96L340.68,97.06L322.75,96.55L304.82,98.22L286.89,102.62L268.96,109.21L251.03,117.16L233.1,124.46L215.17,129.86L197.24,137.12L179.3,143.36L161.37,148.91L143.44,152.41L125.51,160.1L107.58,165.56L89.65,170.51L71.72,174.6L53.79,177.49L35.86,178.48L17.93,176.56L0,170.01Z" style="fill: rgb(91, 37, 73); fill-opacity: 0.5; stroke-width: 0;"/></g></g><g class="errorbars"/><g class="lines"><path class="js-line" d="M0,170.01L17.93,176.56L35.86,178.48L53.79,177.49L71.72,174.6L89.65,170.51L107.58,165.56L125.51,160.1L143.44,152.41L161.37,148.91L179.3,143.36L197.24,137.12L215.17,129.86L233.1,124.46L251.03,117.16L268.96,109.21L286.89,102.62L304.82,98.22L322.75,96.55L340.68,97.06L358.61,98.96" style="vector-effect: none; fill: none; stroke: rgb(91, 37, 73); strokeOpacity: 1; stroke-width: 2px; opacity: 1;"/></g><g class="points"/><g class="text"/></g><g class="trace scatter tracec29ce2" style="stroke-miterlimit: 2;"><g class="fills"><g><path class="js-fill" d="M0,170.01L17.93,176.56L35.86,178.48L53.79,177.49L71.72,174.6L89.65,170.51L107.58,165.56L125.51,160.1L143.44,152.41L161.37,148.91L179.3,143.36L197.24,137.12L215.17,129.86L233.1,124.46L251.03,117.16L304.82,92.63L322.75,86.54L340.68,83.31L358.61,83.47L358.61,93.13L340.68,91.46L322.75,91.82L304.82,95.16L286.89,101.15L251.03,117.16L233.1,124.46L215.17,129.86L197.24,137.12L179.3,143.36L161.37,148.91L143.44,152.41L125.51,160.1L107.58,165.56L89.65,170.51L71.72,174.6L53.79,177.49L35.86,178.48L17.93,176.56L0,170.01Z" style="fill: rgb(91, 37, 73); fill-opacity: 0.5; stroke-width: 0;"/></g></g><g class="errorbars"/><g class="lines"><path class="js-line" d="M0,170.01L17.93,176.56L35.86,178.48L53.79,177.49L71.72,174.6L89.65,170.51L107.58,165.56L125.51,160.1L143.44,152.41L161.37,148.91L179.3,143.36L197.24,137.12L215.17,129.86L233.1,124.46L251.03,117.16L286.89,101.15L304.82,95.16L322.75,91.82L340.68,91.46L358.61,93.13" style="vector-effect: none; fill: none; stroke: rgb(91, 37, 73); strokeOpacity: 1; stroke-width: 2px; opacity: 1;"/></g><g class="points"/><g class="text"/></g><g class="trace scatter trace776c0f" style="stroke-miterlimit: 2;"><g class="fills"><g><path class="js-fill" d="M0,170.01L17.93,176.56L35.86,178.48L53.79,177.49L71.72,174.6L89.65,170.51L107.58,165.56L125.51,160.1L143.44,152.41L161.37,148.91L179.3,143.36L197.24,137.12L215.17,129.86L233.1,124.46L251.03,117.16L304.82,92.63L322.75,83.6L340.68,77.18L358.61,74.02L358.61,83.47L340.68,83.31L322.75,86.54L304.82,92.63L251.03,117.16L233.1,124.46L215.17,129.86L197.24,137.12L179.3,143.36L161.37,148.91L143.44,152.41L125.51,160.1L107.58,165.56L89.65,170.51L71.72,174.6L53.79,177.49L35.86,178.48L17.93,176.56L0,170.01Z" style="fill: rgb(91, 37, 73); fill-opacity: 0.5; stroke-width: 0;"/></g></g><g class="errorbars"/><g class="lines"><path class="js-line" d="M0,170.01L17.93,176.56L35.86,178.48L53.79,177.49L71.72,174.6L89.65,170.51L107.58,165.56L125.51,160.1L143.44,152.41L161.37,148.91L179.3,143.36L197.24,137.12L215.17,129.86L233.1,124.46L251.03,117.16L304.82,92.63L322.75,86.54L340.68,83.31L358.61,83.47" style="vector-effect: none; fill: none; stroke: rgb(91, 37, 73); strokeOpacity: 1; stroke-width: 2px; opacity: 1;"/></g><g class="points"/><g class="text"/></g><g class="trace scatter tracea896b9" style="stroke-miterlimit: 2;"><g class="fills"><g><path class="js-fill" d="M0,170.01L17.93,176.56L35.86,178.48L53.79,177.49L71.72,174.6L89.65,170.51L107.58,165.56L125.51,160.1L143.44,152.41L161.37,148.91L179.3,143.36L197.24,137.12L215.17,129.86L233.1,124.46L251.03,117.16L304.82,92.63L322.75,83.6L340.68,74.05L358.61,67.49L358.61,74.02L340.68,77.18L322.75,83.6L304.82,92.63L251.03,117.16L233.1,124.46L215.17,129.86L197.24,137.12L179.3,143.36L161.37,148.91L143.44,152.41L125.51,160.1L107.58,165.56L89.65,170.51L71.72,174.6L53.79,177.49L35.86,178.48L17.93,176.56L0,170.01Z" style="fill: rgb(91, 37, 73); fill-opacity: 0.5; stroke-width: 0;"/></g></g><g class="errorbars"/><g class="lines"><path class="js-line" d="M0,170.01L17.93,176.56L35.86,178.48L53.79,177.49L71.72,174.6L89.65,170.51L107.58,165.56L125.51,160.1L143.44,152.41L161.37,148.91L179.3,143.36L197.24,137.12L215.17,129.86L233.1,124.46L251.03,117.16L304.82,92.63L322.75,83.6L340.68,77.18L358.61,74.02" style="vector-effect: none; fill: none; stroke: rgb(91, 37, 73); strokeOpacity: 1; stroke-width: 2px; opacity: 1;"/></g><g class="points"/><g class="text"/></g><g class="trace scatter trace609e52" style="stroke-miterlimit: 2;"><g class="fills"><g><path class="js-fill" d="M0,170.01L17.93,176.56L35.86,178.48L53.79,177.49L71.72,174.6L89.65,170.51L107.58,165.56L125.51,160.1L143.44,152.41L161.37,148.91L179.3,143.36L197.24,137.12L215.17,129.86L233.1,124.46L251.03,117.16L304.82,92.63L322.75,83.6L358.61,63.93L358.61,67.49L340.68,74.05L322.75,83.6L304.82,92.63L251.03,117.16L233.1,124.46L215.17,129.86L197.24,137.12L179.3,143.36L161.37,148.91L143.44,152.41L125.51,160.1L107.58,165.56L89.65,170.51L71.72,174.6L53.79,177.49L35.86,178.48L17.93,176.56L0,170.01Z" style="fill: rgb(91, 37, 73); fill-opacity: 0.5; stroke-width: 0;"/></g></g><g class="errorbars"/><g class="lines"><path class="js-line" d="M0,170.01L17.93,176.56L35.86,178.48L53.79,177.49L71.72,174.6L89.65,170.51L107.58,165.56L125.51,160.1L143.44,152.41L161.37,148.91L179.3,143.36L197.24,137.12L215.17,129.86L233.1,124.46L251.03,117.16L304.82,92.63L322.75,83.6L340.68,74.05L358.61,67.49" style="vector-effect: none; fill: none; stroke: rgb(91, 37, 73); strokeOpacity: 1; stroke-width: 2px; opacity: 1;"/></g><g class="points"/><g class="text"/></g><g class="trace scatter trace8346d2" style="stroke-miterlimit: 2;"><g class="fills"><g><path class="js-fill" d="M0,170.01L17.93,176.56L35.86,178.48L53.79,177.49L71.72,174.6L89.65,170.51L107.58,165.56L125.51,160.1L143.44,152.41L161.37,148.91L179.3,143.36L197.24,137.12L215.17,129.86L233.1,124.46L251.03,117.16L304.82,92.63L322.75,83.6L358.61,63.93L358.61,63.93L322.75,83.6L304.82,92.63L251.03,117.16L233.1,124.46L215.17,129.86L197.24,137.12L179.3,143.36L161.37,148.91L143.44,152.41L125.51,160.1L107.58,165.56L89.65,170.51L71.72,174.6L53.79,177.49L35.86,178.48L17.93,176.56L0,170.01Z" style="fill: rgb(91, 37, 73); fill-opacity: 0.5; stroke-width: 0;"/></g></g><g class="errorbars"/><g class="lines"><path class="js-line" d="M0,170.01L17.93,176.56L35.86,178.48L53.79,177.49L71.72,174.6L89.65,170.51L107.58,165.56L125.51,160.1L143.44,152.41L161.37,148.91L179.3,143.36L197.24,137.12L215.17,129.86L233.1,124.46L251.03,117.16L304.82,92.63L322.75,83.6L358.61,63.93" style="vector-effect: none; fill: none; stroke: rgb(91, 37, 73); strokeOpacity: 1; stroke-width: 2px; opacity: 1;"/></g><g class="points"/><g class="text"/></g><g class="trace scatter trace439b94" style="stroke-miterlimit: 2;"><g class="fills"><g><path class="js-fill" d="M0,170.01L17.93,176.56L35.86,178.48L53.79,177.49L71.72,174.6L89.65,170.51L107.58,165.56L125.51,160.1L143.44,152.41L161.37,148.91L179.3,143.36L197.24,137.12L215.17,129.86L233.1,124.46L251.03,117.16L304.82,92.63L322.75,83.6L358.61,63.93L358.61,63.93L322.75,83.6L304.82,92.63L251.03,117.16L233.1,124.46L215.17,129.86L197.24,137.12L179.3,143.36L161.37,148.91L143.44,152.41L125.51,160.1L107.58,165.56L89.65,170.51L71.72,174.6L53.79,177.49L35.86,178.48L17.93,176.56L0,170.01Z" style="fill: rgb(55, 52, 44); fill-opacity: 0.5; stroke-width: 0;"/></g></g><g class="errorbars"/><g class="lines"><path class="js-line" d="M0,170.01L17.93,176.56L35.86,178.48L53.79,177.49L71.72,174.6L89.65,170.51L107.58,165.56L125.51,160.1L143.44,152.41L161.37,148.91L179.3,143.36L197.24,137.12L215.17,129.86L233.1,124.46L251.03,117.16L304.82,92.63L322.75,83.6L358.61,63.93" style="vector-effect: none; fill: none; stroke: rgb(91, 37, 73); strokeOpacity: 1; stroke-width: 2px; opacity: 1;"/></g><g class="points"/><g class="text"/></g><g class="trace scatter trace1d8b30" style="stroke-miterlimit: 2;"><g class="fills"><g><path class="js-fill" d="M0,170.01L17.93,176.56L35.86,178.48L53.79,177.49L71.72,174.6L89.65,170.51L107.58,165.56L125.51,160.1L143.44,152.41L161.37,148.91L179.3,143.36L197.24,137.12L215.17,129.86L233.1,124.46L251.03,117.16L304.82,92.63L322.75,83.6L358.61,63.93L358.61,63.93L322.75,83.6L304.82,92.63L251.03,117.16L233.1,124.46L215.17,129.86L197.24,137.12L179.3,143.36L161.37,148.91L143.44,152.41L125.51,160.1L107.58,165.56L89.65,170.51L71.72,174.6L53.79,177.49L35.86,178.48L17.93,176.56L0,170.01Z" style="fill: rgb(55, 52, 44); fill-opacity: 0.5; stroke-width: 0;"/></g></g><g class="errorbars"/><g class="lines"><path class="js-line" d="M0,170.01L17.93,176.56L35.86,178.48L53.79,177.49L71.72,174.6L89.65,170.51L107.58,165.56L125.51,160.1L143.44,152.41L161.37,148.91L179.3,143.36L197.24,137.12L215.17,129.86L233.1,124.46L251.03,117.16L304.82,92.63L322.75,83.6L358.61,63.93" style="vector-effect: none; fill: none; stroke: rgb(55, 52, 44); strokeOpacity: 1; stroke-width: 2px; opacity: 1;"/></g><g class="points"/><g class="text"/></g><g class="trace scatter traceb61177" style="stroke-miterlimit: 2;"><g class="fills"><g><path class="js-fill" d="M0,170.01L17.93,176.56L35.86,178.48L53.79,177.49L71.72,174.6L89.65,170.51L107.58,165.56L125.51,160.1L143.44,152.41L161.37,148.91L179.3,143.36L197.24,137.12L215.17,129.86L233.1,124.46L251.03,117.16L304.82,92.63L322.75,83.6L358.61,63.93L358.61,63.93L322.75,83.6L304.82,92.63L251.03,117.16L233.1,124.46L215.17,129.86L197.24,137.12L179.3,143.36L161.37,148.91L143.44,152.41L125.51,160.1L107.58,165.56L89.65,170.51L71.72,174.6L53.79,177.49L35.86,178.48L17.93,176.56L0,170.01Z" style="fill: rgb(55, 52, 44); fill-opacity: 0.5; stroke-width: 0;"/></g></g><g class="errorbars"/><g class="lines"><path class="js-line" d="M0,170.01L17.93,176.56L35.86,178.48L53.79,177.49L71.72,174.6L89.65,170.51L107.58,165.56L125.51,160.1L143.44,152.41L161.37,148.91L179.3,143.36L197.24,137.12L215.17,129.86L233.1,124.46L251.03,117.16L304.82,92.63L322.75,83.6L358.61,63.93" style="vector-effect: none; fill: none; stroke: rgb(55, 52, 44); strokeOpacity: 1; stroke-width: 2px; opacity: 1;"/></g><g class="points"/><g class="text"/></g><g class="trace scatter traceb2f7e6" style="stroke-miterlimit: 2;"><g class="fills"><g><path class="js-fill" d="M0,170.01L17.93,176.56L35.86,178.48L53.79,177.49L71.72,174.6L89.65,170.51L107.58,165.56L125.51,160.1L143.44,152.41L161.37,148.91L179.3,143.36L197.24,137.12L215.17,129.86L233.1,124.46L251.03,117.16L304.82,92.63L322.75,83.6L358.61,63.93L358.61,63.93L322.75,83.6L304.82,92.63L251.03,117.16L233.1,124.46L215.17,129.86L197.24,137.12L179.3,143.36L161.37,148.91L143.44,152.41L125.51,160.1L107.58,165.56L89.65,170.51L71.72,174.6L53.79,177.49L35.86,178.48L17.93,176.56L0,170.01Z" style="fill: rgb(55, 52, 44); fill-opacity: 0.5; stroke-width: 0;"/></g></g><g class="errorbars"/><g class="lines"><path class="js-line" d="M0,170.01L17.93,176.56L35.86,178.48L53.79,177.49L71.72,174.6L89.65,170.51L107.58,165.56L125.51,160.1L143.44,152.41L161.37,148.91L179.3,143.36L197.24,137.12L215.17,129.86L233.1,124.46L251.03,117.16L304.82,92.63L322.75,83.6L358.61,63.93" style="vector-effect: none; fill: none; stroke: rgb(55, 52, 44); strokeOpacity: 1; stroke-width: 2px; opacity: 1;"/></g><g class="points"/><g class="text"/></g><g class="trace scatter trace5021b1" style="stroke-miterlimit: 2;"><g class="fills"><g><path class="js-fill" d="M0,170.01L17.93,176.56L35.86,178.48L53.79,177.49L71.72,174.6L89.65,170.51L107.58,165.56L125.51,160.1L143.44,152.41L161.37,148.91L179.3,143.36L197.24,137.12L215.17,129.86L233.1,124.46L251.03,117.16L304.82,92.63L322.75,83.6L358.61,63.93L358.61,63.93L322.75,83.6L304.82,92.63L251.03,117.16L233.1,124.46L215.17,129.86L197.24,137.12L179.3,143.36L161.37,148.91L143.44,152.41L125.51,160.1L107.58,165.56L89.65,170.51L71.72,174.6L53.79,177.49L35.86,178.48L17.93,176.56L0,170.01Z" style="fill: rgb(55, 52, 44); fill-opacity: 0.5; stroke-width: 0;"/></g></g><g class="errorbars"/><g class="lines"><path class="js-line" d="M0,170.01L17.93,176.56L35.86,178.48L53.79,177.49L71.72,174.6L89.65,170.51L107.58,165.56L125.51,160.1L143.44,152.41L161.37,148.91L179.3,143.36L197.24,137.12L215.17,129.86L233.1,124.46L251.03,117.16L304.82,92.63L322.75,83.6L358.61,63.93" style="vector-effect: none; fill: none; stroke: rgb(55, 52, 44); strokeOpacity: 1; stroke-width: 2px; opacity: 1;"/></g><g class="points"/><g class="text"/></g><g class="trace scatter trace1e5358" style="stroke-miterlimit: 2;"><g class="fills"><g><path class="js-fill" d="M0,170.01L17.93,176.56L35.86,178.48L53.79,177.49L71.72,174.6L89.65,170.51L107.58,165.56L125.51,160.1L143.44,152.41L161.37,148.91L179.3,143.36L197.24,137.12L215.17,129.86L233.1,124.46L251.03,117.16L304.82,92.63L322.75,83.6L358.61,63.93L358.61,63.93L322.75,83.6L304.82,92.63L251.03,117.16L233.1,124.46L215.17,129.86L197.24,137.12L179.3,143.36L161.37,148.91L143.44,152.41L125.51,160.1L107.58,165.56L89.65,170.51L71.72,174.6L53.79,177.49L35.86,178.48L17.93,176.56L0,170.01Z" style="fill: rgb(55, 52, 44); fill-opacity: 0.5; stroke-width: 0;"/></g></g><g class="errorbars"/><g class="lines"><path class="js-line" d="M0,170.01L17.93,176.56L35.86,178.48L53.79,177.49L71.72,174.6L89.65,170.51L107.58,165.56L125.51,160.1L143.44,152.41L161.37,148.91L179.3,143.36L197.24,137.12L215.17,129.86L233.1,124.46L251.03,117.16L304.82,92.63L322.75,83.6L358.61,63.93" style="vector-effect: none; fill: none; stroke: rgb(55, 52, 44); strokeOpacity: 1; stroke-width: 2px; opacity: 1;"/></g><g class="points"/><g class="text"/></g><g class="trace scatter traceb9f5c0" style="stroke-miterlimit: 2;"><g class="fills"><g><path class="js-fill" d="M0,170.01L17.93,176.56L35.86,178.48L53.79,177.49L71.72,174.6L89.65,170.51L107.58,165.56L125.51,160.1L143.44,152.41L161.37,148.91L179.3,143.36L197.24,137.12L215.17,129.86L233.1,124.46L251.03,117.16L304.82,92.63L322.75,83.6L358.61,63.93L358.61,63.93L322.75,83.6L304.82,92.63L251.03,117.16L233.1,124.46L215.17,129.86L197.24,137.12L179.3,143.36L161.37,148.91L143.44,152.41L125.51,160.1L107.58,165.56L89.65,170.51L71.72,174.6L53.79,177.49L35.86,178.48L17.93,176.56L0,170.01Z" style="fill: rgb(55, 52, 44); fill-opacity: 0.5; stroke-width: 0;"/></g></g><g class="errorbars"/><g class="lines"><path class="js-line" d="M0,170.01L17.93,176.56L35.86,178.48L53.79,177.49L71.72,174.6L89.65,170.51L107.58,165.56L125.51,160.1L143.44,152.41L161.37,148.91L179.3,143.36L197.24,137.12L215.17,129.86L233.1,124.46L251.03,117.16L304.82,92.63L322.75,83.6L358.61,63.93" style="vector-effect: none; fill: none; stroke: rgb(55, 52, 44); strokeOpacity: 1; stroke-width: 2px; opacity: 1;"/></g><g class="points"/><g class="text"/></g><g class="trace scatter trace16cbf5" style="stroke-miterlimit: 2;"><g class="fills"><g><path class="js-fill" d="M0,170.01L17.93,176.56L35.86,178.48L53.79,177.49L71.72,174.6L89.65,170.51L107.58,165.56L125.51,160.1L143.44,152.41L161.37,148.91L179.3,143.36L197.24,137.12L215.17,129.86L233.1,124.46L251.03,117.16L304.82,92.63L322.75,83.6L358.61,63.93L358.61,63.93L322.75,83.6L304.82,92.63L251.03,117.16L233.1,124.46L215.17,129.86L197.24,137.12L179.3,143.36L161.37,148.91L143.44,152.41L125.51,160.1L107.58,165.56L89.65,170.51L71.72,174.6L53.79,177.49L35.86,178.48L17.93,176.56L0,170.01Z" style="fill: rgb(55, 52, 44); fill-opacity: 0.5; stroke-width: 0;"/></g></g><g class="errorbars"/><g class="lines"><path class="js-line" d="M0,170.01L17.93,176.56L35.86,178.48L53.79,177.49L71.72,174.6L89.65,170.51L107.58,165.56L125.51,160.1L143.44,152.41L161.37,148.91L179.3,143.36L197.24,137.12L215.17,129.86L233.1,124.46L251.03,117.16L304.82,92.63L322.75,83.6L358.61,63.93" style="vector-effect: none; fill: none; stroke: rgb(55, 52, 44); strokeOpacity: 1; stroke-width: 2px; opacity: 1;"/></g><g class="points"/><g class="text"/></g><g class="trace scatter traceb2d884" style="stroke-miterlimit: 2;"><g class="fills"><g><path class="js-fill" d="M0,170.01L17.93,176.56L35.86,178.48L53.79,177.49L71.72,174.6L89.65,170.51L107.58,165.56L125.51,160.1L143.44,152.41L161.37,148.91L179.3,143.36L197.24,137.12L215.17,129.86L233.1,124.46L251.03,117.16L304.82,92.63L322.75,83.6L358.61,63.93L358.61,63.93L322.75,83.6L304.82,92.63L251.03,117.16L233.1,124.46L215.17,129.86L197.24,137.12L179.3,143.36L161.37,148.91L143.44,152.41L125.51,160.1L107.58,165.56L89.65,170.51L71.72,174.6L53.79,177.49L35.86,178.48L17.93,176.56L0,170.01Z" style="fill: rgb(55, 52, 44); fill-opacity: 0.5; stroke-width: 0;"/></g></g><g class="errorbars"/><g class="lines"><path class="js-line" d="M0,170.01L17.93,176.56L35.86,178.48L53.79,177.49L71.72,174.6L89.65,170.51L107.58,165.56L125.51,160.1L143.44,152.41L161.37,148.91L179.3,143.36L197.24,137.12L215.17,129.86L233.1,124.46L251.03,117.16L304.82,92.63L322.75,83.6L358.61,63.93" style="vector-effect: none; fill: none; stroke: rgb(55, 52, 44); strokeOpacity: 1; stroke-width: 2px; opacity: 1;"/></g><g class="points"/><g class="text"/></g><g class="trace scatter tracefead99" style="stroke-miterlimit: 2;"><g class="fills"><g><path class="js-fill" d="M0,170.01L17.93,176.56L35.86,178.48L53.79,177.49L71.72,174.6L89.65,170.51L107.58,165.56L125.51,160.1L143.44,152.41L161.37,148.91L179.3,143.36L197.24,137.12L215.17,129.86L233.1,124.46L251.03,117.16L304.82,92.63L322.75,83.6L358.61,63.93L358.61,63.93L322.75,83.6L304.82,92.63L251.03,117.16L233.1,124.46L215.17,129.86L197.24,137.12L179.3,143.36L161.37,148.91L143.44,152.41L125.51,160.1L107.58,165.56L89.65,170.51L71.72,174.6L53.79,177.49L35.86,178.48L17.93,176.56L0,170.01Z" style="fill: rgb(55, 52, 44); fill-opacity: 0.5; stroke-width: 0;"/></g></g><g class="errorbars"/><g class="lines"><path class="js-line" d="M0,170.01L17.93,176.56L35.86,178.48L53.79,177.49L71.72,174.6L89.65,170.51L107.58,165.56L125.51,160.1L143.44,152.41L161.37,148.91L179.3,143.36L197.24,137.12L215.17,129.86L233.1,124.46L251.03,117.16L304.82,92.63L322.75,83.6L358.61,63.93" style="vector-effect: none; fill: none; stroke: rgb(55, 52, 44); strokeOpacity: 1; stroke-width: 2px; opacity: 1;"/></g><g class="points"/><g class="text"/></g><g class="trace scatter trace81e4aa" style="stroke-miterlimit: 2;"><g class="fills"><g><path class="js-fill" d="M0,170.01L17.93,176.56L35.86,178.48L53.79,177.49L71.72,174.6L89.65,170.51L107.58,165.56L125.51,160.1L143.44,152.41L161.37,148.91L179.3,143.36L197.24,137.12L215.17,129.86L233.1,124.46L251.03,117.16L304.82,92.63L322.75,83.6L358.61,63.93L358.61,63.93L322.75,83.6L304.82,92.63L251.03,117.16L233.1,124.46L215.17,129.86L197.24,137.12L179.3,143.36L161.37,148.91L143.44,152.41L125.51,160.1L107.58,165.56L89.65,170.51L71.72,174.6L53.79,177.49L35.86,178.48L17.93,176.56L0,170.01Z" style="fill: rgb(55, 52, 44); fill-opacity: 0.5; stroke-width: 0;"/></g></g><g class="errorbars"/><g class="lines"><path class="js-line" d="M0,170.01L17.93,176.56L35.86,178.48L53.79,177.49L71.72,174.6L89.65,170.51L107.58,165.56L125.51,160.1L143.44,152.41L161.37,148.91L179.3,143.36L197.24,137.12L215.17,129.86L233.1,124.46L251.03,117.16L304.82,92.63L322.75,83.6L358.61,63.93" style="vector-effect: none; fill: none; stroke: rgb(55, 52, 44); strokeOpacity: 1; stroke-width: 2px; opacity: 1;"/></g><g class="points"/><g class="text"/></g><g class="trace scatter trace3c9a39" style="stroke-miterlimit: 2;"><g class="fills"><g><path class="js-fill" d="M0,170.01L17.93,176.56L35.86,178.48L53.79,177.49L71.72,174.6L89.65,170.51L107.58,165.56L125.51,160.1L143.44,152.41L161.37,148.91L179.3,143.36L197.24,137.12L215.17,129.86L233.1,124.46L251.03,117.16L304.82,92.63L322.75,83.6L358.61,63.93L358.61,63.93L322.75,83.6L304.82,92.63L251.03,117.16L233.1,124.46L215.17,129.86L197.24,137.12L179.3,143.36L161.37,148.91L143.44,152.41L125.51,160.1L107.58,165.56L89.65,170.51L71.72,174.6L53.79,177.49L35.86,178.48L17.93,176.56L0,170.01Z" style="fill: rgb(55, 52, 44); fill-opacity: 0.5; stroke-width: 0;"/></g></g><g class="errorbars"/><g class="lines"><path class="js-line" d="M0,170.01L17.93,176.56L35.86,178.48L53.79,177.49L71.72,174.6L89.65,170.51L107.58,165.56L125.51,160.1L143.44,152.41L161.37,148.91L179.3,143.36L197.24,137.12L215.17,129.86L233.1,124.46L251.03,117.16L304.82,92.63L322.75,83.6L358.61,63.93" style="vector-effect: none; fill: none; stroke: rgb(55, 52, 44); strokeOpacity: 1; stroke-width: 2px; opacity: 1;"/></g><g class="points"/><g class="text"/></g><g class="trace scatter tracef953e4" style="stroke-miterlimit: 2;"><g class="fills"><g><path class="js-fill" d="M0,170.01L35.86,162.23L53.79,157.52L89.65,146.86L107.58,141.02L143.44,129.5L161.37,130.27L197.24,132.63L215.17,129.82L233.1,124.46L251.03,117.16L304.82,92.63L322.75,83.6L358.61,63.93L358.61,63.93L322.75,83.6L304.82,92.63L251.03,117.16L233.1,124.46L215.17,129.86L197.24,137.12L179.3,143.36L161.37,148.91L143.44,152.41L125.51,160.1L107.58,165.56L89.65,170.51L71.72,174.6L53.79,177.49L35.86,178.48L17.93,176.56L0,170.01Z" style="fill: rgb(55, 52, 44); fill-opacity: 0.5; stroke-width: 0;"/></g></g><g class="errorbars"/><g class="lines"><path class="js-line" d="M0,170.01L17.93,176.56L35.86,178.48L53.79,177.49L71.72,174.6L89.65,170.51L107.58,165.56L125.51,160.1L143.44,152.41L161.37,148.91L179.3,143.36L197.24,137.12L215.17,129.86L233.1,124.46L251.03,117.16L304.82,92.63L322.75,83.6L358.61,63.93" style="vector-effect: none; fill: none; stroke: rgb(55, 52, 44); strokeOpacity: 1; stroke-width: 2px; opacity: 1;"/></g><g class="points"/><g class="text"/></g><g class="trace scatter trace9be907" style="stroke-miterlimit: 2;"><g class="fills"><g><path class="js-fill" d="M0,170.01L35.86,162.23L53.79,157.52L89.65,146.86L107.58,141.02L143.44,129.5L161.37,130.27L197.24,132.63L215.17,129.82L233.1,124.46L251.03,117.16L304.82,92.63L322.75,83.6L358.61,63.93L358.61,63.93L322.75,83.6L304.82,92.63L251.03,117.16L233.1,124.46L215.17,129.82L197.24,132.63L161.37,130.27L143.44,129.5L107.58,141.02L89.65,146.86L53.79,157.52L35.86,162.23L0,170.01Z" style="fill: rgb(55, 52, 44); fill-opacity: 0.5; stroke-width: 0;"/></g></g><g class="errorbars"/><g class="lines"><path class="js-line" d="M0,170.01L35.86,162.23L53.79,157.52L89.65,146.86L107.58,141.02L143.44,129.5L161.37,130.27L197.24,132.63L215.17,129.82L233.1,124.46L251.03,117.16L304.82,92.63L322.75,83.6L358.61,63.93" style="vector-effect: none; fill: none; stroke: rgb(55, 52, 44); strokeOpacity: 1; stroke-width: 2px; opacity: 1;"/></g><g class="points"/><g class="text"/></g><g class="trace scatter tracedc8b6e" style="stroke-miterlimit: 2;"><g class="fills"><g><path class="js-fill" d="M0,170.01L35.86,162.23L53.79,157.52L89.65,146.86L107.58,141.02L143.44,129.5L161.37,130.27L197.24,132.63L215.17,129.82L233.1,124.46L251.03,117.16L304.82,92.63L322.75,83.6L358.61,63.93L358.61,63.93L322.75,83.6L304.82,92.63L251.03,117.16L233.1,124.46L215.17,129.82L197.24,132.63L161.37,130.27L143.44,129.5L107.58,141.02L89.65,146.86L53.79,157.52L35.86,162.23L0,170.01Z" style="fill: rgb(55, 52, 44); fill-opacity: 0.5; stroke-width: 0;"/></g></g><g class="errorbars"/><g class="lines"><path class="js-line" d="M0,170.01L35.86,162.23L53.79,157.52L89.65,146.86L107.58,141.02L143.44,129.5L161.37,130.27L197.24,132.63L215.17,129.82L233.1,124.46L251.03,117.16L304.82,92.63L322.75,83.6L358.61,63.93" style="vector-effect: none; fill: none; stroke: rgb(55, 52, 44); strokeOpacity: 1; stroke-width: 2px; opacity: 1;"/></g><g class="points"/><g class="text"/></g><g class="trace scatter trace1648cc" style="stroke-miterlimit: 2;"><g class="fills"><g><path class="js-fill" d="M0,170.01L35.86,162.23L53.79,157.52L89.65,146.86L107.58,141.02L143.44,129.5L161.37,130.27L197.24,132.63L215.17,129.82L233.1,124.46L251.03,117.16L304.82,92.63L322.75,83.6L358.61,63.93L358.61,63.93L322.75,83.6L304.82,92.63L251.03,117.16L233.1,124.46L215.17,129.82L197.24,132.63L161.37,130.27L143.44,129.5L107.58,141.02L89.65,146.86L53.79,157.52L35.86,162.23L0,170.01Z" style="fill: rgb(55, 52, 44); fill-opacity: 0.5; stroke-width: 0;"/></g></g><g class="errorbars"/><g class="lines"><path class="js-line" d="M0,170.01L35.86,162.23L53.79,157.52L89.65,146.86L107.58,141.02L143.44,129.5L161.37,130.27L197.24,132.63L215.17,129.82L233.1,124.46L251.03,117.16L304.82,92.63L322.75,83.6L358.61,63.93" style="vector-effect: none; fill: none; stroke: rgb(55, 52, 44); strokeOpacity: 1; stroke-width: 2px; opacity: 1;"/></g><g class="points"/><g class="text"/></g><g class="trace scatter tracef20574" style="stroke-miterlimit: 2;"><g class="fills"><g><path class="js-fill" d="M0,170.01L35.86,162.23L53.79,157.52L89.65,146.86L107.58,141.02L143.44,129.5L161.37,130.27L197.24,132.63L215.17,129.82L233.1,124.46L251.03,117.16L304.82,92.63L322.75,83.6L358.61,63.93L358.61,63.93L322.75,83.6L304.82,92.63L251.03,117.16L233.1,124.46L215.17,129.82L197.24,132.63L161.37,130.27L143.44,129.5L107.58,141.02L89.65,146.86L53.79,157.52L35.86,162.23L0,170.01Z" style="fill: rgb(55, 52, 44); fill-opacity: 0.5; stroke-width: 0;"/></g></g><g class="errorbars"/><g class="lines"><path class="js-line" d="M0,170.01L35.86,162.23L53.79,157.52L89.65,146.86L107.58,141.02L143.44,129.5L161.37,130.27L197.24,132.63L215.17,129.82L233.1,124.46L251.03,117.16L304.82,92.63L322.75,83.6L358.61,63.93" style="vector-effect: none; fill: none; stroke: rgb(55, 52, 44); strokeOpacity: 1; stroke-width: 2px; opacity: 1;"/></g><g class="points"/><g class="text"/></g><g class="trace scatter trace3a6d9e" style="stroke-miterlimit: 2;"><g class="fills"><g><path class="js-fill" d="M0,170.01L35.86,162.23L53.79,157.52L89.65,146.86L107.58,141.02L143.44,129.5L161.37,130.27L197.24,132.63L215.17,129.82L233.1,124.46L251.03,117.16L304.82,92.63L322.75,83.6L358.61,63.93L358.61,63.93L322.75,83.6L304.82,92.63L251.03,117.16L233.1,124.46L215.17,129.82L197.24,132.63L161.37,130.27L143.44,129.5L107.58,141.02L89.65,146.86L53.79,157.52L35.86,162.23L0,170.01Z" style="fill: rgb(55, 52, 44); fill-opacity: 0.5; stroke-width: 0;"/></g></g><g class="errorbars"/><g class="lines"><path class="js-line" d="M0,170.01L35.86,162.23L53.79,157.52L89.65,146.86L107.58,141.02L143.44,129.5L161.37,130.27L197.24,132.63L215.17,129.82L233.1,124.46L251.03,117.16L304.82,92.63L322.75,83.6L358.61,63.93" style="vector-effect: none; fill: none; stroke: rgb(55, 52, 44); strokeOpacity: 1; stroke-width: 2px; opacity: 1;"/></g><g class="points"/><g class="text"/></g><g class="trace scatter trace0d24f0" style="stroke-miterlimit: 2;"><g class="fills"><g><path class="js-fill" d="M0,170.01L35.86,162.23L53.79,157.52L89.65,146.86L107.58,141.02L143.44,128.53L161.37,129.08L197.24,131.22L215.17,128.36L233.1,122.99L251.03,115.8L304.82,92.36L322.75,83.6L358.61,63.93L358.61,63.93L322.75,83.6L304.82,92.63L251.03,117.16L233.1,124.46L215.17,129.82L197.24,132.63L161.37,130.27L143.44,129.5L107.58,141.02L89.65,146.86L53.79,157.52L35.86,162.23L0,170.01Z" style="fill: rgb(55, 52, 44); fill-opacity: 0.5; stroke-width: 0;"/></g></g><g class="errorbars"/><g class="lines"><path class="js-line" d="M0,170.01L35.86,162.23L53.79,157.52L89.65,146.86L107.58,141.02L143.44,129.5L161.37,130.27L197.24,132.63L215.17,129.82L233.1,124.46L251.03,117.16L304.82,92.63L322.75,83.6L358.61,63.93" style="vector-effect: none; fill: none; stroke: rgb(55, 52, 44); strokeOpacity: 1; stroke-width: 2px; opacity: 1;"/></g><g class="points"/><g class="text"/></g><g class="trace scatter trace8ffdeb" style="stroke-miterlimit: 2;"><g class="fills"><g><path class="js-fill" d="M0,170.01L35.86,162.23L53.79,157.52L89.65,146.86L107.58,141.02L143.44,128.3L161.37,128.72L197.24,130.72L215.17,127.83L233.1,122.44L251.03,115.24L304.82,92.09L322.75,83.5L358.61,63.93L358.61,63.93L322.75,83.6L304.82,92.36L251.03,115.8L233.1,122.99L215.17,128.36L197.24,131.22L161.37,129.08L143.44,128.53L107.58,141.02L89.65,146.86L53.79,157.52L35.86,162.23L0,170.01Z" style="fill: rgb(55, 52, 44); fill-opacity: 0.5; stroke-width: 0;"/></g></g><g class="errorbars"/><g class="lines"><path class="js-line" d="M0,170.01L35.86,162.23L53.79,157.52L89.65,146.86L107.58,141.02L143.44,128.53L161.37,129.08L197.24,131.22L215.17,128.36L233.1,122.99L251.03,115.8L304.82,92.36L322.75,83.6L358.61,63.93" style="vector-effect: none; fill: none; stroke: rgb(55, 52, 44); strokeOpacity: 1; stroke-width: 2px; opacity: 1;"/></g><g class="points"/><g class="text"/></g><g class="trace scatter trace5be771" style="stroke-miterlimit: 2;"><g class="fills"><g><path class="js-fill" d="M0,170.01L35.86,162.23L53.79,157.52L89.65,146.86L107.58,141.02L143.44,128.3L161.37,121.38L179.3,117.92L197.24,116.25L215.17,111.72L233.1,105.31L268.96,89.72L286.89,83.43L304.82,78.59L322.75,74.89L340.68,70.8L358.61,63.91L358.61,63.93L322.75,83.5L304.82,92.09L251.03,115.24L233.1,122.44L215.17,127.83L197.24,130.72L161.37,128.72L143.44,128.3L107.58,141.02L89.65,146.86L53.79,157.52L35.86,162.23L0,170.01Z" style="fill: rgb(55, 52, 44); fill-opacity: 0.5; stroke-width: 0;"/></g></g><g class="errorbars"/><g class="lines"><path class="js-line" d="M0,170.01L35.86,162.23L53.79,157.52L89.65,146.86L107.58,141.02L143.44,128.3L161.37,128.72L197.24,130.72L215.17,127.83L233.1,122.44L251.03,115.24L304.82,92.09L322.75,83.5L358.61,63.93" style="vector-effect: none; fill: none; stroke: rgb(55, 52, 44); strokeOpacity: 1; stroke-width: 2px; opacity: 1;"/></g><g class="points"/><g class="text"/></g><g class="trace scatter trace38a8f2" style="stroke-miterlimit: 2;"><g class="fills"><g><path class="js-fill" d="M0,170.01L35.86,162.23L53.79,157.52L89.65,146.86L107.58,141.02L143.44,128.3L161.37,121.38L179.3,114.04L197.24,110.02L215.17,104.06L233.1,96.78L268.96,80.32L286.89,73.98L304.82,69.81L322.75,67.75L340.68,66.24L358.61,62.18L358.61,63.91L340.68,70.8L322.75,74.89L304.82,78.59L286.89,83.43L268.96,89.72L233.1,105.31L215.17,111.72L197.24,116.25L179.3,117.92L161.37,121.38L143.44,128.3L107.58,141.02L89.65,146.86L53.79,157.52L35.86,162.23L0,170.01Z" style="fill: rgb(55, 52, 44); fill-opacity: 0.5; stroke-width: 0;"/></g></g><g class="errorbars"/><g class="lines"><path class="js-line" d="M0,170.01L35.86,162.23L53.79,157.52L89.65,146.86L107.58,141.02L143.44,128.3L161.37,121.38L179.3,117.92L197.24,116.25L215.17,111.72L233.1,105.31L268.96,89.72L286.89,83.43L304.82,78.59L322.75,74.89L340.68,70.8L358.61,63.91" style="vector-effect: none; fill: none; stroke: rgb(55, 52, 44); strokeOpacity: 1; stroke-width: 2px; opacity: 1;"/></g><g class="points"/><g class="text"/></g><g class="trace scatter trace395670" style="stroke-miterlimit: 2;"><g class="fills"><g><path class="js-fill" d="M0,170.01L35.86,162.23L53.79,157.52L89.65,146.86L107.58,141.02L143.44,128.3L161.37,121.38L197.24,106.27L215.17,98.05L268.96,71.57L286.89,64.9L304.82,60.68L322.75,59.26L340.68,59.34L358.61,57.78L358.61,62.18L340.68,66.24L322.75,67.75L304.82,69.81L286.89,73.98L268.96,80.32L233.1,96.78L215.17,104.06L197.24,110.02L179.3,114.04L161.37,121.38L143.44,128.3L107.58,141.02L89.65,146.86L53.79,157.52L35.86,162.23L0,170.01Z" style="fill: rgb(55, 52, 44); fill-opacity: 0.5; stroke-width: 0;"/></g></g><g class="errorbars"/><g class="lines"><path class="js-line" d="M0,170.01L35.86,162.23L53.79,157.52L89.65,146.86L107.58,141.02L143.44,128.3L161.37,121.38L179.3,114.04L197.24,110.02L215.17,104.06L233.1,96.78L268.96,80.32L286.89,73.98L304.82,69.81L322.75,67.75L340.68,66.24L358.61,62.18" style="vector-effect: none; fill: none; stroke: rgb(55, 52, 44); strokeOpacity: 1; stroke-width: 2px; opacity: 1;"/></g><g class="points"/><g class="text"/></g><g class="trace scatter tracebf1a6d" style="stroke-miterlimit: 2;"><g class="fills"><g><path class="js-fill" d="M0,170.01L35.86,162.23L53.79,157.52L89.65,146.86L107.58,141.02L143.44,128.3L161.37,121.38L197.24,106.27L215.17,98.05L268.96,71.57L286.89,64.9L304.82,60.68L322.75,59.26L340.68,59.34L358.61,57.78L358.61,57.78L340.68,59.34L322.75,59.26L304.82,60.68L286.89,64.9L268.96,71.57L215.17,98.05L197.24,106.27L161.37,121.38L143.44,128.3L107.58,141.02L89.65,146.86L53.79,157.52L35.86,162.23L0,170.01Z" style="fill: rgb(55, 52, 44); fill-opacity: 0.5; stroke-width: 0;"/></g></g><g class="errorbars"/><g class="lines"><path class="js-line" d="M0,170.01L35.86,162.23L53.79,157.52L89.65,146.86L107.58,141.02L143.44,128.3L161.37,121.38L197.24,106.27L215.17,98.05L268.96,71.57L286.89,64.9L304.82,60.68L322.75,59.26L340.68,59.34L358.61,57.78" style="vector-effect: none; fill: none; stroke: rgb(55, 52, 44); strokeOpacity: 1; stroke-width: 2px; opacity: 1;"/></g><g class="points"/><g class="text"/></g><g class="trace scatter trace7460ba" style="stroke-miterlimit: 2;"><g class="fills"><g><path class="js-fill" d="M0,170.01L35.86,162.23L53.79,157.52L89.65,146.86L107.58,141.02L143.44,128.3L161.37,121.38L197.24,106.27L215.17,98.05L268.96,71.57L286.89,64.9L304.82,60.68L322.75,59.26L340.68,59.34L358.61,57.78L358.61,57.78L340.68,59.34L322.75,59.26L304.82,60.68L286.89,64.9L268.96,71.57L215.17,98.05L197.24,106.27L161.37,121.38L143.44,128.3L107.58,141.02L89.65,146.86L53.79,157.52L35.86,162.23L0,170.01Z" style="fill: rgb(55, 52, 44); fill-opacity: 0.5; stroke-width: 0;"/></g></g><g class="errorbars"/><g class="lines"><path class="js-line" d="M0,170.01L35.86,162.23L53.79,157.52L89.65,146.86L107.58,141.02L143.44,128.3L161.37,121.38L197.24,106.27L215.17,98.05L268.96,71.57L286.89,64.9L304.82,60.68L322.75,59.26L340.68,59.34L358.61,57.78" style="vector-effect: none; fill: none; stroke: rgb(55, 52, 44); strokeOpacity: 1; stroke-width: 2px; opacity: 1;"/></g><g class="points"/><g class="text"/></g><g class="trace scatter trace6b2867" style="stroke-miterlimit: 2;"><g class="fills"><g><path class="js-fill" d="M0,170.01L35.86,162.23L53.79,157.52L89.65,146.86L107.58,141.02L143.44,128.3L161.37,121.38L197.24,106.27L215.17,98.05L268.96,71.57L286.89,64.9L304.82,60.68L322.75,59.26L340.68,59.34L358.61,57.78L358.61,57.78L340.68,59.34L322.75,59.26L304.82,60.68L286.89,64.9L268.96,71.57L215.17,98.05L197.24,106.27L161.37,121.38L143.44,128.3L107.58,141.02L89.65,146.86L53.79,157.52L35.86,162.23L0,170.01Z" style="fill: rgb(55, 52, 44); fill-opacity: 0.5; stroke-width: 0;"/></g></g><g class="errorbars"/><g class="lines"><path class="js-line" d="M0,170.01L35.86,162.23L53.79,157.52L89.65,146.86L107.58,141.02L143.44,128.3L161.37,121.38L197.24,106.27L215.17,98.05L268.96,71.57L286.89,64.9L304.82,60.68L322.75,59.26L340.68,59.34L358.61,57.78" style="vector-effect: none; fill: none; stroke: rgb(55, 52, 44); strokeOpacity: 1; stroke-width: 2px; opacity: 1;"/></g><g class="points"/><g class="text"/></g><g class="trace scatter trace5c53ba" style="stroke-miterlimit: 2;"><g class="fills"><g><path class="js-fill" d="M0,170.01L35.86,162.23L53.79,157.52L89.65,146.86L107.58,141.02L143.44,128.3L161.37,121.38L197.24,106.27L215.17,98.05L251.03,80.17L268.96,70.41L286.89,63.05L304.82,58.41L322.75,56.73L340.68,56.64L358.61,54.99L358.61,57.78L340.68,59.34L322.75,59.26L304.82,60.68L286.89,64.9L268.96,71.57L215.17,98.05L197.24,106.27L161.37,121.38L143.44,128.3L107.58,141.02L89.65,146.86L53.79,157.52L35.86,162.23L0,170.01Z" style="fill: rgb(55, 52, 44); fill-opacity: 0.5; stroke-width: 0;"/></g></g><g class="errorbars"/><g class="lines"><path class="js-line" d="M0,170.01L35.86,162.23L53.79,157.52L89.65,146.86L107.58,141.02L143.44,128.3L161.37,121.38L197.24,106.27L215.17,98.05L268.96,71.57L286.89,64.9L304.82,60.68L322.75,59.26L340.68,59.34L358.61,57.78" style="vector-effect: none; fill: none; stroke: rgb(55, 52, 44); strokeOpacity: 1; stroke-width: 2px; opacity: 1;"/></g><g class="points"/><g class="text"/></g><g class="trace scatter traceb26528" style="stroke-miterlimit: 2;"><g class="fills"><g><path class="js-fill" d="M0,170.01L35.86,162.23L53.79,157.52L89.65,146.86L107.58,141.02L143.44,128.3L161.37,121.38L197.24,106.27L215.17,98.05L251.03,80.17L268.96,70.41L286.89,60.08L304.82,53.64L322.75,50.87L340.68,50.12L358.61,48.05L358.61,54.99L340.68,56.64L322.75,56.73L304.82,58.41L286.89,63.05L268.96,70.41L251.03,80.17L215.17,98.05L197.24,106.27L161.37,121.38L143.44,128.3L107.58,141.02L89.65,146.86L53.79,157.52L35.86,162.23L0,170.01Z" style="fill: rgb(55, 52, 44); fill-opacity: 0.5; stroke-width: 0;"/></g></g><g class="errorbars"/><g class="lines"><path class="js-line" d="M0,170.01L35.86,162.23L53.79,157.52L89.65,146.86L107.58,141.02L143.44,128.3L161.37,121.38L197.24,106.27L215.17,98.05L251.03,80.17L268.96,70.41L286.89,63.05L304.82,58.41L322.75,56.73L340.68,56.64L358.61,54.99" style="vector-effect: none; fill: none; stroke: rgb(55, 52, 44); strokeOpacity: 1; stroke-width: 2px; opacity: 1;"/></g><g class="points"/><g class="text"/></g><g class="trace scatter trace78b32a" style="stroke-miterlimit: 2;"><g class="fills"><g><path class="js-fill" d="M0,170.01L35.86,162.23L53.79,157.52L89.65,146.86L107.58,141.02L143.44,128.3L161.37,121.38L197.24,106.27L215.17,98.05L251.03,80.17L268.96,70.41L304.82,49.13L322.75,43.64L358.61,38.16L358.61,48.05L340.68,50.12L322.75,50.87L304.82,53.64L286.89,60.08L268.96,70.41L251.03,80.17L215.17,98.05L197.24,106.27L161.37,121.38L143.44,128.3L107.58,141.02L89.65,146.86L53.79,157.52L35.86,162.23L0,170.01Z" style="fill: rgb(55, 52, 44); fill-opacity: 0.5; stroke-width: 0;"/></g></g><g class="errorbars"/><g class="lines"><path class="js-line" d="M0,170.01L35.86,162.23L53.79,157.52L89.65,146.86L107.58,141.02L143.44,128.3L161.37,121.38L197.24,106.27L215.17,98.05L251.03,80.17L268.96,70.41L286.89,60.08L304.82,53.64L322.75,50.87L340.68,50.12L358.61,48.05" style="vector-effect: none; fill: none; stroke: rgb(55, 52, 44); strokeOpacity: 1; stroke-width: 2px; opacity: 1;"/></g><g class="points"/><g class="text"/></g><g class="trace scatter traceb54932" style="stroke-miterlimit: 2;"><g class="fills"><g><path class="js-fill" d="M0,170.01L35.86,162.23L53.79,157.52L89.65,146.86L107.58,141.02L143.44,128.3L161.37,121.38L197.24,106.27L215.17,98.05L251.03,80.17L268.96,70.41L304.82,49.13L322.75,37.55L358.61,26.15L358.61,38.16L322.75,43.64L304.82,49.13L268.96,70.41L251.03,80.17L215.17,98.05L197.24,106.27L161.37,121.38L143.44,128.3L107.58,141.02L89.65,146.86L53.79,157.52L35.86,162.23L0,170.01Z" style="fill: rgb(55, 52, 44); fill-opacity: 0.5; stroke-width: 0;"/></g></g><g class="errorbars"/><g class="lines"><path class="js-line" d="M0,170.01L35.86,162.23L53.79,157.52L89.65,146.86L107.58,141.02L143.44,128.3L161.37,121.38L197.24,106.27L215.17,98.05L251.03,80.17L268.96,70.41L304.82,49.13L322.75,43.64L358.61,38.16" style="vector-effect: none; fill: none; stroke: rgb(55, 52, 44); strokeOpacity: 1; stroke-width: 2px; opacity: 1;"/></g><g class="points"/><g class="text"/></g><g class="trace scatter trace218db7" style="stroke-miterlimit: 2;"><g class="fills"><g><path class="js-fill" d="M0,170.01L35.86,162.23L53.79,157.52L89.65,146.86L107.58,141.02L143.44,128.3L161.37,121.38L197.24,106.27L215.17,98.05L251.03,80.17L268.96,70.41L304.82,49.13L322.75,37.55L340.68,25.29L358.61,16.24L358.61,26.15L322.75,37.55L304.82,49.13L268.96,70.41L251.03,80.17L215.17,98.05L197.24,106.27L161.37,121.38L143.44,128.3L107.58,141.02L89.65,146.86L53.79,157.52L35.86,162.23L0,170.01Z" style="fill: rgb(55, 52, 44); fill-opacity: 0.5; stroke-width: 0;"/></g></g><g class="errorbars"/><g class="lines"><path class="js-line" d="M0,170.01L35.86,162.23L53.79,157.52L89.65,146.86L107.58,141.02L143.44,128.3L161.37,121.38L197.24,106.27L215.17,98.05L251.03,80.17L268.96,70.41L304.82,49.13L322.75,37.55L358.61,26.15" style="vector-effect: none; fill: none; stroke: rgb(55, 52, 44); strokeOpacity: 1; stroke-width: 2px; opacity: 1;"/></g><g class="points"/><g class="text"/></g><g class="trace scatter trace10ffb4" style="stroke-miterlimit: 2;"><g class="fills"><g><path class="js-fill" d="M0,170.01L35.86,162.23L53.79,157.52L89.65,146.86L107.58,141.02L143.44,128.3L161.37,121.38L197.24,106.27L215.17,98.05L251.03,80.17L268.96,70.41L304.82,49.13L322.75,37.55L358.61,12.3L358.61,16.24L340.68,25.29L322.75,37.55L304.82,49.13L268.96,70.41L251.03,80.17L215.17,98.05L197.24,106.27L161.37,121.38L143.44,128.3L107.58,141.02L89.65,146.86L53.79,157.52L35.86,162.23L0,170.01Z" style="fill: rgb(55, 52, 44); fill-opacity: 0.5; stroke-width: 0;"/></g></g><g class="errorbars"/><g class="lines"><path class="js-line" d="M0,170.01L35.86,162.23L53.79,157.52L89.65,146.86L107.58,141.02L143.44,128.3L161.37,121.38L197.24,106.27L215.17,98.05L251.03,80.17L268.96,70.41L304.82,49.13L322.75,37.55L340.68,25.29L358.61,16.24" style="vector-effect: none; fill: none; stroke: rgb(55, 52, 44); strokeOpacity: 1; stroke-width: 2px; opacity: 1;"/></g><g class="points"/><g class="text"/></g><g class="trace scatter trace4cdf51" style="stroke-miterlimit: 2;"><g class="fills"><g><path class="js-fill" d="M0,170.01L35.86,162.23L53.79,157.52L89.65,146.86L107.58,141.02L143.44,128.3L161.37,121.38L197.24,106.27L215.17,98.05L251.03,80.17L268.96,70.41L304.82,49.13L322.75,37.55L358.61,12.3L358.61,12.3L322.75,37.55L304.82,49.13L268.96,70.41L251.03,80.17L215.17,98.05L197.24,106.27L161.37,121.38L143.44,128.3L107.58,141.02L89.65,146.86L53.79,157.52L35.86,162.23L0,170.01Z" style="fill: rgb(55, 52, 44); fill-opacity: 0.5; stroke-width: 0;"/></g></g><g class="errorbars"/><g class="lines"><path class="js-line" d="M0,170.01L35.86,162.23L53.79,157.52L89.65,146.86L107.58,141.02L143.44,128.3L161.37,121.38L197.24,106.27L215.17,98.05L251.03,80.17L268.96,70.41L304.82,49.13L322.75,37.55L358.61,12.3" style="vector-effect: none; fill: none; stroke: rgb(55, 52, 44); strokeOpacity: 1; stroke-width: 2px; opacity: 1;"/></g><g class="points"/><g class="text"/></g><g class="trace scatter traceb36cce" style="stroke-miterlimit: 2;"><g class="fills"/><g class="errorbars"/><g class="lines"><path class="js-line" d="M0,170.01L35.86,162.23L53.79,157.52L89.65,146.86L107.58,141.02L143.44,128.3L161.37,121.38L197.24,106.27L215.17,98.05L251.03,80.17L268.96,70.41L304.82,49.13L322.75,37.55L358.61,12.3" style="vector-effect: none; fill: none; stroke: rgb(55, 52, 44); strokeOpacity: 1; stroke-width: 2px; opacity: 1;"/></g><g class="points"/><g class="text"/></g></g></g><g class="overplot"/><path class="xlines-above crisp" d="M0,0" style="fill: none;"/><path class="ylines-above crisp" d="M0,0" style="fill: none;"/><g class="overlines-above"/><g class="xaxislayer-above"><g class="xtick"><text text-anchor="middle" x="0" y="257" transform="translate(31,0)" style="font-family: verdana; font-size: 10px; fill: rgb(0, 0, 0); fill-opacity: 1; white-space: pre; opacity: 1;">0</text></g><g class="xtick"><text text-anchor="middle" x="0" y="257" style="font-family: verdana; font-size: 10px; fill: rgb(0, 0, 0); fill-opacity: 1; white-space: pre; opacity: 1;" transform="translate(120.65,0)">5</text></g><g class="xtick"><text text-anchor="middle" x="0" y="257" style="font-family: verdana; font-size: 10px; fill: rgb(0, 0, 0); fill-opacity: 1; white-space: pre; opacity: 1;" transform="translate(210.3,0)">10</text></g><g class="xtick"><text text-anchor="middle" x="0" y="257" style="font-family: verdana; font-size: 10px; fill: rgb(0, 0, 0); fill-opacity: 1; white-space: pre; opacity: 1;" transform="translate(299.96,0)">15</text></g><g class="xtick"><text text-anchor="middle" x="0" y="257" style="font-family: verdana; font-size: 10px; fill: rgb(0, 0, 0); fill-opacity: 1; white-space: pre; opacity: 1;" transform="translate(389.61,0)">20</text></g></g><g class="yaxislayer-above"><g class="ytick"><text text-anchor="end" x="30" y="3.5" transform="translate(0,246)" style="font-family: verdana; font-size: 10px; fill: rgb(0, 0, 0); fill-opacity: 1; white-space: pre; opacity: 1;">0%</text></g><g class="ytick"><text text-anchor="end" x="30" y="3.5" style="font-family: verdana; font-size: 10px; fill: rgb(0, 0, 0); fill-opacity: 1; white-space: pre; opacity: 1;" transform="translate(0,208.01)">50%</text></g><g class="ytick"><text text-anchor="end" x="30" y="3.5" style="font-family: verdana; font-size: 10px; fill: rgb(0, 0, 0); fill-opacity: 1; white-space: pre; opacity: 1;" transform="translate(0,170.01)">100%</text></g><g class="ytick"><text text-anchor="end" x="30" y="3.5" style="font-family: verdana; font-size: 10px; fill: rgb(0, 0, 0); fill-opacity: 1; white-space: pre; opacity: 1;" transform="translate(0,132.02)">150%</text></g><g class="ytick"><text text-anchor="end" x="30" y="3.5" style="font-family: verdana; font-size: 10px; fill: rgb(0, 0, 0); fill-opacity: 1; white-space: pre; opacity: 1;" transform="translate(0,94.03)">200%</text></g><g class="ytick"><text text-anchor="end" x="30" y="3.5" style="font-family: verdana; font-size: 10px; fill: rgb(0, 0, 0); fill-opacity: 1; white-space: pre; opacity: 1;" transform="translate(0,56.04)">250%</text></g><g class="ytick"><text text-anchor="end" x="30" y="3.5" style="font-family: verdana; font-size: 10px; fill: rgb(0, 0, 0); fill-opacity: 1; white-space: pre; opacity: 1;" transform="translate(0,18.04)">300%</text></g></g><g class="overaxes-above"/></g><g class="subplot x2y2"><g class="layer-subplot"><g class="shapelayer"/><g class="imagelayer"/></g><g class="minor-gridlayer"><g class="x2"/><g class="y2"/></g><g class="gridlayer"><g class="x2"><path class="x2grid crisp" transform="translate(525.0400000000001,0)" d="M0,0v246" style="stroke: rgb(255, 255, 255); strokeOpacity: 1; stroke-width: 1px;"/><path class="x2grid crisp" transform="translate(614.69,0)" d="M0,0v246" style="stroke: rgb(255, 255, 255); strokeOpacity: 1; stroke-width: 1px;"/><path class="x2grid crisp" transform="translate(704.35,0)" d="M0,0v246" style="stroke: rgb(255, 255, 255); strokeOpacity: 1; stroke-width: 1px;"/></g><g class="y2"><path class="y2grid crisp" transform="translate(0,180.81)" d="M435.39000000000004,0h358.60999999999996" style="stroke: rgb(255, 255, 255); strokeOpacity: 1; stroke-width: 1px;"/><path class="y2grid crisp" transform="translate(0,127.91)" d="M435.39000000000004,0h358.60999999999996" style="stroke: rgb(255, 255, 255); strokeOpacity: 1; stroke-width: 1px;"/><path class="y2grid crisp" transform="translate(0,75.02)" d="M435.39000000000004,0h358.60999999999996" style="stroke: rgb(255, 255, 255); strokeOpacity: 1; stroke-width: 1px;"/><path class="y2grid crisp" transform="translate(0,22.12)" d="M435.39000000000004,0h358.60999999999996" style="stroke: rgb(255, 255, 255); strokeOpacity: 1; stroke-width: 1px;"/></g></g><g class="zerolinelayer"><path class="x2zl zl crisp" transform="translate(435.39000000000004,0)" d="M0,0v246" style="stroke: rgb(255, 255, 255); strokeOpacity: 1; stroke-width: 3px;"/><path class="y2zl zl crisp" transform="translate(0,233.7)" d="M435.39000000000004,0h358.60999999999996" style="stroke: rgb(255, 255, 255); strokeOpacity: 1; stroke-width: 3px;"/></g><g class="layer-between"><g class="shapelayer"/><g class="imagelayer"/></g><path class="xlines-below"/><path class="ylines-below"/><g class="overlines-below"/><g class="xaxislayer-below"/><g class="yaxislayer-below"/><g class="overaxes-below"/><g class="plot" transform="translate(435.39000000000004,0)" clip-path="url(#clipa42af9x2y2plot)"><g class="scatterlayer mlayer"><g class="trace scatter trace2fc526" style="stroke-miterlimit: 2; opacity: 1;"><g class="fills"/><g class="errorbars"/><g class="lines"><path class="js-line" d="M0,12.3L17.93,103.26L35.86,155.07L53.79,184.54L71.72,168.45L89.65,177.95L107.58,180.41L125.51,178.52L143.44,174.24L161.37,177.58L179.3,177.86L197.24,177.54L215.17,176.2L233.1,178.25L251.03,178.05L286.89,177.58L304.82,177.58L358.61,177.58" style="vector-effect: none; fill: none; stroke: rgb(151, 65, 27); strokeOpacity: 1; stroke-width: 2px; opacity: 1;"/></g><g class="points"/><g class="text"/></g><g class="trace scatter tracef2e801" style="stroke-miterlimit: 2; opacity: 1;"><g class="fills"/><g class="errorbars"/><g class="lines"><path class="js-line" d="M0,177.58L358.61,177.58" style="vector-effect: none; fill: none; stroke: rgb(151, 65, 27); strokeOpacity: 1; stroke-dasharray: 3px, 3px; stroke-width: 2px; opacity: 1;"/></g><g class="points"/><g class="text"/></g><g class="trace scatter tracec585b8" style="stroke-miterlimit: 2; opacity: 1;"><g class="fills"/><g class="errorbars"/><g class="lines"><path class="js-line" d="M0,109.43L17.93,68.31L35.86,37.5L53.79,13.49L71.72,38.68L89.65,27.37L107.58,22.39L125.51,22.41L143.44,19.2L161.37,21.21L179.3,21.33L215.17,20.7L233.1,21.48L358.61,21.21" style="vector-effect: none; fill: none; stroke: rgb(235, 154, 211); strokeOpacity: 1; stroke-width: 2px; opacity: 1;"/></g><g class="points"/><g class="text"/></g><g class="trace scatter trace72b231" style="stroke-miterlimit: 2; opacity: 1;"><g class="fills"/><g class="errorbars"/><g class="lines"><path class="js-line" d="M0,21.21L358.61,21.21" style="vector-effect: none; fill: none; stroke: rgb(235, 154, 211); strokeOpacity: 1; stroke-dasharray: 3px, 3px; stroke-width: 2px; opacity: 1;"/></g><g class="points"/><g class="text"/></g><g class="trace scatter trace65d8c3" style="stroke-miterlimit: 2; opacity: 1;"><g class="fills"/><g class="errorbars"/><g class="lines"><path class="js-line" d="M0,50.43L17.93,112.09L35.86,169.7L53.79,221.41L71.72,233.7L358.61,233.7" style="vector-effect: none; fill: none; stroke: rgb(239, 214, 142); strokeOpacity: 1; stroke-width: 2px; opacity: 1;"/></g><g class="points"/><g class="text"/></g><g class="trace scatter trace297341" style="stroke-miterlimit: 2; opacity: 1;"><g class="fills"/><g class="errorbars"/><g class="lines"><path class="js-line" d="M0,233.7L358.61,233.7" style="vector-effect: none; fill: none; stroke: rgb(239, 214, 142); strokeOpacity: 1; stroke-dasharray: 3px, 3px; stroke-width: 2px; opacity: 1;"/></g><g class="points"/><g class="text"/></g><g class="trace scatter tracec21ed6" style="stroke-miterlimit: 2; opacity: 1;"><g class="fills"/><g class="errorbars"/><g class="lines"><path class="js-line" d="M0,233.7L35.86,146.22L53.79,105.82L71.72,90.68L89.65,93.02L107.58,92.99L125.51,91.43L143.44,87.06L161.37,90.23L197.24,90.2L215.17,88.99L233.1,90.86L251.03,90.68L286.89,90.23L304.82,90.23L358.61,90.23" style="vector-effect: none; fill: none; stroke: rgb(91, 37, 73); strokeOpacity: 1; stroke-width: 2px; opacity: 1;"/></g><g class="points"/><g class="text"/></g><g class="trace scatter trace9c3b1f" style="stroke-miterlimit: 2; opacity: 1;"><g class="fills"/><g class="errorbars"/><g class="lines"><path class="js-line" d="M0,90.23L358.61,90.23" style="vector-effect: none; fill: none; stroke: rgb(91, 37, 73); strokeOpacity: 1; stroke-dasharray: 3px, 3px; stroke-width: 2px; opacity: 1;"/></g><g class="points"/><g class="text"/></g><g class="trace scatter trace0eef64" style="stroke-miterlimit: 2; opacity: 1;"><g class="fills"/><g class="errorbars"/><g class="lines"><path class="js-line" d="M0,233.7L17.93,166.34L35.86,131.06L53.79,114.3L71.72,108.05L89.65,107.53L107.58,110.07L125.51,113.51L143.44,125.36L161.37,116.84L179.3,116.18L197.24,116.93L215.17,119.98L233.1,115.27L251.03,115.73L268.96,116.84L286.89,116.84L358.61,116.84" style="vector-effect: none; fill: none; stroke: rgb(55, 52, 44); strokeOpacity: 1; stroke-width: 2px; opacity: 1;"/></g><g class="points"/><g class="text"/></g><g class="trace scatter trace526df5" style="stroke-miterlimit: 2; opacity: 1;"><g class="fills"/><g class="errorbars"/><g class="lines"><path class="js-line" d="M0,116.84L358.61,116.84" style="vector-effect: none; fill: none; stroke: rgb(55, 52, 44); strokeOpacity: 1; stroke-dasharray: 3px, 3px; stroke-width: 2px; opacity: 1;"/></g><g class="points"/><g class="text"/></g></g></g><g class="overplot"/><path class="xlines-above crisp" d="M0,0" style="fill: none;"/><path class="ylines-above crisp" d="M0,0" style="fill: none;"/><g class="overlines-above"/><g class="xaxislayer-above"><g class="x2tick"><text text-anchor="middle" x="0" y="257" transform="translate(435.39000000000004,0)" style="font-family: verdana; font-size: 10px; fill: rgb(0, 0, 0); fill-opacity: 1; white-space: pre; opacity: 1;">0</text></g><g class="x2tick"><text text-anchor="middle" x="0" y="257" style="font-family: verdana; font-size: 10px; fill: rgb(0, 0, 0); fill-opacity: 1; white-space: pre; opacity: 1;" transform="translate(525.0400000000001,0)">5</text></g><g class="x2tick"><text text-anchor="middle" x="0" y="257" style="font-family: verdana; font-size: 10px; fill: rgb(0, 0, 0); fill-opacity: 1; white-space: pre; opacity: 1;" transform="translate(614.69,0)">10</text></g><g class="x2tick"><text text-anchor="middle" x="0" y="257" style="font-family: verdana; font-size: 10px; fill: rgb(0, 0, 0); fill-opacity: 1; white-space: pre; opacity: 1;" transform="translate(704.35,0)">15</text></g><g class="x2tick"><text text-anchor="middle" x="0" y="257" style="font-family: verdana; font-size: 10px; fill: rgb(0, 0, 0); fill-opacity: 1; white-space: pre; opacity: 0;" transform="translate(794,0)">20</text></g></g><g class="yaxislayer-above"><g class="y2tick"><text text-anchor="end" x="434.39000000000004" y="3.5" transform="translate(0,233.7)" style="font-family: verdana; font-size: 10px; fill: rgb(0, 0, 0); fill-opacity: 1; white-space: pre; opacity: 1;">0%</text></g><g class="y2tick"><text text-anchor="end" x="434.39000000000004" y="3.5" style="font-family: verdana; font-size: 10px; fill: rgb(0, 0, 0); fill-opacity: 1; white-space: pre; opacity: 1;" transform="translate(0,180.81)">10%</text></g><g class="y2tick"><text text-anchor="end" x="434.39000000000004" y="3.5" style="font-family: verdana; font-size: 10px; fill: rgb(0, 0, 0); fill-opacity: 1; white-space: pre; opacity: 1;" transform="translate(0,127.91)">20%</text></g><g class="y2tick"><text text-anchor="end" x="434.39000000000004" y="3.5" style="font-family: verdana; font-size: 10px; fill: rgb(0, 0, 0); fill-opacity: 1; white-space: pre; opacity: 1;" transform="translate(0,75.02)">30%</text></g><g class="y2tick"><text text-anchor="end" x="434.39000000000004" y="3.5" style="font-family: verdana; font-size: 10px; fill: rgb(0, 0, 0); fill-opacity: 1; white-space: pre; opacity: 1;" transform="translate(0,22.12)">40%</text></g></g><g class="overaxes-above"/></g></g><g class="polarlayer"/><g class="smithlayer"/><g class="ternarylayer"/><g class="geolayer"/><g class="funnelarealayer"/><g class="pielayer"/><g class="iciclelayer"/><g class="treemaplayer"/><g class="sunburstlayer"/><g class="glimages"/><defs id="topdefs-a42af9"><g class="clips"/><clipPath id="legenda42af9"><rect width="485" height="29" x="0" y="0"/></clipPath></defs><g class="layer-above"><g class="imagelayer"/><g class="shapelayer"/></g><g class="infolayer"><g class="legend" pointer-events="all" transform="translate(170,270.6)"><rect class="bg" shape-rendering="crispEdges" width="485" height="29" x="0" y="0" style="stroke: rgb(68, 68, 68); strokeOpacity: 1; fill: rgb(0, 0, 0); fill-opacity: 0; stroke-width: 0px;"/><g class="scrollbox" transform="" clip-path="url(#legenda42af9)"><g class="groups" transform=""><g class="traces" transform="translate(0,14.5)" style="opacity: 1;"><text class="legendtext" text-anchor="start" x="40" y="3.9" style="font-family: verdana; font-size: 10px; fill: rgb(0, 0, 0); fill-opacity: 1; white-space: pre;">cash</text><g class="layers"><g class="legendfill"><path class="js-fill" d="M5,-2h30v6h-30z" style="stroke-width: 0; fill: rgb(151, 65, 27); fill-opacity: 0.5;"/></g><g class="legendlines"><path class="js-line" d="M5,-2h30" style="fill: none; stroke: rgb(151, 65, 27); strokeOpacity: 1; stroke-width: 2px;"/></g><g class="legendsymbols"><g class="legendpoints"/></g></g><rect class="legendtoggle" x="0" y="-9.5" width="65.265625" height="19" style="fill: rgb(0, 0, 0); fill-opacity: 0;"/></g></g><g class="groups" transform="translate(67.765625,0)"><g class="traces" transform="translate(0,14.5)" style="opacity: 1;"><text class="legendtext" text-anchor="start" x="40" y="3.9" style="font-family: verdana; font-size: 10px; fill: rgb(0, 0, 0); fill-opacity: 1; white-space: pre;">treasuries</text><g class="layers"><g class="legendfill"><path class="js-fill" d="M5,-2h30v6h-30z" style="stroke-width: 0; fill: rgb(235, 154, 211); fill-opacity: 0.5;"/></g><g class="legendlines"><path class="js-line" d="M5,-2h30" style="fill: none; stroke: rgb(235, 154, 211); strokeOpacity: 1; stroke-width: 2px;"/></g><g class="legendsymbols"><g class="legendpoints"/></g></g><rect class="legendtoggle" x="0" y="-9.5" width="92.390625" height="19" style="fill: rgb(0, 0, 0); fill-opacity: 0;"/></g></g><g class="groups" transform="translate(162.65625,0)"><g class="traces" transform="translate(0,14.5)" style="opacity: 1;"><text class="legendtext" text-anchor="start" x="40" y="3.9" style="font-family: verdana; font-size: 10px; fill: rgb(0, 0, 0); fill-opacity: 1; white-space: pre;">public equity</text><g class="layers"><g class="legendfill"><path class="js-fill" d="M5,-2h30v6h-30z" style="stroke-width: 0; fill: rgb(239, 214, 142); fill-opacity: 0.5;"/></g><g class="legendlines"><path class="js-line" d="M5,-2h30" style="fill: none; stroke: rgb(239, 214, 142); strokeOpacity: 1; stroke-width: 2px;"/></g><g class="legendsymbols"><g class="legendpoints"/></g></g><rect class="legendtoggle" x="0" y="-9.5" width="106.625" height="19" style="fill: rgb(0, 0, 0); fill-opacity: 0;"/></g></g><g class="groups" transform="translate(271.78125,0)"><g class="traces" transform="translate(0,14.5)" style="opacity: 1;"><text class="legendtext" text-anchor="start" x="40" y="3.9" style="font-family: verdana; font-size: 10px; fill: rgb(0, 0, 0); fill-opacity: 1; white-space: pre;">private equity</text><g class="layers"><g class="legendfill"><path class="js-fill" d="M5,-2h30v6h-30z" style="stroke-width: 0; fill: rgb(91, 37, 73); fill-opacity: 0.5;"/></g><g class="legendlines"><path class="js-line" d="M5,-2h30" style="fill: none; stroke: rgb(91, 37, 73); strokeOpacity: 1; stroke-width: 2px;"/></g><g class="legendsymbols"><g class="legendpoints"/></g></g><rect class="legendtoggle" x="0" y="-9.5" width="112.203125" height="19" style="fill: rgb(0, 0, 0); fill-opacity: 0;"/></g></g><g class="groups" transform="translate(386.484375,0)"><g class="traces" transform="translate(0,14.5)" style="opacity: 1;"><text class="legendtext" text-anchor="start" x="40" y="3.9" style="font-family: verdana; font-size: 10px; fill: rgb(0, 0, 0); fill-opacity: 1; white-space: pre;">real estate</text><g class="layers"><g class="legendfill"><path class="js-fill" d="M5,-2h30v6h-30z" style="stroke-width: 0; fill: rgb(55, 52, 44); fill-opacity: 0.5;"/></g><g class="legendlines"><path class="js-line" d="M5,-2h30" style="fill: none; stroke: rgb(55, 52, 44); strokeOpacity: 1; stroke-width: 2px;"/></g><g class="legendsymbols"><g class="legendpoints"/></g></g><rect class="legendtoggle" x="0" y="-9.5" width="96.015625" height="19" style="fill: rgb(0, 0, 0); fill-opacity: 0;"/></g></g></g><rect class="scrollbar" rx="20" ry="3" width="0" height="0" x="0" y="0" style="fill: rgb(128, 139, 164); fill-opacity: 1;"/></g><g class="g-gtitle"/><g class="g-xtitle"/><g class="g-x2title"/><g class="g-ytitle"/><g class="g-y2title"/></g></svg>