<svg class="main-svg" xmlns="http://www.w3.org/2000/svg" xmlns:xlink="http://www.w3.org/1999/xlink" width="800" height="300" style="" viewBox="0 0 800 300"><rect x="0" y="0" width="800" height="300" style="fill: rgb(0, 0, 0); fill-opacity: 0;"/><defs id="defs-3af3f8"><g class="clips"><clipPath id="clip3af3f8xyplot" class="plotclip"><rect width="361.9" height="246"/></clipPath><clipPath id="clip3af3f8x2y2plot" class="plotclip"><rect width="361.9" height="246"/></clipPath><clipPath class="axesclip" id="clip3af3f8x"><rect x="24" y="0" width="361.9" height="300"/></clipPath><clipPath class="axesclip" id="clip3af3f8y"><rect x="0" y="0" width="800" height="246"/></clipPath><clipPath class="axesclip" id="clip3af3f8xy"><rect x="24" y="0" width="361.9" height="246"/></clipPath><clipPath class="axesclip" id="clip3af3f8y2"><rect x="0" y="0" width="800" height="246"/></clipPath><clipPath class="axesclip" id="clip3af3f8xy2"><rect x="24" y="0" width="361.9" height="246"/></clipPath><clipPath class="axesclip" id="clip3af3f8x2"><rect x="432.1" y="0" width="361.9" height="300"/></clipPath><clipPath class="axesclip" id="clip3af3f8x2y"><rect x="432.1" y="0" width="361.9" height="246"/></clipPath><clipPath class="axesclip" id="clip3af3f8x2y2"><rect x="432.1" y="0" width="361.9" height="246"/></clipPath></g><g class="gradients"/><g class="patterns"/></defs><g class="bglayer"><rect class="bg" x="24" y="0" width="361.9" height="246" style="fill: rgb(237, 236, 232); fill-opacity: 1; stroke-width: 0;"/><rect class="bg" x="432.1" y="0" width="361.9" height="246" style="fill: rgb(237, 236, 232); fill-opacity: 1; stroke-width: 0;"/></g><g class="layer-below"><g class="imagelayer"/><g class="shapelayer"/></g><g class="cartesianlayer"><g class="subplot xy"><g class="layer-subplot"><g class="shapelayer"/><g class="imagelayer"/></g><g class="minor-gridlayer"><g class="x"/><g class="y"/></g><g class="gridlayer"><g class="x"><path class="xgrid crisp" transform="translate(114.48,0)" d="M0,0v246" style="stroke: rgb(255, 255, 255); strokeOpacity: 1; stroke-width: 1px;"/><path class="xgrid crisp" transform="translate(204.95,0)" d="M0,0v246" style="stroke: rgb(255, 255, 255); strokeOpacity: 1; stroke-width: 1px;"/><path class="xgrid crisp" transform="translate(295.42,0)" d="M0,0v246" style="stroke: rgb(255, 255, 255); strokeOpacity: 1; stroke-width: 1px;"/></g><g class="y"><path class="ygrid crisp" transform="translate(0,199.99)" d="M24,0h361.9" style="stroke: rgb(255, 255, 255); strokeOpacity: 1; stroke-width: 1px;"/><path class="ygrid crisp" transform="translate(0,153.98)" d="M24,0h361.9" style="stroke: rgb(255, 255, 255); strokeOpacity: 1; stroke-width: 1px;"/><path class="ygrid crisp" transform="translate(0,107.97)" d="M24,0h361.9" style="stroke: rgb(255, 255, 255); strokeOpacity: 1; stroke-width: 1px;"/><path class="ygrid crisp" transform="translate(0,61.96)" d="M24,0h361.9" style="stroke: rgb(255, 255, 255); strokeOpacity: 1; stroke-width: 1px;"/><path class="ygrid crisp" transform="translate(0,15.95)" d="M24,0h361.9" style="stroke: rgb(255, 255, 255); strokeOpacity: 1; stroke-width: 1px;"/></g></g><g class="zerolinelayer"><path class="xzl zl crisp" transform="translate(24,0)" d="M0,0v246" style="stroke: rgb(255, 255, 255); strokeOpacity: 1; stroke-width: 3px;"/><path class="yzl zl crisp" transform="translate(0,246)" d="M24,0h361.9" style="stroke: rgb(255, 255, 255); strokeOpacity: 1; stroke-width: 3px;"/></g><g class="layer-between"><g class="shapelayer"/><g class="imagelayer"/></g><path class="xlines-below"/><path class="ylines-below"/><g class="overlines-below"/><g class="xaxislayer-below"/><g class="yaxislayer-below"/><g class="overaxes-below"/><g class="plot" transform="translate(24,0)" clip-path="url(#clip3af3f8xyplot)"><g class="scatterlayer mlayer"><g class="trace scatter tracefd1f1c" style="stroke-miterlimit: 2;"><g class="fills"><g><path class="js-fill" d="M361.9,246L0,246L0,246L361.9,246" style="fill: rgb(91, 37, 73); fill-opacity: 0.5; stroke-width: 0;"/></g><g><path class="js-fill" d="M0,246L361.9,246L361.9,246L0,246Z" style="fill: rgb(91, 37, 73); fill-opacity: 0.5; stroke-width: 0;"/></g></g><g class="errorbars"/><g class="lines"><path class="js-line" d="M0,246L361.9,246" style="vector-effect: none; fill: none; stroke: rgb(91, 37, 73); strokeOpacity: 1; stroke-width: 2px; opacity: 1;"/></g><g class="points"/><g class="text"/></g><g class="trace scatter trace0f62d5" style="stroke-miterlimit: 2;"><g class="fills"><g><path class="js-fill" d="M0,246L361.9,246L361.9,246L0,246Z" style="fill: rgb(91, 37, 73); fill-opacity: 0.5; stroke-width: 0;"/></g></g><g class="errorbars"/><g class="lines"><path class="js-line" d="M0,246L361.9,246" style="vector-effect: none; fill: none; stroke: rgb(91, 37, 73); strokeOpacity: 1; stroke-width: 2px; opacity: 1;"/></g><g class="points"/><g class="text"/></g><g class="trace scatter trace659320" style="stroke-miterlimit: 2;"><g class="fills"><g><path class="js-fill" d="M0,246L361.9,246L361.9,246L0,246Z" style="fill: rgb(91, 37, 73); fill-opacity: 0.5; stroke-width: 0;"/></g></g><g class="errorbars"/><g class="lines"><path class="js-line" d="M0,246L361.9,246" style="vector-effect: none; fill: none; stroke: rgb(91, 37, 73); strokeOpacity: 1; stroke-width: 2px; opacity: 1;"/></g><g class="points"/><g class="text"/></g><g class="trace scatter tracec17998" style="stroke-miterlimit: 2;"><g class="fills"><g><path class="js-fill" d="M0,246L361.9,246L361.9,246L0,246Z" style="fill: rgb(91, 37, 73); fill-opacity: 0.5; stroke-width: 0;"/></g></g><g class="errorbars"/><g class="lines"><path class="js-line" d="M0,246L361.9,246" style="vector-effect: none; fill: none; stroke: rgb(91, 37, 73); strokeOpacity: 1; stroke-width: 2px; opacity: 1;"/></g><g class="points"/><g class="text"/></g><g class="trace scatter trace21ac40" style="stroke-miterlimit: 2;"><g class="fills"><g><path class="js-fill" d="M0,246L361.9,246L361.9,246L0,246Z" style="fill: rgb(91, 37, 73); fill-opacity: 0.5; stroke-width: 0;"/></g></g><g class="errorbars"/><g class="lines"><path class="js-line" d="M0,246L361.9,246" style="vector-effect: none; fill: none; stroke: rgb(91, 37, 73); strokeOpacity: 1; stroke-width: 2px; opacity: 1;"/></g><g class="points"/><g class="text"/></g><g class="trace scatter tracef99f63" style="stroke-miterlimit: 2;"><g class="fills"><g><path class="js-fill" d="M0,246L361.9,246L361.9,246L0,246Z" style="fill: rgb(91, 37, 73); fill-opacity: 0.5; stroke-width: 0;"/></g></g><g class="errorbars"/><g class="lines"><path class="js-line" d="M0,246L361.9,246" style="vector-effect: none; fill: none; stroke: rgb(91, 37, 73); strokeOpacity: 1; stroke-width: 2px; opacity: 1;"/></g><g class="points"/><g class="text"/></g><g class="trace scatter trace2e072a" style="stroke-miterlimit: 2;"><g class="fills"><g><path class="js-fill" d="M0,246L361.9,246L361.9,246L0,246Z" style="fill: rgb(91, 37, 73); fill-opacity: 0.5; stroke-width: 0;"/></g></g><g class="errorbars"/><g class="lines"><path class="js-line" d="M0,246L361.9,246" style="vector-effect: none; fill: none; stroke: rgb(91, 37, 73); strokeOpacity: 1; stroke-width: 2px; opacity: 1;"/></g><g class="points"/><g class="text"/></g><g class="trace scatter tracebc2222" style="stroke-miterlimit: 2;"><g class="fills"><g><path class="js-fill" d="M0,246L361.9,246L361.9,246L0,246Z" style="fill: rgb(91, 37, 73); fill-opacity: 0.5; stroke-width: 0;"/></g></g><g class="errorbars"/><g class="lines"><path class="js-line" d="M0,246L361.9,246" style="vector-effect: none; fill: none; stroke: rgb(91, 37, 73); strokeOpacity: 1; stroke-width: 2px; opacity: 1;"/></g><g class="points"/><g class="text"/></g><g class="trace scatter trace6222ad" style="stroke-miterlimit: 2;"><g class="fills"><g><path class="js-fill" d="M0,246L361.9,246L361.9,246L0,246Z" style="fill: rgb(91, 37, 73); fill-opacity: 0.5; stroke-width: 0;"/></g></g><g class="errorbars"/><g class="lines"><path class="js-line" d="M0,246L361.9,246" style="vector-effect: none; fill: none; stroke: rgb(91, 37, 73); strokeOpacity: 1; stroke-width: 2px; opacity: 1;"/></g><g class="points"/><g class="text"/></g><g class="trace scatter trace83ea0d" style="stroke-miterlimit: 2;"><g class="fills"><g><path class="js-fill" d="M0,246L361.9,246L361.9,246L0,246Z" style="fill: rgb(91, 37, 73); fill-opacity: 0.5; stroke-width: 0;"/></g></g><g class="errorbars"/><g class="lines"><path class="js-line" d="M0,246L361.9,246" style="vector-effect: none; fill: none; stroke: rgb(91, 37, 73); strokeOpacity: 1; stroke-width: 2px; opacity: 1;"/></g><g class="points"/><g class="text"/></g><g class="trace scatter trace55c09e" style="stroke-miterlimit: 2;"><g class="fills"><g><path class="js-fill" d="M0,246L361.9,246L361.9,246L0,246Z" style="fill: rgb(91, 37, 73); fill-opacity: 0.5; stroke-width: 0;"/></g></g><g class="errorbars"/><g class="lines"><path class="js-line" d="M0,246L361.9,246" style="vector-effect: none; fill: none; stroke: rgb(91, 37, 73); strokeOpacity: 1; stroke-width: 2px; opacity: 1;"/></g><g class="points"/><g class="text"/></g><g class="trace scatter tracefdc8d9" style="stroke-miterlimit: 2;"><g class="fills"><g><path class="js-fill" d="M0,246L36.19,169.91L54.29,134.77L72.38,121.59L90.48,123.63L108.57,137.81L126.67,161.17L144.76,189.09L162.85,215.33L180.95,234.16L199.05,243.51L217.14,245.96L235.24,246L361.9,246L361.9,246L0,246Z" style="fill: rgb(91, 37, 73); fill-opacity: 0.5; stroke-width: 0;"/></g></g><g class="errorbars"/><g class="lines"><path class="js-line" d="M0,246L361.9,246" style="vector-effect: none; fill: none; stroke: rgb(91, 37, 73); strokeOpacity: 1; stroke-width: 2px; opacity: 1;"/></g><g class="points"/><g class="text"/></g><g class="trace scatter trace87281f" style="stroke-miterlimit: 2;"><g class="fills"><g><path class="js-fill" d="M0,246L36.19,169.91L54.29,134.77L72.38,121.59L90.48,123.63L108.57,137.81L126.67,161.17L144.76,189.09L162.85,215.33L180.95,234.16L199.05,243.51L217.14,245.96L235.24,246L361.9,246L361.9,246L235.24,246L217.14,245.96L199.05,243.51L180.95,234.16L162.85,215.33L144.76,189.09L126.67,161.17L108.57,137.81L90.48,123.63L72.38,121.59L54.29,134.77L36.19,169.91L0,246Z" style="fill: rgb(91, 37, 73); fill-opacity: 0.5; stroke-width: 0;"/></g></g><g class="errorbars"/><g class="lines"><path class="js-line" d="M0,246L36.19,169.91L54.29,134.77L72.38,121.59L90.48,123.63L108.57,137.81L126.67,161.17L144.76,189.09L162.85,215.33L180.95,234.16L199.05,243.51L217.14,245.96L235.24,246L361.9,246" style="vector-effect: none; fill: none; stroke: rgb(91, 37, 73); strokeOpacity: 1; stroke-width: 2px; opacity: 1;"/></g><g class="points"/><g class="text"/></g><g class="trace scatter trace4fe002" style="stroke-miterlimit: 2;"><g class="fills"><g><path class="js-fill" d="M0,246L36.19,169.91L54.29,134.77L72.38,121.59L90.48,123.63L108.57,137.81L126.67,161.17L144.76,189.09L162.85,215.33L180.95,234.16L199.05,243.51L217.14,245.96L235.24,246L361.9,246L361.9,246L235.24,246L217.14,245.96L199.05,243.51L180.95,234.16L162.85,215.33L144.76,189.09L126.67,161.17L108.57,137.81L90.48,123.63L72.38,121.59L54.29,134.77L36.19,169.91L0,246Z" style="fill: rgb(91, 37, 73); fill-opacity: 0.5; stroke-width: 0;"/></g></g><g class="errorbars"/><g class="lines"><path class="js-line" d="M0,246L36.19,169.91L54.29,134.77L72.38,121.59L90.48,123.63L108.57,137.81L126.67,161.17L144.76,189.09L162.85,215.33L180.95,234.16L199.05,243.51L217.14,245.96L235.24,246L361.9,246" style="vector-effect: none; fill: none; stroke: rgb(91, 37, 73); strokeOpacity: 1; stroke-width: 2px; opacity: 1;"/></g><g class="points"/><g class="text"/></g><g class="trace scatter tracea34c8f" style="stroke-miterlimit: 2;"><g class="fills"><g><path class="js-fill" d="M0,246L36.19,169.91L54.29,134.77L72.38,121.59L90.48,123.63L108.57,137.81L126.67,161.17L144.76,189.09L162.85,215.33L180.95,234.16L199.05,243.51L217.14,245.96L235.24,246L361.9,246L361.9,246L235.24,246L217.14,245.96L199.05,243.51L180.95,234.16L162.85,215.33L144.76,189.09L126.67,161.17L108.57,137.81L90.48,123.63L72.38,121.59L54.29,134.77L36.19,169.91L0,246Z" style="fill: rgb(91, 37, 73); fill-opacity: 0.5; stroke-width: 0;"/></g></g><g class="errorbars"/><g class="lines"><path class="js-line" d="M0,246L36.19,169.91L54.29,134.77L72.38,121.59L90.48,123.63L108.57,137.81L126.67,161.17L144.76,189.09L162.85,215.33L180.95,234.16L199.05,243.51L217.14,245.96L235.24,246L361.9,246" style="vector-effect: none; fill: none; stroke: rgb(91, 37, 73); strokeOpacity: 1; stroke-width: 2px; opacity: 1;"/></g><g class="points"/><g class="text"/></g><g class="trace scatter tracec3fe2c" style="stroke-miterlimit: 2;"><g class="fills"><g><path class="js-fill" d="M0,246L36.19,169.91L54.29,134.77L72.38,121.59L90.48,123.63L108.57,137.81L126.67,161.17L144.76,189.09L162.85,215.33L180.95,234.16L199.05,243.51L217.14,245.96L235.24,246L361.9,246L361.9,246L235.24,246L217.14,245.96L199.05,243.51L180.95,234.16L162.85,215.33L144.76,189.09L126.67,161.17L108.57,137.81L90.48,123.63L72.38,121.59L54.29,134.77L36.19,169.91L0,246Z" style="fill: rgb(91, 37, 73); fill-opacity: 0.5; stroke-width: 0;"/></g></g><g class="errorbars"/><g class="lines"><path class="js-line" d="M0,246L36.19,169.91L54.29,134.77L72.38,121.59L90.48,123.63L108.57,137.81L126.67,161.17L144.76,189.09L162.85,215.33L180.95,234.16L199.05,243.51L217.14,245.96L235.24,246L361.9,246" style="vector-effect: none; fill: none; stroke: rgb(91, 37, 73); strokeOpacity: 1; stroke-width: 2px; opacity: 1;"/></g><g class="points"/><g class="text"/></g><g class="trace scatter tracef9a9f3" style="stroke-miterlimit: 2;"><g class="fills"><g><path class="js-fill" d="M0,246L36.19,169.91L54.29,134.77L72.38,121.59L90.48,123.63L108.57,123.6L126.67,133.18L144.76,148.28L162.85,169.7L180.95,189.29L199.05,203.84L235.24,225.13L253.33,234.75L271.42,241.66L289.52,245.09L307.62,245.99L325.71,246L361.9,246L361.9,246L235.24,246L217.14,245.96L199.05,243.51L180.95,234.16L162.85,215.33L144.76,189.09L126.67,161.17L108.57,137.81L90.48,123.63L72.38,121.59L54.29,134.77L36.19,169.91L0,246Z" style="fill: rgb(91, 37, 73); fill-opacity: 0.5; stroke-width: 0;"/></g></g><g class="errorbars"/><g class="lines"><path class="js-line" d="M0,246L36.19,169.91L54.29,134.77L72.38,121.59L90.48,123.63L108.57,137.81L126.67,161.17L144.76,189.09L162.85,215.33L180.95,234.16L199.05,243.51L217.14,245.96L235.24,246L361.9,246" style="vector-effect: none; fill: none; stroke: rgb(91, 37, 73); strokeOpacity: 1; stroke-width: 2px; opacity: 1;"/></g><g class="points"/><g class="text"/></g><g class="trace scatter trace41f32e" style="stroke-miterlimit: 2;"><g class="fills"><g><path class="js-fill" d="M0,246L36.19,169.91L54.29,134.77L72.38,121.59L90.48,123.63L108.57,123.6L126.67,122.25L144.76,126.73L162.85,138.28L199.05,169.29L217.14,184.31L253.33,218.68L271.42,233L289.52,241.75L307.62,245.28L343.8,246L361.9,246L361.9,246L325.71,246L307.62,245.99L289.52,245.09L271.42,241.66L253.33,234.75L235.24,225.13L199.05,203.84L180.95,189.29L162.85,169.7L144.76,148.28L126.67,133.18L108.57,123.6L90.48,123.63L72.38,121.59L54.29,134.77L36.19,169.91L0,246Z" style="fill: rgb(91, 37, 73); fill-opacity: 0.5; stroke-width: 0;"/></g></g><g class="errorbars"/><g class="lines"><path class="js-line" d="M0,246L36.19,169.91L54.29,134.77L72.38,121.59L90.48,123.63L108.57,123.6L126.67,133.18L144.76,148.28L162.85,169.7L180.95,189.29L199.05,203.84L235.24,225.13L253.33,234.75L271.42,241.66L289.52,245.09L307.62,245.99L325.71,246L361.9,246" style="vector-effect: none; fill: none; stroke: rgb(91, 37, 73); strokeOpacity: 1; stroke-width: 2px; opacity: 1;"/></g><g class="points"/><g class="text"/></g><g class="trace scatter trace910110" style="stroke-miterlimit: 2;"><g class="fills"><g><path class="js-fill" d="M0,246L36.19,169.91L54.29,134.77L72.38,121.59L90.48,123.63L108.57,123.6L126.67,122.25L144.76,118.44L162.85,121.95L180.95,130.35L199.05,142.67L217.14,158.12L235.24,178.01L253.33,200.52L271.42,220.82L289.52,235.18L307.62,242.75L325.71,245.46L343.8,245.99L361.9,246L361.9,246L343.8,246L307.62,245.28L289.52,241.75L271.42,233L253.33,218.68L217.14,184.31L199.05,169.29L162.85,138.28L144.76,126.73L126.67,122.25L108.57,123.6L90.48,123.63L72.38,121.59L54.29,134.77L36.19,169.91L0,246Z" style="fill: rgb(91, 37, 73); fill-opacity: 0.5; stroke-width: 0;"/></g></g><g class="errorbars"/><g class="lines"><path class="js-line" d="M0,246L36.19,169.91L54.29,134.77L72.38,121.59L90.48,123.63L108.57,123.6L126.67,122.25L144.76,126.73L162.85,138.28L199.05,169.29L217.14,184.31L253.33,218.68L271.42,233L289.52,241.75L307.62,245.28L343.8,246L361.9,246" style="vector-effect: none; fill: none; stroke: rgb(91, 37, 73); strokeOpacity: 1; stroke-width: 2px; opacity: 1;"/></g><g class="points"/><g class="text"/></g><g class="trace scatter traceb25749" style="stroke-miterlimit: 2;"><g class="fills"><g><path class="js-fill" d="M0,246L36.19,169.91L54.29,134.77L72.38,121.59L90.48,123.63L108.57,123.6L126.67,122.25L144.76,118.44L162.85,121.21L180.95,128.9L199.05,140.55L217.14,155.75L235.24,175.68L253.33,198.46L271.42,219.2L289.52,234.09L307.62,242.16L325.71,245.23L343.8,245.94L361.9,246L361.9,246L343.8,245.99L325.71,245.46L307.62,242.75L289.52,235.18L271.42,220.82L253.33,200.52L235.24,178.01L217.14,158.12L199.05,142.67L180.95,130.35L162.85,121.95L144.76,118.44L126.67,122.25L108.57,123.6L90.48,123.63L72.38,121.59L54.29,134.77L36.19,169.91L0,246Z" style="fill: rgb(91, 37, 73); fill-opacity: 0.5; stroke-width: 0;"/></g></g><g class="errorbars"/><g class="lines"><path class="js-line" d="M0,246L36.19,169.91L54.29,134.77L72.38,121.59L90.48,123.63L108.57,123.6L126.67,122.25L144.76,118.44L162.85,121.95L180.95,130.35L199.05,142.67L217.14,158.12L235.24,178.01L253.33,200.52L271.42,220.82L289.52,235.18L307.62,242.75L325.71,245.46L343.8,245.99L361.9,246" style="vector-effect: none; fill: none; stroke: rgb(91, 37, 73); strokeOpacity: 1; stroke-width: 2px; opacity: 1;"/></g><g class="points"/><g class="text"/></g><g class="trace scatter tracea0f5d6" style="stroke-miterlimit: 2;"><g class="fills"><g><path class="js-fill" d="M0,246L36.19,169.91L54.29,134.77L72.38,121.59L90.48,123.63L108.57,123.6L126.67,122.25L144.76,118.44L162.85,121.21L180.95,121.43L199.05,125.84L217.14,134.31L235.24,151.7L271.42,198.35L289.52,217.75L307.62,231.2L325.71,239.32L343.8,243.66L361.9,245.52L361.9,246L343.8,245.94L325.71,245.23L307.62,242.16L289.52,234.09L271.42,219.2L253.33,198.46L235.24,175.68L217.14,155.75L199.05,140.55L180.95,128.9L162.85,121.21L144.76,118.44L126.67,122.25L108.57,123.6L90.48,123.63L72.38,121.59L54.29,134.77L36.19,169.91L0,246Z" style="fill: rgb(91, 37, 73); fill-opacity: 0.5; stroke-width: 0;"/></g></g><g class="errorbars"/><g class="lines"><path class="js-line" d="M0,246L36.19,169.91L54.29,134.77L72.38,121.59L90.48,123.63L108.57,123.6L126.67,122.25L144.76,118.44L162.85,121.21L180.95,128.9L199.05,140.55L217.14,155.75L235.24,175.68L253.33,198.46L271.42,219.2L289.52,234.09L307.62,242.16L325.71,245.23L343.8,245.94L361.9,246" style="vector-effect: none; fill: none; stroke: rgb(91, 37, 73); strokeOpacity: 1; stroke-width: 2px; opacity: 1;"/></g><g class="points"/><g class="text"/></g><g class="trace scatter tracea8a8e6" style="stroke-miterlimit: 2;"><g class="fills"><g><path class="js-fill" d="M0,246L36.19,169.91L54.29,134.77L72.38,121.59L90.48,123.63L108.57,123.6L126.67,122.25L144.76,118.44L162.85,121.21L199.05,121.18L217.14,125.12L235.24,138.29L253.33,159.88L271.42,183.6L289.52,204.71L307.62,220.97L325.71,232.46L343.8,239.97L361.9,244.09L361.9,245.52L343.8,243.66L325.71,239.32L307.62,231.2L289.52,217.75L271.42,198.35L235.24,151.7L217.14,134.31L199.05,125.84L180.95,121.43L162.85,121.21L144.76,118.44L126.67,122.25L108.57,123.6L90.48,123.63L72.38,121.59L54.29,134.77L36.19,169.91L0,246Z" style="fill: rgb(91, 37, 73); fill-opacity: 0.5; stroke-width: 0;"/></g></g><g class="errorbars"/><g class="lines"><path class="js-line" d="M0,246L36.19,169.91L54.29,134.77L72.38,121.59L90.48,123.63L108.57,123.6L126.67,122.25L144.76,118.44L162.85,121.21L180.95,121.43L199.05,125.84L217.14,134.31L235.24,151.7L271.42,198.35L289.52,217.75L307.62,231.2L325.71,239.32L343.8,243.66L361.9,245.52" style="vector-effect: none; fill: none; stroke: rgb(91, 37, 73); strokeOpacity: 1; stroke-width: 2px; opacity: 1;"/></g><g class="points"/><g class="text"/></g><g class="trace scatter trace4180fc" style="stroke-miterlimit: 2;"><g class="fills"><g><path class="js-fill" d="M0,246L36.19,169.91L54.29,134.77L72.38,121.59L90.48,123.63L108.57,123.6L126.67,122.25L144.76,118.44L162.85,121.21L199.05,121.18L217.14,120.13L235.24,128.45L253.33,145.54L289.52,188.94L307.62,207.03L325.71,221.53L343.8,232.63L361.9,240.14L361.9,244.09L343.8,239.97L325.71,232.46L307.62,220.97L289.52,204.71L271.42,183.6L253.33,159.88L235.24,138.29L217.14,125.12L199.05,121.18L162.85,121.21L144.76,118.44L126.67,122.25L108.57,123.6L90.48,123.63L72.38,121.59L54.29,134.77L36.19,169.91L0,246Z" style="fill: rgb(91, 37, 73); fill-opacity: 0.5; stroke-width: 0;"/></g></g><g class="errorbars"/><g class="lines"><path class="js-line" d="M0,246L36.19,169.91L54.29,134.77L72.38,121.59L90.48,123.63L108.57,123.6L126.67,122.25L144.76,118.44L162.85,121.21L199.05,121.18L217.14,125.12L235.24,138.29L253.33,159.88L271.42,183.6L289.52,204.71L307.62,220.97L325.71,232.46L343.8,239.97L361.9,244.09" style="vector-effect: none; fill: none; stroke: rgb(91, 37, 73); strokeOpacity: 1; stroke-width: 2px; opacity: 1;"/></g><g class="points"/><g class="text"/></g><g class="trace scatter tracee0e8f3" style="stroke-miterlimit: 2;"><g class="fills"><g><path class="js-fill" d="M0,246L36.19,169.91L54.29,134.77L72.38,121.59L90.48,123.63L108.57,123.6L126.67,122.25L144.76,118.44L162.85,121.21L199.05,121.18L217.14,120.13L235.24,121.75L253.33,132.34L271.42,148.33L289.52,167.43L307.62,185.88L325.71,202.83L343.8,217.97L361.9,230.3L361.9,240.14L343.8,232.63L325.71,221.53L307.62,207.03L289.52,188.94L253.33,145.54L235.24,128.45L217.14,120.13L199.05,121.18L162.85,121.21L144.76,118.44L126.67,122.25L108.57,123.6L90.48,123.63L72.38,121.59L54.29,134.77L36.19,169.91L0,246Z" style="fill: rgb(91, 37, 73); fill-opacity: 0.5; stroke-width: 0;"/></g></g><g class="errorbars"/><g class="lines"><path class="js-line" d="M0,246L36.19,169.91L54.29,134.77L72.38,121.59L90.48,123.63L108.57,123.6L126.67,122.25L144.76,118.44L162.85,121.21L199.05,121.18L217.14,120.13L235.24,128.45L253.33,145.54L289.52,188.94L307.62,207.03L325.71,221.53L343.8,232.63L361.9,240.14" style="vector-effect: none; fill: none; stroke: rgb(91, 37, 73); strokeOpacity: 1; stroke-width: 2px; opacity: 1;"/></g><g class="points"/><g class="text"/></g><g class="trace scatter tracedd93a0" style="stroke-miterlimit: 2;"><g class="fills"><g><path class="js-fill" d="M0,246L36.19,169.91L54.29,134.77L72.38,121.59L90.48,123.63L108.57,123.6L126.67,122.25L144.76,118.44L162.85,121.21L199.05,121.18L217.14,120.13L235.24,121.75L253.33,121.59L271.42,127.15L289.52,136.55L307.62,151.36L325.71,168.87L361.9,206.76L361.9,230.3L343.8,217.97L325.71,202.83L307.62,185.88L289.52,167.43L271.42,148.33L253.33,132.34L235.24,121.75L217.14,120.13L199.05,121.18L162.85,121.21L144.76,118.44L126.67,122.25L108.57,123.6L90.48,123.63L72.38,121.59L54.29,134.77L36.19,169.91L0,246Z" style="fill: rgb(91, 37, 73); fill-opacity: 0.5; stroke-width: 0;"/></g></g><g class="errorbars"/><g class="lines"><path class="js-line" d="M0,246L36.19,169.91L54.29,134.77L72.38,121.59L90.48,123.63L108.57,123.6L126.67,122.25L144.76,118.44L162.85,121.21L199.05,121.18L217.14,120.13L235.24,121.75L253.33,132.34L271.42,148.33L289.52,167.43L307.62,185.88L325.71,202.83L343.8,217.97L361.9,230.3" style="vector-effect: none; fill: none; stroke: rgb(91, 37, 73); strokeOpacity: 1; stroke-width: 2px; opacity: 1;"/></g><g class="points"/><g class="text"/></g><g class="trace scatter traceafcd58" style="stroke-miterlimit: 2;"><g class="fills"><g><path class="js-fill" d="M0,246L36.19,169.91L54.29,134.77L72.38,121.59L90.48,123.63L108.57,123.6L126.67,122.25L144.76,118.44L162.85,121.21L199.05,121.18L217.14,120.13L235.24,121.75L253.33,121.59L271.42,121.21L289.52,124.84L307.62,134.29L325.71,149.79L343.8,169.18L361.9,190.17L361.9,206.76L325.71,168.87L307.62,151.36L289.52,136.55L271.42,127.15L253.33,121.59L235.24,121.75L217.14,120.13L199.05,121.18L162.85,121.21L144.76,118.44L126.67,122.25L108.57,123.6L90.48,123.63L72.38,121.59L54.29,134.77L36.19,169.91L0,246Z" style="fill: rgb(91, 37, 73); fill-opacity: 0.5; stroke-width: 0;"/></g></g><g class="errorbars"/><g class="lines"><path class="js-line" d="M0,246L36.19,169.91L54.29,134.77L72.38,121.59L90.48,123.63L108.57,123.6L126.67,122.25L144.76,118.44L162.85,121.21L199.05,121.18L217.14,120.13L235.24,121.75L253.33,121.59L271.42,127.15L289.52,136.55L307.62,151.36L325.71,168.87L361.9,206.76" style="vector-effect: none; fill: none; stroke: rgb(91, 37, 73); strokeOpacity: 1; stroke-width: 2px; opacity: 1;"/></g><g class="points"/><g class="text"/></g><g class="trace scatter trace30e7e2" style="stroke-miterlimit: 2;"><g class="fills"><g><path class="js-fill" d="M0,246L36.19,169.91L54.29,134.77L72.38,121.59L90.48,123.63L108.57,123.6L126.67,122.25L144.76,118.44L162.85,121.21L199.05,121.18L217.14,120.13L235.24,121.75L253.33,121.59L289.52,121.21L307.62,127.12L325.71,139.34L343.8,157.5L361.9,178.68L361.9,190.17L343.8,169.18L325.71,149.79L307.62,134.29L289.52,124.84L271.42,121.21L253.33,121.59L235.24,121.75L217.14,120.13L199.05,121.18L162.85,121.21L144.76,118.44L126.67,122.25L108.57,123.6L90.48,123.63L72.38,121.59L54.29,134.77L36.19,169.91L0,246Z" style="fill: rgb(91, 37, 73); fill-opacity: 0.5; stroke-width: 0;"/></g></g><g class="errorbars"/><g class="lines"><path class="js-line" d="M0,246L36.19,169.91L54.29,134.77L72.38,121.59L90.48,123.63L108.57,123.6L126.67,122.25L144.76,118.44L162.85,121.21L199.05,121.18L217.14,120.13L235.24,121.75L253.33,121.59L271.42,121.21L289.52,124.84L307.62,134.29L325.71,149.79L343.8,169.18L361.9,190.17" style="vector-effect: none; fill: none; stroke: rgb(91, 37, 73); strokeOpacity: 1; stroke-width: 2px; opacity: 1;"/></g><g class="points"/><g class="text"/></g><g class="trace scatter trace8d60fc" style="stroke-miterlimit: 2;"><g class="fills"><g><path class="js-fill" d="M0,246L36.19,169.91L54.29,134.77L72.38,121.59L90.48,123.63L108.57,123.6L126.67,122.25L144.76,118.44L162.85,121.21L199.05,121.18L217.14,120.13L235.24,121.75L253.33,121.59L289.52,121.21L307.62,121.21L325.71,127.68L343.8,140.5L361.9,159.68L361.9,178.68L343.8,157.5L325.71,139.34L307.62,127.12L289.52,121.21L253.33,121.59L235.24,121.75L217.14,120.13L199.05,121.18L162.85,121.21L144.76,118.44L126.67,122.25L108.57,123.6L90.48,123.63L72.38,121.59L54.29,134.77L36.19,169.91L0,246Z" style="fill: rgb(91, 37, 73); fill-opacity: 0.5; stroke-width: 0;"/></g></g><g class="errorbars"/><g class="lines"><path class="js-line" d="M0,246L36.19,169.91L54.29,134.77L72.38,121.59L90.48,123.63L108.57,123.6L126.67,122.25L144.76,118.44L162.85,121.21L199.05,121.18L217.14,120.13L235.24,121.75L253.33,121.59L289.52,121.21L307.62,127.12L325.71,139.34L343.8,157.5L361.9,178.68" style="vector-effect: none; fill: none; stroke: rgb(91, 37, 73); strokeOpacity: 1; stroke-width: 2px; opacity: 1;"/></g><g class="points"/><g class="text"/></g><g class="trace scatter trace1c4082" style="stroke-miterlimit: 2;"><g class="fills"><g><path class="js-fill" d="M0,246L36.19,169.91L54.29,134.77L72.38,121.59L90.48,123.63L108.57,123.6L126.67,122.25L144.76,118.44L162.85,121.21L199.05,121.18L217.14,120.13L235.24,121.75L253.33,121.59L289.52,121.21L307.62,121.21L325.71,121.21L343.8,127.74L361.9,141.07L361.9,159.68L343.8,140.5L325.71,127.68L307.62,121.21L289.52,121.21L253.33,121.59L235.24,121.75L217.14,120.13L199.05,121.18L162.85,121.21L144.76,118.44L126.67,122.25L108.57,123.6L90.48,123.63L72.38,121.59L54.29,134.77L36.19,169.91L0,246Z" style="fill: rgb(91, 37, 73); fill-opacity: 0.5; stroke-width: 0;"/></g></g><g class="errorbars"/><g class="lines"><path class="js-line" d="M0,246L36.19,169.91L54.29,134.77L72.38,121.59L90.48,123.63L108.57,123.6L126.67,122.25L144.76,118.44L162.85,121.21L199.05,121.18L217.14,120.13L235.24,121.75L253.33,121.59L289.52,121.21L307.62,121.21L325.71,127.68L343.8,140.5L361.9,159.68" style="vector-effect: none; fill: none; stroke: rgb(91, 37, 73); strokeOpacity: 1; stroke-width: 2px; opacity: 1;"/></g><g class="points"/><g class="text"/></g><g class="trace scatter trace94cd5b" style="stroke-miterlimit: 2;"><g class="fills"><g><path class="js-fill" d="M0,246L36.19,169.91L54.29,134.77L72.38,121.59L90.48,123.63L108.57,123.6L126.67,122.25L144.76,118.44L162.85,121.21L199.05,121.18L217.14,120.13L235.24,121.75L253.33,121.59L289.52,121.21L307.62,121.21L343.8,121.21L361.9,128.2L361.9,141.07L343.8,127.74L325.71,121.21L307.62,121.21L289.52,121.21L253.33,121.59L235.24,121.75L217.14,120.13L199.05,121.18L162.85,121.21L144.76,118.44L126.67,122.25L108.57,123.6L90.48,123.63L72.38,121.59L54.29,134.77L36.19,169.91L0,246Z" style="fill: rgb(91, 37, 73); fill-opacity: 0.5; stroke-width: 0;"/></g></g><g class="errorbars"/><g class="lines"><path class="js-line" d="M0,246L36.19,169.91L54.29,134.77L72.38,121.59L90.48,123.63L108.57,123.6L126.67,122.25L144.76,118.44L162.85,121.21L199.05,121.18L217.14,120.13L235.24,121.75L253.33,121.59L289.52,121.21L307.62,121.21L325.71,121.21L343.8,127.74L361.9,141.07" style="vector-effect: none; fill: none; stroke: rgb(91, 37, 73); strokeOpacity: 1; stroke-width: 2px; opacity: 1;"/></g><g class="points"/><g class="text"/></g><g class="trace scatter trace77d806" style="stroke-miterlimit: 2;"><g class="fills"><g><path class="js-fill" d="M0,246L36.19,169.91L54.29,134.77L72.38,121.59L90.48,123.63L108.57,123.6L126.67,122.25L144.76,118.44L162.85,121.21L199.05,121.18L217.14,120.13L235.24,121.75L253.33,121.59L289.52,121.21L307.62,121.21L361.9,121.21L361.9,128.2L343.8,121.21L307.62,121.21L289.52,121.21L253.33,121.59L235.24,121.75L217.14,120.13L199.05,121.18L162.85,121.21L144.76,118.44L126.67,122.25L108.57,123.6L90.48,123.63L72.38,121.59L54.29,134.77L36.19,169.91L0,246Z" style="fill: rgb(91, 37, 73); fill-opacity: 0.5; stroke-width: 0;"/></g></g><g class="errorbars"/><g class="lines"><path class="js-line" d="M0,246L36.19,169.91L54.29,134.77L72.38,121.59L90.48,123.63L108.57,123.6L126.67,122.25L144.76,118.44L162.85,121.21L199.05,121.18L217.14,120.13L235.24,121.75L253.33,121.59L289.52,121.21L307.62,121.21L343.8,121.21L361.9,128.2" style="vector-effect: none; fill: none; stroke: rgb(91, 37, 73); strokeOpacity: 1; stroke-width: 2px; opacity: 1;"/></g><g class="points"/><g class="text"/></g><g class="trace scatter trace74d942" style="stroke-miterlimit: 2;"><g class="fills"><g><path class="js-fill" d="M0,246L36.19,169.91L54.29,134.77L72.38,121.59L90.48,123.63L108.57,123.6L126.67,122.25L144.76,118.44L162.85,121.21L199.05,121.18L217.14,120.13L235.24,121.75L253.33,121.59L289.52,121.21L307.62,121.21L361.9,121.21L361.9,121.21L307.62,121.21L289.52,121.21L253.33,121.59L235.24,121.75L217.14,120.13L199.05,121.18L162.85,121.21L144.76,118.44L126.67,122.25L108.57,123.6L90.48,123.63L72.38,121.59L54.29,134.77L36.19,169.91L0,246Z" style="fill: rgb(91, 37, 73); fill-opacity: 0.5; stroke-width: 0;"/></g></g><g class="errorbars"/><g class="lines"><path class="js-line" d="M0,246L36.19,169.91L54.29,134.77L72.38,121.59L90.48,123.63L108.57,123.6L126.67,122.25L144.76,118.44L162.85,121.21L199.05,121.18L217.14,120.13L235.24,121.75L253.33,121.59L289.52,121.21L307.62,121.21L361.9,121.21" style="vector-effect: none; fill: none; stroke: rgb(91, 37, 73); strokeOpacity: 1; stroke-width: 2px; opacity: 1;"/></g><g class="points"/><g class="text"/></g><g class="trace scatter trace207646" style="stroke-miterlimit: 2;"><g class="fills"><g><path class="js-fill" d="M0,246L36.19,169.91L54.29,134.77L72.38,121.59L90.48,123.63L108.57,123.6L126.67,122.25L144.76,118.44L162.85,121.21L199.05,121.18L217.14,120.13L235.24,121.75L253.33,121.59L289.52,121.21L307.62,121.21L361.9,121.21L361.9,121.21L307.62,121.21L289.52,121.21L253.33,121.59L235.24,121.75L217.14,120.13L199.05,121.18L162.85,121.21L144.76,118.44L126.67,122.25L108.57,123.6L90.48,123.63L72.38,121.59L54.29,134.77L36.19,169.91L0,246Z" style="fill: rgb(55, 52, 44); fill-opacity: 0.5; stroke-width: 0;"/></g></g><g class="errorbars"/><g class="lines"><path class="js-line" d="M0,246L36.19,169.91L54.29,134.77L72.38,121.59L90.48,123.63L108.57,123.6L126.67,122.25L144.76,118.44L162.85,121.21L199.05,121.18L217.14,120.13L235.24,121.75L253.33,121.59L289.52,121.21L307.62,121.21L361.9,121.21" style="vector-effect: none; fill: none; stroke: rgb(91, 37, 73); strokeOpacity: 1; stroke-width: 2px; opacity: 1;"/></g><g class="points"/><g class="text"/></g><g class="trace scatter tracef26dd5" style="stroke-miterlimit: 2;"><g class="fills"><g><path class="js-fill" d="M0,246L36.19,169.91L54.29,134.77L72.38,121.59L90.48,123.63L108.57,123.6L126.67,122.25L144.76,118.44L162.85,121.21L199.05,121.18L217.14,120.13L235.24,121.75L253.33,121.59L289.52,121.21L307.62,121.21L361.9,121.21L361.9,121.21L307.62,121.21L289.52,121.21L253.33,121.59L235.24,121.75L217.14,120.13L199.05,121.18L162.85,121.21L144.76,118.44L126.67,122.25L108.57,123.6L90.48,123.63L72.38,121.59L54.29,134.77L36.19,169.91L0,246Z" style="fill: rgb(55, 52, 44); fill-opacity: 0.5; stroke-width: 0;"/></g></g><g class="errorbars"/><g class="lines"><path class="js-line" d="M0,246L36.19,169.91L54.29,134.77L72.38,121.59L90.48,123.63L108.57,123.6L126.67,122.25L144.76,118.44L162.85,121.21L199.05,121.18L217.14,120.13L235.24,121.75L253.33,121.59L289.52,121.21L307.62,121.21L361.9,121.21" style="vector-effect: none; fill: none; stroke: rgb(55, 52, 44); strokeOpacity: 1; stroke-width: 2px; opacity: 1;"/></g><g class="points"/><g class="text"/></g><g class="trace scatter trace22354f" style="stroke-miterlimit: 2;"><g class="fills"><g><path class="js-fill" d="M0,246L36.19,169.91L54.29,134.77L72.38,121.59L90.48,123.63L108.57,123.6L126.67,122.25L144.76,118.44L162.85,121.21L199.05,121.18L217.14,120.13L235.24,121.75L253.33,121.59L289.52,121.21L307.62,121.21L361.9,121.21L361.9,121.21L307.62,121.21L289.52,121.21L253.33,121.59L235.24,121.75L217.14,120.13L199.05,121.18L162.85,121.21L144.76,118.44L126.67,122.25L108.57,123.6L90.48,123.63L72.38,121.59L54.29,134.77L36.19,169.91L0,246Z" style="fill: rgb(55, 52, 44); fill-opacity: 0.5; stroke-width: 0;"/></g></g><g class="errorbars"/><g class="lines"><path class="js-line" d="M0,246L36.19,169.91L54.29,134.77L72.38,121.59L90.48,123.63L108.57,123.6L126.67,122.25L144.76,118.44L162.85,121.21L199.05,121.18L217.14,120.13L235.24,121.75L253.33,121.59L289.52,121.21L307.62,121.21L361.9,121.21" style="vector-effect: none; fill: none; stroke: rgb(55, 52, 44); strokeOpacity: 1; stroke-width: 2px; opacity: 1;"/></g><g class="points"/><g class="text"/></g><g class="trace scatter trace930b2e" style="stroke-miterlimit: 2;"><g class="fills"><g><path class="js-fill" d="M0,246L36.19,169.91L54.29,134.77L72.38,121.59L90.48,123.63L108.57,123.6L126.67,122.25L144.76,118.44L162.85,121.21L199.05,121.18L217.14,120.13L235.24,121.75L253.33,121.59L289.52,121.21L307.62,121.21L361.9,121.21L361.9,121.21L307.62,121.21L289.52,121.21L253.33,121.59L235.24,121.75L217.14,120.13L199.05,121.18L162.85,121.21L144.76,118.44L126.67,122.25L108.57,123.6L90.48,123.63L72.38,121.59L54.29,134.77L36.19,169.91L0,246Z" style="fill: rgb(55, 52, 44); fill-opacity: 0.5; stroke-width: 0;"/></g></g><g class="errorbars"/><g class="lines"><path class="js-line" d="M0,246L36.19,169.91L54.29,134.77L72.38,121.59L90.48,123.63L108.57,123.6L126.67,122.25L144.76,118.44L162.85,121.21L199.05,121.18L217.14,120.13L235.24,121.75L253.33,121.59L289.52,121.21L307.62,121.21L361.9,121.21" style="vector-effect: none; fill: none; stroke: rgb(55, 52, 44); strokeOpacity: 1; stroke-width: 2px; opacity: 1;"/></g><g class="points"/><g class="text"/></g><g class="trace scatter trace6e251c" style="stroke-miterlimit: 2;"><g class="fills"><g><path class="js-fill" d="M0,246L36.19,169.91L54.29,134.77L72.38,121.59L90.48,123.63L108.57,123.6L126.67,122.25L144.76,118.44L162.85,121.21L199.05,121.18L217.14,120.13L235.24,121.75L253.33,121.59L289.52,121.21L307.62,121.21L361.9,121.21L361.9,121.21L307.62,121.21L289.52,121.21L253.33,121.59L235.24,121.75L217.14,120.13L199.05,121.18L162.85,121.21L144.76,118.44L126.67,122.25L108.57,123.6L90.48,123.63L72.38,121.59L54.29,134.77L36.19,169.91L0,246Z" style="fill: rgb(55, 52, 44); fill-opacity: 0.5; stroke-width: 0;"/></g></g><g class="errorbars"/><g class="lines"><path class="js-line" d="M0,246L36.19,169.91L54.29,134.77L72.38,121.59L90.48,123.63L108.57,123.6L126.67,122.25L144.76,118.44L162.85,121.21L199.05,121.18L217.14,120.13L235.24,121.75L253.33,121.59L289.52,121.21L307.62,121.21L361.9,121.21" style="vector-effect: none; fill: none; stroke: rgb(55, 52, 44); strokeOpacity: 1; stroke-width: 2px; opacity: 1;"/></g><g class="points"/><g class="text"/></g><g class="trace scatter trace486e48" style="stroke-miterlimit: 2;"><g class="fills"><g><path class="js-fill" d="M0,246L36.19,169.91L54.29,134.77L72.38,121.59L90.48,123.63L108.57,123.6L126.67,122.25L144.76,118.44L162.85,121.21L199.05,121.18L217.14,120.13L235.24,121.75L253.33,121.59L289.52,121.21L307.62,121.21L361.9,121.21L361.9,121.21L307.62,121.21L289.52,121.21L253.33,121.59L235.24,121.75L217.14,120.13L199.05,121.18L162.85,121.21L144.76,118.44L126.67,122.25L108.57,123.6L90.48,123.63L72.38,121.59L54.29,134.77L36.19,169.91L0,246Z" style="fill: rgb(55, 52, 44); fill-opacity: 0.5; stroke-width: 0;"/></g></g><g class="errorbars"/><g class="lines"><path class="js-line" d="M0,246L36.19,169.91L54.29,134.77L72.38,121.59L90.48,123.63L108.57,123.6L126.67,122.25L144.76,118.44L162.85,121.21L199.05,121.18L217.14,120.13L235.24,121.75L253.33,121.59L289.52,121.21L307.62,121.21L361.9,121.21" style="vector-effect: none; fill: none; stroke: rgb(55, 52, 44); strokeOpacity: 1; stroke-width: 2px; opacity: 1;"/></g><g class="points"/><g class="text"/></g><g class="trace scatter trace1b699d" style="stroke-miterlimit: 2;"><g class="fills"><g><path class="js-fill" d="M0,246L36.19,169.91L54.29,134.77L72.38,121.59L90.48,123.63L108.57,123.6L126.67,122.25L144.76,118.44L162.85,121.21L199.05,121.18L217.14,120.13L235.24,121.75L253.33,121.59L289.52,121.21L307.62,121.21L361.9,121.21L361.9,121.21L307.62,121.21L289.52,121.21L253.33,121.59L235.24,121.75L217.14,120.13L199.05,121.18L162.85,121.21L144.76,118.44L126.67,122.25L108.57,123.6L90.48,123.63L72.38,121.59L54.29,134.77L36.19,169.91L0,246Z" style="fill: rgb(55, 52, 44); fill-opacity: 0.5; stroke-width: 0;"/></g></g><g class="errorbars"/><g class="lines"><path class="js-line" d="M0,246L36.19,169.91L54.29,134.77L72.38,121.59L90.48,123.63L108.57,123.6L126.67,122.25L144.76,118.44L162.85,121.21L199.05,121.18L217.14,120.13L235.24,121.75L253.33,121.59L289.52,121.21L307.62,121.21L361.9,121.21" style="vector-effect: none; fill: none; stroke: rgb(55, 52, 44); strokeOpacity: 1; stroke-width: 2px; opacity: 1;"/></g><g class="points"/><g class="text"/></g><g class="trace scatter trace7f4994" style="stroke-miterlimit: 2;"><g class="fills"><g><path class="js-fill" d="M0,246L36.19,169.91L54.29,134.77L72.38,121.59L90.48,123.63L108.57,123.6L126.67,122.25L144.76,118.44L162.85,121.21L199.05,121.18L217.14,120.13L235.24,121.75L253.33,121.59L289.52,121.21L307.62,121.21L361.9,121.21L361.9,121.21L307.62,121.21L289.52,121.21L253.33,121.59L235.24,121.75L217.14,120.13L199.05,121.18L162.85,121.21L144.76,118.44L126.67,122.25L108.57,123.6L90.48,123.63L72.38,121.59L54.29,134.77L36.19,169.91L0,246Z" style="fill: rgb(55, 52, 44); fill-opacity: 0.5; stroke-width: 0;"/></g></g><g class="errorbars"/><g class="lines"><path class="js-line" d="M0,246L36.19,169.91L54.29,134.77L72.38,121.59L90.48,123.63L108.57,123.6L126.67,122.25L144.76,118.44L162.85,121.21L199.05,121.18L217.14,120.13L235.24,121.75L253.33,121.59L289.52,121.21L307.62,121.21L361.9,121.21" style="vector-effect: none; fill: none; stroke: rgb(55, 52, 44); strokeOpacity: 1; stroke-width: 2px; opacity: 1;"/></g><g class="points"/><g class="text"/></g><g class="trace scatter trace017380" style="stroke-miterlimit: 2;"><g class="fills"><g><path class="js-fill" d="M0,246L36.19,169.91L54.29,134.77L72.38,121.59L90.48,123.63L108.57,123.6L126.67,122.25L144.76,118.44L162.85,121.21L199.05,121.18L217.14,120.13L235.24,121.75L253.33,121.59L289.52,121.21L307.62,121.21L361.9,121.21L361.9,121.21L307.62,121.21L289.52,121.21L253.33,121.59L235.24,121.75L217.14,120.13L199.05,121.18L162.85,121.21L144.76,118.44L126.67,122.25L108.57,123.6L90.48,123.63L72.38,121.59L54.29,134.77L36.19,169.91L0,246Z" style="fill: rgb(55, 52, 44); fill-opacity: 0.5; stroke-width: 0;"/></g></g><g class="errorbars"/><g class="lines"><path class="js-line" d="M0,246L36.19,169.91L54.29,134.77L72.38,121.59L90.48,123.63L108.57,123.6L126.67,122.25L144.76,118.44L162.85,121.21L199.05,121.18L217.14,120.13L235.24,121.75L253.33,121.59L289.52,121.21L307.62,121.21L361.9,121.21" style="vector-effect: none; fill: none; stroke: rgb(55, 52, 44); strokeOpacity: 1; stroke-width: 2px; opacity: 1;"/></g><g class="points"/><g class="text"/></g><g class="trace scatter tracef1cc47" style="stroke-miterlimit: 2;"><g class="fills"><g><path class="js-fill" d="M0,246L36.19,169.91L54.29,134.77L72.38,121.59L90.48,123.63L108.57,123.6L126.67,122.25L144.76,118.44L162.85,121.21L199.05,121.18L217.14,120.13L235.24,121.75L253.33,121.59L289.52,121.21L307.62,121.21L361.9,121.21L361.9,121.21L307.62,121.21L289.52,121.21L253.33,121.59L235.24,121.75L217.14,120.13L199.05,121.18L162.85,121.21L144.76,118.44L126.67,122.25L108.57,123.6L90.48,123.63L72.38,121.59L54.29,134.77L36.19,169.91L0,246Z" style="fill: rgb(55, 52, 44); fill-opacity: 0.5; stroke-width: 0;"/></g></g><g class="errorbars"/><g class="lines"><path class="js-line" d="M0,246L36.19,169.91L54.29,134.77L72.38,121.59L90.48,123.63L108.57,123.6L126.67,122.25L144.76,118.44L162.85,121.21L199.05,121.18L217.14,120.13L235.24,121.75L253.33,121.59L289.52,121.21L307.62,121.21L361.9,121.21" style="vector-effect: none; fill: none; stroke: rgb(55, 52, 44); strokeOpacity: 1; stroke-width: 2px; opacity: 1;"/></g><g class="points"/><g class="text"/></g><g class="trace scatter tracebc25b7" style="stroke-miterlimit: 2;"><g class="fills"><g><path class="js-fill" d="M0,246L36.19,169.91L54.29,134.77L72.38,121.59L90.48,123.63L108.57,123.6L126.67,122.25L144.76,118.44L162.85,121.21L199.05,121.18L217.14,120.13L235.24,121.75L253.33,121.59L289.52,121.21L307.62,121.21L361.9,121.21L361.9,121.21L307.62,121.21L289.52,121.21L253.33,121.59L235.24,121.75L217.14,120.13L199.05,121.18L162.85,121.21L144.76,118.44L126.67,122.25L108.57,123.6L90.48,123.63L72.38,121.59L54.29,134.77L36.19,169.91L0,246Z" style="fill: rgb(55, 52, 44); fill-opacity: 0.5; stroke-width: 0;"/></g></g><g class="errorbars"/><g class="lines"><path class="js-line" d="M0,246L36.19,169.91L54.29,134.77L72.38,121.59L90.48,123.63L108.57,123.6L126.67,122.25L144.76,118.44L162.85,121.21L199.05,121.18L217.14,120.13L235.24,121.75L253.33,121.59L289.52,121.21L307.62,121.21L361.9,121.21" style="vector-effect: none; fill: none; stroke: rgb(55, 52, 44); strokeOpacity: 1; stroke-width: 2px; opacity: 1;"/></g><g class="points"/><g class="text"/></g><g class="trace scatter trace73e48f" style="stroke-miterlimit: 2;"><g class="fills"><g><path class="js-fill" d="M0,246L36.19,169.91L54.29,134.77L72.38,121.59L90.48,123.63L108.57,123.6L126.67,122.25L144.76,118.44L162.85,121.21L199.05,121.18L217.14,120.13L235.24,121.75L253.33,121.59L289.52,121.21L307.62,121.21L361.9,121.21L361.9,121.21L307.62,121.21L289.52,121.21L253.33,121.59L235.24,121.75L217.14,120.13L199.05,121.18L162.85,121.21L144.76,118.44L126.67,122.25L108.57,123.6L90.48,123.63L72.38,121.59L54.29,134.77L36.19,169.91L0,246Z" style="fill: rgb(55, 52, 44); fill-opacity: 0.5; stroke-width: 0;"/></g></g><g class="errorbars"/><g class="lines"><path class="js-line" d="M0,246L36.19,169.91L54.29,134.77L72.38,121.59L90.48,123.63L108.57,123.6L126.67,122.25L144.76,118.44L162.85,121.21L199.05,121.18L217.14,120.13L235.24,121.75L253.33,121.59L289.52,121.21L307.62,121.21L361.9,121.21" style="vector-effect: none; fill: none; stroke: rgb(55, 52, 44); strokeOpacity: 1; stroke-width: 2px; opacity: 1;"/></g><g class="points"/><g class="text"/></g><g class="trace scatter trace7848cf" style="stroke-miterlimit: 2;"><g class="fills"><g><path class="js-fill" d="M0,246L18.1,149.02L36.19,80.63L54.29,30.91L72.38,12.3L108.57,16.07L126.67,20.19L144.76,28.88L162.85,52.39L199.05,106.38L217.14,120.01L235.24,121.75L253.33,121.59L289.52,121.21L307.62,121.21L361.9,121.21L361.9,121.21L307.62,121.21L289.52,121.21L253.33,121.59L235.24,121.75L217.14,120.13L199.05,121.18L162.85,121.21L144.76,118.44L126.67,122.25L108.57,123.6L90.48,123.63L72.38,121.59L54.29,134.77L36.19,169.91L0,246Z" style="fill: rgb(55, 52, 44); fill-opacity: 0.5; stroke-width: 0;"/></g></g><g class="errorbars"/><g class="lines"><path class="js-line" d="M0,246L36.19,169.91L54.29,134.77L72.38,121.59L90.48,123.63L108.57,123.6L126.67,122.25L144.76,118.44L162.85,121.21L199.05,121.18L217.14,120.13L235.24,121.75L253.33,121.59L289.52,121.21L307.62,121.21L361.9,121.21" style="vector-effect: none; fill: none; stroke: rgb(55, 52, 44); strokeOpacity: 1; stroke-width: 2px; opacity: 1;"/></g><g class="points"/><g class="text"/></g><g class="trace scatter tracef16242" style="stroke-miterlimit: 2;"><g class="fills"><g><path class="js-fill" d="M0,246L18.1,149.02L36.19,80.63L54.29,30.91L72.38,12.3L108.57,16.07L126.67,20.19L144.76,28.88L162.85,52.39L199.05,106.38L217.14,120.01L235.24,121.75L253.33,121.59L289.52,121.21L307.62,121.21L361.9,121.21L361.9,121.21L307.62,121.21L289.52,121.21L253.33,121.59L235.24,121.75L217.14,120.01L199.05,106.38L162.85,52.39L144.76,28.88L126.67,20.19L108.57,16.07L72.38,12.3L54.29,30.91L36.19,80.63L18.1,149.02L0,246Z" style="fill: rgb(55, 52, 44); fill-opacity: 0.5; stroke-width: 0;"/></g></g><g class="errorbars"/><g class="lines"><path class="js-line" d="M0,246L18.1,149.02L36.19,80.63L54.29,30.91L72.38,12.3L108.57,16.07L126.67,20.19L144.76,28.88L162.85,52.39L199.05,106.38L217.14,120.01L235.24,121.75L253.33,121.59L289.52,121.21L307.62,121.21L361.9,121.21" style="vector-effect: none; fill: none; stroke: rgb(55, 52, 44); strokeOpacity: 1; stroke-width: 2px; opacity: 1;"/></g><g class="points"/><g class="text"/></g><g class="trace scatter trace1f2e83" style="stroke-miterlimit: 2;"><g class="fills"><g><path class="js-fill" d="M0,246L18.1,149.02L36.19,80.63L54.29,30.91L72.38,12.3L108.57,16.07L126.67,20.19L144.76,28.88L162.85,52.39L199.05,106.38L217.14,120.01L235.24,121.75L253.33,121.59L289.52,121.21L307.62,121.21L361.9,121.21L361.9,121.21L307.62,121.21L289.52,121.21L253.33,121.59L235.24,121.75L217.14,120.01L199.05,106.38L162.85,52.39L144.76,28.88L126.67,20.19L108.57,16.07L72.38,12.3L54.29,30.91L36.19,80.63L18.1,149.02L0,246Z" style="fill: rgb(55, 52, 44); fill-opacity: 0.5; stroke-width: 0;"/></g></g><g class="errorbars"/><g class="lines"><path class="js-line" d="M0,246L18.1,149.02L36.19,80.63L54.29,30.91L72.38,12.3L108.57,16.07L126.67,20.19L144.76,28.88L162.85,52.39L199.05,106.38L217.14,120.01L235.24,121.75L253.33,121.59L289.52,121.21L307.62,121.21L361.9,121.21" style="vector-effect: none; fill: none; stroke: rgb(55, 52, 44); strokeOpacity: 1; stroke-width: 2px; opacity: 1;"/></g><g class="points"/><g class="text"/></g><g class="trace scatter trace58d56d" style="stroke-miterlimit: 2;"><g class="fills"><g><path class="js-fill" d="M0,246L18.1,149.02L36.19,80.63L54.29,30.91L72.38,12.3L108.57,16.07L126.67,20.19L144.76,28.88L162.85,52.39L199.05,106.38L217.14,120.01L235.24,121.75L253.33,121.59L289.52,121.21L307.62,121.21L361.9,121.21L361.9,121.21L307.62,121.21L289.52,121.21L253.33,121.59L235.24,121.75L217.14,120.01L199.05,106.38L162.85,52.39L144.76,28.88L126.67,20.19L108.57,16.07L72.38,12.3L54.29,30.91L36.19,80.63L18.1,149.02L0,246Z" style="fill: rgb(55, 52, 44); fill-opacity: 0.5; stroke-width: 0;"/></g></g><g class="errorbars"/><g class="lines"><path class="js-line" d="M0,246L18.1,149.02L36.19,80.63L54.29,30.91L72.38,12.3L108.57,16.07L126.67,20.19L144.76,28.88L162.85,52.39L199.05,106.38L217.14,120.01L235.24,121.75L253.33,121.59L289.52,121.21L307.62,121.21L361.9,121.21" style="vector-effect: none; fill: none; stroke: rgb(55, 52, 44); strokeOpacity: 1; stroke-width: 2px; opacity: 1;"/></g><g class="points"/><g class="text"/></g><g class="trace scatter trace5ecde2" style="stroke-miterlimit: 2;"><g class="fills"><g><path class="js-fill" d="M0,246L18.1,149.02L36.19,80.63L54.29,30.91L72.38,12.3L108.57,16.07L126.67,20.19L144.76,28.88L162.85,52.39L199.05,106.38L217.14,120.01L235.24,121.75L253.33,121.59L289.52,121.21L307.62,121.21L361.9,121.21L361.9,121.21L307.62,121.21L289.52,121.21L253.33,121.59L235.24,121.75L217.14,120.01L199.05,106.38L162.85,52.39L144.76,28.88L126.67,20.19L108.57,16.07L72.38,12.3L54.29,30.91L36.19,80.63L18.1,149.02L0,246Z" style="fill: rgb(55, 52, 44); fill-opacity: 0.5; stroke-width: 0;"/></g></g><g class="errorbars"/><g class="lines"><path class="js-line" d="M0,246L18.1,149.02L36.19,80.63L54.29,30.91L72.38,12.3L108.57,16.07L126.67,20.19L144.76,28.88L162.85,52.39L199.05,106.38L217.14,120.01L235.24,121.75L253.33,121.59L289.52,121.21L307.62,121.21L361.9,121.21" style="vector-effect: none; fill: none; stroke: rgb(55, 52, 44); strokeOpacity: 1; stroke-width: 2px; opacity: 1;"/></g><g class="points"/><g class="text"/></g><g class="trace scatter tracec27b3b" style="stroke-miterlimit: 2;"><g class="fills"><g><path class="js-fill" d="M0,246L18.1,149.02L36.19,80.63L54.29,30.91L72.38,12.3L108.57,16.07L126.67,20.19L144.76,28.88L162.85,52.39L199.05,106.38L217.14,120.01L235.24,121.75L253.33,121.59L289.52,121.21L307.62,121.21L361.9,121.21L361.9,121.21L307.62,121.21L289.52,121.21L253.33,121.59L235.24,121.75L217.14,120.01L199.05,106.38L162.85,52.39L144.76,28.88L126.67,20.19L108.57,16.07L72.38,12.3L54.29,30.91L36.19,80.63L18.1,149.02L0,246Z" style="fill: rgb(55, 52, 44); fill-opacity: 0.5; stroke-width: 0;"/></g></g><g class="errorbars"/><g class="lines"><path class="js-line" d="M0,246L18.1,149.02L36.19,80.63L54.29,30.91L72.38,12.3L108.57,16.07L126.67,20.19L144.76,28.88L162.85,52.39L199.05,106.38L217.14,120.01L235.24,121.75L253.33,121.59L289.52,121.21L307.62,121.21L361.9,121.21" style="vector-effect: none; fill: none; stroke: rgb(55, 52, 44); strokeOpacity: 1; stroke-width: 2px; opacity: 1;"/></g><g class="points"/><g class="text"/></g><g class="trace scatter trace014bb0" style="stroke-miterlimit: 2;"><g class="fills"><g><path class="js-fill" d="M0,246L18.1,149.02L36.19,80.63L54.29,30.91L72.38,12.3L126.67,17.7L144.76,25.1L162.85,48.01L180.95,75.38L199.05,101.75L217.14,115.48L235.24,117.45L253.33,117.82L289.52,119.46L307.62,120.58L343.8,121.21L361.9,121.21L361.9,121.21L307.62,121.21L289.52,121.21L253.33,121.59L235.24,121.75L217.14,120.01L199.05,106.38L162.85,52.39L144.76,28.88L126.67,20.19L108.57,16.07L72.38,12.3L54.29,30.91L36.19,80.63L18.1,149.02L0,246Z" style="fill: rgb(55, 52, 44); fill-opacity: 0.5; stroke-width: 0;"/></g></g><g class="errorbars"/><g class="lines"><path class="js-line" d="M0,246L18.1,149.02L36.19,80.63L54.29,30.91L72.38,12.3L108.57,16.07L126.67,20.19L144.76,28.88L162.85,52.39L199.05,106.38L217.14,120.01L235.24,121.75L253.33,121.59L289.52,121.21L307.62,121.21L361.9,121.21" style="vector-effect: none; fill: none; stroke: rgb(55, 52, 44); strokeOpacity: 1; stroke-width: 2px; opacity: 1;"/></g><g class="points"/><g class="text"/></g><g class="trace scatter trace041e79" style="stroke-miterlimit: 2;"><g class="fills"><g><path class="js-fill" d="M0,246L18.1,149.02L36.19,80.63L54.29,30.91L72.38,12.3L126.67,17.7L144.76,24.21L162.85,46.65L180.95,73.81L199.05,100.1L217.14,113.82L235.24,115.83L253.33,116.28L271.42,116.95L289.52,118.42L325.71,120.98L343.8,121.21L361.9,121.21L361.9,121.21L343.8,121.21L307.62,120.58L289.52,119.46L253.33,117.82L235.24,117.45L217.14,115.48L199.05,101.75L180.95,75.38L162.85,48.01L144.76,25.1L126.67,17.7L72.38,12.3L54.29,30.91L36.19,80.63L18.1,149.02L0,246Z" style="fill: rgb(55, 52, 44); fill-opacity: 0.5; stroke-width: 0;"/></g></g><g class="errorbars"/><g class="lines"><path class="js-line" d="M0,246L18.1,149.02L36.19,80.63L54.29,30.91L72.38,12.3L126.67,17.7L144.76,25.1L162.85,48.01L180.95,75.38L199.05,101.75L217.14,115.48L235.24,117.45L253.33,117.82L289.52,119.46L307.62,120.58L343.8,121.21L361.9,121.21" style="vector-effect: none; fill: none; stroke: rgb(55, 52, 44); strokeOpacity: 1; stroke-width: 2px; opacity: 1;"/></g><g class="points"/><g class="text"/></g><g class="trace scatter trace68c8e3" style="stroke-miterlimit: 2;"><g class="fills"><g><path class="js-fill" d="M0,246L18.1,149.02L36.19,80.63L54.29,30.91L72.38,12.3L126.67,17.7L144.76,24.21L162.85,19.56L180.95,32.76L199.05,52.47L217.14,63.72L253.33,66.97L271.42,70.16L289.52,77.35L307.62,88.4L325.71,101.97L343.8,114.42L361.9,121.16L361.9,121.21L343.8,121.21L325.71,120.98L289.52,118.42L271.42,116.95L253.33,116.28L235.24,115.83L217.14,113.82L199.05,100.1L180.95,73.81L162.85,46.65L144.76,24.21L126.67,17.7L72.38,12.3L54.29,30.91L36.19,80.63L18.1,149.02L0,246Z" style="fill: rgb(55, 52, 44); fill-opacity: 0.5; stroke-width: 0;"/></g></g><g class="errorbars"/><g class="lines"><path class="js-line" d="M0,246L18.1,149.02L36.19,80.63L54.29,30.91L72.38,12.3L126.67,17.7L144.76,24.21L162.85,46.65L180.95,73.81L199.05,100.1L217.14,113.82L235.24,115.83L253.33,116.28L271.42,116.95L289.52,118.42L325.71,120.98L343.8,121.21L361.9,121.21" style="vector-effect: none; fill: none; stroke: rgb(55, 52, 44); strokeOpacity: 1; stroke-width: 2px; opacity: 1;"/></g><g class="points"/><g class="text"/></g><g class="trace scatter trace98483f" style="stroke-miterlimit: 2;"><g class="fills"><g><path class="js-fill" d="M0,246L18.1,149.02L36.19,80.63L54.29,30.91L72.38,12.3L126.67,17.7L144.76,24.21L162.85,19.56L180.95,19.21L199.05,31.95L217.14,39.92L235.24,40.46L253.33,41.82L271.42,45.52L289.52,53.97L307.62,67.88L325.71,86.2L343.8,104.92L361.9,117.76L361.9,121.16L343.8,114.42L325.71,101.97L307.62,88.4L289.52,77.35L271.42,70.16L253.33,66.97L217.14,63.72L199.05,52.47L180.95,32.76L162.85,19.56L144.76,24.21L126.67,17.7L72.38,12.3L54.29,30.91L36.19,80.63L18.1,149.02L0,246Z" style="fill: rgb(55, 52, 44); fill-opacity: 0.5; stroke-width: 0;"/></g></g><g class="errorbars"/><g class="lines"><path class="js-line" d="M0,246L18.1,149.02L36.19,80.63L54.29,30.91L72.38,12.3L126.67,17.7L144.76,24.21L162.85,19.56L180.95,32.76L199.05,52.47L217.14,63.72L253.33,66.97L271.42,70.16L289.52,77.35L307.62,88.4L325.71,101.97L343.8,114.42L361.9,121.16" style="vector-effect: none; fill: none; stroke: rgb(55, 52, 44); strokeOpacity: 1; stroke-width: 2px; opacity: 1;"/></g><g class="points"/><g class="text"/></g><g class="trace scatter trace742a03" style="stroke-miterlimit: 2;"><g class="fills"><g><path class="js-fill" d="M0,246L18.1,149.02L36.19,80.63L54.29,30.91L72.38,12.3L126.67,17.7L144.76,24.21L162.85,19.56L180.95,19.21L199.05,19.6L217.14,21.2L235.24,18.74L253.33,18.98L271.42,22.58L289.52,31.49L307.62,46.55L325.71,67.49L343.8,90.54L361.9,109.1L361.9,117.76L343.8,104.92L325.71,86.2L307.62,67.88L289.52,53.97L271.42,45.52L253.33,41.82L235.24,40.46L217.14,39.92L199.05,31.95L180.95,19.21L162.85,19.56L144.76,24.21L126.67,17.7L72.38,12.3L54.29,30.91L36.19,80.63L18.1,149.02L0,246Z" style="fill: rgb(55, 52, 44); fill-opacity: 0.5; stroke-width: 0;"/></g></g><g class="errorbars"/><g class="lines"><path class="js-line" d="M0,246L18.1,149.02L36.19,80.63L54.29,30.91L72.38,12.3L126.67,17.7L144.76,24.21L162.85,19.56L180.95,19.21L199.05,31.95L217.14,39.92L235.24,40.46L253.33,41.82L271.42,45.52L289.52,53.97L307.62,67.88L325.71,86.2L343.8,104.92L361.9,117.76" style="vector-effect: none; fill: none; stroke: rgb(55, 52, 44); strokeOpacity: 1; stroke-width: 2px; opacity: 1;"/></g><g class="points"/><g class="text"/></g><g class="trace scatter tracea0fa89" style="stroke-miterlimit: 2;"><g class="fills"><g><path class="js-fill" d="M0,246L18.1,149.02L36.19,80.63L54.29,30.91L72.38,12.3L126.67,17.7L144.76,24.21L162.85,19.56L180.95,19.21L199.05,19.6L217.14,21.2L235.24,18.74L253.33,18.98L271.42,22.58L289.52,31.49L307.62,46.55L325.71,67.48L343.8,90.54L361.9,109.1L361.9,109.1L343.8,90.54L325.71,67.49L307.62,46.55L289.52,31.49L271.42,22.58L253.33,18.98L235.24,18.74L217.14,21.2L199.05,19.6L180.95,19.21L162.85,19.56L144.76,24.21L126.67,17.7L72.38,12.3L54.29,30.91L36.19,80.63L18.1,149.02L0,246Z" style="fill: rgb(55, 52, 44); fill-opacity: 0.5; stroke-width: 0;"/></g></g><g class="errorbars"/><g class="lines"><path class="js-line" d="M0,246L18.1,149.02L36.19,80.63L54.29,30.91L72.38,12.3L126.67,17.7L144.76,24.21L162.85,19.56L180.95,19.21L199.05,19.6L217.14,21.2L235.24,18.74L253.33,18.98L271.42,22.58L289.52,31.49L307.62,46.55L325.71,67.49L343.8,90.54L361.9,109.1" style="vector-effect: none; fill: none; stroke: rgb(55, 52, 44); strokeOpacity: 1; stroke-width: 2px; opacity: 1;"/></g><g class="points"/><g class="text"/></g><g class="trace scatter tracefce050" style="stroke-miterlimit: 2;"><g class="fills"><g><path class="js-fill" d="M0,246L18.1,149.02L36.19,80.63L54.29,30.91L72.38,12.3L126.67,17.7L144.76,24.21L162.85,19.56L180.95,19.21L199.05,19.6L217.14,21.2L235.24,18.74L253.33,18.98L271.42,22.58L289.52,31.49L307.62,46.55L325.71,67.48L343.8,90.54L361.9,109.1L361.9,109.1L343.8,90.54L325.71,67.48L307.62,46.55L289.52,31.49L271.42,22.58L253.33,18.98L235.24,18.74L217.14,21.2L199.05,19.6L180.95,19.21L162.85,19.56L144.76,24.21L126.67,17.7L72.38,12.3L54.29,30.91L36.19,80.63L18.1,149.02L0,246Z" style="fill: rgb(55, 52, 44); fill-opacity: 0.5; stroke-width: 0;"/></g></g><g class="errorbars"/><g class="lines"><path class="js-line" d="M0,246L18.1,149.02L36.19,80.63L54.29,30.91L72.38,12.3L126.67,17.7L144.76,24.21L162.85,19.56L180.95,19.21L199.05,19.6L217.14,21.2L235.24,18.74L253.33,18.98L271.42,22.58L289.52,31.49L307.62,46.55L325.71,67.48L343.8,90.54L361.9,109.1" style="vector-effect: none; fill: none; stroke: rgb(55, 52, 44); strokeOpacity: 1; stroke-width: 2px; opacity: 1;"/></g><g class="points"/><g class="text"/></g><g class="trace scatter trace7cc303" style="stroke-miterlimit: 2;"><g class="fills"><g><path class="js-fill" d="M0,246L18.1,149.02L36.19,80.63L54.29,30.91L72.38,12.3L126.67,17.7L144.76,24.21L162.85,19.56L180.95,19.21L199.05,19.6L217.14,21.2L235.24,18.74L253.33,18.98L271.42,22.58L289.52,31.49L307.62,46.55L325.71,67.48L343.8,90.54L361.9,109.1L361.9,109.1L343.8,90.54L325.71,67.48L307.62,46.55L289.52,31.49L271.42,22.58L253.33,18.98L235.24,18.74L217.14,21.2L199.05,19.6L180.95,19.21L162.85,19.56L144.76,24.21L126.67,17.7L72.38,12.3L54.29,30.91L36.19,80.63L18.1,149.02L0,246Z" style="fill: rgb(55, 52, 44); fill-opacity: 0.5; stroke-width: 0;"/></g></g><g class="errorbars"/><g class="lines"><path class="js-line" d="M0,246L18.1,149.02L36.19,80.63L54.29,30.91L72.38,12.3L126.67,17.7L144.76,24.21L162.85,19.56L180.95,19.21L199.05,19.6L217.14,21.2L235.24,18.74L253.33,18.98L271.42,22.58L289.52,31.49L307.62,46.55L325.71,67.48L343.8,90.54L361.9,109.1" style="vector-effect: none; fill: none; stroke: rgb(55, 52, 44); strokeOpacity: 1; stroke-width: 2px; opacity: 1;"/></g><g class="points"/><g class="text"/></g><g class="trace scatter tracebdb329" style="stroke-miterlimit: 2;"><g class="fills"><g><path class="js-fill" d="M0,246L18.1,149.02L36.19,80.63L54.29,30.91L72.38,12.3L126.67,17.7L144.76,24.21L162.85,19.56L180.95,19.21L199.05,19.6L217.14,21.2L235.24,18.74L253.33,18.98L271.42,19.56L289.52,26.91L307.62,41.23L325.71,61.89L343.8,84.92L361.9,103.6L361.9,109.1L343.8,90.54L325.71,67.48L307.62,46.55L289.52,31.49L271.42,22.58L253.33,18.98L235.24,18.74L217.14,21.2L199.05,19.6L180.95,19.21L162.85,19.56L144.76,24.21L126.67,17.7L72.38,12.3L54.29,30.91L36.19,80.63L18.1,149.02L0,246Z" style="fill: rgb(55, 52, 44); fill-opacity: 0.5; stroke-width: 0;"/></g></g><g class="errorbars"/><g class="lines"><path class="js-line" d="M0,246L18.1,149.02L36.19,80.63L54.29,30.91L72.38,12.3L126.67,17.7L144.76,24.21L162.85,19.56L180.95,19.21L199.05,19.6L217.14,21.2L235.24,18.74L253.33,18.98L271.42,22.58L289.52,31.49L307.62,46.55L325.71,67.48L343.8,90.54L361.9,109.1" style="vector-effect: none; fill: none; stroke: rgb(55, 52, 44); strokeOpacity: 1; stroke-width: 2px; opacity: 1;"/></g><g class="points"/><g class="text"/></g><g class="trace scatter tracea3d21b" style="stroke-miterlimit: 2;"><g class="fills"><g><path class="js-fill" d="M0,246L18.1,149.02L36.19,80.63L54.29,30.91L72.38,12.3L126.67,17.7L144.76,24.21L162.85,19.56L180.95,19.21L199.05,19.6L217.14,21.2L235.24,18.74L253.33,18.98L289.52,19.56L307.62,30.09L325.71,48.96L343.8,71.32L361.9,89.94L361.9,103.6L343.8,84.92L325.71,61.89L307.62,41.23L289.52,26.91L271.42,19.56L253.33,18.98L235.24,18.74L217.14,21.2L199.05,19.6L180.95,19.21L162.85,19.56L144.76,24.21L126.67,17.7L72.38,12.3L54.29,30.91L36.19,80.63L18.1,149.02L0,246Z" style="fill: rgb(55, 52, 44); fill-opacity: 0.5; stroke-width: 0;"/></g></g><g class="errorbars"/><g class="lines"><path class="js-line" d="M0,246L18.1,149.02L36.19,80.63L54.29,30.91L72.38,12.3L126.67,17.7L144.76,24.21L162.85,19.56L180.95,19.21L199.05,19.6L217.14,21.2L235.24,18.74L253.33,18.98L271.42,19.56L289.52,26.91L307.62,41.23L325.71,61.89L343.8,84.92L361.9,103.6" style="vector-effect: none; fill: none; stroke: rgb(55, 52, 44); strokeOpacity: 1; stroke-width: 2px; opacity: 1;"/></g><g class="points"/><g class="text"/></g><g class="trace scatter tracec1e359" style="stroke-miterlimit: 2;"><g class="fills"><g><path class="js-fill" d="M0,246L18.1,149.02L36.19,80.63L54.29,30.91L72.38,12.3L126.67,17.7L144.76,24.21L162.85,19.56L180.95,19.21L199.05,19.6L217.14,21.2L235.24,18.74L253.33,18.98L289.52,19.56L307.62,19.56L325.71,33L343.8,52.8L361.9,70.46L361.9,89.94L343.8,71.32L325.71,48.96L307.62,30.09L289.52,19.56L253.33,18.98L235.24,18.74L217.14,21.2L199.05,19.6L180.95,19.21L162.85,19.56L144.76,24.21L126.67,17.7L72.38,12.3L54.29,30.91L36.19,80.63L18.1,149.02L0,246Z" style="fill: rgb(55, 52, 44); fill-opacity: 0.5; stroke-width: 0;"/></g></g><g class="errorbars"/><g class="lines"><path class="js-line" d="M0,246L18.1,149.02L36.19,80.63L54.29,30.91L72.38,12.3L126.67,17.7L144.76,24.21L162.85,19.56L180.95,19.21L199.05,19.6L217.14,21.2L235.24,18.74L253.33,18.98L289.52,19.56L307.62,30.09L325.71,48.96L343.8,71.32L361.9,89.94" style="vector-effect: none; fill: none; stroke: rgb(55, 52, 44); strokeOpacity: 1; stroke-width: 2px; opacity: 1;"/></g><g class="points"/><g class="text"/></g><g class="trace scatter traceaa9c8d" style="stroke-miterlimit: 2;"><g class="fills"><g><path class="js-fill" d="M0,246L18.1,149.02L36.19,80.63L54.29,30.91L72.38,12.3L126.67,17.7L144.76,24.21L162.85,19.56L180.95,19.21L199.05,19.6L217.14,21.2L235.24,18.74L253.33,18.98L289.52,19.56L307.62,19.56L325.71,19.56L343.8,32.43L361.9,46.83L361.9,70.46L343.8,52.8L325.71,33L307.62,19.56L289.52,19.56L253.33,18.98L235.24,18.74L217.14,21.2L199.05,19.6L180.95,19.21L162.85,19.56L144.76,24.21L126.67,17.7L72.38,12.3L54.29,30.91L36.19,80.63L18.1,149.02L0,246Z" style="fill: rgb(55, 52, 44); fill-opacity: 0.5; stroke-width: 0;"/></g></g><g class="errorbars"/><g class="lines"><path class="js-line" d="M0,246L18.1,149.02L36.19,80.63L54.29,30.91L72.38,12.3L126.67,17.7L144.76,24.21L162.85,19.56L180.95,19.21L199.05,19.6L217.14,21.2L235.24,18.74L253.33,18.98L289.52,19.56L307.62,19.56L325.71,33L343.8,52.8L361.9,70.46" style="vector-effect: none; fill: none; stroke: rgb(55, 52, 44); strokeOpacity: 1; stroke-width: 2px; opacity: 1;"/></g><g class="points"/><g class="text"/></g><g class="trace scatter trace213685" style="stroke-miterlimit: 2;"><g class="fills"><g><path class="js-fill" d="M0,246L18.1,149.02L36.19,80.63L54.29,30.91L72.38,12.3L126.67,17.7L144.76,24.21L162.85,19.56L180.95,19.21L199.05,19.6L217.14,21.2L235.24,18.74L253.33,18.98L289.52,19.56L307.62,19.56L343.8,19.55L361.9,27.32L361.9,46.83L343.8,32.43L325.71,19.56L307.62,19.56L289.52,19.56L253.33,18.98L235.24,18.74L217.14,21.2L199.05,19.6L180.95,19.21L162.85,19.56L144.76,24.21L126.67,17.7L72.38,12.3L54.29,30.91L36.19,80.63L18.1,149.02L0,246Z" style="fill: rgb(55, 52, 44); fill-opacity: 0.5; stroke-width: 0;"/></g></g><g class="errorbars"/><g class="lines"><path class="js-line" d="M0,246L18.1,149.02L36.19,80.63L54.29,30.91L72.38,12.3L126.67,17.7L144.76,24.21L162.85,19.56L180.95,19.21L199.05,19.6L217.14,21.2L235.24,18.74L253.33,18.98L289.52,19.56L307.62,19.56L325.71,19.56L343.8,32.43L361.9,46.83" style="vector-effect: none; fill: none; stroke: rgb(55, 52, 44); strokeOpacity: 1; stroke-width: 2px; opacity: 1;"/></g><g class="points"/><g class="text"/></g><g class="trace scatter trace51e6e9" style="stroke-miterlimit: 2;"><g class="fills"><g><path class="js-fill" d="M0,246L18.1,149.02L36.19,80.63L54.29,30.91L72.38,12.3L126.67,17.7L144.76,24.21L162.85,19.56L180.95,19.21L199.05,19.6L217.14,21.2L235.24,18.74L253.33,18.98L289.52,19.56L307.62,19.56L361.9,19.56L361.9,27.32L343.8,19.55L307.62,19.56L289.52,19.56L253.33,18.98L235.24,18.74L217.14,21.2L199.05,19.6L180.95,19.21L162.85,19.56L144.76,24.21L126.67,17.7L72.38,12.3L54.29,30.91L36.19,80.63L18.1,149.02L0,246Z" style="fill: rgb(55, 52, 44); fill-opacity: 0.5; stroke-width: 0;"/></g></g><g class="errorbars"/><g class="lines"><path class="js-line" d="M0,246L18.1,149.02L36.19,80.63L54.29,30.91L72.38,12.3L126.67,17.7L144.76,24.21L162.85,19.56L180.95,19.21L199.05,19.6L217.14,21.2L235.24,18.74L253.33,18.98L289.52,19.56L307.62,19.56L343.8,19.55L361.9,27.32" style="vector-effect: none; fill: none; stroke: rgb(55, 52, 44); strokeOpacity: 1; stroke-width: 2px; opacity: 1;"/></g><g class="points"/><g class="text"/></g><g class="trace scatter trace7be9de" style="stroke-miterlimit: 2;"><g class="fills"><g><path class="js-fill" d="M0,246L18.1,149.02L36.19,80.63L54.29,30.91L72.38,12.3L126.67,17.7L144.76,24.21L162.85,19.56L180.95,19.21L199.05,19.6L217.14,21.2L235.24,18.74L253.33,18.98L289.52,19.56L307.62,19.56L361.9,19.56L361.9,19.56L307.62,19.56L289.52,19.56L253.33,18.98L235.24,18.74L217.14,21.2L199.05,19.6L180.95,19.21L162.85,19.56L144.76,24.21L126.67,17.7L72.38,12.3L54.29,30.91L36.19,80.63L18.1,149.02L0,246Z" style="fill: rgb(55, 52, 44); fill-opacity: 0.5; stroke-width: 0;"/></g></g><g class="errorbars"/><g class="lines"><path class="js-line" d="M0,246L18.1,149.02L36.19,80.63L54.29,30.91L72.38,12.3L126.67,17.7L144.76,24.21L162.85,19.56L180.95,19.21L199.05,19.6L217.14,21.2L235.24,18.74L253.33,18.98L289.52,19.56L307.62,19.56L361.9,19.56" style="vector-effect: none; fill: none; stroke: rgb(55, 52, 44); strokeOpacity: 1; stroke-width: 2px; opacity: 1;"/></g><g class="points"/><g class="text"/></g><g class="trace scatter tracea42b78" style="stroke-miterlimit: 2;"><g class="fills"/><g class="errorbars"/><g class="lines"><path class="js-line" d="M0,246L18.1,149.02L36.19,80.63L54.29,30.91L72.38,12.3L126.67,17.7L144.76,24.21L162.85,19.56L180.95,19.21L199.05,19.6L217.14,21.2L235.24,18.74L253.33,18.98L289.52,19.56L307.62,19.56L361.9,19.56" style="vector-effect: none; fill: none; stroke: rgb(55, 52, 44); strokeOpacity: 1; stroke-width: 2px; opacity: 1;"/></g><g class="points"/><g class="text"/></g></g></g><g class="overplot"/><path class="xlines-above crisp" d="M0,0" style="fill: none;"/><path class="ylines-above crisp" d="M0,0" style="fill: none;"/><g class="overlines-above"/><g class="xaxislayer-above"><g class="xtick"><text text-anchor="middle" x="0" y="257" transform="translate(24,0)" style="font-family: verdana; font-size: 10px; fill: rgb(0, 0, 0); fill-opacity: 1; white-space: pre; opacity: 1;">0</text></g><g class="xtick"><text text-anchor="middle" x="0" y="257" style="font-family: verdana; font-size: 10px; fill: rgb(0, 0, 0); fill-opacity: 1; white-space: pre; opacity: 1;" transform="translate(114.48,0)">5</text></g><g class="xtick"><text text-anchor="middle" x="0" y="257" style="font-family: verdana; font-size: 10px; fill: rgb(0, 0, 0); fill-opacity: 1; white-space: pre; opacity: 1;" transform="translate(204.95,0)">10</text></g><g class="xtick"><text text-anchor="middle" x="0" y="257" style="font-family: verdana; font-size: 10px; fill: rgb(0, 0, 0); fill-opacity: 1; white-space: pre; opacity: 1;" transform="translate(295.42,0)">15</text></g><g class="xtick"><text text-anchor="middle" x="0" y="257" style="font-family: verdana; font-size: 10px; fill: rgb(0, 0, 0); fill-opacity: 1; white-space: pre; opacity: 1;" transform="translate(385.9,0)">20</text></g></g><g class="yaxislayer-above"><g class="ytick"><text text-anchor="end" x="23" y="3.5" transform="translate(0,246)" style="font-family: verdana; font-size: 10px; fill: rgb(0, 0, 0); fill-opacity: 1; white-space: pre; opacity: 1;">0%</text></g><g class="ytick"><text text-anchor="end" x="23" y="3.5" style="font-family: verdana; font-size: 10px; fill: rgb(0, 0, 0); fill-opacity: 1; white-space: pre; opacity: 1;" transform="translate(0,199.99)">10%</text></g><g class="ytick"><text text-anchor="end" x="23" y="3.5" style="font-family: verdana; font-size: 10px; fill: rgb(0, 0, 0); fill-opacity: 1; white-space: pre; opacity: 1;" transform="translate(0,153.98)">20%</text></g><g class="ytick"><text text-anchor="end" x="23" y="3.5" style="font-family: verdana; font-size: 10px; fill: rgb(0, 0, 0); fill-opacity: 1; white-space: pre; opacity: 1;" transform="translate(0,107.97)">30%</text></g><g class="ytick"><text text-anchor="end" x="23" y="3.5" style="font-family: verdana; font-size: 10px; fill: rgb(0, 0, 0); fill-opacity: 1; white-space: pre; opacity: 1;" transform="translate(0,61.96)">40%</text></g><g class="ytick"><text text-anchor="end" x="23" y="3.5" style="font-family: verdana; font-size: 10px; fill: rgb(0, 0, 0); fill-opacity: 1; white-space: pre; opacity: 1;" transform="translate(0,15.95)">50%</text></g></g><g class="overaxes-above"/></g><g class="subplot x2y2"><g class="layer-subplot"><g class="shapelayer"/><g class="imagelayer"/></g><g class="minor-gridlayer"><g class="x2"/><g class="y2"/></g><g class="gridlayer"><g class="x2"><path class="x2grid crisp" transform="translate(527.34,0)" d="M0,0v246" style="stroke: rgb(255, 255, 255); strokeOpacity: 1; stroke-width: 1px;"/><path class="x2grid crisp" transform="translate(622.57,0)" d="M0,0v246" style="stroke: rgb(255, 255, 255); strokeOpacity: 1; stroke-width: 1px;"/><path class="x2grid crisp" transform="translate(717.81,0)" d="M0,0v246" style="stroke: rgb(255, 255, 255); strokeOpacity: 1; stroke-width: 1px;"/></g><g class="y2"><path class="y2grid crisp" transform="translate(0,170.36)" d="M432.1,0h361.9" style="stroke: rgb(255, 255, 255); strokeOpacity: 1; stroke-width: 1px;"/><path class="y2grid crisp" transform="translate(0,107.02)" d="M432.1,0h361.9" style="stroke: rgb(255, 255, 255); strokeOpacity: 1; stroke-width: 1px;"/><path class="y2grid crisp" transform="translate(0,43.68)" d="M432.1,0h361.9" style="stroke: rgb(255, 255, 255); strokeOpacity: 1; stroke-width: 1px;"/></g></g><g class="zerolinelayer"><path class="x2zl zl crisp" transform="translate(432.1,0)" d="M0,0v246" style="stroke: rgb(255, 255, 255); strokeOpacity: 1; stroke-width: 3px;"/><path class="y2zl zl crisp" transform="translate(0,233.7)" d="M432.1,0h361.9" style="stroke: rgb(255, 255, 255); strokeOpacity: 1; stroke-width: 3px;"/></g><g class="layer-between"><g class="shapelayer"/><g class="imagelayer"/></g><path class="xlines-below"/><path class="ylines-below"/><g class="overlines-below"/><g class="xaxislayer-below"/><g class="yaxislayer-below"/><g class="overaxes-below"/><g class="plot" transform="translate(432.1,0)" clip-path="url(#clip3af3f8x2y2plot)"><g class="scatterlayer mlayer"><g class="trace scatter trace77ddf8" style="stroke-miterlimit: 2; opacity: 1;"><g class="fills"/><g class="errorbars"/><g class="lines"><path class="js-line" d="M0,12.3L19.05,233.7L38.09,233.7L76.19,233.7L95.24,150.88L114.28,169.93L133.33,185.37L152.38,229.4L171.43,190.19L190.47,206.48L209.52,204.6L228.57,194.68L247.62,171.02L266.66,199.07L285.71,212.5L304.76,199.2L323.81,195.94L342.85,195.63L361.9,192.91" style="vector-effect: none; fill: none; stroke: rgb(91, 37, 73); strokeOpacity: 1; stroke-width: 2px; opacity: 1;"/></g><g class="points"/><g class="text"/></g><g class="trace scatter trace2f3f98" style="stroke-miterlimit: 2; opacity: 1;"><g class="fills"/><g class="errorbars"/><g class="lines"><path class="js-line" d="M0,22.51L19.05,233.7L38.09,233.7L95.24,233.7L114.28,224.62L133.33,230.45L152.38,134.94L171.43,184.35L190.47,188.69L209.52,233.7L228.57,233.7L247.62,233.7L266.66,222.67L285.71,206.9L304.76,195.31L323.81,184.7L342.85,186.78L361.9,205.41" style="vector-effect: none; fill: none; stroke: rgb(55, 52, 44); strokeOpacity: 1; stroke-width: 2px; opacity: 1;"/></g><g class="points"/><g class="text"/></g><g class="trace scatter trace4a08d0" style="stroke-miterlimit: 2; opacity: 1;"><g class="fills"/><g class="errorbars"/><g class="lines"><path class="js-line" d="M0,233.7" style="vector-effect: none; fill: none; stroke: rgb(91, 37, 73); strokeOpacity: 1; stroke-width: 2px; opacity: 1;"/></g><g class="points"/><g class="text"/></g></g></g><g class="overplot"/><path class="xlines-above crisp" d="M0,0" style="fill: none;"/><path class="ylines-above crisp" d="M0,0" style="fill: none;"/><g class="overlines-above"/><g class="xaxislayer-above"><g class="x2tick"><text text-anchor="middle" x="0" y="257" transform="translate(432.1,0)" style="font-family: verdana; font-size: 10px; fill: rgb(0, 0, 0); fill-opacity: 1; white-space: pre; opacity: 1;">0</text></g><g class="x2tick"><text text-anchor="middle" x="0" y="257" style="font-family: verdana; font-size: 10px; fill: rgb(0, 0, 0); fill-opacity: 1; white-space: pre; opacity: 1;" transform="translate(527.34,0)">5</text></g><g class="x2tick"><text text-anchor="middle" x="0" y="257" style="font-family: verdana; font-size: 10px; fill: rgb(0, 0, 0); fill-opacity: 1; white-space: pre; opacity: 1;" transform="translate(622.57,0)">10</text></g><g class="x2tick"><text text-anchor="middle" x="0" y="257" style="font-family: verdana; font-size: 10px; fill: rgb(0, 0, 0); fill-opacity: 1; white-space: pre; opacity: 1;" transform="translate(717.81,0)">15</text></g></g><g class="yaxislayer-above"><g class="y2tick"><text text-anchor="end" x="431.1" y="3.5" transform="translate(0,233.7)" style="font-family: verdana; font-size: 10px; fill: rgb(0, 0, 0); fill-opacity: 1; white-space: pre; opacity: 1;">0%</text></g><g class="y2tick"><text text-anchor="end" x="431.1" y="3.5" style="font-family: verdana; font-size: 10px; fill: rgb(0, 0, 0); fill-opacity: 1; white-space: pre; opacity: 1;" transform="translate(0,170.36)">10%</text></g><g class="y2tick"><text text-anchor="end" x="431.1" y="3.5" style="font-family: verdana; font-size: 10px; fill: rgb(0, 0, 0); fill-opacity: 1; white-space: pre; opacity: 1;" transform="translate(0,107.02)">20%</text></g><g class="y2tick"><text text-anchor="end" x="431.1" y="3.5" style="font-family: verdana; font-size: 10px; fill: rgb(0, 0, 0); fill-opacity: 1; white-space: pre; opacity: 1;" transform="translate(0,43.68)">30%</text></g></g><g class="overaxes-above"/></g></g><g class="polarlayer"/><g class="smithlayer"/><g class="ternarylayer"/><g class="geolayer"/><g class="funnelarealayer"/><g class="pielayer"/><g class="iciclelayer"/><g class="treemaplayer"/><g class="sunburstlayer"/><g class="glimages"/><defs id="topdefs-3af3f8"><g class="clips"/><clipPath id="legend3af3f8"><rect width="214" height="29" x="0" y="0"/></clipPath></defs><g class="layer-above"><g class="imagelayer"/><g class="shapelayer"/></g><g class="infolayer"><g class="legend" pointer-events="all" transform="translate(302,270.6)"><rect class="bg" shape-rendering="crispEdges" width="214" height="29" x="0" y="0" style="stroke: rgb(68, 68, 68); strokeOpacity: 1; fill: rgb(0, 0, 0); fill-opacity: 0; stroke-width: 0px;"/><g class="scrollbox" transform="" clip-path="url(#legend3af3f8)"><g class="groups" transform=""><g class="traces" transform="translate(0,14.5)" style="opacity: 1;"><text class="legendtext" text-anchor="start" x="40" y="3.9" style="font-family: verdana; font-size: 10px; fill: rgb(0, 0, 0); fill-opacity: 1; white-space: pre;">private equity</text><g class="layers"><g class="legendfill"><path class="js-fill" d="M5,-2h30v6h-30z" style="stroke-width: 0; fill: rgb(91, 37, 73); fill-opacity: 0.5;"/></g><g class="legendlines"><path class="js-line" d="M5,-2h30" style="fill: none; stroke: rgb(91, 37, 73); strokeOpacity: 1; stroke-width: 2px;"/></g><g class="legendsymbols"><g class="legendpoints"/></g></g><rect class="legendtoggle" x="0" y="-9.5" width="112.203125" height="19" style="fill: rgb(0, 0, 0); fill-opacity: 0;"/></g></g><g class="groups" transform="translate(114.703125,0)"><g class="traces" transform="translate(0,14.5)" style="opacity: 1;"><text class="legendtext" text-anchor="start" x="40" y="3.9" style="font-family: verdana; font-size: 10px; fill: rgb(0, 0, 0); fill-opacity: 1; white-space: pre;">real estate</text><g class="layers"><g class="legendfill"><path class="js-fill" d="M5,-2h30v6h-30z" style="stroke-width: 0; fill: rgb(55, 52, 44); fill-opacity: 0.5;"/></g><g class="legendlines"><path class="js-line" d="M5,-2h30" style="fill: none; stroke: rgb(55, 52, 44); strokeOpacity: 1; stroke-width: 2px;"/></g><g class="legendsymbols"><g class="legendpoints"/></g></g><rect class="legendtoggle" x="0" y="-9.5" width="96.015625" height="19" style="fill: rgb(0, 0, 0); fill-opacity: 0;"/></g></g></g><rect class="scrollbar" rx="20" ry="3" width="0" height="0" x="0" y="0" style="fill: rgb(128, 139, 164); fill-opacity: 1;"/></g><g class="g-gtitle"/><g class="g-xtitle"/><g class="g-x2title"/><g class="g-ytitle"/><g class="g-y2title"/></g></svg>