<svg width="288" height="288" viewBox="0 0 288 288" fill="none" xmlns="http://www.w3.org/2000/svg">
<g clip-path="url(#clip0_272_4636)">
<rect width="193" height="193" transform="translate(95 95)" fill="#24001C"/>
<path d="M197.443 197.444C197.116 197.117 196.789 196.79 196.462 196.462" stroke="#F6D684" stroke-miterlimit="3.99933" stroke-linecap="round"/>
<path d="M197.443 185.556C197.116 185.884 196.789 186.211 196.462 186.538" stroke="#F6D684" stroke-miterlimit="3.99933" stroke-linecap="round"/>
<path d="M185.556 185.556C185.883 185.884 186.21 186.211 186.538 186.538" stroke="#F6D684" stroke-miterlimit="3.99933" stroke-linecap="round"/>
<path d="M185.556 197.444C185.883 197.117 186.21 196.79 186.538 196.462" stroke="#F6D684" stroke-miterlimit="3.99933" stroke-linecap="round"/>
<path d="M203.533 203.533C203.112 203.112 202.692 202.691 202.271 202.271" stroke="#F6D684" stroke-miterlimit="3.99933" stroke-linecap="round"/>
<path d="M208.517 191.5C207.922 191.5 207.327 191.5 206.732 191.5" stroke="#F6D684" stroke-miterlimit="3.99933" stroke-linecap="round"/>
<path d="M203.533 179.467C203.112 179.888 202.692 180.309 202.271 180.729" stroke="#F6D684" stroke-miterlimit="3.99933" stroke-linecap="round"/>
<path d="M191.5 174.483C191.5 175.078 191.5 175.673 191.5 176.268" stroke="#F6D684" stroke-miterlimit="3.99933" stroke-linecap="round"/>
<path d="M179.467 179.467C179.888 179.888 180.309 180.309 180.729 180.729" stroke="#F6D684" stroke-miterlimit="3.99933" stroke-linecap="round"/>
<path d="M174.483 191.5C175.078 191.5 175.673 191.5 176.268 191.5" stroke="#F6D684" stroke-miterlimit="3.99933" stroke-linecap="round"/>
<path d="M179.467 203.533C179.888 203.112 180.309 202.691 180.729 202.271" stroke="#F6D684" stroke-miterlimit="3.99933" stroke-linecap="round"/>
<path d="M191.5 208.517C191.5 207.922 191.5 207.327 191.5 206.732" stroke="#F6D684" stroke-miterlimit="3.99933" stroke-linecap="round"/>
<path d="M209.621 209.622C209.107 209.108 208.593 208.594 208.079 208.079" stroke="#F6D684" stroke-miterlimit="3.99933" stroke-linecap="round"/>
<path d="M216.255 198.133C215.553 197.945 214.85 197.757 214.148 197.569" stroke="#F6D684" stroke-miterlimit="3.99933" stroke-linecap="round"/>
<path d="M216.255 184.867C215.553 185.055 214.85 185.243 214.148 185.432" stroke="#F6D684" stroke-miterlimit="3.99933" stroke-linecap="round"/>
<path d="M209.621 173.379C209.107 173.893 208.593 174.407 208.079 174.921" stroke="#F6D684" stroke-miterlimit="3.99933" stroke-linecap="round"/>
<path d="M198.133 166.746C197.945 167.448 197.757 168.15 197.569 168.852" stroke="#F6D684" stroke-miterlimit="3.99933" stroke-linecap="round"/>
<path d="M184.867 166.746C185.055 167.448 185.244 168.15 185.432 168.852" stroke="#F6D684" stroke-miterlimit="3.99933" stroke-linecap="round"/>
<path d="M173.378 173.379C173.893 173.893 174.407 174.407 174.921 174.921" stroke="#F6D684" stroke-miterlimit="3.99933" stroke-linecap="round"/>
<path d="M166.746 184.867C167.448 185.055 168.15 185.243 168.852 185.432" stroke="#F6D684" stroke-miterlimit="3.99933" stroke-linecap="round"/>
<path d="M166.746 198.133C167.448 197.945 168.15 197.757 168.852 197.569" stroke="#F6D684" stroke-miterlimit="3.99933" stroke-linecap="round"/>
<path d="M173.378 209.622C173.893 209.108 174.407 208.594 174.921 208.079" stroke="#F6D684" stroke-miterlimit="3.99933" stroke-linecap="round"/>
<path d="M184.867 216.255C185.055 215.552 185.244 214.85 185.432 214.148" stroke="#F6D684" stroke-miterlimit="3.99933" stroke-linecap="round"/>
<path d="M198.133 216.255C197.945 215.552 197.757 214.85 197.569 214.148" stroke="#F6D684" stroke-miterlimit="3.99933" stroke-linecap="round"/>
<path d="M215.711 215.711C215.103 215.103 214.496 214.495 213.888 213.888" stroke="#F6D684" stroke-miterlimit="3.99933" stroke-linecap="round"/>
<path d="M223.133 204.603C222.339 204.274 221.545 203.945 220.751 203.616" stroke="#F6D684" stroke-miterlimit="3.99933" stroke-linecap="round"/>
<path d="M225.739 191.5C224.88 191.5 224.02 191.5 223.161 191.5" stroke="#F6D684" stroke-miterlimit="3.99933" stroke-linecap="round"/>
<path d="M223.133 178.398C222.339 178.726 221.545 179.055 220.751 179.384" stroke="#F6D684" stroke-miterlimit="3.99933" stroke-linecap="round"/>
<path d="M215.711 167.29C215.103 167.897 214.496 168.505 213.888 169.112" stroke="#F6D684" stroke-miterlimit="3.99933" stroke-linecap="round"/>
<path d="M204.603 159.867C204.274 160.661 203.945 161.455 203.616 162.249" stroke="#F6D684" stroke-miterlimit="3.99933" stroke-linecap="round"/>
<path d="M191.5 157.261C191.5 158.12 191.5 158.98 191.5 159.839" stroke="#F6D684" stroke-miterlimit="3.99933" stroke-linecap="round"/>
<path d="M178.397 159.867C178.726 160.661 179.055 161.455 179.384 162.249" stroke="#F6D684" stroke-miterlimit="3.99933" stroke-linecap="round"/>
<path d="M167.29 167.29C167.897 167.897 168.505 168.505 169.112 169.112" stroke="#F6D684" stroke-miterlimit="3.99933" stroke-linecap="round"/>
<path d="M159.868 178.398C160.662 178.726 161.455 179.055 162.249 179.384" stroke="#F6D684" stroke-miterlimit="3.99933" stroke-linecap="round"/>
<path d="M157.261 191.5C158.12 191.5 158.98 191.5 159.839 191.5" stroke="#F6D684" stroke-miterlimit="3.99933" stroke-linecap="round"/>
<path d="M159.868 204.603C160.662 204.274 161.455 203.945 162.249 203.616" stroke="#F6D684" stroke-miterlimit="3.99933" stroke-linecap="round"/>
<path d="M167.29 215.711C167.897 215.103 168.505 214.495 169.112 213.888" stroke="#F6D684" stroke-miterlimit="3.99933" stroke-linecap="round"/>
<path d="M178.397 223.133C178.726 222.339 179.055 221.545 179.384 220.751" stroke="#F6D684" stroke-miterlimit="3.99933" stroke-linecap="round"/>
<path d="M191.5 225.739C191.5 224.88 191.5 224.02 191.5 223.161" stroke="#F6D684" stroke-miterlimit="3.99933" stroke-linecap="round"/>
<path d="M204.603 223.133C204.274 222.339 203.945 221.545 203.616 220.751" stroke="#F6D684" stroke-miterlimit="3.99933" stroke-linecap="round"/>
<path d="M221.799 221.799C221.098 221.098 220.397 220.397 219.696 219.696" stroke="#F6D684" stroke-miterlimit="3.99933" stroke-linecap="round"/>
<path d="M229.68 210.954C228.797 210.503 227.913 210.053 227.03 209.603" stroke="#F6D684" stroke-miterlimit="3.99933" stroke-linecap="round"/>
<path d="M233.823 198.203C232.843 198.048 231.864 197.893 230.885 197.738" stroke="#F6D684" stroke-miterlimit="3.99933" stroke-linecap="round"/>
<path d="M233.823 184.797C232.843 184.952 231.864 185.107 230.885 185.262" stroke="#F6D684" stroke-miterlimit="3.99933" stroke-linecap="round"/>
<path d="M229.68 172.047C228.797 172.497 227.913 172.947 227.03 173.397" stroke="#F6D684" stroke-miterlimit="3.99933" stroke-linecap="round"/>
<path d="M221.799 161.201C221.098 161.902 220.397 162.603 219.696 163.304" stroke="#F6D684" stroke-miterlimit="3.99933" stroke-linecap="round"/>
<path d="M210.954 153.321C210.504 154.204 210.054 155.087 209.604 155.971" stroke="#F6D684" stroke-miterlimit="3.99933" stroke-linecap="round"/>
<path d="M198.204 149.178C198.048 150.157 197.893 151.136 197.738 152.115" stroke="#F6D684" stroke-miterlimit="3.99933" stroke-linecap="round"/>
<path d="M184.797 149.178C184.952 150.157 185.107 151.136 185.262 152.115" stroke="#F6D684" stroke-miterlimit="3.99933" stroke-linecap="round"/>
<path d="M172.047 153.321C172.497 154.204 172.947 155.087 173.397 155.971" stroke="#F6D684" stroke-miterlimit="3.99933" stroke-linecap="round"/>
<path d="M161.201 161.201C161.902 161.902 162.603 162.603 163.304 163.304" stroke="#F6D684" stroke-miterlimit="3.99933" stroke-linecap="round"/>
<path d="M153.32 172.047C154.204 172.497 155.087 172.947 155.97 173.397" stroke="#F6D684" stroke-miterlimit="3.99933" stroke-linecap="round"/>
<path d="M149.178 184.797C150.157 184.952 151.136 185.107 152.115 185.262" stroke="#F6D684" stroke-miterlimit="3.99933" stroke-linecap="round"/>
<path d="M149.178 198.203C150.157 198.048 151.136 197.893 152.115 197.738" stroke="#F6D684" stroke-miterlimit="3.99933" stroke-linecap="round"/>
<path d="M153.32 210.954C154.204 210.503 155.087 210.053 155.97 209.603" stroke="#F6D684" stroke-miterlimit="3.99933" stroke-linecap="round"/>
<path d="M161.201 221.8C161.902 221.099 162.603 220.397 163.304 219.696" stroke="#F6D684" stroke-miterlimit="3.99933" stroke-linecap="round"/>
<path d="M172.047 229.68C172.497 228.796 172.947 227.913 173.397 227.029" stroke="#F6D684" stroke-miterlimit="3.99933" stroke-linecap="round"/>
<path d="M184.797 233.823C184.952 232.843 185.107 231.864 185.262 230.885" stroke="#F6D684" stroke-miterlimit="3.99933" stroke-linecap="round"/>
<path d="M198.204 233.822C198.048 232.843 197.893 231.864 197.738 230.885" stroke="#F6D684" stroke-miterlimit="3.99933" stroke-linecap="round"/>
<path d="M210.954 229.68C210.504 228.796 210.054 227.913 209.604 227.029" stroke="#F6D684" stroke-miterlimit="3.99933" stroke-linecap="round"/>
<path d="M227.888 227.888C227.094 227.094 226.299 226.299 225.505 225.505" stroke="#F6D684" stroke-miterlimit="3.99933" stroke-linecap="round"/>
<path d="M236.067 217.231C235.094 216.669 234.121 216.107 233.147 215.545" stroke="#F6D684" stroke-miterlimit="3.99933" stroke-linecap="round"/>
<path d="M241.208 204.819C240.122 204.528 239.037 204.238 237.952 203.947" stroke="#F6D684" stroke-miterlimit="3.99933" stroke-linecap="round"/>
<path d="M242.961 191.5C241.837 191.5 240.713 191.5 239.59 191.5" stroke="#F6D684" stroke-miterlimit="3.99933" stroke-linecap="round"/>
<path d="M241.208 178.181C240.122 178.472 239.037 178.763 237.952 179.053" stroke="#F6D684" stroke-miterlimit="3.99933" stroke-linecap="round"/>
<path d="M236.067 165.77C235.094 166.331 234.121 166.893 233.147 167.455" stroke="#F6D684" stroke-miterlimit="3.99933" stroke-linecap="round"/>
<path d="M227.888 155.112C227.094 155.906 226.299 156.701 225.505 157.495" stroke="#F6D684" stroke-miterlimit="3.99933" stroke-linecap="round"/>
<path d="M217.23 146.934C216.669 147.907 216.107 148.88 215.545 149.853" stroke="#F6D684" stroke-miterlimit="3.99933" stroke-linecap="round"/>
<path d="M204.819 141.793C204.528 142.878 204.238 143.963 203.947 145.049" stroke="#F6D684" stroke-miterlimit="3.99933" stroke-linecap="round"/>
<path d="M191.5 140.039C191.5 141.163 191.5 142.286 191.5 143.41" stroke="#F6D684" stroke-miterlimit="3.99933" stroke-linecap="round"/>
<path d="M178.181 141.793C178.472 142.878 178.763 143.963 179.054 145.049" stroke="#F6D684" stroke-miterlimit="3.99933" stroke-linecap="round"/>
<path d="M165.77 146.934C166.331 147.907 166.893 148.88 167.455 149.853" stroke="#F6D684" stroke-miterlimit="3.99933" stroke-linecap="round"/>
<path d="M155.112 155.112C155.906 155.906 156.701 156.701 157.495 157.495" stroke="#F6D684" stroke-miterlimit="3.99933" stroke-linecap="round"/>
<path d="M146.934 165.77C147.907 166.331 148.88 166.893 149.853 167.455" stroke="#F6D684" stroke-miterlimit="3.99933" stroke-linecap="round"/>
<path d="M141.792 178.181C142.878 178.472 143.963 178.763 145.049 179.053" stroke="#F6D684" stroke-miterlimit="3.99933" stroke-linecap="round"/>
<path d="M140.039 191.5C141.163 191.5 142.286 191.5 143.41 191.5" stroke="#F6D684" stroke-miterlimit="3.99933" stroke-linecap="round"/>
<path d="M141.792 204.819C142.878 204.528 143.963 204.238 145.049 203.947" stroke="#F6D684" stroke-miterlimit="3.99933" stroke-linecap="round"/>
<path d="M146.934 217.231C147.907 216.669 148.88 216.107 149.853 215.545" stroke="#F6D684" stroke-miterlimit="3.99933" stroke-linecap="round"/>
<path d="M155.112 227.888C155.906 227.094 156.701 226.299 157.495 225.505" stroke="#F6D684" stroke-miterlimit="3.99933" stroke-linecap="round"/>
<path d="M165.77 236.067C166.331 235.093 166.893 234.12 167.455 233.147" stroke="#F6D684" stroke-miterlimit="3.99933" stroke-linecap="round"/>
<path d="M178.181 241.208C178.472 240.122 178.763 239.037 179.054 237.952" stroke="#F6D684" stroke-miterlimit="3.99933" stroke-linecap="round"/>
<path d="M191.5 242.961C191.5 241.837 191.5 240.714 191.5 239.59" stroke="#F6D684" stroke-miterlimit="3.99933" stroke-linecap="round"/>
<path d="M204.819 241.208C204.528 240.122 204.238 239.037 203.947 237.952" stroke="#F6D684" stroke-miterlimit="3.99933" stroke-linecap="round"/>
<path d="M217.231 236.067C216.669 235.093 216.107 234.12 215.545 233.147" stroke="#F6D684" stroke-miterlimit="3.99933" stroke-linecap="round"/>
<path d="M233.978 233.978C233.09 233.09 232.201 232.201 231.313 231.313" stroke="#F6D684" stroke-miterlimit="3.99933" stroke-linecap="round"/>
<path d="M242.364 223.46C241.301 222.792 240.238 222.124 239.174 221.456" stroke="#F6D684" stroke-miterlimit="3.99933" stroke-linecap="round"/>
<path d="M248.201 211.341C247.015 210.926 245.83 210.511 244.645 210.096" stroke="#F6D684" stroke-miterlimit="3.99933" stroke-linecap="round"/>
<path d="M251.195 198.226C249.947 198.086 248.699 197.945 247.451 197.804" stroke="#F6D684" stroke-miterlimit="3.99933" stroke-linecap="round"/>
<path d="M251.195 184.774C249.947 184.915 248.699 185.055 247.451 185.196" stroke="#F6D684" stroke-miterlimit="3.99933" stroke-linecap="round"/>
<path d="M248.201 171.66C247.015 172.075 245.83 172.489 244.645 172.904" stroke="#F6D684" stroke-miterlimit="3.99933" stroke-linecap="round"/>
<path d="M242.364 159.54C241.301 160.208 240.238 160.876 239.174 161.544" stroke="#F6D684" stroke-miterlimit="3.99933" stroke-linecap="round"/>
<path d="M233.978 149.023C233.09 149.911 232.201 150.799 231.313 151.687" stroke="#F6D684" stroke-miterlimit="3.99933" stroke-linecap="round"/>
<path d="M223.46 140.636C222.792 141.699 222.124 142.763 221.456 143.826" stroke="#F6D684" stroke-miterlimit="3.99933" stroke-linecap="round"/>
<path d="M211.341 134.799C210.926 135.985 210.511 137.17 210.096 138.355" stroke="#F6D684" stroke-miterlimit="3.99933" stroke-linecap="round"/>
<path d="M198.226 131.806C198.085 133.054 197.944 134.302 197.804 135.55" stroke="#F6D684" stroke-miterlimit="3.99933" stroke-linecap="round"/>
<path d="M184.774 131.806C184.915 133.054 185.055 134.302 185.196 135.55" stroke="#F6D684" stroke-miterlimit="3.99933" stroke-linecap="round"/>
<path d="M171.66 134.799C172.074 135.985 172.489 137.17 172.904 138.355" stroke="#F6D684" stroke-miterlimit="3.99933" stroke-linecap="round"/>
<path d="M159.54 140.636C160.208 141.699 160.876 142.763 161.544 143.826" stroke="#F6D684" stroke-miterlimit="3.99933" stroke-linecap="round"/>
<path d="M149.022 149.023C149.91 149.911 150.798 150.799 151.687 151.687" stroke="#F6D684" stroke-miterlimit="3.99933" stroke-linecap="round"/>
<path d="M140.636 159.54C141.699 160.208 142.762 160.876 143.826 161.544" stroke="#F6D684" stroke-miterlimit="3.99933" stroke-linecap="round"/>
<path d="M134.799 171.66C135.984 172.074 137.17 172.489 138.355 172.904" stroke="#F6D684" stroke-miterlimit="3.99933" stroke-linecap="round"/>
<path d="M131.806 184.774C133.054 184.915 134.302 185.055 135.549 185.196" stroke="#F6D684" stroke-miterlimit="3.99933" stroke-linecap="round"/>
<path d="M131.806 198.226C133.054 198.086 134.302 197.945 135.549 197.804" stroke="#F6D684" stroke-miterlimit="3.99933" stroke-linecap="round"/>
<path d="M134.799 211.341C135.984 210.926 137.17 210.511 138.355 210.096" stroke="#F6D684" stroke-miterlimit="3.99933" stroke-linecap="round"/>
<path d="M140.636 223.46C141.699 222.792 142.762 222.124 143.826 221.456" stroke="#F6D684" stroke-miterlimit="3.99933" stroke-linecap="round"/>
<path d="M149.022 233.978C149.91 233.09 150.798 232.201 151.687 231.313" stroke="#F6D684" stroke-miterlimit="3.99933" stroke-linecap="round"/>
<path d="M159.54 242.365C160.208 241.301 160.876 240.238 161.544 239.175" stroke="#F6D684" stroke-miterlimit="3.99933" stroke-linecap="round"/>
<path d="M171.66 248.201C172.074 247.016 172.489 245.831 172.904 244.645" stroke="#F6D684" stroke-miterlimit="3.99933" stroke-linecap="round"/>
<path d="M184.774 251.194C184.915 249.947 185.055 248.699 185.196 247.451" stroke="#F6D684" stroke-miterlimit="3.99933" stroke-linecap="round"/>
<path d="M198.226 251.194C198.085 249.947 197.945 248.699 197.804 247.451" stroke="#F6D684" stroke-miterlimit="3.99933" stroke-linecap="round"/>
<path d="M211.341 248.201C210.926 247.016 210.511 245.831 210.096 244.645" stroke="#F6D684" stroke-miterlimit="3.99933" stroke-linecap="round"/>
<path d="M223.46 242.365C222.792 241.301 222.124 240.238 221.456 239.175" stroke="#F6D684" stroke-miterlimit="3.99933" stroke-linecap="round"/>
<path d="M240.066 240.066C239.085 239.085 238.103 238.103 237.122 237.122" stroke="#F6D684" stroke-miterlimit="3.99933" stroke-linecap="round"/>
<path d="M248.608 229.658C247.454 228.887 246.3 228.116 245.146 227.345" stroke="#F6D684" stroke-miterlimit="3.99933" stroke-linecap="round"/>
<path d="M254.955 217.784C253.673 217.253 252.39 216.722 251.108 216.19" stroke="#F6D684" stroke-miterlimit="3.99933" stroke-linecap="round"/>
<path d="M258.863 204.9C257.502 204.629 256.141 204.358 254.779 204.087" stroke="#F6D684" stroke-miterlimit="3.99933" stroke-linecap="round"/>
<path d="M260.183 191.5C258.795 191.5 257.407 191.5 256.019 191.5" stroke="#F6D684" stroke-miterlimit="3.99933" stroke-linecap="round"/>
<path d="M258.863 178.101C257.502 178.372 256.141 178.642 254.779 178.913" stroke="#F6D684" stroke-miterlimit="3.99933" stroke-linecap="round"/>
<path d="M254.955 165.216C253.673 165.747 252.39 166.279 251.108 166.81" stroke="#F6D684" stroke-miterlimit="3.99933" stroke-linecap="round"/>
<path d="M248.608 153.342C247.454 154.113 246.3 154.884 245.146 155.655" stroke="#F6D684" stroke-miterlimit="3.99933" stroke-linecap="round"/>
<path d="M240.066 142.934C239.085 143.915 238.103 144.897 237.122 145.878" stroke="#F6D684" stroke-miterlimit="3.99933" stroke-linecap="round"/>
<path d="M229.658 134.392C228.887 135.546 228.116 136.7 227.345 137.855" stroke="#F6D684" stroke-miterlimit="3.99933" stroke-linecap="round"/>
<path d="M217.784 128.045C217.253 129.328 216.722 130.61 216.19 131.892" stroke="#F6D684" stroke-miterlimit="3.99933" stroke-linecap="round"/>
<path d="M204.899 124.137C204.628 125.498 204.358 126.859 204.087 128.221" stroke="#F6D684" stroke-miterlimit="3.99933" stroke-linecap="round"/>
<path d="M191.5 122.817C191.5 124.205 191.5 125.593 191.5 126.981" stroke="#F6D684" stroke-miterlimit="3.99933" stroke-linecap="round"/>
<path d="M178.101 124.137C178.371 125.498 178.642 126.859 178.913 128.221" stroke="#F6D684" stroke-miterlimit="3.99933" stroke-linecap="round"/>
<path d="M165.216 128.045C165.747 129.328 166.279 130.61 166.81 131.892" stroke="#F6D684" stroke-miterlimit="3.99933" stroke-linecap="round"/>
<path d="M153.342 134.392C154.113 135.546 154.884 136.7 155.655 137.855" stroke="#F6D684" stroke-miterlimit="3.99933" stroke-linecap="round"/>
<path d="M142.934 142.934C143.915 143.915 144.897 144.897 145.878 145.878" stroke="#F6D684" stroke-miterlimit="3.99933" stroke-linecap="round"/>
<path d="M134.392 153.342C135.546 154.113 136.7 154.884 137.854 155.655" stroke="#F6D684" stroke-miterlimit="3.99933" stroke-linecap="round"/>
<path d="M128.045 165.216C129.327 165.747 130.61 166.279 131.892 166.81" stroke="#F6D684" stroke-miterlimit="3.99933" stroke-linecap="round"/>
<path d="M124.137 178.101C125.498 178.372 126.859 178.642 128.221 178.913" stroke="#F6D684" stroke-miterlimit="3.99933" stroke-linecap="round"/>
<path d="M122.817 191.5C124.205 191.5 125.593 191.5 126.981 191.5" stroke="#F6D684" stroke-miterlimit="3.99933" stroke-linecap="round"/>
<path d="M124.137 204.9C125.498 204.629 126.859 204.358 128.221 204.087" stroke="#F6D684" stroke-miterlimit="3.99933" stroke-linecap="round"/>
<path d="M128.045 217.784C129.327 217.253 130.61 216.722 131.892 216.19" stroke="#F6D684" stroke-miterlimit="3.99933" stroke-linecap="round"/>
<path d="M134.392 229.658C135.546 228.887 136.7 228.116 137.854 227.345" stroke="#F6D684" stroke-miterlimit="3.99933" stroke-linecap="round"/>
<path d="M142.934 240.067C143.915 239.085 144.897 238.104 145.878 237.122" stroke="#F6D684" stroke-miterlimit="3.99933" stroke-linecap="round"/>
<path d="M153.342 248.608C154.113 247.454 154.884 246.3 155.655 245.146" stroke="#F6D684" stroke-miterlimit="3.99933" stroke-linecap="round"/>
<path d="M165.216 254.955C165.747 253.673 166.279 252.39 166.81 251.108" stroke="#F6D684" stroke-miterlimit="3.99933" stroke-linecap="round"/>
<path d="M178.101 258.863C178.371 257.502 178.642 256.141 178.913 254.779" stroke="#F6D684" stroke-miterlimit="3.99933" stroke-linecap="round"/>
<path d="M191.5 260.183C191.5 258.795 191.5 257.407 191.5 256.019" stroke="#F6D684" stroke-miterlimit="3.99933" stroke-linecap="round"/>
<path d="M204.899 258.863C204.628 257.502 204.358 256.141 204.087 254.779" stroke="#F6D684" stroke-miterlimit="3.99933" stroke-linecap="round"/>
<path d="M217.784 254.955C217.253 253.673 216.722 252.39 216.19 251.108" stroke="#F6D684" stroke-miterlimit="3.99933" stroke-linecap="round"/>
<path d="M229.658 248.608C228.887 247.454 228.116 246.3 227.345 245.146" stroke="#F6D684" stroke-miterlimit="3.99933" stroke-linecap="round"/>
<path d="M246.155 246.155C245.08 245.08 244.005 244.005 242.93 242.93" stroke="#F6D684" stroke-miterlimit="3.99933" stroke-linecap="round"/>
<path d="M254.815 235.834C253.57 234.962 252.325 234.09 251.08 233.218" stroke="#F6D684" stroke-miterlimit="3.99933" stroke-linecap="round"/>
<path d="M261.552 224.166C260.175 223.523 258.797 222.881 257.419 222.238" stroke="#F6D684" stroke-miterlimit="3.99933" stroke-linecap="round"/>
<path d="M266.161 211.505C264.692 211.112 263.224 210.718 261.755 210.325" stroke="#F6D684" stroke-miterlimit="3.99933" stroke-linecap="round"/>
<path d="M268.5 198.237C266.985 198.104 265.471 197.972 263.957 197.839" stroke="#F6D684" stroke-miterlimit="3.99933" stroke-linecap="round"/>
<path d="M268.5 184.763C266.985 184.896 265.471 185.028 263.957 185.161" stroke="#F6D684" stroke-miterlimit="3.99933" stroke-linecap="round"/>
<path d="M266.16 171.495C264.692 171.888 263.223 172.282 261.755 172.675" stroke="#F6D684" stroke-miterlimit="3.99933" stroke-linecap="round"/>
<path d="M261.552 158.834C260.175 159.477 258.797 160.119 257.419 160.762" stroke="#F6D684" stroke-miterlimit="3.99933" stroke-linecap="round"/>
<path d="M254.815 147.166C253.57 148.038 252.325 148.91 251.08 149.782" stroke="#F6D684" stroke-miterlimit="3.99933" stroke-linecap="round"/>
<path d="M246.155 136.845C245.08 137.92 244.005 138.995 242.93 140.07" stroke="#F6D684" stroke-miterlimit="3.99933" stroke-linecap="round"/>
<path d="M235.834 128.184C234.962 129.43 234.09 130.675 233.218 131.92" stroke="#F6D684" stroke-miterlimit="3.99933" stroke-linecap="round"/>
<path d="M224.166 121.448C223.523 122.826 222.881 124.203 222.238 125.581" stroke="#F6D684" stroke-miterlimit="3.99933" stroke-linecap="round"/>
<path d="M211.505 116.84C211.112 118.308 210.718 119.777 210.325 121.245" stroke="#F6D684" stroke-miterlimit="3.99933" stroke-linecap="round"/>
<path d="M198.237 114.5C198.104 116.014 197.972 117.529 197.839 119.043" stroke="#F6D684" stroke-miterlimit="3.99933" stroke-linecap="round"/>
<path d="M184.763 114.5C184.896 116.014 185.028 117.529 185.161 119.043" stroke="#F6D684" stroke-miterlimit="3.99933" stroke-linecap="round"/>
<path d="M171.495 116.84C171.888 118.308 172.282 119.777 172.675 121.245" stroke="#F6D684" stroke-miterlimit="3.99933" stroke-linecap="round"/>
<path d="M158.834 121.448C159.476 122.826 160.119 124.203 160.761 125.581" stroke="#F6D684" stroke-miterlimit="3.99933" stroke-linecap="round"/>
<path d="M147.166 128.184C148.038 129.43 148.91 130.675 149.782 131.92" stroke="#F6D684" stroke-miterlimit="3.99933" stroke-linecap="round"/>
<path d="M136.845 136.845C137.92 137.92 138.995 138.995 140.07 140.07" stroke="#F6D684" stroke-miterlimit="3.99933" stroke-linecap="round"/>
<path d="M128.185 147.166C129.43 148.038 130.675 148.91 131.92 149.782" stroke="#F6D684" stroke-miterlimit="3.99933" stroke-linecap="round"/>
<path d="M121.448 158.834C122.826 159.477 124.203 160.119 125.581 160.762" stroke="#F6D684" stroke-miterlimit="3.99933" stroke-linecap="round"/>
<path d="M116.84 171.495C118.308 171.888 119.777 172.282 121.245 172.675" stroke="#F6D684" stroke-miterlimit="3.99933" stroke-linecap="round"/>
<path d="M114.5 184.763C116.014 184.896 117.529 185.028 119.043 185.161" stroke="#F6D684" stroke-miterlimit="3.99933" stroke-linecap="round"/>
<path d="M114.5 198.237C116.014 198.104 117.529 197.972 119.043 197.839" stroke="#F6D684" stroke-miterlimit="3.99933" stroke-linecap="round"/>
<path d="M116.84 211.505C118.308 211.112 119.777 210.718 121.245 210.325" stroke="#F6D684" stroke-miterlimit="3.99933" stroke-linecap="round"/>
<path d="M121.448 224.166C122.826 223.523 124.203 222.881 125.581 222.238" stroke="#F6D684" stroke-miterlimit="3.99933" stroke-linecap="round"/>
<path d="M128.185 235.834C129.43 234.962 130.675 234.09 131.92 233.218" stroke="#F6D684" stroke-miterlimit="3.99933" stroke-linecap="round"/>
<path d="M136.845 246.155C137.92 245.08 138.995 244.005 140.07 242.93" stroke="#F6D684" stroke-miterlimit="3.99933" stroke-linecap="round"/>
<path d="M147.166 254.816C148.038 253.57 148.91 252.325 149.782 251.08" stroke="#F6D684" stroke-miterlimit="3.99933" stroke-linecap="round"/>
<path d="M158.834 261.552C159.476 260.174 160.119 258.797 160.761 257.419" stroke="#F6D684" stroke-miterlimit="3.99933" stroke-linecap="round"/>
<path d="M171.495 266.16C171.888 264.692 172.282 263.224 172.675 261.755" stroke="#F6D684" stroke-miterlimit="3.99933" stroke-linecap="round"/>
<path d="M184.763 268.5C184.896 266.986 185.028 265.471 185.161 263.957" stroke="#F6D684" stroke-miterlimit="3.99933" stroke-linecap="round"/>
<path d="M198.237 268.5C198.104 266.986 197.972 265.471 197.839 263.957" stroke="#F6D684" stroke-miterlimit="3.99933" stroke-linecap="round"/>
<path d="M211.505 266.16C211.112 264.692 210.718 263.224 210.325 261.755" stroke="#F6D684" stroke-miterlimit="3.99933" stroke-linecap="round"/>
<path d="M224.166 261.552C223.523 260.174 222.881 258.797 222.238 257.419" stroke="#F6D684" stroke-miterlimit="3.99933" stroke-linecap="round"/>
<path d="M235.834 254.816C234.962 253.57 234.09 252.325 233.218 251.08" stroke="#F6D684" stroke-miterlimit="3.99933" stroke-linecap="round"/>
<g clip-path="url(#clip1_272_4636)">
<rect width="95" height="95" fill="#24001C"/>
<path opacity="0.24" d="M95.5596 84.3401C95.5596 84.3401 95.5596 84.3401 95.5596 84.3401" stroke="#F6D684" stroke-width="2" stroke-miterlimit="3.99933" stroke-linecap="round"/>
<path opacity="0.08" d="M84.5078 95.3019C84.5078 95.3019 84.5078 95.3019 84.5078 95.3019" stroke="#F6D684" stroke-width="2" stroke-miterlimit="3.99933" stroke-linecap="round"/>
<path opacity="0.56" d="M96.021 76.8902C96.021 76.8902 96.021 76.8902 96.021 76.8902" stroke="#F6D684" stroke-width="2" stroke-miterlimit="3.99933" stroke-linecap="round"/>
<path opacity="0.56" d="M91.2051 79.7416C91.2051 79.7416 91.2051 79.7416 91.2051 79.7416" stroke="#F6D684" stroke-width="2" stroke-miterlimit="3.99933" stroke-linecap="round"/>
<path opacity="0.56" d="M86.7939 83.1854C86.7939 83.1854 86.7939 83.1854 86.7939 83.1854" stroke="#F6D684" stroke-width="2" stroke-miterlimit="3.99933" stroke-linecap="round"/>
<path opacity="0.08" d="M79.4653 91.6151C79.4653 91.6151 79.4653 91.6151 79.4653 91.6151" stroke="#F6D684" stroke-width="2" stroke-miterlimit="3.99933" stroke-linecap="round"/>
<path opacity="0.72" d="M94.2822 70.7914C94.2822 70.7914 94.2822 70.7914 94.2822 70.7914" stroke="#F6D684" stroke-width="2" stroke-miterlimit="3.99933" stroke-linecap="round"/>
<path opacity="0.24" d="M86.2642 75.5969C86.2642 75.5969 86.2642 75.5969 86.2642 75.5969" stroke="#F6D684" stroke-width="2" stroke-miterlimit="3.99933" stroke-linecap="round"/>
<path opacity="0.24" d="M82.6274 78.5411C82.6274 78.5411 82.6274 78.5411 82.6274 78.5411" stroke="#F6D684" stroke-width="2" stroke-miterlimit="3.99933" stroke-linecap="round"/>
<path d="M79.2822 81.8131C79.2822 81.8131 79.2822 81.8131 79.2822 81.8131" stroke="#F6D684" stroke-width="2" stroke-miterlimit="3.99933" stroke-linecap="round"/>
<path d="M76.2583 85.3839C76.2583 85.3839 76.2583 85.3839 76.2583 85.3839" stroke="#F6D684" stroke-width="2" stroke-miterlimit="3.99933" stroke-linecap="round"/>
<path opacity="0.24" d="M73.5825 89.2221C73.5825 89.2221 73.5825 89.2221 73.5825 89.2221" stroke="#F6D684" stroke-width="2" stroke-miterlimit="3.99933" stroke-linecap="round"/>
<path opacity="0.56" d="M71.2773 93.2941C71.2773 93.2941 71.2773 93.2941 71.2773 93.2941" stroke="#F6D684" stroke-width="2" stroke-miterlimit="3.99933" stroke-linecap="round"/>
<path opacity="0.56" d="M93.8359 64.1486C93.8359 64.1486 93.8359 64.1486 93.8359 64.1486" stroke="#F6D684" stroke-width="2" stroke-miterlimit="3.99933" stroke-linecap="round"/>
<path d="M89.5894 66.1693C89.5894 66.1693 89.5894 66.1693 89.5894 66.1693" stroke="#F6D684" stroke-width="2" stroke-miterlimit="3.99933" stroke-linecap="round"/>
<path opacity="0.08" d="M85.5269 68.5381C85.5269 68.5381 85.5269 68.5381 85.5269 68.5381" stroke="#F6D684" stroke-width="2" stroke-miterlimit="3.99933" stroke-linecap="round"/>
<path opacity="0.72" d="M81.6768 71.2388C81.6768 71.2388 81.6768 71.2388 81.6768 71.2388" stroke="#F6D684" stroke-width="2" stroke-miterlimit="3.99933" stroke-linecap="round"/>
<path opacity="0.56" d="M74.7202 77.5569C74.7202 77.5569 74.7202 77.5569 74.7202 77.5569" stroke="#F6D684" stroke-width="2" stroke-miterlimit="3.99933" stroke-linecap="round"/>
<path opacity="0.56" d="M71.6626 81.1302C71.6626 81.1302 71.6626 81.1302 71.6626 81.1302" stroke="#F6D684" stroke-width="2" stroke-miterlimit="3.99933" stroke-linecap="round"/>
<path opacity="0.56" d="M68.915 84.9468C68.915 84.9468 68.915 84.9468 68.915 84.9468" stroke="#F6D684" stroke-width="2" stroke-miterlimit="3.99933" stroke-linecap="round"/>
<path opacity="0.24" d="M66.4961 88.9801C66.4961 88.9801 66.4961 88.9801 66.4961 88.9801" stroke="#F6D684" stroke-width="2" stroke-miterlimit="3.99933" stroke-linecap="round"/>
<path opacity="0.08" d="M64.4233 93.2014C64.4233 93.2014 64.4233 93.2014 64.4233 93.2014" stroke="#F6D684" stroke-width="2" stroke-miterlimit="3.99933" stroke-linecap="round"/>
<path d="M93.665 57.493C93.665 57.493 93.665 57.493 93.665 57.493" stroke="#F6D684" stroke-width="2" stroke-miterlimit="3.99933" stroke-linecap="round"/>
<path opacity="0.56" d="M86.3882 60.8048C86.3882 60.8048 86.3882 60.8048 86.3882 60.8048" stroke="#F6D684" stroke-width="2" stroke-miterlimit="3.99933" stroke-linecap="round"/>
<path opacity="0.56" d="M79.5952 65.02C79.5952 65.02 79.5952 65.02 79.5952 65.02" stroke="#F6D684" stroke-width="2" stroke-miterlimit="3.99933" stroke-linecap="round"/>
<path d="M67.8945 75.8698C67.8945 75.8698 67.8945 75.8698 67.8945 75.8698" stroke="#F6D684" stroke-width="2" stroke-miterlimit="3.99933" stroke-linecap="round"/>
<path opacity="0.56" d="M63.1792 82.3263C63.1792 82.3263 63.1792 82.3263 63.1792 82.3263" stroke="#F6D684" stroke-width="2" stroke-miterlimit="3.99933" stroke-linecap="round"/>
<path opacity="0.08" d="M59.3286 89.3328C59.3286 89.3328 59.3286 89.3328 59.3286 89.3328" stroke="#F6D684" stroke-width="2" stroke-miterlimit="3.99933" stroke-linecap="round"/>
<path opacity="0.24" d="M93.209 51.0197C93.209 51.0197 93.209 51.0197 93.209 51.0197" stroke="#F6D684" stroke-width="2" stroke-miterlimit="3.99933" stroke-linecap="round"/>
<path d="M88.7437 52.7548C88.7437 52.7548 88.7437 52.7548 88.7437 52.7548" stroke="#F6D684" stroke-width="2" stroke-miterlimit="3.99933" stroke-linecap="round"/>
<path opacity="0.08" d="M84.4106 54.7971C84.4106 54.7971 84.4106 54.7971 84.4106 54.7971" stroke="#F6D684" stroke-width="2" stroke-miterlimit="3.99933" stroke-linecap="round"/>
<path opacity="0.24" d="M80.2305 57.1367C80.2305 57.1367 80.2305 57.1367 80.2305 57.1367" stroke="#F6D684" stroke-width="2" stroke-miterlimit="3.99933" stroke-linecap="round"/>
<path d="M72.4097 62.6608C72.4097 62.6608 72.4097 62.6608 72.4097 62.6608" stroke="#F6D684" stroke-width="2" stroke-miterlimit="3.99933" stroke-linecap="round"/>
<path d="M65.4341 69.2195C65.4341 69.2195 65.4341 69.2195 65.4341 69.2195" stroke="#F6D684" stroke-width="2" stroke-miterlimit="3.99933" stroke-linecap="round"/>
<path opacity="0.24" d="M62.3057 72.8477C62.3057 72.8477 62.3057 72.8477 62.3057 72.8477" stroke="#F6D684" stroke-width="2" stroke-miterlimit="3.99933" stroke-linecap="round"/>
<path d="M59.439 76.6854C59.439 76.6854 59.439 76.6854 59.439 76.6854" stroke="#F6D684" stroke-width="2" stroke-miterlimit="3.99933" stroke-linecap="round"/>
<path opacity="0.08" d="M56.8462 80.7136C56.8462 80.7136 56.8462 80.7136 56.8462 80.7136" stroke="#F6D684" stroke-width="2" stroke-miterlimit="3.99933" stroke-linecap="round"/>
<path d="M54.541 84.9128C54.541 84.9128 54.541 84.9128 54.541 84.9128" stroke="#F6D684" stroke-width="2" stroke-miterlimit="3.99933" stroke-linecap="round"/>
<path opacity="0.08" d="M52.5347 89.2626C52.5347 89.2626 52.5347 89.2626 52.5347 89.2626" stroke="#F6D684" stroke-width="2" stroke-miterlimit="3.99933" stroke-linecap="round"/>
<path d="M50.8359 93.7419C50.8359 93.7419 50.8359 93.7419 50.8359 93.7419" stroke="#F6D684" stroke-width="2" stroke-miterlimit="3.99933" stroke-linecap="round"/>
<path opacity="0.08" d="M92.0264 44.8303C92.0264 44.8303 92.0264 44.8303 92.0264 44.8303" stroke="#F6D684" stroke-width="2" stroke-miterlimit="3.99933" stroke-linecap="round"/>
<path d="M87.4341 46.5385C87.4341 46.5385 87.4341 46.5385 87.4341 46.5385" stroke="#F6D684" stroke-width="2" stroke-miterlimit="3.99933" stroke-linecap="round"/>
<path opacity="0.88" d="M82.9639 48.5433C82.9639 48.5433 82.9639 48.5433 82.9639 48.5433" stroke="#F6D684" stroke-width="2" stroke-miterlimit="3.99933" stroke-linecap="round"/>
<path opacity="0.72" d="M78.6343 50.8362C78.6343 50.8362 78.6343 50.8362 78.6343 50.8362" stroke="#F6D684" stroke-width="2" stroke-miterlimit="3.99933" stroke-linecap="round"/>
<path opacity="0.08" d="M74.4639 53.4073C74.4639 53.4073 74.4639 53.4073 74.4639 53.4073" stroke="#F6D684" stroke-width="2" stroke-miterlimit="3.99933" stroke-linecap="round"/>
<path opacity="0.08" d="M70.4702 56.2457C70.4702 56.2457 70.4702 56.2457 70.4702 56.2457" stroke="#F6D684" stroke-width="2" stroke-miterlimit="3.99933" stroke-linecap="round"/>
<path d="M63.0825 62.6747C63.0825 62.6747 63.0825 62.6747 63.0825 62.6747" stroke="#F6D684" stroke-width="2" stroke-miterlimit="3.99933" stroke-linecap="round"/>
<path d="M59.7192 66.2376C59.7192 66.2376 59.7192 66.2376 59.7192 66.2376" stroke="#F6D684" stroke-width="2" stroke-miterlimit="3.99933" stroke-linecap="round"/>
<path opacity="0.24" d="M56.5967 70.0129C56.5967 70.0129 56.5967 70.0129 56.5967 70.0129" stroke="#F6D684" stroke-width="2" stroke-miterlimit="3.99933" stroke-linecap="round"/>
<path opacity="0.08" d="M53.7275 73.9843C53.7275 73.9843 53.7275 73.9843 53.7275 73.9843" stroke="#F6D684" stroke-width="2" stroke-miterlimit="3.99933" stroke-linecap="round"/>
<path d="M51.1245 78.1349C51.1245 78.1349 51.1245 78.1349 51.1245 78.1349" stroke="#F6D684" stroke-width="2" stroke-miterlimit="3.99933" stroke-linecap="round"/>
<path d="M48.7983 82.4468C48.7983 82.4468 48.7983 82.4468 48.7983 82.4468" stroke="#F6D684" stroke-width="2" stroke-miterlimit="3.99933" stroke-linecap="round"/>
<path opacity="0.08" d="M46.7593 86.9016C46.7593 86.9016 46.7593 86.9016 46.7593 86.9016" stroke="#F6D684" stroke-width="2" stroke-miterlimit="3.99933" stroke-linecap="round"/>
<path opacity="0.08" d="M45.0156 91.4803C45.0156 91.4803 45.0156 91.4803 45.0156 91.4803" stroke="#F6D684" stroke-width="2" stroke-miterlimit="3.99933" stroke-linecap="round"/>
<path opacity="0.56" d="M92.2402 38.2129C92.2402 38.2129 92.2402 38.2129 92.2402 38.2129" stroke="#F6D684" stroke-width="2" stroke-miterlimit="3.99933" stroke-linecap="round"/>
<path opacity="0.72" d="M86.9424 40.0245C86.9424 40.0245 86.9424 40.0245 86.9424 40.0245" stroke="#F6D684" stroke-width="2" stroke-miterlimit="3.99933" stroke-linecap="round"/>
<path opacity="0.72" d="M81.7817 42.1974C81.7817 42.1974 81.7817 42.1974 81.7817 42.1974" stroke="#F6D684" stroke-width="2" stroke-miterlimit="3.99933" stroke-linecap="round"/>
<path opacity="0.56" d="M76.7837 44.7211C76.7837 44.7211 76.7837 44.7211 76.7837 44.7211" stroke="#F6D684" stroke-width="2" stroke-miterlimit="3.99933" stroke-linecap="round"/>
<path opacity="0.24" d="M71.9717 47.5837C71.9717 47.5837 71.9717 47.5837 71.9717 47.5837" stroke="#F6D684" stroke-width="2" stroke-miterlimit="3.99933" stroke-linecap="round"/>
<path opacity="0.08" d="M67.3682 50.7715C67.3682 50.7715 67.3682 50.7715 67.3682 50.7715" stroke="#F6D684" stroke-width="2" stroke-miterlimit="3.99933" stroke-linecap="round"/>
<path opacity="0.24" d="M62.9961 54.269C62.9961 54.269 62.9961 54.269 62.9961 54.269" stroke="#F6D684" stroke-width="2" stroke-miterlimit="3.99933" stroke-linecap="round"/>
<path opacity="0.24" d="M58.8755 58.0601C58.8755 58.0601 58.8755 58.0601 58.8755 58.0601" stroke="#F6D684" stroke-width="2" stroke-miterlimit="3.99933" stroke-linecap="round"/>
<path opacity="0.56" d="M55.0264 62.1263C55.0264 62.1263 55.0264 62.1263 55.0264 62.1263" stroke="#F6D684" stroke-width="2" stroke-miterlimit="3.99933" stroke-linecap="round"/>
<path d="M51.4668 66.4484C51.4668 66.4484 51.4668 66.4484 51.4668 66.4484" stroke="#F6D684" stroke-width="2" stroke-miterlimit="3.99933" stroke-linecap="round"/>
<path d="M48.2139 71.0059C48.2139 71.0059 48.2139 71.0059 48.2139 71.0059" stroke="#F6D684" stroke-width="2" stroke-miterlimit="3.99933" stroke-linecap="round"/>
<path opacity="0.56" d="M45.2837 75.7767C45.2837 75.7767 45.2837 75.7767 45.2837 75.7767" stroke="#F6D684" stroke-width="2" stroke-miterlimit="3.99933" stroke-linecap="round"/>
<path d="M40.4429 85.8674C40.4429 85.8674 40.4429 85.8674 40.4429 85.8674" stroke="#F6D684" stroke-width="2" stroke-miterlimit="3.99933" stroke-linecap="round"/>
<path d="M38.5562 91.1392C38.5562 91.1392 38.5562 91.1392 38.5562 91.1392" stroke="#F6D684" stroke-width="2" stroke-miterlimit="3.99933" stroke-linecap="round"/>
<path d="M89.019 32.6838C89.019 32.6838 89.019 32.6838 89.019 32.6838" stroke="#F6D684" stroke-width="2" stroke-miterlimit="3.99933" stroke-linecap="round"/>
<path opacity="0.56" d="M80.9995 35.7109C80.9995 35.7109 80.9995 35.7109 80.9995 35.7109" stroke="#F6D684" stroke-width="2" stroke-miterlimit="3.99933" stroke-linecap="round"/>
<path opacity="0.08" d="M73.3149 39.5096C73.3149 39.5096 73.3149 39.5096 73.3149 39.5096" stroke="#F6D684" stroke-width="2" stroke-miterlimit="3.99933" stroke-linecap="round"/>
<path opacity="0.72" d="M66.04 44.0432C66.04 44.0432 66.04 44.0432 66.04 44.0432" stroke="#F6D684" stroke-width="2" stroke-miterlimit="3.99933" stroke-linecap="round"/>
<path opacity="0.08" d="M59.2446 49.268C59.2446 49.268 59.2446 49.268 59.2446 49.268" stroke="#F6D684" stroke-width="2" stroke-miterlimit="3.99933" stroke-linecap="round"/>
<path opacity="0.56" d="M52.9937 55.1337C52.9937 55.1337 52.9937 55.1337 52.9937 55.1337" stroke="#F6D684" stroke-width="2" stroke-miterlimit="3.99933" stroke-linecap="round"/>
<path opacity="0.24" d="M47.3481 61.5839C47.3481 61.5839 47.3481 61.5839 47.3481 61.5839" stroke="#F6D684" stroke-width="2" stroke-miterlimit="3.99933" stroke-linecap="round"/>
<path opacity="0.56" d="M42.3618 68.5565C42.3618 68.5565 42.3618 68.5565 42.3618 68.5565" stroke="#F6D684" stroke-width="2" stroke-miterlimit="3.99933" stroke-linecap="round"/>
<path opacity="0.56" d="M38.083 75.9842C38.083 75.9842 38.083 75.9842 38.083 75.9842" stroke="#F6D684" stroke-width="2" stroke-miterlimit="3.99933" stroke-linecap="round"/>
<path d="M34.5527 83.7955C34.5527 83.7955 34.5527 83.7955 34.5527 83.7955" stroke="#F6D684" stroke-width="2" stroke-miterlimit="3.99933" stroke-linecap="round"/>
<path d="M31.8052 91.9151C31.8052 91.9151 31.8052 91.9151 31.8052 91.9151" stroke="#F6D684" stroke-width="2" stroke-miterlimit="3.99933" stroke-linecap="round"/>
<path opacity="0.72" d="M91.3979 25.474C91.3979 25.474 91.3979 25.474 91.3979 25.474" stroke="#F6D684" stroke-width="2" stroke-miterlimit="3.99933" stroke-linecap="round"/>
<path opacity="0.88" d="M86.3706 26.9855C86.3706 26.9855 86.3706 26.9855 86.3706 26.9855" stroke="#F6D684" stroke-width="2" stroke-miterlimit="3.99933" stroke-linecap="round"/>
<path d="M81.436 28.7764C81.436 28.7764 81.436 28.7764 81.436 28.7764" stroke="#F6D684" stroke-width="2" stroke-miterlimit="3.99933" stroke-linecap="round"/>
<path d="M76.6099 30.8412C76.6099 30.8412 76.6099 30.8412 76.6099 30.8412" stroke="#F6D684" stroke-width="2" stroke-miterlimit="3.99933" stroke-linecap="round"/>
<path opacity="0.56" d="M71.9067 33.1733C71.9067 33.1733 71.9067 33.1733 71.9067 33.1733" stroke="#F6D684" stroke-width="2" stroke-miterlimit="3.99933" stroke-linecap="round"/>
<path opacity="0.56" d="M67.3418 35.7656C67.3418 35.7656 67.3418 35.7656 67.3418 35.7656" stroke="#F6D684" stroke-width="2" stroke-miterlimit="3.99933" stroke-linecap="round"/>
<path opacity="0.24" d="M62.9292 38.6097C62.9292 38.6097 62.9292 38.6097 62.9292 38.6097" stroke="#F6D684" stroke-width="2" stroke-miterlimit="3.99933" stroke-linecap="round"/>
<path opacity="0.88" d="M58.6831 41.6967C58.6831 41.6967 58.6831 41.6967 58.6831 41.6967" stroke="#F6D684" stroke-width="2" stroke-miterlimit="3.99933" stroke-linecap="round"/>
<path opacity="0.08" d="M54.6172 45.0169C54.6172 45.0169 54.6172 45.0169 54.6172 45.0169" stroke="#F6D684" stroke-width="2" stroke-miterlimit="3.99933" stroke-linecap="round"/>
<path opacity="0.56" d="M50.7437 48.5599C50.7437 48.5599 50.7437 48.5599 50.7437 48.5599" stroke="#F6D684" stroke-width="2" stroke-miterlimit="3.99933" stroke-linecap="round"/>
<path opacity="0.88" d="M47.0747 52.3146C47.0747 52.3146 47.0747 52.3146 47.0747 52.3146" stroke="#F6D684" stroke-width="2" stroke-miterlimit="3.99933" stroke-linecap="round"/>
<path d="M43.6221 56.269C43.6221 56.269 43.6221 56.269 43.6221 56.269" stroke="#F6D684" stroke-width="2" stroke-miterlimit="3.99933" stroke-linecap="round"/>
<path d="M40.3965 60.4108C40.3965 60.4108 40.3965 60.4108 40.3965 60.4108" stroke="#F6D684" stroke-width="2" stroke-miterlimit="3.99933" stroke-linecap="round"/>
<path opacity="0.56" d="M37.4082 64.7269C37.4082 64.7269 37.4082 64.7269 37.4082 64.7269" stroke="#F6D684" stroke-width="2" stroke-miterlimit="3.99933" stroke-linecap="round"/>
<path opacity="0.56" d="M34.667 69.2039C34.667 69.2039 34.667 69.2039 34.667 69.2039" stroke="#F6D684" stroke-width="2" stroke-miterlimit="3.99933" stroke-linecap="round"/>
<path opacity="0.24" d="M32.1812 73.8274C32.1812 73.8274 32.1812 73.8274 32.1812 73.8274" stroke="#F6D684" stroke-width="2" stroke-miterlimit="3.99933" stroke-linecap="round"/>
<path d="M29.958 78.5831C29.958 78.5831 29.958 78.5831 29.958 78.5831" stroke="#F6D684" stroke-width="2" stroke-miterlimit="3.99933" stroke-linecap="round"/>
<path opacity="0.24" d="M28.0054 83.4559C28.0054 83.4559 28.0054 83.4559 28.0054 83.4559" stroke="#F6D684" stroke-width="2" stroke-miterlimit="3.99933" stroke-linecap="round"/>
<path d="M26.3291 88.4306C26.3291 88.4306 26.3291 88.4306 26.3291 88.4306" stroke="#F6D684" stroke-width="2" stroke-miterlimit="3.99933" stroke-linecap="round"/>
<path opacity="0.72" d="M93.8628 18.437C93.8628 18.437 93.8628 18.437 93.8628 18.437" stroke="#F6D684" stroke-width="2" stroke-miterlimit="3.99933" stroke-linecap="round"/>
<path opacity="0.88" d="M88.7964 19.7195C88.7964 19.7195 88.7964 19.7195 88.7964 19.7195" stroke="#F6D684" stroke-width="2" stroke-miterlimit="3.99933" stroke-linecap="round"/>
<path opacity="0.72" d="M83.8037 21.2654C83.8037 21.2654 83.8037 21.2654 83.8037 21.2654" stroke="#F6D684" stroke-width="2" stroke-miterlimit="3.99933" stroke-linecap="round"/>
<path d="M78.8989 23.0706C78.8989 23.0706 78.8989 23.0706 78.8989 23.0706" stroke="#F6D684" stroke-width="2" stroke-miterlimit="3.99933" stroke-linecap="round"/>
<path opacity="0.24" d="M74.0957 25.1299C74.0957 25.1299 74.0957 25.1299 74.0957 25.1299" stroke="#F6D684" stroke-width="2" stroke-miterlimit="3.99933" stroke-linecap="round"/>
<path d="M69.4063 27.438C69.4063 27.438 69.4063 27.438 69.4062 27.438" stroke="#F6D684" stroke-width="2" stroke-miterlimit="3.99933" stroke-linecap="round"/>
<path opacity="0.72" d="M64.8447 29.9883C64.8447 29.9883 64.8447 29.9883 64.8447 29.9883" stroke="#F6D684" stroke-width="2" stroke-miterlimit="3.99933" stroke-linecap="round"/>
<path opacity="0.08" d="M60.4224 32.7735C60.4224 32.7735 60.4224 32.7735 60.4224 32.7735" stroke="#F6D684" stroke-width="2" stroke-miterlimit="3.99933" stroke-linecap="round"/>
<path opacity="0.24" d="M56.1519 35.7866C56.1519 35.7866 56.1519 35.7866 56.1519 35.7866" stroke="#F6D684" stroke-width="2" stroke-miterlimit="3.99933" stroke-linecap="round"/>
<path d="M52.0454 39.019C52.0454 39.019 52.0454 39.019 52.0454 39.019" stroke="#F6D684" stroke-width="2" stroke-miterlimit="3.99933" stroke-linecap="round"/>
<path opacity="0.72" d="M48.1133 42.462C48.1133 42.462 48.1133 42.462 48.1133 42.462" stroke="#F6D684" stroke-width="2" stroke-miterlimit="3.99933" stroke-linecap="round"/>
<path d="M44.3667 46.1059C44.3667 46.1059 44.3667 46.1059 44.3667 46.1059" stroke="#F6D684" stroke-width="2" stroke-miterlimit="3.99933" stroke-linecap="round"/>
<path d="M40.8164 49.941C40.8164 49.941 40.8164 49.941 40.8164 49.941" stroke="#F6D684" stroke-width="2" stroke-miterlimit="3.99933" stroke-linecap="round"/>
<path d="M34.3408 58.1419C34.3408 58.1419 34.3408 58.1419 34.3408 58.1419" stroke="#F6D684" stroke-width="2" stroke-miterlimit="3.99933" stroke-linecap="round"/>
<path opacity="0.24" d="M31.4341 62.4852C31.4341 62.4852 31.4341 62.4852 31.4341 62.4852" stroke="#F6D684" stroke-width="2" stroke-miterlimit="3.99933" stroke-linecap="round"/>
<path opacity="0.72" d="M28.7583 66.9747C28.7583 66.9747 28.7583 66.9747 28.7583 66.9747" stroke="#F6D684" stroke-width="2" stroke-miterlimit="3.99933" stroke-linecap="round"/>
<path opacity="0.72" d="M26.3213 71.598C26.3213 71.598 26.3213 71.598 26.3213 71.598" stroke="#F6D684" stroke-width="2" stroke-miterlimit="3.99933" stroke-linecap="round"/>
<path opacity="0.72" d="M24.1294 76.3427C24.1294 76.3427 24.1294 76.3427 24.1294 76.3427" stroke="#F6D684" stroke-width="2" stroke-miterlimit="3.99933" stroke-linecap="round"/>
<path opacity="0.08" d="M22.1895 81.1954C22.1895 81.1954 22.1895 81.1954 22.1895 81.1954" stroke="#F6D684" stroke-width="2" stroke-miterlimit="3.99933" stroke-linecap="round"/>
<path d="M20.5054 86.1431C20.5054 86.1431 20.5054 86.1431 20.5054 86.1431" stroke="#F6D684" stroke-width="2" stroke-miterlimit="3.99933" stroke-linecap="round"/>
<path d="M19.083 91.1721C19.083 91.1721 19.083 91.1721 19.083 91.1721" stroke="#F6D684" stroke-width="2" stroke-miterlimit="3.99933" stroke-linecap="round"/>
</g>
</g>
<defs>
<clipPath id="clip0_272_4636">
<rect width="288" height="288" fill="white" transform="translate(0 288) rotate(-90)"/>
</clipPath>
<clipPath id="clip1_272_4636">
<rect width="95" height="95" fill="white"/>
</clipPath>
</defs>
</svg>
