<svg width="94" height="18" viewBox="0 0 94 18" fill="none" xmlns="http://www.w3.org/2000/svg">
<path fill-rule="evenodd" clip-rule="evenodd" d="M6.00404 1.72773C6.56298 1.1688 6.84244 0.889331 7.17512 0.81497C7.34367 0.777293 7.51847 0.777293 7.68702 0.81497C8.0197 0.889331 8.29916 1.1688 8.8581 1.72773L9.77773 2.64736L8.8581 3.56699C8.29916 4.12592 8.0197 4.40539 7.68702 4.47975C7.51847 4.51743 7.34367 4.51743 7.17512 4.47975C6.84244 4.40539 6.56298 4.12592 6.00404 3.56699L5.08441 2.64736L6.00404 1.72773ZM2.94918 3.21816C2.4834 3.68394 2.25051 3.91683 1.97328 3.97879C1.83282 4.01019 1.68716 4.01019 1.5467 3.97879C1.26947 3.91683 1.03658 3.68394 0.570801 3.21816L0 2.64736L0.570796 2.07656C1.03657 1.61078 1.26946 1.37789 1.54669 1.31592C1.68716 1.28453 1.83282 1.28453 1.97328 1.31592C2.25051 1.37789 2.4834 1.61078 2.94918 2.07656L3.51998 2.64736L2.94918 3.21816ZM0.885274 8.41094L0.885277 8.41093C1.30448 7.99174 1.51408 7.78214 1.76358 7.72637C1.89 7.69811 2.02109 7.69811 2.14751 7.72637C2.39701 7.78214 2.60661 7.99174 3.02581 8.41093L3.02582 8.41094L3.51998 8.90511L3.02582 9.39927C2.60662 9.81847 2.39702 10.0281 2.14751 10.0838C2.0211 10.1121 1.89 10.1121 1.76358 10.0838C1.51408 10.0281 1.30448 9.81847 0.885278 9.39927L0.391109 8.9051L0.885274 8.41094ZM1.97328 16.4943C2.25051 16.4323 2.4834 16.1994 2.94918 15.7336L3.51998 15.1628L2.94918 14.592C2.4834 14.1263 2.25051 13.8934 1.97328 13.8314C1.83282 13.8 1.68716 13.8 1.54669 13.8314C1.26946 13.8934 1.03657 14.1263 0.570796 14.592L0 15.1628L0.570801 15.7336C1.03658 16.1994 1.26947 16.4323 1.5467 16.4943C1.68716 16.5257 1.83282 16.5257 1.97328 16.4943ZM2.87517 6.69586C3.4341 7.2548 3.71357 7.53426 4.04625 7.60863C4.2148 7.6463 4.3896 7.6463 4.55815 7.60863C4.89083 7.53426 5.17029 7.2548 5.72923 6.69586L6.64886 5.77623L5.72923 4.85661L5.72922 4.8566C5.17029 4.29767 4.89083 4.0182 4.55815 3.94384C4.3896 3.90617 4.2148 3.90617 4.04625 3.94384C3.71357 4.0182 3.4341 4.29767 2.87517 4.85661L1.95554 5.77623L2.87517 6.69586ZM4.04625 13.8664C3.71357 13.792 3.4341 13.5125 2.87517 12.9536L1.95554 12.034L2.87517 11.1143C3.4341 10.5554 3.71357 10.2759 4.04625 10.2016C4.2148 10.1639 4.3896 10.1639 4.55815 10.2016C4.89082 10.2759 5.17029 10.5554 5.72922 11.1143L5.72923 11.1143L6.64886 12.034L5.72923 12.9536C5.17029 13.5125 4.89083 13.792 4.55815 13.8664C4.3896 13.904 4.2148 13.904 4.04625 13.8664ZM6.00405 7.98547L6.00404 7.98548L5.08441 8.9051L6.00404 9.82473C6.56298 10.3837 6.84244 10.6631 7.17512 10.7375C7.34367 10.7752 7.51847 10.7752 7.68702 10.7375C8.0197 10.6631 8.29916 10.3837 8.8581 9.82473L9.77773 8.9051L8.8581 7.98548C8.29916 7.42654 8.0197 7.14708 7.68702 7.07271C7.51847 7.03504 7.34367 7.03504 7.17512 7.07271C6.84244 7.14708 6.56298 7.42654 6.00405 7.98547ZM6.00404 14.2432C6.56298 13.6843 6.84244 13.4048 7.17512 13.3305C7.34367 13.2928 7.51847 13.2928 7.68702 13.3305C8.0197 13.4048 8.29916 13.6843 8.8581 14.2432L9.77773 15.1628L8.8581 16.0825C8.29916 16.6414 8.0197 16.9209 7.68702 16.9952C7.51847 17.0329 7.34367 17.0329 7.17512 16.9952C6.84244 16.9209 6.56298 16.6414 6.00404 16.0825L5.08441 15.1628L6.00404 14.2432ZM9.48175 10.7655L9.48174 10.7655L8.21329 12.034L9.48175 13.3024C10.1338 13.9545 10.4599 14.2806 10.848 14.3673C11.0446 14.4113 11.2486 14.4113 11.4452 14.3673C11.8333 14.2806 12.1594 13.9545 12.8115 13.3024L14.0799 12.034L12.8115 10.7655C12.1594 10.1134 11.8333 9.78739 11.4452 9.70063C11.2486 9.65668 11.0446 9.65668 10.848 9.70063C10.4599 9.78739 10.1338 10.1134 9.48175 10.7655ZM9.48174 4.50778L9.48175 4.50777C10.1338 3.85569 10.4599 3.52964 10.848 3.44289C11.0446 3.39893 11.2486 3.39893 11.4452 3.44289C11.8333 3.52964 12.1594 3.85569 12.8115 4.50778L14.0799 5.77624L12.8115 7.04469C12.1594 7.69678 11.8333 8.02282 11.4452 8.10957C11.2486 8.15353 11.0446 8.15353 10.848 8.10957C10.4599 8.02282 10.1338 7.69678 9.48175 7.04469L9.48175 7.04469L8.21329 5.77623L9.48174 4.50778ZM54.6727 10.9115C54.747 13.007 55.936 14.2555 58.3139 14.2555C60.3946 14.2555 61.8957 13.2151 61.8957 11.2087C61.8957 9.78196 61.0783 8.83078 59.6664 8.31061L57.9572 7.6864C56.9615 7.31485 56.6939 7.00274 56.6939 6.30422C56.6939 5.51653 57.2884 5.04094 58.2693 5.04094C59.2354 5.04094 59.9339 5.59084 60.0379 6.67577H61.7471C61.6728 5.04094 60.4095 3.55472 58.3288 3.55472C56.3372 3.55472 54.9848 4.56535 54.9848 6.48257C54.9848 7.82016 55.7428 8.69703 57.0506 9.17261L58.9233 9.85627C59.815 10.1832 60.1865 10.5697 60.1865 11.283C60.1865 12.1748 59.5177 12.7693 58.3882 12.7693C57.1101 12.7693 56.4561 12.1153 56.3818 10.9115H54.6727ZM27.1745 11.0601C27.1745 13.0665 25.9855 14.1068 23.9048 14.1068H20.3379V3.70335H23.7562C25.5396 3.70335 26.7286 4.52076 26.7286 6.52715C26.7286 7.64181 26.0895 8.28089 25.2573 8.60785C26.3868 8.89023 27.1745 9.58875 27.1745 11.0601ZM23.4589 5.26387H22.047V8.08768H23.4589C24.3507 8.08768 25.0195 7.79043 25.0195 6.67577C25.0195 5.56111 24.3507 5.26387 23.4589 5.26387ZM23.9048 9.42527H22.047V12.5463H23.9048C25.0938 12.5463 25.4653 11.8775 25.4653 10.9858C25.4653 10.0941 25.0938 9.42527 23.9048 9.42527ZM36.6617 14.1068H34.8783L34.2392 11.6546H30.8506L30.2116 14.1068H28.4876L31.46 3.70335H33.6893L36.6617 14.1068ZM33.8379 10.0941L32.5449 5.0558L31.2519 10.0941H33.8379ZM40.0453 14.1068H41.7545V10.0941L45.0241 3.70335H43.2407L40.9073 8.59299L38.5591 3.70335H36.7757L40.0453 10.0941V14.1068ZM52.9551 14.1068H47.0102V3.70335H52.8064V5.26387H48.7194V7.79043H52.6578V9.35096H48.7194V12.5463H52.9551V14.1068ZM69.9072 14.1068H64.2596V3.70335H65.9687V12.5463H69.9072V14.1068ZM72.2747 14.1068H73.9838V3.70335H72.2747V14.1068ZM84.6004 14.1068H82.2225L78.8042 5.76918V14.1068H77.1693V3.70335H79.5473L82.9656 12.041V3.70335H84.6004V14.1068ZM87.7824 14.1068H93.7273V12.5463H89.4915V9.35096H93.43V7.79043H89.4915V5.26387H93.5786V3.70335H87.7824V14.1068Z" fill="#24001C"/>
</svg>
