<svg width="24" height="24" viewBox="0 0 24 24" fill="none" xmlns="http://www.w3.org/2000/svg">
<path d="M4.3125 5.08128L5.15625 4.21878C5.44375 3.93128 5.65625 3.73752 5.79375 3.63752C5.94375 3.53752 6.1 3.48752 6.2625 3.48752C6.425 3.48752 6.575 3.53752 6.7125 3.63752C6.8625 3.73752 7.08125 3.93128 7.36875 4.21878L8.2125 5.08128L7.36875 5.92503C7.08125 6.22502 6.8625 6.42502 6.7125 6.52502C6.575 6.62503 6.425 6.67503 6.2625 6.67503C6.1 6.67503 5.94375 6.62503 5.79375 6.52502C5.65625 6.42502 5.44375 6.22502 5.15625 5.92503L4.3125 5.08128ZM14.175 8.53127L15.5063 7.18128C15.9563 6.71878 16.2938 6.40628 16.5188 6.24377C16.7438 6.08127 16.9875 6.00003 17.25 6.00003C17.5125 6.00003 17.7563 6.08127 17.9813 6.24377C18.2063 6.40628 18.55 6.71878 19.0125 7.18128L20.3438 8.53127L19.0125 9.88128C18.55 10.3438 18.2063 10.6563 17.9813 10.8188C17.7563 10.9688 17.5125 11.0438 17.25 11.0438C16.9875 11.0438 16.7438 10.9688 16.5188 10.8188C16.2938 10.6563 15.9563 10.3438 15.5063 9.88128L14.175 8.53127ZM14.175 15.4688L15.5063 14.1188C15.9563 13.6563 16.2938 13.3438 16.5188 13.1813C16.7438 13.0188 16.9875 12.9375 17.25 12.9375C17.5125 12.9375 17.7563 13.0188 17.9813 13.1813C18.2063 13.3438 18.55 13.6563 19.0125 14.1188L20.3438 15.4688L19.0125 16.8188C18.55 17.2813 18.2063 17.5938 17.9813 17.7563C17.7563 17.9063 17.5125 17.9813 17.25 17.9813C16.9875 17.9813 16.7438 17.9063 16.5188 17.7563C16.2938 17.5938 15.9563 17.2813 15.5063 16.8188L14.175 15.4688ZM10.4625 12L11.5688 10.8938C11.9438 10.4813 12.225 10.2125 12.4125 10.0875C12.6125 9.95003 12.8188 9.88128 13.0313 9.88128C13.2563 9.88128 13.4625 9.95003 13.65 10.0875C13.85 10.2125 14.1438 10.4688 14.5312 10.8563L15.6375 12.0188L14.5125 13.1625C14.125 13.5375 13.8313 13.7938 13.6313 13.9313C13.4438 14.0563 13.25 14.1188 13.05 14.1188C12.8375 14.1188 12.6313 14.0563 12.4313 13.9313C12.2438 13.7938 11.9625 13.525 11.5875 13.125L10.4625 12ZM10.4625 18.9188L11.5875 17.7938C11.9625 17.4063 12.2438 17.1438 12.4313 17.0063C12.6313 16.8688 12.8375 16.8 13.05 16.8C13.2625 16.8 13.4625 16.8688 13.65 17.0063C13.85 17.1438 14.1438 17.4063 14.5312 17.7938L15.6375 18.9188L14.5312 20.0625C14.1438 20.45 13.85 20.7125 13.65 20.85C13.4625 20.9875 13.2625 21.05 13.05 21.0375C12.8375 21.05 12.6313 20.9875 12.4313 20.85C12.2438 20.7125 11.9625 20.45 11.5875 20.0625L10.4625 18.9188ZM6.75 15.4688L7.85625 14.3625C8.23125 13.95 8.5125 13.6813 8.7 13.5563C8.9 13.4188 9.10625 13.35 9.31875 13.35C9.54375 13.35 9.75 13.4188 9.9375 13.5563C10.1375 13.6813 10.4313 13.9375 10.8188 14.325L11.925 15.4875L10.8 16.6313C10.4125 17.0063 10.1188 17.2625 9.91875 17.4C9.73125 17.525 9.5375 17.5875 9.3375 17.5875C9.125 17.5875 8.91875 17.525 8.71875 17.4C8.53125 17.2625 8.25 16.9938 7.875 16.5938L6.75 15.4688ZM6.75 8.53127L7.85625 7.40627C8.24375 7.00627 8.53125 6.74378 8.71875 6.61878C8.90625 6.48128 9.1125 6.41253 9.3375 6.41253C9.55 6.41253 9.75 6.48128 9.9375 6.61878C10.1375 6.74378 10.4313 7.00003 10.8188 7.38753L11.925 8.55002L10.8 9.67502C10.4125 10.0625 10.125 10.325 9.9375 10.4625C9.75 10.5875 9.55 10.65 9.3375 10.65C9.125 10.65 8.925 10.5875 8.7375 10.4625C8.55 10.325 8.2625 10.0563 7.875 9.65627L6.75 8.53127ZM4.78125 12L5.5125 11.25C5.7625 11 5.95 10.8313 6.075 10.7438C6.2 10.6438 6.3375 10.5938 6.4875 10.5938C6.6375 10.5938 6.775 10.6438 6.9 10.7438C7.025 10.8313 7.2125 11 7.4625 11.25L8.2125 12L7.4625 12.75C7.2125 13 7.025 13.1688 6.9 13.2563C6.775 13.3438 6.6375 13.3875 6.4875 13.3875C6.3375 13.3875 6.2 13.3438 6.075 13.2563C5.95 13.1688 5.7625 13 5.5125 12.75L4.78125 12ZM4.3125 18.9188L5.15625 18.075C5.44375 17.7875 5.65625 17.5938 5.79375 17.4938C5.94375 17.3813 6.1 17.325 6.2625 17.325C6.425 17.325 6.575 17.3813 6.7125 17.4938C6.8625 17.5938 7.08125 17.7875 7.36875 18.075L8.2125 18.9188L7.36875 19.7813C7.08125 20.0688 6.8625 20.2625 6.7125 20.3625C6.575 20.4625 6.425 20.5125 6.2625 20.5125C6.1 20.5125 5.94375 20.4625 5.79375 20.3625C5.65625 20.2625 5.44375 20.0688 5.15625 19.7813L4.3125 18.9188ZM10.4625 5.08128L11.5688 3.97503C11.9438 3.56252 12.225 3.29378 12.4125 3.16878C12.6125 3.03127 12.8188 2.96252 13.0313 2.96252C13.2563 2.96252 13.4625 3.03127 13.65 3.16878C13.85 3.29378 14.1438 3.55003 14.5312 3.93753L15.6375 5.10002L14.5125 6.24377C14.125 6.61877 13.8313 6.87502 13.6313 7.01252C13.4438 7.13752 13.25 7.20003 13.05 7.20003C12.8375 7.20003 12.6313 7.13752 12.4313 7.01252C12.2438 6.87502 11.9625 6.60627 11.5875 6.20628L10.4625 5.08128Z" fill="#24001C"/>
</svg>
