<svg width="753" height="305" viewBox="0 0 753 305" fill="none" xmlns="http://www.w3.org/2000/svg">
<path d="M372.857 304.883C372.857 304.883 372.857 304.883 372.857 304.883" stroke="#C1C0B3" stroke-opacity="0.4" stroke-width="4" stroke-miterlimit="3.99933" stroke-linecap="round"/>
<path d="M434.471 303.679C434.471 303.679 434.471 303.679 434.471 303.679" stroke="#C1C0B3" stroke-opacity="0.24" stroke-width="4" stroke-miterlimit="3.99933" stroke-linecap="round"/>
<path d="M411.635 290.195C411.635 290.195 411.635 290.195 411.635 290.195" stroke="#C1C0B3" stroke-width="4" stroke-miterlimit="3.99933" stroke-linecap="round"/>
<path d="M385.926 283.69C385.926 283.69 385.926 283.69 385.926 283.69" stroke="#C1C0B3" stroke-width="4" stroke-miterlimit="3.99933" stroke-linecap="round"/>
<path d="M359.426 284.693C359.426 284.693 359.426 284.693 359.426 284.693" stroke="#C1C0B3" stroke-opacity="0.72" stroke-width="4" stroke-miterlimit="3.99933" stroke-linecap="round"/>
<path d="M334.281 293.12C334.281 293.12 334.281 293.12 334.281 293.12" stroke="#C1C0B3" stroke-opacity="0.72" stroke-width="4" stroke-miterlimit="3.99933" stroke-linecap="round"/>
<path d="M464.481 303.009C464.481 303.009 464.481 303.009 464.481 303.009" stroke="#C1C0B3" stroke-opacity="0.24" stroke-width="4" stroke-miterlimit="3.99933" stroke-linecap="round"/>
<path d="M429.692 274.792C429.692 274.792 429.692 274.792 429.692 274.792" stroke="#C1C0B3" stroke-opacity="0.24" stroke-width="4" stroke-miterlimit="3.99933" stroke-linecap="round"/>
<path d="M386.753 262.038C386.753 262.038 386.753 262.038 386.753 262.038" stroke="#C1C0B3" stroke-width="4" stroke-miterlimit="3.99933" stroke-linecap="round"/>
<path d="M342.202 266.686C342.202 266.686 342.202 266.686 342.202 266.686" stroke="#C1C0B3" stroke-opacity="0.88" stroke-width="4" stroke-miterlimit="3.99933" stroke-linecap="round"/>
<path d="M302.821 288.028C302.821 288.028 302.821 288.028 302.821 288.028" stroke="#C1C0B3" stroke-opacity="0.72" stroke-width="4" stroke-miterlimit="3.99933" stroke-linecap="round"/>
<path d="M483.107 291.638C483.107 291.638 483.107 291.638 483.107 291.638" stroke="#C1C0B3" stroke-opacity="0.72" stroke-width="4" stroke-miterlimit="3.99933" stroke-linecap="round"/>
<path d="M442.549 257.16C442.549 257.16 442.549 257.16 442.549 257.16" stroke="#C1C0B3" stroke-opacity="0.08" stroke-width="4" stroke-miterlimit="3.99933" stroke-linecap="round"/>
<path d="M418.021 246.499C418.021 246.499 418.021 246.499 418.021 246.499" stroke="#C1C0B3" stroke-opacity="0.08" stroke-width="4" stroke-miterlimit="3.99933" stroke-linecap="round"/>
<path d="M391.884 240.828C391.884 240.828 391.884 240.828 391.884 240.828" stroke="#C1C0B3" stroke-opacity="0.08" stroke-width="4" stroke-miterlimit="3.99933" stroke-linecap="round"/>
<path d="M365.143 240.364C365.143 240.364 365.143 240.364 365.143 240.364" stroke="#C1C0B3" stroke-opacity="0.24" stroke-width="4" stroke-miterlimit="3.99933" stroke-linecap="round"/>
<path d="M338.825 245.127C338.825 245.127 338.825 245.127 338.825 245.127" stroke="#C1C0B3" stroke-width="4" stroke-miterlimit="3.99933" stroke-linecap="round"/>
<path d="M313.943 254.932C313.943 254.932 313.943 254.932 313.943 254.932" stroke="#C1C0B3" stroke-width="4" stroke-miterlimit="3.99933" stroke-linecap="round"/>
<path d="M291.451 269.403C291.451 269.403 291.451 269.403 291.451 269.403" stroke="#C1C0B3" stroke-opacity="0.88" stroke-width="4" stroke-miterlimit="3.99933" stroke-linecap="round"/>
<path d="M272.215 287.984C272.215 287.984 272.215 287.984 272.215 287.984" stroke="#C1C0B3" stroke-width="4" stroke-miterlimit="3.99933" stroke-linecap="round"/>
<path d="M514.245 299.437C514.245 299.437 514.245 299.437 514.245 299.437" stroke="#C1C0B3" stroke-opacity="0.88" stroke-width="4" stroke-miterlimit="3.99933" stroke-linecap="round"/>
<path d="M497.761 275.374C497.761 275.374 497.761 275.374 497.761 275.374" stroke="#C1C0B3" stroke-opacity="0.72" stroke-width="4" stroke-miterlimit="3.99933" stroke-linecap="round"/>
<path d="M477.137 254.749C477.137 254.749 477.137 254.749 477.137 254.749" stroke="#C1C0B3" stroke-opacity="0.4" stroke-width="4" stroke-miterlimit="3.99933" stroke-linecap="round"/>
<path d="M453.073 238.265C453.073 238.265 453.073 238.265 453.073 238.265" stroke="#C1C0B3" stroke-opacity="0.56" stroke-width="4" stroke-miterlimit="3.99933" stroke-linecap="round"/>
<path d="M426.391 226.483C426.391 226.483 426.391 226.483 426.391 226.483" stroke="#C1C0B3" stroke-opacity="0.08" stroke-width="4" stroke-miterlimit="3.99933" stroke-linecap="round"/>
<path d="M397.998 219.806C397.998 219.806 397.998 219.806 397.998 219.806" stroke="#C1C0B3" stroke-opacity="0.24" stroke-width="4" stroke-miterlimit="3.99933" stroke-linecap="round"/>
<path d="M339.973 222.488C339.973 222.488 339.973 222.488 339.973 222.488" stroke="#C1C0B3" stroke-opacity="0.24" stroke-width="4" stroke-miterlimit="3.99933" stroke-linecap="round"/>
<path d="M286.836 245.951C286.836 245.951 286.836 245.951 286.836 245.951" stroke="#C1C0B3" stroke-opacity="0.24" stroke-width="4" stroke-miterlimit="3.99933" stroke-linecap="round"/>
<path d="M264.396 264.584C264.396 264.584 264.396 264.584 264.396 264.584" stroke="#C1C0B3" stroke-width="4" stroke-miterlimit="3.99933" stroke-linecap="round"/>
<path d="M245.763 287.024C245.763 287.024 245.763 287.024 245.763 287.024" stroke="#C1C0B3" stroke-opacity="0.72" stroke-width="4" stroke-miterlimit="3.99933" stroke-linecap="round"/>
<path d="M531.363 285.793C531.363 285.793 531.363 285.793 531.363 285.793" stroke="#C1C0B3" stroke-opacity="0.56" stroke-width="4" stroke-miterlimit="3.99933" stroke-linecap="round"/>
<path d="M513.826 260.866C513.826 260.866 513.826 260.866 513.826 260.866" stroke="#C1C0B3" stroke-width="4" stroke-miterlimit="3.99933" stroke-linecap="round"/>
<path d="M492.33 239.262C492.33 239.262 492.33 239.262 492.33 239.262" stroke="#C1C0B3" stroke-opacity="0.56" stroke-width="4" stroke-miterlimit="3.99933" stroke-linecap="round"/>
<path d="M467.491 221.601C467.491 221.601 467.491 221.601 467.491 221.601" stroke="#C1C0B3" stroke-opacity="0.08" stroke-width="4" stroke-miterlimit="3.99933" stroke-linecap="round"/>
<path d="M440.025 208.393C440.025 208.393 440.025 208.393 440.025 208.393" stroke="#C1C0B3" stroke-opacity="0.08" stroke-width="4" stroke-miterlimit="3.99933" stroke-linecap="round"/>
<path d="M410.721 200.015C410.721 200.015 410.721 200.015 410.721 200.015" stroke="#C1C0B3" stroke-opacity="0.24" stroke-width="4" stroke-miterlimit="3.99933" stroke-linecap="round"/>
<path d="M380.424 196.711C380.424 196.711 380.424 196.711 380.424 196.711" stroke="#C1C0B3" stroke-opacity="0.4" stroke-width="4" stroke-miterlimit="3.99933" stroke-linecap="round"/>
<path d="M350.003 198.575C350.003 198.575 350.003 198.575 350.003 198.575" stroke="#C1C0B3" stroke-opacity="0.4" stroke-width="4" stroke-miterlimit="3.99933" stroke-linecap="round"/>
<path d="M292.274 217.443C292.274 217.443 292.274 217.443 292.274 217.443" stroke="#C1C0B3" stroke-opacity="0.24" stroke-width="4" stroke-miterlimit="3.99933" stroke-linecap="round"/>
<path d="M244.128 254.467C244.128 254.467 244.128 254.467 244.128 254.467" stroke="#C1C0B3" stroke-opacity="0.24" stroke-width="4" stroke-miterlimit="3.99933" stroke-linecap="round"/>
<path d="M211.067 305.415C211.067 305.415 211.067 305.415 211.067 305.415" stroke="#C1C0B3" stroke-opacity="0.56" stroke-width="4" stroke-miterlimit="3.99933" stroke-linecap="round"/>
<path d="M560.625 295.714C560.625 295.714 560.625 295.714 560.625 295.714" stroke="#C1C0B3" stroke-opacity="0.56" stroke-width="4" stroke-miterlimit="3.99933" stroke-linecap="round"/>
<path d="M549.064 273.23C549.064 273.23 549.064 273.23 549.064 273.23" stroke="#C1C0B3" stroke-opacity="0.4" stroke-width="4" stroke-miterlimit="3.99933" stroke-linecap="round"/>
<path d="M534.776 252.373C534.776 252.373 534.776 252.373 534.776 252.373" stroke="#C1C0B3" stroke-width="4" stroke-miterlimit="3.99933" stroke-linecap="round"/>
<path d="M517.987 233.471C517.987 233.471 517.987 233.471 517.987 233.471" stroke="#C1C0B3" stroke-opacity="0.4" stroke-width="4" stroke-miterlimit="3.99933" stroke-linecap="round"/>
<path d="M498.961 216.822C498.961 216.822 498.961 216.822 498.961 216.822" stroke="#C1C0B3" stroke-opacity="0.72" stroke-width="4" stroke-miterlimit="3.99933" stroke-linecap="round"/>
<path d="M477.999 202.689C477.999 202.689 477.999 202.689 477.999 202.689" stroke="#C1C0B3" stroke-opacity="0.4" stroke-width="4" stroke-miterlimit="3.99933" stroke-linecap="round"/>
<path d="M455.431 191.295C455.431 191.295 455.431 191.295 455.431 191.295" stroke="#C1C0B3" stroke-opacity="0.88" stroke-width="4" stroke-miterlimit="3.99933" stroke-linecap="round"/>
<path d="M431.612 182.819C431.612 182.819 431.612 182.819 431.612 182.819" stroke="#C1C0B3" stroke-opacity="0.4" stroke-width="4" stroke-miterlimit="3.99933" stroke-linecap="round"/>
<path d="M406.919 177.395C406.919 177.395 406.919 177.395 406.919 177.395" stroke="#C1C0B3" stroke-opacity="0.88" stroke-width="4" stroke-miterlimit="3.99933" stroke-linecap="round"/>
<path d="M381.741 175.109C381.741 175.109 381.741 175.109 381.741 175.109" stroke="#C1C0B3" stroke-opacity="0.24" stroke-width="4" stroke-miterlimit="3.99933" stroke-linecap="round"/>
<path d="M356.475 175.997C356.475 175.997 356.475 175.997 356.475 175.997" stroke="#C1C0B3" stroke-opacity="0.56" stroke-width="4" stroke-miterlimit="3.99933" stroke-linecap="round"/>
<path d="M331.519 180.043C331.519 180.043 331.519 180.043 331.519 180.043" stroke="#C1C0B3" stroke-opacity="0.72" stroke-width="4" stroke-miterlimit="3.99933" stroke-linecap="round"/>
<path d="M307.268 187.187C307.268 187.187 307.268 187.187 307.268 187.187" stroke="#C1C0B3" stroke-opacity="0.56" stroke-width="4" stroke-miterlimit="3.99933" stroke-linecap="round"/>
<path d="M262.389 210.263C262.389 210.263 262.389 210.263 262.389 210.263" stroke="#C1C0B3" stroke-opacity="0.24" stroke-width="4" stroke-miterlimit="3.99933" stroke-linecap="round"/>
<path d="M224.66 243.774C224.66 243.774 224.66 243.774 224.66 243.774" stroke="#C1C0B3" stroke-opacity="0.08" stroke-width="4" stroke-miterlimit="3.99933" stroke-linecap="round"/>
<path d="M196.449 285.616C196.449 285.616 196.449 285.616 196.449 285.616" stroke="#C1C0B3" stroke-opacity="0.08" stroke-width="4" stroke-miterlimit="3.99933" stroke-linecap="round"/>
<path d="M580.701 287.644C580.701 287.644 580.701 287.644 580.701 287.644" stroke="#C1C0B3" stroke-width="4" stroke-miterlimit="3.99933" stroke-linecap="round"/>
<path d="M569.483 265.301C569.483 265.301 569.483 265.301 569.483 265.301" stroke="#C1C0B3" stroke-width="4" stroke-miterlimit="3.99933" stroke-linecap="round"/>
<path d="M555.834 244.354C555.834 244.354 555.834 244.354 555.834 244.354" stroke="#C1C0B3" stroke-opacity="0.56" stroke-width="4" stroke-miterlimit="3.99933" stroke-linecap="round"/>
<path d="M539.926 225.067C539.926 225.067 539.926 225.067 539.926 225.067" stroke="#C1C0B3" stroke-width="4" stroke-miterlimit="3.99933" stroke-linecap="round"/>
<path d="M521.958 207.682C521.958 207.682 521.958 207.682 521.958 207.682" stroke="#C1C0B3" stroke-opacity="0.88" stroke-width="4" stroke-miterlimit="3.99933" stroke-linecap="round"/>
<path d="M502.156 192.418C502.156 192.418 502.156 192.418 502.156 192.418" stroke="#C1C0B3" stroke-width="4" stroke-miterlimit="3.99933" stroke-linecap="round"/>
<path d="M480.77 179.468C480.77 179.468 480.77 179.468 480.77 179.468" stroke="#C1C0B3" stroke-opacity="0.56" stroke-width="4" stroke-miterlimit="3.99933" stroke-linecap="round"/>
<path d="M458.069 168.994C458.069 168.994 458.069 168.994 458.069 168.994" stroke="#C1C0B3" stroke-opacity="0.56" stroke-width="4" stroke-miterlimit="3.99933" stroke-linecap="round"/>
<path d="M434.338 161.126C434.338 161.126 434.338 161.126 434.338 161.126" stroke="#C1C0B3" stroke-opacity="0.56" stroke-width="4" stroke-miterlimit="3.99933" stroke-linecap="round"/>
<path d="M409.875 155.966C409.875 155.966 409.875 155.966 409.875 155.966" stroke="#C1C0B3" stroke-opacity="0.88" stroke-width="4" stroke-miterlimit="3.99933" stroke-linecap="round"/>
<path d="M384.987 153.577C384.987 153.577 384.987 153.577 384.987 153.577" stroke="#C1C0B3" stroke-opacity="0.4" stroke-width="4" stroke-miterlimit="3.99933" stroke-linecap="round"/>
<path d="M359.989 153.99C359.989 153.99 359.989 153.99 359.989 153.99" stroke="#C1C0B3" stroke-opacity="0.88" stroke-width="4" stroke-miterlimit="3.99933" stroke-linecap="round"/>
<path d="M335.195 157.198C335.195 157.198 335.195 157.198 335.195 157.198" stroke="#C1C0B3" stroke-opacity="0.72" stroke-width="4" stroke-miterlimit="3.99933" stroke-linecap="round"/>
<path d="M310.915 163.163C310.915 163.163 310.915 163.163 310.915 163.163" stroke="#C1C0B3" stroke-opacity="0.72" stroke-width="4" stroke-miterlimit="3.99933" stroke-linecap="round"/>
<path d="M287.456 171.809C287.456 171.809 287.456 171.809 287.456 171.809" stroke="#C1C0B3" stroke-opacity="0.56" stroke-width="4" stroke-miterlimit="3.99933" stroke-linecap="round"/>
<path d="M265.113 183.027C265.113 183.027 265.113 183.027 265.113 183.027" stroke="#C1C0B3" stroke-opacity="0.72" stroke-width="4" stroke-miterlimit="3.99933" stroke-linecap="round"/>
<path d="M244.166 196.676C244.166 196.676 244.166 196.676 244.166 196.676" stroke="#C1C0B3" stroke-opacity="0.72" stroke-width="4" stroke-miterlimit="3.99933" stroke-linecap="round"/>
<path d="M224.879 212.584C224.879 212.584 224.879 212.584 224.879 212.584" stroke="#C1C0B3" stroke-opacity="0.08" stroke-width="4" stroke-miterlimit="3.99933" stroke-linecap="round"/>
<path d="M207.494 230.552C207.494 230.552 207.494 230.552 207.494 230.552" stroke="#C1C0B3" stroke-opacity="0.24" stroke-width="4" stroke-miterlimit="3.99933" stroke-linecap="round"/>
<path d="M192.231 250.354C192.231 250.354 192.231 250.354 192.231 250.354" stroke="#C1C0B3" stroke-opacity="0.24" stroke-width="4" stroke-miterlimit="3.99933" stroke-linecap="round"/>
<path d="M179.28 271.74C179.28 271.74 179.28 271.74 179.28 271.74" stroke="#C1C0B3" stroke-opacity="0.4" stroke-width="4" stroke-miterlimit="3.99933" stroke-linecap="round"/>
<path d="M168.806 294.441C168.806 294.441 168.806 294.441 168.806 294.441" stroke="#C1C0B3" stroke-opacity="0.4" stroke-width="4" stroke-miterlimit="3.99933" stroke-linecap="round"/>
<path d="M578.605 239.113C578.605 239.113 578.605 239.113 578.605 239.113" stroke="#C1C0B3" stroke-width="4" stroke-miterlimit="3.99933" stroke-linecap="round"/>
<path d="M553.256 207.664C553.256 207.664 553.256 207.664 553.256 207.664" stroke="#C1C0B3" stroke-opacity="0.72" stroke-width="4" stroke-miterlimit="3.99933" stroke-linecap="round"/>
<path d="M523.076 180.815C523.076 180.815 523.076 180.815 523.076 180.815" stroke="#C1C0B3" stroke-width="4" stroke-miterlimit="3.99933" stroke-linecap="round"/>
<path d="M488.888 159.301C488.888 159.301 488.888 159.301 488.888 159.301" stroke="#C1C0B3" stroke-opacity="0.72" stroke-width="4" stroke-miterlimit="3.99933" stroke-linecap="round"/>
<path d="M451.626 143.707C451.626 143.707 451.626 143.707 451.626 143.707" stroke="#C1C0B3" stroke-opacity="0.24" stroke-width="4" stroke-miterlimit="3.99933" stroke-linecap="round"/>
<path d="M412.305 134.458C412.305 134.458 412.305 134.458 412.305 134.458" stroke="#C1C0B3" stroke-width="4" stroke-miterlimit="3.99933" stroke-linecap="round"/>
<path d="M371.998 131.809C371.998 131.809 371.998 131.809 371.998 131.809" stroke="#C1C0B3" stroke-opacity="0.4" stroke-width="4" stroke-miterlimit="3.99933" stroke-linecap="round"/>
<path d="M331.805 135.829C331.805 135.829 331.805 135.829 331.805 135.829" stroke="#C1C0B3" stroke-opacity="0.72" stroke-width="4" stroke-miterlimit="3.99933" stroke-linecap="round"/>
<path d="M292.822 146.41C292.822 146.41 292.822 146.41 292.822 146.41" stroke="#C1C0B3" stroke-opacity="0.56" stroke-width="4" stroke-miterlimit="3.99933" stroke-linecap="round"/>
<path d="M256.112 163.263C256.112 163.263 256.112 163.263 256.112 163.263" stroke="#C1C0B3" stroke-opacity="0.56" stroke-width="4" stroke-miterlimit="3.99933" stroke-linecap="round"/>
<path d="M222.676 185.929C222.676 185.929 222.676 185.929 222.676 185.929" stroke="#C1C0B3" stroke-opacity="0.56" stroke-width="4" stroke-miterlimit="3.99933" stroke-linecap="round"/>
<path d="M193.428 213.789C193.428 213.789 193.428 213.789 193.428 213.789" stroke="#C1C0B3" stroke-opacity="0.08" stroke-width="4" stroke-miterlimit="3.99933" stroke-linecap="round"/>
<path d="M169.163 246.083C169.163 246.083 169.163 246.083 169.163 246.083" stroke="#C1C0B3" stroke-opacity="0.56" stroke-width="4" stroke-miterlimit="3.99933" stroke-linecap="round"/>
<path d="M150.546 281.93C150.546 281.93 150.546 281.93 150.546 281.93" stroke="#C1C0B3" stroke-opacity="0.08" stroke-width="4" stroke-miterlimit="3.99933" stroke-linecap="round"/>
<path d="M628.332 291.055C628.332 291.055 628.332 291.055 628.332 291.055" stroke="#C1C0B3" stroke-opacity="0.72" stroke-width="4" stroke-miterlimit="3.99933" stroke-linecap="round"/>
<path d="M608.006 245.531C608.006 245.531 608.006 245.531 608.006 245.531" stroke="#C1C0B3" stroke-opacity="0.4" stroke-width="4" stroke-miterlimit="3.99933" stroke-linecap="round"/>
<path d="M594.737 224.396C594.737 224.396 594.737 224.396 594.737 224.396" stroke="#C1C0B3" stroke-opacity="0.4" stroke-width="4" stroke-miterlimit="3.99933" stroke-linecap="round"/>
<path d="M579.547 204.596C579.547 204.596 579.547 204.596 579.547 204.596" stroke="#C1C0B3" stroke-opacity="0.4" stroke-width="4" stroke-miterlimit="3.99933" stroke-linecap="round"/>
<path d="M562.571 186.305C562.571 186.305 562.571 186.305 562.571 186.305" stroke="#C1C0B3" stroke-opacity="0.08" stroke-width="4" stroke-miterlimit="3.99933" stroke-linecap="round"/>
<path d="M523.866 154.88C523.866 154.88 523.866 154.88 523.866 154.88" stroke="#C1C0B3" stroke-width="4" stroke-miterlimit="3.99933" stroke-linecap="round"/>
<path d="M502.478 142.022C502.478 142.022 502.478 142.022 502.478 142.022" stroke="#C1C0B3" stroke-opacity="0.72" stroke-width="4" stroke-miterlimit="3.99933" stroke-linecap="round"/>
<path d="M479.98 131.223C479.98 131.223 479.98 131.223 479.98 131.223" stroke="#C1C0B3" stroke-width="4" stroke-miterlimit="3.99933" stroke-linecap="round"/>
<path d="M456.57 122.578C456.57 122.578 456.57 122.578 456.57 122.578" stroke="#C1C0B3" stroke-opacity="0.56" stroke-width="4" stroke-miterlimit="3.99933" stroke-linecap="round"/>
<path d="M432.453 116.164C432.453 116.164 432.453 116.164 432.453 116.164" stroke="#C1C0B3" stroke-opacity="0.72" stroke-width="4" stroke-miterlimit="3.99933" stroke-linecap="round"/>
<path d="M407.842 112.036C407.842 112.036 407.842 112.036 407.842 112.036" stroke="#C1C0B3" stroke-width="4" stroke-miterlimit="3.99933" stroke-linecap="round"/>
<path d="M382.952 110.23C382.952 110.23 382.952 110.23 382.952 110.23" stroke="#C1C0B3" stroke-opacity="0.72" stroke-width="4" stroke-miterlimit="3.99933" stroke-linecap="round"/>
<path d="M358.003 110.764C358.003 110.764 358.003 110.764 358.003 110.764" stroke="#C1C0B3" stroke-width="4" stroke-miterlimit="3.99933" stroke-linecap="round"/>
<path d="M333.213 113.631C333.213 113.631 333.213 113.631 333.213 113.631" stroke="#C1C0B3" stroke-opacity="0.88" stroke-width="4" stroke-miterlimit="3.99933" stroke-linecap="round"/>
<path d="M308.8 118.808C308.8 118.808 308.8 118.808 308.8 118.808" stroke="#C1C0B3" stroke-opacity="0.4" stroke-width="4" stroke-miterlimit="3.99933" stroke-linecap="round"/>
<path d="M284.979 126.247C284.979 126.247 284.979 126.247 284.979 126.247" stroke="#C1C0B3" stroke-opacity="0.4" stroke-width="4" stroke-miterlimit="3.99933" stroke-linecap="round"/>
<path d="M261.96 135.884C261.96 135.884 261.96 135.884 261.96 135.884" stroke="#C1C0B3" stroke-opacity="0.88" stroke-width="4" stroke-miterlimit="3.99933" stroke-linecap="round"/>
<path d="M239.945 147.635C239.945 147.635 239.945 147.635 239.945 147.635" stroke="#C1C0B3" stroke-width="4" stroke-miterlimit="3.99933" stroke-linecap="round"/>
<path d="M219.126 161.395C219.126 161.395 219.126 161.395 219.126 161.395" stroke="#C1C0B3" stroke-opacity="0.24" stroke-width="4" stroke-miterlimit="3.99933" stroke-linecap="round"/>
<path d="M199.688 177.045C199.688 177.045 199.688 177.045 199.688 177.045" stroke="#C1C0B3" stroke-opacity="0.88" stroke-width="4" stroke-miterlimit="3.99933" stroke-linecap="round"/>
<path d="M181.8 194.446C181.8 194.446 181.8 194.446 181.8 194.446" stroke="#C1C0B3" stroke-opacity="0.4" stroke-width="4" stroke-miterlimit="3.99933" stroke-linecap="round"/>
<path d="M165.62 213.445C165.62 213.445 165.62 213.445 165.62 213.445" stroke="#C1C0B3" stroke-opacity="0.56" stroke-width="4" stroke-miterlimit="3.99933" stroke-linecap="round"/>
<path d="M151.291 233.876C151.291 233.876 151.291 233.876 151.291 233.876" stroke="#C1C0B3" stroke-opacity="0.56" stroke-width="4" stroke-miterlimit="3.99933" stroke-linecap="round"/>
<path d="M138.938 255.56C138.938 255.56 138.938 255.56 138.938 255.56" stroke="#C1C0B3" stroke-opacity="0.56" stroke-width="4" stroke-miterlimit="3.99933" stroke-linecap="round"/>
<path d="M128.669 278.304C128.669 278.304 128.669 278.304 128.669 278.304" stroke="#C1C0B3" stroke-opacity="0.08" stroke-width="4" stroke-miterlimit="3.99933" stroke-linecap="round"/>
<path d="M120.575 301.911C120.575 301.911 120.575 301.911 120.575 301.911" stroke="#C1C0B3" stroke-opacity="0.56" stroke-width="4" stroke-miterlimit="3.99933" stroke-linecap="round"/>
<path d="M627.619 236.288C627.619 236.288 627.619 236.288 627.619 236.288" stroke="#C1C0B3" stroke-opacity="0.56" stroke-width="4" stroke-miterlimit="3.99933" stroke-linecap="round"/>
<path d="M599.478 194.75C599.478 194.75 599.478 194.75 599.478 194.75" stroke="#C1C0B3" stroke-opacity="0.24" stroke-width="4" stroke-miterlimit="3.99933" stroke-linecap="round"/>
<path d="M582.801 175.978C582.801 175.978 582.801 175.978 582.801 175.978" stroke="#C1C0B3" stroke-opacity="0.56" stroke-width="4" stroke-miterlimit="3.99933" stroke-linecap="round"/>
<path d="M564.551 158.73C564.551 158.73 564.551 158.73 564.551 158.73" stroke="#C1C0B3" stroke-opacity="0.08" stroke-width="4" stroke-miterlimit="3.99933" stroke-linecap="round"/>
<path d="M523.9 129.323C523.9 129.323 523.9 129.323 523.9 129.323" stroke="#C1C0B3" stroke-opacity="0.08" stroke-width="4" stroke-miterlimit="3.99933" stroke-linecap="round"/>
<path d="M454.93 99.5024C454.93 99.5024 454.93 99.5024 454.93 99.5024" stroke="#C1C0B3" stroke-width="4" stroke-miterlimit="3.99933" stroke-linecap="round"/>
<path d="M430.502 93.6909C430.502 93.6909 430.502 93.6909 430.502 93.6909" stroke="#C1C0B3" stroke-width="4" stroke-miterlimit="3.99933" stroke-linecap="round"/>
<path d="M405.66 90.0303C405.66 90.0303 405.66 90.0303 405.66 90.0303" stroke="#C1C0B3" stroke-width="4" stroke-miterlimit="3.99933" stroke-linecap="round"/>
<path d="M380.594 88.5488C380.594 88.5488 380.594 88.5488 380.594 88.5488" stroke="#C1C0B3" stroke-opacity="0.88" stroke-width="4" stroke-miterlimit="3.99933" stroke-linecap="round"/>
<path d="M355.493 89.2578C355.493 89.2578 355.493 89.2578 355.493 89.2578" stroke="#C1C0B3" stroke-opacity="0.72" stroke-width="4" stroke-miterlimit="3.99933" stroke-linecap="round"/>
<path d="M330.55 92.1514C330.55 92.1514 330.55 92.1514 330.55 92.1514" stroke="#C1C0B3" stroke-opacity="0.88" stroke-width="4" stroke-miterlimit="3.99933" stroke-linecap="round"/>
<path d="M305.954 97.208C305.954 97.208 305.954 97.208 305.954 97.208" stroke="#C1C0B3" stroke-opacity="0.88" stroke-width="4" stroke-miterlimit="3.99933" stroke-linecap="round"/>
<path d="M281.893 104.389C281.893 104.389 281.893 104.389 281.893 104.389" stroke="#C1C0B3" stroke-opacity="0.88" stroke-width="4" stroke-miterlimit="3.99933" stroke-linecap="round"/>
<path d="M258.549 113.64C258.549 113.64 258.549 113.64 258.549 113.64" stroke="#C1C0B3" stroke-opacity="0.56" stroke-width="4" stroke-miterlimit="3.99933" stroke-linecap="round"/>
<path d="M236.1 124.891C236.1 124.891 236.1 124.891 236.1 124.891" stroke="#C1C0B3" stroke-opacity="0.88" stroke-width="4" stroke-miterlimit="3.99933" stroke-linecap="round"/>
<path d="M214.717 138.055C214.717 138.055 214.717 138.055 214.717 138.055" stroke="#C1C0B3" stroke-opacity="0.56" stroke-width="4" stroke-miterlimit="3.99933" stroke-linecap="round"/>
<path d="M194.562 153.032C194.562 153.032 194.562 153.032 194.562 153.032" stroke="#C1C0B3" stroke-opacity="0.72" stroke-width="4" stroke-miterlimit="3.99933" stroke-linecap="round"/>
<path d="M175.79 169.709C175.79 169.709 175.79 169.709 175.79 169.709" stroke="#C1C0B3" stroke-opacity="0.4" stroke-width="4" stroke-miterlimit="3.99933" stroke-linecap="round"/>
<path d="M158.543 187.959C158.543 187.959 158.543 187.959 158.543 187.959" stroke="#C1C0B3" stroke-opacity="0.72" stroke-width="4" stroke-miterlimit="3.99933" stroke-linecap="round"/>
<path d="M142.951 207.643C142.951 207.643 142.951 207.643 142.951 207.643" stroke="#C1C0B3" stroke-opacity="0.72" stroke-width="4" stroke-miterlimit="3.99933" stroke-linecap="round"/>
<path d="M129.135 228.61C129.135 228.61 129.135 228.61 129.135 228.61" stroke="#C1C0B3" stroke-opacity="0.56" stroke-width="4" stroke-miterlimit="3.99933" stroke-linecap="round"/>
<path d="M117.199 250.702C117.199 250.702 117.199 250.702 117.199 250.702" stroke="#C1C0B3" stroke-opacity="0.56" stroke-width="4" stroke-miterlimit="3.99933" stroke-linecap="round"/>
<path d="M107.234 273.75C107.234 273.75 107.234 273.75 107.234 273.75" stroke="#C1C0B3" stroke-opacity="0.72" stroke-width="4" stroke-miterlimit="3.99933" stroke-linecap="round"/>
<path d="M99.3148 297.579C99.3148 297.579 99.3148 297.579 99.3148 297.579" stroke="#C1C0B3" stroke-opacity="0.4" stroke-width="4" stroke-miterlimit="3.99933" stroke-linecap="round"/>
<path d="M655.302 306.142C655.302 306.142 655.302 306.142 655.302 306.142" stroke="#C1C0B3" stroke-opacity="0.24" stroke-width="4" stroke-miterlimit="3.99933" stroke-linecap="round"/>
<path d="M648.12 282.081C648.12 282.081 648.12 282.081 648.12 282.081" stroke="#C1C0B3" stroke-opacity="0.56" stroke-width="4" stroke-miterlimit="3.99933" stroke-linecap="round"/>
<path d="M638.87 258.736C638.87 258.736 638.87 258.736 638.87 258.736" stroke="#C1C0B3" stroke-opacity="0.56" stroke-width="4" stroke-miterlimit="3.99933" stroke-linecap="round"/>
<path d="M573.861 138.269C573.861 138.269 573.861 138.269 573.861 138.269" stroke="#C1C0B3" stroke-opacity="0.4" stroke-width="4" stroke-miterlimit="3.99933" stroke-linecap="round"/>
<path d="M551.392 121.277C551.392 121.277 551.392 121.277 551.392 121.277" stroke="#C1C0B3" stroke-opacity="0.56" stroke-width="4" stroke-miterlimit="3.99933" stroke-linecap="round"/>
<path d="M502.296 93.7583C502.296 93.7583 502.296 93.7583 502.296 93.7583" stroke="#C1C0B3" stroke-opacity="0.24" stroke-width="4" stroke-miterlimit="3.99933" stroke-linecap="round"/>
<path d="M476.076 83.459C476.076 83.459 476.076 83.459 476.076 83.459" stroke="#C1C0B3" stroke-opacity="0.24" stroke-width="4" stroke-miterlimit="3.99933" stroke-linecap="round"/>
<path d="M449.028 75.5869C449.028 75.5869 449.028 75.5869 449.028 75.5869" stroke="#C1C0B3" stroke-opacity="0.24" stroke-width="4" stroke-miterlimit="3.99933" stroke-linecap="round"/>
<path d="M393.35 67.3633C393.35 67.3633 393.35 67.3633 393.35 67.3633" stroke="#C1C0B3" stroke-opacity="0.4" stroke-width="4" stroke-miterlimit="3.99933" stroke-linecap="round"/>
<path d="M365.181 67.0806C365.181 67.0806 365.181 67.0806 365.181 67.0806" stroke="#C1C0B3" stroke-opacity="0.24" stroke-width="4" stroke-miterlimit="3.99933" stroke-linecap="round"/>
<path d="M337.104 69.3604C337.104 69.3604 337.104 69.3604 337.104 69.3604" stroke="#C1C0B3" stroke-width="4" stroke-miterlimit="3.99933" stroke-linecap="round"/>
<path d="M309.349 74.1841C309.349 74.1841 309.349 74.1841 309.349 74.1841" stroke="#C1C0B3" stroke-opacity="0.72" stroke-width="4" stroke-miterlimit="3.99933" stroke-linecap="round"/>
<path d="M282.149 81.5112C282.149 81.5112 282.149 81.5112 282.149 81.5112" stroke="#C1C0B3" stroke-opacity="0.56" stroke-width="4" stroke-miterlimit="3.99933" stroke-linecap="round"/>
<path d="M255.728 91.2817C255.728 91.2817 255.728 91.2817 255.728 91.2817" stroke="#C1C0B3" stroke-width="4" stroke-miterlimit="3.99933" stroke-linecap="round"/>
<path d="M230.304 103.415C230.304 103.415 230.304 103.415 230.304 103.415" stroke="#C1C0B3" stroke-opacity="0.88" stroke-width="4" stroke-miterlimit="3.99933" stroke-linecap="round"/>
<path d="M206.089 117.809C206.089 117.809 206.089 117.809 206.089 117.809" stroke="#C1C0B3" stroke-width="4" stroke-miterlimit="3.99933" stroke-linecap="round"/>
<path d="M183.283 134.346C183.283 134.346 183.283 134.346 183.283 134.346" stroke="#C1C0B3" stroke-width="4" stroke-miterlimit="3.99933" stroke-linecap="round"/>
<path d="M162.076 152.888C162.076 152.888 162.076 152.888 162.076 152.888" stroke="#C1C0B3" stroke-width="4" stroke-miterlimit="3.99933" stroke-linecap="round"/>
<path d="M142.642 173.281C142.642 173.281 142.642 173.281 142.642 173.281" stroke="#C1C0B3" stroke-opacity="0.88" stroke-width="4" stroke-miterlimit="3.99933" stroke-linecap="round"/>
<path d="M125.144 195.357C125.144 195.357 125.144 195.357 125.144 195.357" stroke="#C1C0B3" stroke-opacity="0.4" stroke-width="4" stroke-miterlimit="3.99933" stroke-linecap="round"/>
<path d="M109.726 218.934C109.726 218.934 109.726 218.934 109.726 218.934" stroke="#C1C0B3" stroke-opacity="0.56" stroke-width="4" stroke-miterlimit="3.99933" stroke-linecap="round"/>
<path d="M96.5149 243.814C96.5149 243.814 96.5149 243.814 96.5149 243.814" stroke="#C1C0B3" stroke-opacity="0.88" stroke-width="4" stroke-miterlimit="3.99933" stroke-linecap="round"/>
<path d="M85.6216 269.792C85.6216 269.792 85.6216 269.792 85.6216 269.792" stroke="#C1C0B3" stroke-opacity="0.56" stroke-width="4" stroke-miterlimit="3.99933" stroke-linecap="round"/>
<path d="M77.1355 296.654C77.1355 296.654 77.1355 296.654 77.1355 296.654" stroke="#C1C0B3" stroke-opacity="0.08" stroke-width="4" stroke-miterlimit="3.99933" stroke-linecap="round"/>
<path d="M676.727 302.676C676.727 302.676 676.727 302.676 676.727 302.676" stroke="#C1C0B3" stroke-opacity="0.4" stroke-width="4" stroke-miterlimit="3.99933" stroke-linecap="round"/>
<path d="M668.782 275.65C668.782 275.65 668.782 275.65 668.782 275.65" stroke="#C1C0B3" stroke-opacity="0.72" stroke-width="4" stroke-miterlimit="3.99933" stroke-linecap="round"/>
<path d="M645.705 224.317C645.705 224.317 645.705 224.317 645.705 224.317" stroke="#C1C0B3" stroke-opacity="0.08" stroke-width="4" stroke-miterlimit="3.99933" stroke-linecap="round"/>
<path d="M630.763 200.436C630.763 200.436 630.763 200.436 630.763 200.436" stroke="#C1C0B3" stroke-opacity="0.24" stroke-width="4" stroke-miterlimit="3.99933" stroke-linecap="round"/>
<path d="M613.711 178.012C613.711 178.012 613.711 178.012 613.711 178.012" stroke="#C1C0B3" stroke-opacity="0.4" stroke-width="4" stroke-miterlimit="3.99933" stroke-linecap="round"/>
<path d="M594.691 157.232C594.691 157.232 594.691 157.232 594.691 157.232" stroke="#C1C0B3" stroke-opacity="0.56" stroke-width="4" stroke-miterlimit="3.99933" stroke-linecap="round"/>
<path d="M481.38 62.4204C481.38 62.4204 481.38 62.4204 481.38 62.4204" stroke="#C1C0B3" stroke-opacity="0.24" stroke-width="4" stroke-miterlimit="3.99933" stroke-linecap="round"/>
<path d="M441.204 51.7085C441.204 51.7085 441.204 51.7085 441.204 51.7085" stroke="#C1C0B3" stroke-opacity="0.56" stroke-width="4" stroke-miterlimit="3.99933" stroke-linecap="round"/>
<path d="M400.003 46.1162C400.003 46.1162 400.003 46.1162 400.003 46.1162" stroke="#C1C0B3" stroke-opacity="0.56" stroke-width="4" stroke-miterlimit="3.99933" stroke-linecap="round"/>
<path d="M317.128 50.562C317.128 50.562 317.128 50.562 317.128 50.562" stroke="#C1C0B3" stroke-opacity="0.08" stroke-width="4" stroke-miterlimit="3.99933" stroke-linecap="round"/>
<path d="M276.762 60.5293C276.762 60.5293 276.762 60.5293 276.762 60.5293" stroke="#C1C0B3" stroke-opacity="0.56" stroke-width="4" stroke-miterlimit="3.99933" stroke-linecap="round"/>
<path d="M201.344 95.1709C201.344 95.1709 201.344 95.1709 201.344 95.1709" stroke="#C1C0B3" stroke-opacity="0.88" stroke-width="4" stroke-miterlimit="3.99933" stroke-linecap="round"/>
<path d="M167.481 119.299C167.481 119.299 167.481 119.299 167.481 119.299" stroke="#C1C0B3" stroke-width="4" stroke-miterlimit="3.99933" stroke-linecap="round"/>
<path d="M136.91 147.48C136.91 147.48 136.91 147.48 136.91 147.48" stroke="#C1C0B3" stroke-width="4" stroke-miterlimit="3.99933" stroke-linecap="round"/>
<path d="M110.111 179.271C110.111 179.271 110.111 179.271 110.111 179.271" stroke="#C1C0B3" stroke-opacity="0.4" stroke-width="4" stroke-miterlimit="3.99933" stroke-linecap="round"/>
<path d="M87.5088 214.17C87.5088 214.17 87.5088 214.17 87.5088 214.17" stroke="#C1C0B3" stroke-opacity="0.56" stroke-width="4" stroke-miterlimit="3.99933" stroke-linecap="round"/>
<path d="M69.4585 251.626C69.4585 251.626 69.4585 251.626 69.4585 251.626" stroke="#C1C0B3" stroke-opacity="0.4" stroke-width="4" stroke-miterlimit="3.99933" stroke-linecap="round"/>
<path d="M56.2451 291.05C56.2451 291.05 56.2451 291.05 56.2451 291.05" stroke="#C1C0B3" stroke-opacity="0.72" stroke-width="4" stroke-miterlimit="3.99933" stroke-linecap="round"/>
<path d="M697.599 296.976C697.599 296.976 697.599 296.976 697.599 296.976" stroke="#C1C0B3" stroke-opacity="0.56" stroke-width="4" stroke-miterlimit="3.99933" stroke-linecap="round"/>
<path d="M685.116 257.315C685.116 257.315 685.116 257.315 685.116 257.315" stroke="#C1C0B3" stroke-opacity="0.56" stroke-width="4" stroke-miterlimit="3.99933" stroke-linecap="round"/>
<path d="M667.761 219.532C667.761 219.532 667.761 219.532 667.761 219.532" stroke="#C1C0B3" stroke-opacity="0.24" stroke-width="4" stroke-miterlimit="3.99933" stroke-linecap="round"/>
<path d="M645.807 184.221C645.807 184.221 645.807 184.221 645.807 184.221" stroke="#C1C0B3" stroke-opacity="0.88" stroke-width="4" stroke-miterlimit="3.99933" stroke-linecap="round"/>
<path d="M619.601 151.94C619.601 151.94 619.601 151.94 619.601 151.94" stroke="#C1C0B3" stroke-opacity="0.24" stroke-width="4" stroke-miterlimit="3.99933" stroke-linecap="round"/>
<path d="M589.555 123.199C589.555 123.199 589.555 123.199 589.555 123.199" stroke="#C1C0B3" stroke-opacity="0.4" stroke-width="4" stroke-miterlimit="3.99933" stroke-linecap="round"/>
<path d="M556.145 98.4497C556.145 98.4497 556.145 98.4497 556.145 98.4497" stroke="#C1C0B3" stroke-opacity="0.08" stroke-width="4" stroke-miterlimit="3.99933" stroke-linecap="round"/>
<path d="M519.896 78.083C519.896 78.083 519.896 78.083 519.896 78.083" stroke="#C1C0B3" stroke-opacity="0.56" stroke-width="4" stroke-miterlimit="3.99933" stroke-linecap="round"/>
<path d="M359.871 24.0034C359.871 24.0034 359.871 24.0034 359.871 24.0034" stroke="#C1C0B3" stroke-opacity="0.4" stroke-width="4" stroke-miterlimit="3.99933" stroke-linecap="round"/>
<path d="M333.894 26.1689C333.894 26.1689 333.894 26.1689 333.894 26.1689" stroke="#C1C0B3" stroke-opacity="0.24" stroke-width="4" stroke-miterlimit="3.99933" stroke-linecap="round"/>
<path d="M308.148 30.2466C308.148 30.2466 308.148 30.2466 308.148 30.2466" stroke="#C1C0B3" stroke-opacity="0.24" stroke-width="4" stroke-miterlimit="3.99933" stroke-linecap="round"/>
<path d="M282.773 36.2148C282.773 36.2148 282.773 36.2148 282.773 36.2148" stroke="#C1C0B3" stroke-opacity="0.24" stroke-width="4" stroke-miterlimit="3.99933" stroke-linecap="round"/>
<path d="M187.714 78.1875C187.714 78.1875 187.714 78.1875 187.714 78.1875" stroke="#C1C0B3" stroke-opacity="0.4" stroke-width="4" stroke-miterlimit="3.99933" stroke-linecap="round"/>
<path d="M145.85 109.198C145.85 109.198 145.85 109.198 145.85 109.198" stroke="#C1C0B3" stroke-opacity="0.08" stroke-width="4" stroke-miterlimit="3.99933" stroke-linecap="round"/>
<path d="M109.011 146.038C109.011 146.038 109.011 146.038 109.011 146.038" stroke="#C1C0B3" stroke-width="4" stroke-miterlimit="3.99933" stroke-linecap="round"/>
<path d="M92.7312 166.396C92.7312 166.396 92.7312 166.396 92.7312 166.396" stroke="#C1C0B3" stroke-width="4" stroke-miterlimit="3.99933" stroke-linecap="round"/>
<path d="M77.9998 187.902C77.9998 187.902 77.9998 187.902 77.9998 187.902" stroke="#C1C0B3" stroke-opacity="0.72" stroke-width="4" stroke-miterlimit="3.99933" stroke-linecap="round"/>
<path d="M64.8967 210.437C64.8967 210.437 64.8967 210.437 64.8967 210.437" stroke="#C1C0B3" stroke-width="4" stroke-miterlimit="3.99933" stroke-linecap="round"/>
<path d="M53.4937 233.877C53.4937 233.877 53.4937 233.877 53.4937 233.877" stroke="#C1C0B3" stroke-width="4" stroke-miterlimit="3.99933" stroke-linecap="round"/>
<path d="M43.8528 258.096C43.8528 258.096 43.8528 258.096 43.8528 258.096" stroke="#C1C0B3" stroke-opacity="0.88" stroke-width="4" stroke-miterlimit="3.99933" stroke-linecap="round"/>
<path d="M36.0271 282.96C36.0271 282.96 36.0271 282.96 36.0271 282.96" stroke="#C1C0B3" stroke-opacity="0.88" stroke-width="4" stroke-miterlimit="3.99933" stroke-linecap="round"/>
<path d="M720.947 301.952C720.947 301.952 720.947 301.952 720.947 301.952" stroke="#C1C0B3" stroke-opacity="0.4" stroke-width="4" stroke-miterlimit="3.99933" stroke-linecap="round"/>
<path d="M714.511 276.691C714.511 276.691 714.511 276.691 714.511 276.691" stroke="#C1C0B3" stroke-opacity="0.4" stroke-width="4" stroke-miterlimit="3.99933" stroke-linecap="round"/>
<path d="M706.227 251.976C706.227 251.976 706.227 251.976 706.227 251.976" stroke="#C1C0B3" stroke-opacity="0.72" stroke-width="4" stroke-miterlimit="3.99933" stroke-linecap="round"/>
<path d="M696.141 227.939C696.141 227.939 696.141 227.939 696.141 227.939" stroke="#C1C0B3" stroke-opacity="0.72" stroke-width="4" stroke-miterlimit="3.99933" stroke-linecap="round"/>
<path d="M684.306 204.713C684.306 204.713 684.306 204.713 684.306 204.713" stroke="#C1C0B3" stroke-opacity="0.72" stroke-width="4" stroke-miterlimit="3.99933" stroke-linecap="round"/>
<path d="M670.789 182.424C670.789 182.424 670.789 182.424 670.789 182.424" stroke="#C1C0B3" stroke-opacity="0.56" stroke-width="4" stroke-miterlimit="3.99933" stroke-linecap="round"/>
<path d="M655.663 161.195C655.663 161.195 655.663 161.195 655.663 161.195" stroke="#C1C0B3" stroke-opacity="0.56" stroke-width="4" stroke-miterlimit="3.99933" stroke-linecap="round"/>
<path d="M639.01 141.141C639.01 141.141 639.01 141.141 639.01 141.141" stroke="#C1C0B3" stroke-opacity="0.24" stroke-width="4" stroke-miterlimit="3.99933" stroke-linecap="round"/>
<path d="M620.921 122.371C620.921 122.371 620.921 122.371 620.921 122.371" stroke="#C1C0B3" stroke-opacity="0.08" stroke-width="4" stroke-miterlimit="3.99933" stroke-linecap="round"/>
<path d="M601.496 104.988C601.496 104.988 601.496 104.988 601.496 104.988" stroke="#C1C0B3" stroke-opacity="0.4" stroke-width="4" stroke-miterlimit="3.99933" stroke-linecap="round"/>
<path d="M580.84 89.0874C580.84 89.0874 580.84 89.0874 580.84 89.0874" stroke="#C1C0B3" stroke-opacity="0.56" stroke-width="4" stroke-miterlimit="3.99933" stroke-linecap="round"/>
<path d="M559.066 74.7559C559.066 74.7559 559.066 74.7559 559.066 74.7559" stroke="#C1C0B3" stroke-opacity="0.24" stroke-width="4" stroke-miterlimit="3.99933" stroke-linecap="round"/>
<path d="M536.293 62.0713C536.293 62.0713 536.293 62.0713 536.293 62.0713" stroke="#C1C0B3" stroke-opacity="0.24" stroke-width="4" stroke-miterlimit="3.99933" stroke-linecap="round"/>
<path d="M512.646 51.1035C512.646 51.1035 512.646 51.1035 512.646 51.1035" stroke="#C1C0B3" stroke-opacity="0.24" stroke-width="4" stroke-miterlimit="3.99933" stroke-linecap="round"/>
<path d="M488.253 41.9121C488.253 41.9121 488.253 41.9121 488.253 41.9121" stroke="#C1C0B3" stroke-opacity="0.72" stroke-width="4" stroke-miterlimit="3.99933" stroke-linecap="round"/>
<path d="M463.248 34.5469C463.248 34.5469 463.248 34.5469 463.248 34.5469" stroke="#C1C0B3" stroke-opacity="0.24" stroke-width="4" stroke-miterlimit="3.99933" stroke-linecap="round"/>
<path d="M437.767 29.0488C437.767 29.0488 437.767 29.0488 437.767 29.0488" stroke="#C1C0B3" stroke-opacity="0.4" stroke-width="4" stroke-miterlimit="3.99933" stroke-linecap="round"/>
<path d="M411.95 25.4478C411.95 25.4478 411.95 25.4478 411.95 25.4478" stroke="#C1C0B3" stroke-opacity="0.72" stroke-width="4" stroke-miterlimit="3.99933" stroke-linecap="round"/>
<path d="M385.937 23.7627C385.937 23.7627 385.937 23.7627 385.937 23.7627" stroke="#C1C0B3" stroke-opacity="0.4" stroke-width="4" stroke-miterlimit="3.99933" stroke-linecap="round"/>
<path d="M201.433 45.2773C201.433 45.2773 201.433 45.2773 201.433 45.2773" stroke="#C1C0B3" stroke-opacity="0.24" stroke-width="4" stroke-miterlimit="3.99933" stroke-linecap="round"/>
<path d="M178.764 58.272C178.764 58.272 178.764 58.272 178.764 58.272" stroke="#C1C0B3" stroke-opacity="0.24" stroke-width="4" stroke-miterlimit="3.99933" stroke-linecap="round"/>
<path d="M157.057 72.8164C157.057 72.8164 157.057 72.8164 157.057 72.8164" stroke="#C1C0B3" stroke-opacity="0.56" stroke-width="4" stroke-miterlimit="3.99933" stroke-linecap="round"/>
<path d="M136.417 88.8398C136.417 88.8398 136.417 88.8398 136.417 88.8398" stroke="#C1C0B3" stroke-opacity="0.56" stroke-width="4" stroke-miterlimit="3.99933" stroke-linecap="round"/>
<path d="M116.946 106.264C116.946 106.264 116.946 106.264 116.946 106.264" stroke="#C1C0B3" stroke-opacity="0.4" stroke-width="4" stroke-miterlimit="3.99933" stroke-linecap="round"/>
<path d="M66.4565 166.06C66.4565 166.06 66.4565 166.06 66.4565 166.06" stroke="#C1C0B3" stroke-opacity="0.4" stroke-width="4" stroke-miterlimit="3.99933" stroke-linecap="round"/>
<path d="M20.4904 259.572C20.4904 259.572 20.4904 259.572 20.4904 259.572" stroke="#C1C0B3" stroke-width="4" stroke-miterlimit="3.99933" stroke-linecap="round"/>
<path d="M13.2109 284.667C13.2109 284.667 13.2109 284.667 13.2109 284.667" stroke="#C1C0B3" stroke-opacity="0.88" stroke-width="4" stroke-miterlimit="3.99933" stroke-linecap="round"/>
<path d="M739.669 286.904C739.669 286.904 739.669 286.904 739.669 286.904" stroke="#C1C0B3" stroke-opacity="0.56" stroke-width="4" stroke-miterlimit="3.99933" stroke-linecap="round"/>
<path d="M732.544 261.765C732.544 261.765 732.544 261.765 732.544 261.765" stroke="#C1C0B3" stroke-opacity="0.4" stroke-width="4" stroke-miterlimit="3.99933" stroke-linecap="round"/>
<path d="M723.683 237.185C723.683 237.185 723.683 237.185 723.683 237.185" stroke="#C1C0B3" stroke-opacity="0.88" stroke-width="4" stroke-miterlimit="3.99933" stroke-linecap="round"/>
<path d="M713.129 213.281C713.129 213.281 713.129 213.281 713.129 213.281" stroke="#C1C0B3" stroke-width="4" stroke-miterlimit="3.99933" stroke-linecap="round"/>
<path d="M700.933 190.173C700.933 190.173 700.933 190.173 700.933 190.173" stroke="#C1C0B3" stroke-opacity="0.72" stroke-width="4" stroke-miterlimit="3.99933" stroke-linecap="round"/>
<path d="M687.155 167.972C687.155 167.972 687.155 167.972 687.155 167.972" stroke="#C1C0B3" stroke-opacity="0.4" stroke-width="4" stroke-miterlimit="3.99933" stroke-linecap="round"/>
<path d="M671.862 146.785C671.862 146.785 671.862 146.785 671.862 146.785" stroke="#C1C0B3" stroke-opacity="0.72" stroke-width="4" stroke-miterlimit="3.99933" stroke-linecap="round"/>
<path d="M655.128 126.717C655.128 126.717 655.128 126.717 655.128 126.717" stroke="#C1C0B3" stroke-opacity="0.88" stroke-width="4" stroke-miterlimit="3.99933" stroke-linecap="round"/>
<path d="M637.035 107.866C637.035 107.866 637.035 107.866 637.035 107.866" stroke="#C1C0B3" stroke-opacity="0.4" stroke-width="4" stroke-miterlimit="3.99933" stroke-linecap="round"/>
<path d="M617.671 90.3223C617.671 90.3223 617.671 90.3223 617.671 90.3223" stroke="#C1C0B3" stroke-opacity="0.24" stroke-width="4" stroke-miterlimit="3.99933" stroke-linecap="round"/>
<path d="M597.131 74.1719C597.131 74.1719 597.131 74.1719 597.131 74.1719" stroke="#C1C0B3" stroke-opacity="0.24" stroke-width="4" stroke-miterlimit="3.99933" stroke-linecap="round"/>
<path d="M575.514 59.4941C575.514 59.4941 575.514 59.4941 575.514 59.4941" stroke="#C1C0B3" stroke-opacity="0.56" stroke-width="4" stroke-miterlimit="3.99933" stroke-linecap="round"/>
<path d="M552.925 46.3599C552.925 46.3599 552.925 46.3599 552.925 46.3599" stroke="#C1C0B3" stroke-opacity="0.72" stroke-width="4" stroke-miterlimit="3.99933" stroke-linecap="round"/>
<path d="M529.476 34.833C529.476 34.833 529.476 34.833 529.476 34.833" stroke="#C1C0B3" stroke-opacity="0.08" stroke-width="4" stroke-miterlimit="3.99933" stroke-linecap="round"/>
<path d="M505.279 24.9702C505.279 24.9702 505.279 24.9702 505.279 24.9702" stroke="#C1C0B3" stroke-opacity="0.72" stroke-width="4" stroke-miterlimit="3.99933" stroke-linecap="round"/>
<path d="M480.454 16.8193C480.454 16.8193 480.454 16.8193 480.454 16.8193" stroke="#C1C0B3" stroke-opacity="0.4" stroke-width="4" stroke-miterlimit="3.99933" stroke-linecap="round"/>
<path d="M455.12 10.4199C455.12 10.4199 455.12 10.4199 455.12 10.4199" stroke="#C1C0B3" stroke-opacity="0.24" stroke-width="4" stroke-miterlimit="3.99933" stroke-linecap="round"/>
<path d="M429.402 5.80371C429.402 5.80371 429.402 5.80371 429.402 5.80371" stroke="#C1C0B3" stroke-opacity="0.56" stroke-width="4" stroke-miterlimit="3.99933" stroke-linecap="round"/>
<path d="M403.425 2.99219C403.425 2.99219 403.425 2.99219 403.425 2.99219" stroke="#C1C0B3" stroke-opacity="0.72" stroke-width="4" stroke-miterlimit="3.99933" stroke-linecap="round"/>
<path d="M377.314 2C377.314 2 377.314 2 377.314 2" stroke="#C1C0B3" stroke-opacity="0.24" stroke-width="4" stroke-miterlimit="3.99933" stroke-linecap="round"/>
<path d="M325.204 5.48291C325.204 5.48291 325.204 5.48291 325.204 5.48291" stroke="#C1C0B3" stroke-opacity="0.08" stroke-width="4" stroke-miterlimit="3.99933" stroke-linecap="round"/>
<path d="M299.457 9.94092C299.457 9.94092 299.457 9.94092 299.457 9.94092" stroke="#C1C0B3" stroke-opacity="0.24" stroke-width="4" stroke-miterlimit="3.99933" stroke-linecap="round"/>
<path d="M274.085 16.1836C274.085 16.1836 274.085 16.1836 274.085 16.1836" stroke="#C1C0B3" stroke-opacity="0.08" stroke-width="4" stroke-miterlimit="3.99933" stroke-linecap="round"/>
</svg>
